<svg xmlns="http://www.w3.org/2000/svg" viewBox="0 0 5866.1 308.3"><title>Asset 6</title><g id="Layer_2" data-name="Layer 2"><g id="Layer_1-2" data-name="Layer 1"><text transform="translate(0 243.4)" style="font-size:281.8736267089844px;fill:#e8e8e8;font-family:Tahoma, Tahoma"><tspan style="letter-spacing:-0.02294911402505404em">P</tspan><tspan x="148.9" y="0" style="letter-spacing:0.0000017322700803935718em">owe</tspan><tspan x="659.5" y="0" style="letter-spacing:-0.0048832693566294785em">r</tspan><tspan x="759.7" y="0">ed </tspan><tspan x="1152" y="0" style="letter-spacing:-0.0019522683806035555em">b</tspan><tspan x="1307.2" y="0" style="letter-spacing:-0.0000034645401607871435em">y</tspan></text><text transform="translate(2885.1 243.8)" style="font-size:281.8736267089844px;fill:#fff;font-family:Tahoma, Tahoma">OneDevOps™ | <tspan x="1996.8" y="0" style="letter-spacing:-0.004881537086549086em">I</tspan><tspan x="2100.6" y="0" style="letter-spacing:-0.0000034645401607871435em">nsights</tspan></text><path d="M2286.4,202.2l76.8-75.1h-75.7V91.8h129.4v35.9l-76.8,74.8h78.3v35.3h-132Z" style="fill:#fff"/><rect x="2231.8" y="43.8" width="40" height="36.34" style="fill:#fff"/><rect x="2231.2" y="92.3" width="40" height="146.06" style="fill:#fff"/><path d="M1747.2,164.9a75.7,75.7,0,1,1,75.7,76A75.6,75.6,0,0,1,1747.2,164.9Zm112.5,0c0-20.7-16.4-38-36.8-38s-36.5,17.2-36.5,38,15.8,38,36.5,38S1859.7,185.6,1859.7,164.9Z" style="fill:#fff"/><path d="M2079.1,91.8h39.7v16.4c9.3-12,23.7-19.3,40.3-19.3,34.5,0,55.2,22.2,55.2,59.9v89.1h-40.6V154c0-19.6-9.1-31-26.9-31-15.2,0-27.8,10.5-27.8,35v79.7h-40Z" style="fill:#fff"/><path d="M2420.7,164.9c0-51.7,38-76,71-76,19,0,33.9,7,43.5,17.2V91.8h40V237.9h-40V221.5c-9.6,11.4-25.1,19.3-44.1,19.3C2460.1,240.8,2420.7,216.3,2420.7,164.9Zm115.7-.3c0-21.6-15.8-39.1-37.4-39.1s-39.1,16.7-39.1,39.1S2476.8,204,2499,204,2536.4,186.2,2536.4,164.6Z" style="fill:#fff"/><path d="M2591.4,91.8h39.7v16.4c9.3-12,23.7-19.3,40.3-19.3,34.5,0,55.2,22.2,55.2,59.9v89.1H2686V154c0-19.6-9.1-31-26.9-31-15.2,0-27.8,10.5-27.8,35v79.7h-40Z" style="fill:#fff"/><path d="M2286.4,237.9V202.2l76.8-75.1h-75.7V91.8h129.4v35.9l-76.8,74.8" style="fill:#fff"/><path d="M1704.5,163.6l-.5,1.2c-11.1,23.3-31.4,36.7-55.8,36.7-35.4,0-63-27.9-63-63.6s27.5-64.1,63.9-64.1c23.6,0,41.5,11.1,53.3,32.9l.6,1.2,35.6-22.8-.6-1c-18.5-31.5-51.8-50.3-89-50.3-59.4,0-104.2,44.8-104.2,104.2S1588.6,242,1649,242c38.9,0,73.3-21.6,92-57.8l.6-1.1Z" style="fill:#fff"/><path d="M1908.6,164.9c0-51.7,38-76,71-76,19,0,33.9,7.9,43.5,18.7V91.8h40v142c0,41.2-26,74.5-75.4,74.5-37.1,0-64.3-19.3-75.9-42.1l35.3-19.9c7.6,15.2,21,24.8,40.6,24.8,21.6,0,35.3-16.9,35.3-35.9V221.5c-9.6,11.4-25.1,19.3-44.1,19.3C1948,240.8,1908.6,216.3,1908.6,164.9Zm115.7-.3c0-21.6-15.8-39.1-37.4-39.1s-39.1,16.7-39.1,39.1,16.9,39.4,39.1,39.4S2024.3,186.2,2024.3,164.6Z" style="fill:#fff"/><path d="M2825.2,127.8V91.8h-27.5V43.6h-40V91.8h-24.8v35.9h24.8v46.7c0,47.6,15.2,63.4,61.6,63.4h5.8V200.5c-24.5,0-27.5-3.5-27.5-26.3V127.8Z" style="fill:#fff"/><path d="M2833.6,61.1a10.2,10.2,0,0,1-17.4-7.3,10.2,10.2,0,1,1,17.4,7.3Zm-13.4-13.5a8.5,8.5,0,0,0-2.6,6.2,8.6,8.6,0,0,0,2.5,6.3,8.8,8.8,0,0,0,12.4,0,8.9,8.9,0,0,0,0-12.5,8.8,8.8,0,0,0-12.4,0Zm6,.6a8.6,8.6,0,0,1,3.1.4,2.8,2.8,0,0,1,1.7,2.8,2.5,2.5,0,0,1-1.1,2.2,4.3,4.3,0,0,1-1.6.5,2.7,2.7,0,0,1,1.9,1.1,3.1,3.1,0,0,1,.6,1.7v.8q0,.4,0,.8a1.8,1.8,0,0,0,.1.6h-1.8V57.9a2.7,2.7,0,0,0-1.1-2.6,4.8,4.8,0,0,0-2.2-.4h-1.6v4.4h-2V48.2Zm2.1,1.8a5.1,5.1,0,0,0-2.4-.4h-1.7v4.1h1.8a5.4,5.4,0,0,0,1.9-.3,2,2,0,0,0,.4-3.4Z" style="fill:#fff"/></g></g></svg>