<svg id="Layer_1" data-name="Layer 1" xmlns="http://www.w3.org/2000/svg" xmlns:xlink="http://www.w3.org/1999/xlink" viewBox="0 0 65.02 49"><defs><style>.cls-1{fill:none;}.cls-2{fill:url(#linear-gradient);}.cls-3{fill:url(#linear-gradient-2);}.cls-4{fill:url(#linear-gradient-3);}.cls-5{fill:url(#linear-gradient-4);}.cls-6{fill:url(#linear-gradient-5);}.cls-7{fill:#0782a3;}</style><linearGradient id="linear-gradient" x1="8.5" y1="30.58" x2="8.5" y2="58" gradientUnits="userSpaceOnUse"><stop offset="0" stop-color="#0782a3"/><stop offset="1" stop-color="#65bc34"/></linearGradient><linearGradient id="linear-gradient-2" x1="20.52" y1="18.41" x2="20.52" y2="49" xlink:href="#linear-gradient"/><linearGradient id="linear-gradient-3" x1="32.52" y1="26.51" x2="32.52" y2="49" xlink:href="#linear-gradient"/><linearGradient id="linear-gradient-4" x1="44.52" y1="19.7" x2="44.52" y2="49" xlink:href="#linear-gradient"/><linearGradient id="linear-gradient-5" x1="56.52" y1="8.87" x2="56.52" y2="49" xlink:href="#linear-gradient"/></defs><title>Google Charts</title><polygon class="cls-1" points="31.77 39.33 37.02 34.25 31.73 39.29 31.77 39.33"/><path class="cls-2" d="M4,45V58h9V36L4.58,44.83S5,44.93,4,45Z" transform="translate(-0.98 -9)"/><polygon class="cls-3" points="16.02 24.63 16.02 49 25.02 49 25.02 33.08 24.77 32.84 16.02 24.63"/><polygon class="cls-4" points="31.73 39.29 31.69 39.33 28.02 35.89 28.02 49 37.02 49 37.02 34.25 31.77 39.33 31.73 39.29"/><polygon class="cls-5" points="40.02 31.39 40.02 49 49.02 49 49.02 22.82 40.11 31.32 40.02 31.39"/><polygon class="cls-6" points="52.02 19.96 52.02 49 61.02 49 61.02 14.6 59.61 12.73 52.36 19.64 52.02 19.96"/><path class="cls-7" d="M50.83,9l5.69,5.79,0,0L56.3,15l-1,1-1.93,1.81-8.42,7.89L44.56,26l-2.82,2.64-0.66.62L37.8,32.33l-5.43,5.08-3.54-3.27-3.08-2.85-7.53-7-1.8-1.67L11.76,27.5,4.33,35.21,1,38.67C0.72,42.24,3.12,42.23,4.33,42A4.72,4.72,0,0,0,5,41.83L13.5,33l2.83-3,0.25,0.23L17,30.63l8.75,8.21L26,39.07l2.83,2.66L29,41.89l3.67,3.44,0,0,5.29-5,3-2.86,0.08-.08L50,28.82l0.25-.24L53,26l0.33-.32,7.26-6.91,0.24-.23,1.67,2.1L66,25V9H50.83Z" transform="translate(-0.98 -9)"/></svg>