<svg xmlns="http://www.w3.org/2000/svg" width="19.987" height="19.987" viewBox="0 0 19.987 19.987">
  <path id="noun-chart-4459951_1_" data-name="noun-chart-4459951 (1)" d="M151.1,87.211V72.776a1.11,1.11,0,0,0-2.221,0V87.211a1.11,1.11,0,1,0,2.221,0ZM149.993,70a2.776,2.776,0,0,0-2.776,2.776V87.211a2.776,2.776,0,1,0,5.552,0V72.776A2.776,2.776,0,0,0,149.993,70Zm-6.107,17.211V77.772a1.11,1.11,0,0,0-2.221,0v9.438a1.11,1.11,0,0,0,2.221,0ZM142.776,75A2.776,2.776,0,0,0,140,77.773v9.438a2.776,2.776,0,0,0,5.552,0V77.773A2.776,2.776,0,0,0,142.776,75Zm15.545,5v7.218a1.11,1.11,0,0,1-2.221,0V79.993a1.11,1.11,0,0,1,2.221,0Zm-3.886,0a2.776,2.776,0,0,1,5.552,0v7.218a2.776,2.776,0,0,1-5.552,0Z" transform="translate(-140 -70)" fill-rule="evenodd"/>
</svg>
