<svg id="svg" version="1.1" xmlns="http://www.w3.org/2000/svg" xmlns:xlink="http://www.w3.org/1999/xlink" width="400" height="400" viewBox="0, 0, 400,400"><g id="svgg"><path id="path0" d="M80.200 157.810 C 79.320 158.352,78.377 158.797,78.105 158.798 C 76.318 158.805,72.515 163.024,70.711 167.000 L 69.622 169.400 69.613 200.400 L 69.603 231.400 70.703 233.600 C 72.961 238.119,74.975 240.241,78.792 242.122 L 81.383 243.400 113.992 243.400 L 146.600 243.400 148.400 242.389 C 151.465 240.668,154.349 238.394,154.628 237.476 C 154.775 236.994,155.111 236.330,155.375 236.000 C 156.378 234.748,157.190 231.930,156.773 231.150 C 156.386 230.426,155.245 230.400,123.963 230.400 C 84.589 230.400,86.679 230.707,83.790 224.491 C 82.984 222.756,83.072 176.173,83.883 175.672 C 84.148 175.508,84.598 174.821,84.883 174.145 C 85.167 173.469,86.019 172.395,86.776 171.758 L 88.153 170.600 113.279 170.491 C 140.248 170.375,139.102 170.299,141.503 172.358 C 141.999 172.784,142.853 174.093,143.399 175.266 L 144.392 177.400 144.396 195.900 L 144.400 214.400 151.000 214.400 C 157.573 214.400,157.600 214.396,157.616 213.500 C 157.625 213.005,157.618 202.941,157.601 191.136 L 157.569 169.672 156.631 167.336 C 155.098 163.518,153.928 161.755,152.123 160.544 C 151.185 159.915,150.414 159.265,150.409 159.100 C 150.404 158.935,150.175 158.798,149.900 158.796 C 149.625 158.794,148.500 158.350,147.400 157.809 L 145.400 156.825 113.600 156.825 L 81.800 156.825 80.200 157.810 M213.867 171.067 C 213.488 171.445,213.547 175.697,213.939 176.314 C 214.177 176.690,215.898 176.852,220.319 176.914 C 228.708 177.033,227.785 174.522,227.873 197.468 C 227.914 207.939,228.094 216.647,228.273 216.819 C 228.813 217.335,233.919 217.441,234.414 216.946 C 234.731 216.629,234.847 211.047,234.816 197.646 L 234.771 178.792 235.767 177.796 C 236.737 176.826,236.917 176.800,242.555 176.800 C 249.050 176.800,248.673 176.993,248.854 173.584 C 248.907 172.585,248.816 171.550,248.652 171.284 C 248.327 170.758,214.387 170.546,213.867 171.067 M316.746 178.266 C 316.134 179.003,316.471 211.975,317.102 213.078 C 318.921 216.256,320.682 217.006,326.920 217.256 C 330.519 217.401,330.788 217.202,330.788 214.400 C 330.788 211.977,330.513 211.672,328.195 211.526 C 326.298 211.406,326.146 211.308,324.903 209.405 L 323.600 207.409 323.600 199.159 L 323.600 190.909 324.696 189.813 C 325.678 188.831,326.014 188.735,327.917 188.893 C 330.403 189.099,330.800 188.688,330.800 185.906 C 330.800 183.518,330.435 183.276,327.185 183.508 C 323.934 183.741,322.467 182.678,321.670 179.512 L 321.239 177.800 319.185 177.800 C 318.056 177.800,316.958 178.010,316.746 178.266 M291.200 183.483 C 287.978 183.840,282.800 186.607,282.800 187.971 C 282.800 188.343,282.536 188.996,282.213 189.424 C 281.803 189.965,281.625 191.230,281.625 193.600 C 281.625 195.970,281.803 197.235,282.213 197.776 C 282.536 198.204,282.800 198.843,282.800 199.198 C 282.800 199.553,283.440 200.463,284.222 201.222 L 285.644 202.600 292.122 202.800 C 300.754 203.066,302.533 203.860,302.533 207.442 C 302.533 208.973,302.330 209.431,301.167 210.521 L 299.800 211.800 293.574 211.749 C 288.690 211.709,287.078 211.558,286.094 211.049 C 283.442 209.677,282.870 210.313,283.111 214.364 C 283.316 217.807,300.705 218.732,305.262 215.543 C 305.846 215.134,306.476 214.795,306.662 214.789 C 309.897 214.683,311.008 203.810,308.132 200.392 C 306.061 197.931,305.136 197.655,297.978 197.361 C 288.961 196.990,285.989 195.050,288.639 191.266 C 290.389 188.768,300.611 187.218,302.886 189.106 C 303.183 189.352,304.590 189.609,306.013 189.677 L 308.600 189.800 308.600 187.639 C 308.600 185.567,308.542 185.448,307.172 184.737 C 304.791 183.502,296.738 182.870,291.200 183.483 M187.400 184.240 C 186.520 184.573,185.328 184.996,184.751 185.180 C 182.692 185.837,178.400 190.032,178.400 191.387 C 178.400 191.509,177.997 192.462,177.504 193.504 C 175.619 197.493,176.316 206.074,178.843 210.000 C 179.055 210.330,179.442 211.095,179.702 211.700 C 179.962 212.305,180.309 212.800,180.472 212.800 C 180.635 212.800,181.103 213.159,181.512 213.598 C 183.945 216.210,190.043 217.506,196.315 216.744 C 198.232 216.511,199.860 216.263,199.934 216.193 C 200.008 216.123,200.593 216.248,201.234 216.472 L 202.400 216.878 202.400 222.811 C 202.400 230.019,202.391 230.003,206.284 229.698 C 207.778 229.581,209.132 229.286,209.294 229.043 C 209.686 228.452,209.674 185.935,209.281 185.317 C 208.301 183.775,190.896 182.918,187.400 184.240 M255.600 184.450 C 254.390 184.901,253.057 185.373,252.637 185.498 C 252.217 185.624,251.565 186.035,251.187 186.413 C 250.809 186.791,250.343 187.168,250.150 187.250 C 249.643 187.467,248.306 189.472,246.983 192.000 C 244.504 196.736,245.398 206.438,248.690 210.531 C 249.191 211.153,249.600 211.918,249.600 212.231 C 249.600 212.544,249.868 212.800,250.197 212.800 C 250.525 212.800,251.018 213.160,251.293 213.600 C 251.568 214.040,251.974 214.402,252.196 214.404 C 252.418 214.406,253.572 214.860,254.759 215.413 C 258.053 216.946,274.246 217.668,275.381 216.332 C 275.682 215.978,275.856 212.414,275.593 211.989 C 275.373 211.633,273.310 211.522,267.816 211.573 C 258.365 211.660,254.415 210.067,253.738 205.897 C 253.227 202.747,253.025 202.800,265.587 202.800 C 275.887 202.800,276.758 202.746,276.907 202.100 C 277.054 201.456,277.049 200.458,276.864 193.929 C 276.829 192.679,276.567 191.419,276.283 191.129 C 275.999 190.838,275.529 190.021,275.240 189.313 C 273.267 184.487,262.588 181.843,255.600 184.450 M101.054 187.311 C 99.892 188.161,99.111 205.373,99.939 211.883 C 99.972 212.149,100.781 212.824,101.735 213.383 L 103.470 214.400 113.724 214.400 C 125.306 214.400,127.575 213.946,127.620 211.620 C 127.749 204.846,127.614 188.674,127.423 188.072 C 127.286 187.640,126.774 187.179,126.287 187.049 C 124.396 186.542,101.784 186.777,101.054 187.311 M264.370 189.153 C 268.236 190.515,270.977 195.194,269.042 197.130 C 268.276 197.896,258.244 198.325,255.400 197.713 C 253.441 197.292,252.854 192.400,254.762 192.400 C 254.908 192.400,255.338 191.874,255.718 191.231 C 256.161 190.481,256.873 189.962,257.704 189.785 C 258.417 189.632,259.180 189.368,259.400 189.197 C 259.781 188.901,260.922 188.546,261.815 188.446 C 262.044 188.421,263.193 188.739,264.370 189.153 M198.050 189.343 C 202.648 190.097,202.484 189.714,202.451 199.598 C 202.419 209.353,202.471 209.197,198.794 210.602 C 189.422 214.183,182.836 208.239,184.348 197.564 C 184.945 193.351,188.016 189.605,190.876 189.601 C 191.468 189.601,192.064 189.420,192.200 189.200 C 192.521 188.681,194.273 188.723,198.050 189.343 " stroke="none" fill="#f45d2c" fill-rule="evenodd"></path><path id="path1" d="M0.000 200.000 L 0.000 400.000 200.000 400.000 L 400.000 400.000 400.000 200.000 L 400.000 0.000 200.000 0.000 L 0.000 0.000 0.000 200.000 M145.854 155.398 C 146.484 155.726,147.291 155.996,147.646 155.998 C 148.001 155.999,148.721 156.320,149.246 156.711 C 149.771 157.101,150.698 157.673,151.306 157.981 C 152.811 158.744,155.901 161.843,156.669 163.360 C 157.014 164.042,157.540 164.879,157.839 165.221 C 158.931 166.471,159.184 171.658,159.192 192.900 C 159.202 218.979,160.282 216.000,150.816 216.000 C 141.375 216.000,142.400 218.467,142.400 195.743 C 142.400 176.025,142.405 176.080,140.400 173.993 C 137.971 171.464,139.474 171.600,114.058 171.600 C 88.204 171.600,88.959 171.523,86.545 174.392 L 85.400 175.753 85.288 199.288 C 85.160 226.051,85.084 225.267,88.008 227.367 L 90.002 228.800 123.724 228.800 C 151.406 228.800,157.579 228.897,158.186 229.340 C 159.186 230.071,158.835 233.921,157.629 235.454 C 157.173 236.034,156.800 236.721,156.800 236.983 C 156.800 237.563,153.049 241.454,151.260 242.727 C 147.415 245.466,148.728 245.368,114.202 245.495 L 83.004 245.610 80.109 244.554 C 78.516 243.973,77.008 243.251,76.757 242.949 C 76.507 242.647,76.125 242.400,75.908 242.400 C 74.183 242.400,69.627 235.919,68.646 232.068 C 67.671 228.244,67.674 173.005,68.649 168.679 C 69.634 164.309,73.748 158.630,76.564 157.753 C 77.024 157.609,77.490 157.354,77.600 157.186 C 77.710 157.017,78.880 156.427,80.200 155.875 L 82.600 154.870 113.654 154.835 C 140.470 154.805,144.865 154.882,145.854 155.398 M250.036 169.944 C 251.034 171.178,251.127 176.155,250.177 177.511 C 249.580 178.364,249.306 178.400,243.424 178.400 C 237.404 178.400,237.289 178.416,237.052 179.300 C 236.919 179.795,236.808 188.581,236.805 198.824 C 236.799 221.128,237.481 219.002,230.376 218.860 C 225.367 218.760,225.832 220.777,225.600 198.133 L 225.400 178.600 219.302 178.490 C 212.150 178.360,212.127 178.346,211.939 173.984 C 211.844 171.782,211.972 171.163,212.749 170.072 L 213.671 168.776 231.471 168.888 L 249.271 169.000 250.036 169.944 M322.584 177.096 C 323.151 177.708,323.600 178.669,323.600 179.273 C 323.600 180.950,324.901 181.600,328.260 181.600 C 332.226 181.600,332.969 182.457,332.701 186.721 C 332.475 190.324,332.307 190.494,328.706 190.774 L 325.800 191.000 325.692 199.492 C 325.568 209.258,325.674 209.600,328.831 209.600 C 331.694 209.600,332.957 211.314,332.703 214.856 C 332.415 218.877,332.328 218.930,326.159 218.839 C 319.417 218.739,317.672 217.844,315.548 213.400 L 314.401 211.000 314.400 194.674 C 314.400 175.082,314.175 176.017,318.884 176.006 C 321.299 176.001,321.669 176.110,322.584 177.096 M201.200 182.001 C 202.410 182.207,204.794 182.486,206.498 182.622 C 208.613 182.790,209.881 183.099,210.498 183.598 L 211.400 184.329 211.510 206.898 C 211.641 234.011,212.174 231.600,206.047 231.600 C 200.421 231.600,200.630 231.884,200.465 224.033 C 200.391 220.495,200.278 217.600,200.214 217.600 C 200.150 217.600,199.419 217.884,198.588 218.231 C 196.675 219.030,186.773 218.923,186.499 218.100 C 186.408 217.825,185.983 217.600,185.554 217.600 C 182.952 217.600,178.782 213.840,176.760 209.670 L 175.465 207.000 175.466 200.200 C 175.468 193.501,175.485 193.367,176.611 191.200 C 177.984 188.558,179.548 186.400,180.090 186.400 C 180.307 186.400,180.839 185.950,181.271 185.400 C 181.704 184.850,182.242 184.400,182.467 184.400 C 182.692 184.400,183.354 184.064,183.938 183.654 C 184.974 182.926,187.960 182.201,192.400 181.600 C 194.785 181.277,197.739 181.412,201.200 182.001 M302.600 181.643 C 303.480 181.877,305.279 182.286,306.598 182.554 C 309.948 183.233,311.579 188.762,309.271 191.612 L 308.542 192.512 305.971 191.676 C 298.552 189.264,289.396 190.340,290.197 193.531 C 290.569 195.012,290.994 195.183,294.400 195.222 C 302.517 195.316,309.600 197.394,309.600 199.681 C 309.600 199.866,310.067 200.722,310.637 201.584 C 313.624 206.098,310.765 215.340,305.800 217.217 C 305.140 217.467,304.060 217.970,303.400 218.336 C 301.565 219.352,288.702 219.275,285.600 218.230 C 284.390 217.822,283.184 217.433,282.921 217.365 C 281.553 217.012,281.222 210.206,282.511 208.918 C 283.100 208.328,283.327 208.330,285.276 208.934 C 290.931 210.689,300.118 210.190,300.516 208.107 C 301.034 205.394,299.640 204.813,292.600 204.805 C 285.336 204.798,281.367 202.568,280.555 198.037 C 279.940 194.604,279.472 195.260,278.443 201.000 C 277.741 204.908,278.109 204.800,265.556 204.800 C 253.740 204.800,253.992 204.729,256.584 207.321 C 258.850 209.587,259.427 209.689,269.090 209.546 C 278.153 209.411,277.651 209.157,277.502 213.798 L 277.400 216.996 275.800 217.794 C 273.576 218.903,259.561 219.238,257.541 218.231 C 256.846 217.884,255.990 217.596,255.639 217.591 C 253.961 217.568,251.352 215.914,248.297 212.938 C 245.214 209.935,243.734 203.095,244.656 196.104 C 244.940 193.957,245.178 192.003,245.186 191.761 C 245.194 191.520,245.560 190.907,246.000 190.400 C 246.440 189.893,246.800 189.280,246.800 189.039 C 246.801 188.362,250.247 185.015,252.200 183.793 C 254.574 182.308,265.257 180.913,266.525 181.922 C 266.786 182.129,267.844 182.421,268.875 182.570 C 272.900 183.153,277.124 187.755,278.032 192.547 C 278.600 195.548,279.242 195.042,280.173 190.859 C 281.836 183.391,292.565 178.982,302.600 181.643 M126.737 185.600 C 129.418 187.604,129.601 188.526,129.594 199.975 C 129.584 216.573,130.043 216.149,112.336 215.928 L 102.072 215.800 100.578 214.590 C 97.693 212.253,97.600 211.823,97.602 200.806 C 97.606 184.189,97.318 184.461,114.800 184.548 L 125.400 184.600 126.737 185.600 M189.415 191.890 C 187.730 192.832,187.352 193.269,186.918 194.777 C 186.636 195.754,186.225 196.735,186.003 196.957 C 185.503 197.457,185.466 203.070,185.960 203.375 C 186.158 203.497,186.536 204.498,186.800 205.599 C 187.064 206.699,187.435 207.600,187.624 207.600 C 187.814 207.600,188.332 207.990,188.775 208.466 C 190.243 210.041,197.504 209.928,199.737 208.296 C 200.610 207.657,200.868 192.309,200.020 191.459 C 198.946 190.383,191.576 190.682,189.415 191.890 M257.500 191.729 C 256.895 192.225,256.400 192.826,256.400 193.066 C 256.400 193.306,256.130 193.726,255.800 194.000 C 254.655 194.951,255.053 196.336,256.552 196.617 C 259.161 197.107,267.193 196.658,267.615 196.000 C 269.923 192.393,261.192 188.707,257.500 191.729 " stroke="none" fill="#fcfbfb" fill-rule="evenodd"></path><path id="path2" d="M80.200 155.875 C 78.880 156.427,77.710 157.017,77.600 157.186 C 77.490 157.354,77.024 157.609,76.564 157.753 C 73.748 158.630,69.634 164.309,68.649 168.679 C 67.674 173.005,67.671 228.244,68.646 232.068 C 69.627 235.919,74.183 242.400,75.908 242.400 C 76.125 242.400,76.507 242.647,76.757 242.949 C 77.008 243.251,78.516 243.973,80.109 244.554 L 83.004 245.610 114.202 245.495 C 148.728 245.368,147.415 245.466,151.260 242.727 C 153.049 241.454,156.800 237.563,156.800 236.983 C 156.800 236.721,157.173 236.034,157.629 235.454 C 158.835 233.921,159.186 230.071,158.186 229.340 C 157.579 228.897,151.406 228.800,123.724 228.800 L 90.002 228.800 88.008 227.367 C 85.084 225.267,85.160 226.051,85.288 199.288 L 85.400 175.753 86.545 174.392 C 88.959 171.523,88.204 171.600,114.058 171.600 C 139.474 171.600,137.971 171.464,140.400 173.993 C 142.405 176.080,142.400 176.025,142.400 195.743 C 142.400 218.467,141.375 216.000,150.816 216.000 C 160.282 216.000,159.202 218.979,159.192 192.900 C 159.184 171.658,158.931 166.471,157.839 165.221 C 157.540 164.879,157.014 164.042,156.669 163.360 C 155.901 161.843,152.811 158.744,151.306 157.981 C 150.698 157.673,149.771 157.101,149.246 156.711 C 148.721 156.320,148.001 155.999,147.646 155.998 C 147.291 155.996,146.484 155.726,145.854 155.398 C 144.865 154.882,140.470 154.805,113.654 154.835 L 82.600 154.870 80.200 155.875 M148.990 157.581 C 153.337 160.092,155.076 161.837,156.877 165.495 L 158.200 168.182 158.313 191.135 C 158.396 208.036,158.303 214.234,157.964 214.644 C 157.315 215.425,144.710 215.455,144.064 214.677 C 143.770 214.323,143.594 208.174,143.515 195.577 L 143.400 177.000 142.278 175.091 C 141.661 174.041,140.414 172.691,139.507 172.091 L 137.859 171.000 114.253 170.891 L 90.646 170.781 88.577 171.794 C 86.844 172.642,86.305 173.188,85.254 175.159 L 84.000 177.512 84.000 200.323 L 84.000 223.134 84.973 225.072 C 85.894 226.906,87.199 228.187,89.000 229.027 C 89.464 229.243,104.080 229.484,123.800 229.600 L 157.800 229.800 157.923 231.071 C 158.100 232.897,155.406 238.400,153.600 239.899 C 151.432 241.699,148.386 243.375,146.083 244.033 C 142.001 245.201,85.155 245.214,81.400 244.049 C 75.249 242.139,70.475 237.308,69.326 231.831 C 68.650 228.603,68.576 173.796,69.243 169.499 C 70.005 164.588,73.302 160.362,78.484 157.653 C 81.658 155.995,79.312 156.092,114.600 156.149 L 146.600 156.200 148.990 157.581 M212.749 170.072 C 211.972 171.163,211.844 171.782,211.939 173.984 C 212.127 178.346,212.150 178.360,219.302 178.490 L 225.400 178.600 225.600 198.133 C 225.832 220.777,225.367 218.760,230.376 218.860 C 237.481 219.002,236.799 221.128,236.805 198.824 C 236.808 188.581,236.919 179.795,237.052 179.300 C 237.289 178.416,237.404 178.400,243.424 178.400 C 249.306 178.400,249.580 178.364,250.177 177.511 C 251.127 176.155,251.034 171.178,250.036 169.944 L 249.271 169.000 231.471 168.888 L 213.671 168.776 212.749 170.072 M249.121 170.721 C 249.677 171.277,249.827 172.006,249.778 173.911 C 249.683 177.586,249.658 177.600,243.083 177.600 C 235.147 177.600,236.000 175.159,236.000 197.862 C 236.000 220.108,236.376 218.400,231.476 218.400 C 226.583 218.400,227.016 220.320,226.897 198.132 C 226.774 175.121,227.682 177.600,219.379 177.600 C 215.628 177.600,213.553 177.447,213.374 177.158 C 212.845 176.302,212.693 171.747,213.165 170.866 L 213.628 170.000 231.014 170.000 C 247.230 170.000,248.449 170.049,249.121 170.721 M315.760 176.306 C 314.496 177.150,314.400 178.451,314.400 194.674 L 314.401 211.000 315.548 213.400 C 317.672 217.844,319.417 218.739,326.159 218.839 C 332.328 218.930,332.415 218.877,332.703 214.856 C 332.957 211.314,331.694 209.600,328.831 209.600 C 325.674 209.600,325.568 209.258,325.692 199.492 L 325.800 191.000 328.706 190.774 C 332.307 190.494,332.475 190.324,332.701 186.721 C 332.969 182.457,332.226 181.600,328.260 181.600 C 324.901 181.600,323.600 180.950,323.600 179.273 C 323.600 176.724,318.196 174.679,315.760 176.306 M321.971 177.854 C 322.427 178.434,322.800 179.171,322.800 179.492 C 322.800 181.581,324.055 182.400,327.258 182.400 C 331.196 182.400,331.600 182.753,331.600 186.200 C 331.600 189.493,331.118 190.000,327.986 190.000 C 324.796 190.000,324.800 189.988,324.800 199.387 C 324.800 209.447,325.309 210.800,329.095 210.800 C 330.871 210.800,331.600 211.839,331.600 214.373 C 331.600 217.919,331.057 218.400,327.050 218.400 C 320.692 218.400,317.321 216.475,315.884 212.025 C 314.696 208.348,314.861 178.747,316.075 177.616 C 317.463 176.323,320.875 176.461,321.971 177.854 M192.400 181.600 C 187.960 182.201,184.974 182.926,183.938 183.654 C 183.354 184.064,182.692 184.400,182.467 184.400 C 182.242 184.400,181.704 184.850,181.271 185.400 C 180.839 185.950,180.307 186.400,180.090 186.400 C 179.548 186.400,177.984 188.558,176.611 191.200 C 175.485 193.367,175.468 193.501,175.466 200.200 L 175.465 207.000 176.760 209.670 C 178.782 213.840,182.952 217.600,185.554 217.600 C 185.983 217.600,186.408 217.825,186.499 218.100 C 186.773 218.923,196.675 219.030,198.588 218.231 C 199.419 217.884,200.150 217.600,200.214 217.600 C 200.278 217.600,200.391 220.495,200.465 224.033 C 200.630 231.884,200.421 231.600,206.047 231.600 C 212.174 231.600,211.641 234.011,211.510 206.898 L 211.400 184.329 210.498 183.598 C 209.881 183.099,208.613 182.790,206.498 182.622 C 204.794 182.486,202.410 182.207,201.200 182.001 C 197.739 181.412,194.785 181.277,192.400 181.600 M288.898 182.194 C 283.364 183.993,281.230 186.112,280.173 190.859 C 279.242 195.042,278.600 195.548,278.032 192.547 C 277.124 187.755,272.900 183.153,268.875 182.570 C 267.844 182.421,266.786 182.129,266.525 181.922 C 265.257 180.913,254.574 182.308,252.200 183.793 C 250.247 185.015,246.801 188.362,246.800 189.039 C 246.800 189.280,246.440 189.893,246.000 190.400 C 245.560 190.907,245.194 191.520,245.186 191.761 C 245.178 192.003,244.940 193.957,244.656 196.104 C 243.734 203.095,245.214 209.935,248.297 212.938 C 251.352 215.914,253.961 217.568,255.639 217.591 C 255.990 217.596,256.846 217.884,257.541 218.231 C 259.561 219.238,273.576 218.903,275.800 217.794 L 277.400 216.996 277.502 213.798 C 277.651 209.157,278.153 209.411,269.090 209.546 C 259.427 209.689,258.850 209.587,256.584 207.321 C 253.992 204.729,253.740 204.800,265.556 204.800 C 278.109 204.800,277.741 204.908,278.443 201.000 C 279.472 195.260,279.940 194.604,280.555 198.037 C 281.367 202.568,285.336 204.798,292.600 204.805 C 299.640 204.813,301.034 205.394,300.516 208.107 C 300.118 210.190,290.931 210.689,285.276 208.934 C 283.327 208.330,283.100 208.328,282.511 208.918 C 281.222 210.206,281.553 217.012,282.921 217.365 C 283.184 217.433,284.390 217.822,285.600 218.230 C 288.702 219.275,301.565 219.352,303.400 218.336 C 304.060 217.970,305.140 217.467,305.800 217.217 C 310.765 215.340,313.624 206.098,310.637 201.584 C 310.067 200.722,309.600 199.866,309.600 199.681 C 309.600 197.394,302.517 195.316,294.400 195.222 C 290.994 195.183,290.569 195.012,290.197 193.531 C 289.396 190.340,298.552 189.264,305.971 191.676 L 308.542 192.512 309.271 191.612 C 311.579 188.762,309.948 183.233,306.598 182.554 C 305.279 182.286,303.480 181.877,302.600 181.643 C 299.573 180.841,292.142 181.139,288.898 182.194 M304.773 183.046 C 308.831 183.822,309.200 184.221,309.200 187.838 C 309.200 191.439,309.374 191.348,304.353 190.391 C 294.280 188.472,287.420 190.218,289.327 194.216 C 290.149 195.940,291.732 196.392,297.000 196.406 C 304.800 196.427,308.014 197.801,309.821 201.886 C 314.947 213.477,303.159 221.526,286.886 217.548 C 282.775 216.543,282.400 216.175,282.400 213.156 C 282.400 209.537,283.034 208.949,285.801 210.000 C 292.087 212.390,301.600 210.937,301.600 207.587 C 301.600 204.837,300.409 204.303,293.566 203.986 C 283.296 203.511,280.800 201.472,280.800 193.555 C 280.800 184.117,289.784 180.178,304.773 183.046 M205.200 183.237 C 210.938 183.839,210.400 181.351,210.400 207.271 C 210.400 232.844,210.759 230.800,206.262 230.800 C 201.459 230.800,201.566 230.954,201.475 223.901 C 201.383 216.674,201.264 216.454,197.983 217.469 C 189.934 219.958,181.190 216.560,177.535 209.523 L 176.224 207.000 176.212 200.400 L 176.200 193.800 177.520 191.272 C 181.651 183.360,188.220 181.453,205.200 183.237 M268.400 183.286 C 271.551 184.066,274.724 186.541,276.326 189.468 C 277.556 191.717,278.199 201.796,277.190 203.012 C 276.783 203.502,274.928 203.600,266.031 203.600 C 254.753 203.600,254.400 203.657,254.400 205.466 C 254.400 209.436,262.752 211.793,272.200 210.490 C 276.414 209.908,276.800 210.168,276.800 213.576 C 276.800 216.825,276.746 216.880,272.790 217.611 C 260.799 219.828,250.968 216.711,246.782 209.362 L 245.436 207.000 245.418 200.000 L 245.400 193.000 246.791 190.606 C 250.765 183.768,259.031 180.968,268.400 183.286 M102.943 184.670 C 98.597 185.273,97.605 188.270,97.602 200.806 C 97.600 211.823,97.693 212.253,100.578 214.590 L 102.072 215.800 112.336 215.928 C 130.043 216.149,129.584 216.573,129.594 199.975 C 129.601 188.526,129.418 187.604,126.737 185.600 L 125.400 184.600 114.800 184.548 C 108.970 184.519,103.634 184.574,102.943 184.670 M126.365 186.382 C 128.410 187.425,128.388 187.272,128.395 200.719 L 128.400 212.438 127.339 213.421 C 125.527 215.100,124.105 215.266,112.706 215.129 L 102.012 215.000 100.506 213.494 L 99.000 211.988 98.875 201.778 C 98.722 189.327,98.984 187.546,101.130 186.412 C 103.388 185.219,124.037 185.194,126.365 186.382 M260.600 189.810 C 260.380 189.891,259.452 190.149,258.538 190.384 C 256.525 190.900,254.253 193.972,254.471 195.880 L 254.600 197.000 261.062 197.110 C 268.517 197.236,269.078 197.038,268.602 194.438 C 268.063 191.494,263.384 188.788,260.600 189.810 M190.672 190.417 C 189.831 190.627,188.877 191.065,188.552 191.391 C 188.227 191.716,187.742 192.121,187.476 192.291 C 183.727 194.680,184.393 206.187,188.454 209.198 C 191.244 211.266,199.398 210.589,200.992 208.157 C 201.910 206.754,201.745 191.961,200.800 191.044 C 200.046 190.312,192.869 189.868,190.672 190.417 M200.020 191.459 C 200.868 192.309,200.610 207.657,199.737 208.296 C 197.504 209.928,190.243 210.041,188.775 208.466 C 188.332 207.990,187.814 207.600,187.624 207.600 C 187.435 207.600,187.064 206.699,186.800 205.599 C 186.536 204.498,186.158 203.497,185.960 203.375 C 185.466 203.070,185.503 197.457,186.003 196.957 C 186.225 196.735,186.636 195.754,186.918 194.777 C 187.761 191.849,190.185 190.748,195.481 190.890 C 197.874 190.955,199.751 191.190,200.020 191.459 M266.301 191.966 C 269.592 195.110,268.454 196.564,262.568 196.736 C 255.625 196.937,253.362 196.023,255.800 194.000 C 256.130 193.726,256.400 193.306,256.400 193.066 C 256.400 190.658,264.044 189.808,266.301 191.966 " stroke="none" fill="#fcb6a5" fill-rule="evenodd"></path><path id="path3" d="M82.772 156.404 C 77.986 157.214,72.772 161.349,70.361 166.247 L 69.400 168.200 69.400 200.400 L 69.400 232.600 70.400 234.401 C 73.320 239.658,76.766 242.517,81.798 243.857 C 84.880 244.678,142.634 244.641,145.801 243.817 C 147.898 243.270,151.533 241.313,153.436 239.706 C 155.249 238.176,157.994 232.548,157.694 230.977 L 157.512 230.026 123.624 229.913 L 89.737 229.800 87.823 228.600 C 86.439 227.733,85.589 226.790,84.754 225.200 L 83.600 223.000 83.600 200.449 L 83.600 177.898 84.816 175.428 C 85.692 173.648,86.497 172.657,87.696 171.879 L 89.360 170.800 113.820 170.800 L 138.280 170.800 139.876 171.957 C 140.755 172.593,141.952 173.930,142.537 174.928 L 143.600 176.742 143.600 194.998 C 143.600 206.816,143.746 213.525,144.014 214.026 C 144.651 215.216,157.349 215.216,157.986 214.026 C 158.577 212.922,158.548 172.330,157.954 169.561 C 157.156 165.838,154.918 161.900,152.722 160.356 C 151.995 159.845,151.162 159.195,150.871 158.913 C 150.581 158.631,150.159 158.400,149.933 158.400 C 149.708 158.400,149.041 158.057,148.452 157.637 C 147.862 157.217,146.317 156.677,145.017 156.437 C 142.277 155.930,85.746 155.900,82.772 156.404 M147.400 157.809 C 148.500 158.350,149.625 158.794,149.900 158.796 C 150.175 158.798,150.404 158.935,150.409 159.100 C 150.414 159.265,151.185 159.915,152.123 160.544 C 153.928 161.755,155.098 163.518,156.631 167.336 L 157.569 169.672 157.601 191.136 C 157.618 202.941,157.625 213.005,157.616 213.500 C 157.600 214.396,157.573 214.400,151.000 214.400 L 144.400 214.400 144.396 195.900 L 144.392 177.400 143.399 175.266 C 142.853 174.093,141.999 172.784,141.503 172.358 C 139.102 170.299,140.248 170.375,113.279 170.491 L 88.153 170.600 86.776 171.758 C 86.019 172.395,85.167 173.469,84.883 174.145 C 84.598 174.821,84.148 175.508,83.883 175.672 C 83.072 176.173,82.984 222.756,83.790 224.491 C 86.679 230.707,84.589 230.400,123.963 230.400 C 155.245 230.400,156.386 230.426,156.773 231.150 C 157.190 231.930,156.378 234.748,155.375 236.000 C 155.111 236.330,154.775 236.994,154.628 237.476 C 154.349 238.394,151.465 240.668,148.400 242.389 L 146.600 243.400 113.992 243.400 L 81.383 243.400 78.792 242.122 C 74.975 240.241,72.961 238.119,70.703 233.600 L 69.603 231.400 69.613 200.400 L 69.622 169.400 70.711 167.000 C 72.515 163.024,76.318 158.805,78.105 158.798 C 78.377 158.797,79.320 158.352,80.200 157.810 L 81.800 156.825 113.600 156.825 L 145.400 156.825 147.400 157.809 M213.467 170.667 C 213.042 171.092,213.158 175.975,213.614 176.826 C 213.994 177.536,214.511 177.601,219.914 177.613 C 228.114 177.630,227.200 175.110,227.200 197.716 C 227.200 219.790,226.829 218.000,231.400 218.000 C 235.971 218.000,235.600 219.790,235.600 197.716 C 235.600 175.140,234.727 177.631,242.651 177.613 C 249.230 177.598,249.264 177.580,249.525 173.965 C 249.802 170.130,251.187 170.400,231.218 170.400 C 221.601 170.400,213.613 170.520,213.467 170.667 M248.652 171.284 C 248.816 171.550,248.907 172.585,248.854 173.584 C 248.673 176.993,249.050 176.800,242.555 176.800 C 236.917 176.800,236.737 176.826,235.767 177.796 L 234.771 178.792 234.816 197.646 C 234.847 211.047,234.731 216.629,234.414 216.946 C 233.919 217.441,228.813 217.335,228.273 216.819 C 228.094 216.647,227.914 207.939,227.873 197.468 C 227.785 174.522,228.708 177.033,220.319 176.914 C 215.898 176.852,214.177 176.690,213.939 176.314 C 213.547 175.697,213.488 171.445,213.867 171.067 C 214.387 170.546,248.327 170.758,248.652 171.284 M316.489 177.823 L 315.600 178.445 315.600 194.418 C 315.600 216.451,316.019 217.407,325.896 217.900 C 330.966 218.153,331.200 218.009,331.200 214.631 C 331.200 211.876,330.786 211.200,329.100 211.200 C 325.135 211.200,324.400 209.330,324.400 199.240 C 324.400 189.730,324.448 189.600,327.943 189.600 C 330.836 189.600,331.200 189.220,331.200 186.200 C 331.200 183.042,330.912 182.800,327.153 182.800 C 323.867 182.800,322.400 181.724,322.400 179.315 C 322.400 177.384,318.515 176.403,316.489 177.823 M321.670 179.512 C 322.467 182.678,323.934 183.741,327.185 183.508 C 330.435 183.276,330.800 183.518,330.800 185.906 C 330.800 188.688,330.403 189.099,327.917 188.893 C 326.014 188.735,325.678 188.831,324.696 189.813 L 323.600 190.909 323.600 199.159 L 323.600 207.409 324.903 209.405 C 326.146 211.308,326.298 211.406,328.195 211.526 C 330.513 211.672,330.788 211.977,330.788 214.400 C 330.788 217.202,330.519 217.401,326.920 217.256 C 320.682 217.006,318.921 216.256,317.102 213.078 C 316.471 211.975,316.134 179.003,316.746 178.266 C 316.958 178.010,318.056 177.800,319.185 177.800 L 321.239 177.800 321.670 179.512 M291.741 182.797 C 283.115 184.009,279.024 189.976,281.590 197.600 C 283.256 202.547,284.624 203.259,293.071 203.574 C 299.685 203.820,300.960 204.248,301.757 206.485 C 303.264 210.711,296.135 212.720,287.200 210.587 C 282.913 209.564,283.007 209.541,282.953 211.600 C 282.913 213.143,282.931 213.186,283.078 211.900 C 283.274 210.176,284.006 209.969,286.094 211.049 C 287.078 211.558,288.690 211.709,293.574 211.749 L 299.800 211.800 301.167 210.521 C 302.330 209.431,302.533 208.973,302.533 207.442 C 302.533 203.860,300.754 203.066,292.122 202.800 L 285.644 202.600 284.222 201.222 C 283.440 200.463,282.800 199.553,282.800 199.198 C 282.800 198.843,282.536 198.204,282.213 197.776 C 281.803 197.235,281.625 195.970,281.625 193.600 C 281.625 191.230,281.803 189.965,282.213 189.424 C 282.536 188.996,282.800 188.334,282.800 187.951 C 282.800 184.800,293.207 182.432,302.162 183.544 C 307.484 184.205,308.600 184.915,308.600 187.639 L 308.600 189.800 306.013 189.677 C 304.590 189.609,303.183 189.352,302.886 189.106 C 300.611 187.218,290.389 188.768,288.639 191.266 C 285.975 195.069,288.970 197.006,298.000 197.319 C 302.298 197.468,304.181 197.419,303.400 197.178 C 302.740 196.975,299.680 196.689,296.600 196.542 C 290.537 196.254,289.609 195.952,288.805 194.012 C 287.147 190.010,294.005 188.209,303.972 190.030 C 309.231 190.991,309.184 191.013,309.194 187.527 C 309.199 185.493,309.085 185.176,308.100 184.505 C 305.954 183.042,296.797 182.086,291.741 182.797 M188.600 183.380 C 180.723 185.025,176.619 190.091,176.239 198.641 L 176.045 203.000 176.428 199.000 C 176.661 196.564,177.121 194.337,177.605 193.304 C 178.042 192.372,178.407 191.472,178.416 191.304 C 178.459 190.508,181.959 186.617,183.200 185.987 C 187.390 183.859,187.544 183.828,194.637 183.679 C 201.784 183.529,208.631 184.294,209.279 185.315 C 209.673 185.934,209.687 228.450,209.294 229.043 C 209.132 229.286,207.778 229.581,206.284 229.698 C 202.391 230.003,202.400 230.019,202.400 222.811 L 202.400 216.878 201.234 216.472 C 200.593 216.248,200.008 216.123,199.934 216.193 C 199.860 216.263,198.232 216.511,196.315 216.744 C 190.043 217.506,183.945 216.210,181.512 213.598 C 181.103 213.159,180.635 212.800,180.472 212.800 C 180.309 212.800,179.962 212.305,179.702 211.700 C 179.442 211.095,179.047 210.330,178.824 210.000 C 178.104 208.933,177.041 206.237,176.774 204.800 L 176.514 203.400 176.457 204.882 C 176.231 210.764,182.504 216.555,190.270 217.635 C 193.211 218.044,193.984 217.990,197.636 217.119 C 198.646 216.878,199.951 216.801,200.536 216.948 L 201.600 217.215 201.600 222.919 C 201.600 230.356,201.627 230.400,206.180 230.400 C 208.852 230.400,209.563 230.274,209.757 229.767 C 210.273 228.424,210.026 185.389,209.499 184.668 C 208.455 183.240,193.641 182.327,188.600 183.380 M257.600 183.253 C 251.582 184.237,245.481 190.175,245.646 194.889 L 245.692 196.200 245.997 194.800 C 246.487 192.553,249.174 187.668,250.150 187.250 C 250.343 187.168,250.809 186.791,251.187 186.413 C 251.565 186.035,252.217 185.624,252.637 185.498 C 253.057 185.373,254.431 184.894,255.690 184.435 C 262.751 181.861,273.265 184.484,275.240 189.313 C 275.529 190.021,275.999 190.838,276.283 191.129 C 276.567 191.419,276.829 192.679,276.864 193.929 C 277.049 200.458,277.054 201.456,276.907 202.100 C 276.758 202.746,275.887 202.800,265.587 202.800 C 253.025 202.800,253.227 202.747,253.738 205.897 C 254.415 210.067,258.365 211.660,267.816 211.573 C 273.310 211.522,275.373 211.633,275.593 211.989 C 275.856 212.414,275.682 215.978,275.381 216.332 C 274.246 217.668,258.053 216.946,254.759 215.413 C 253.572 214.860,252.418 214.406,252.196 214.404 C 251.974 214.402,251.568 214.040,251.293 213.600 C 251.018 213.160,250.525 212.800,250.197 212.800 C 249.868 212.800,249.600 212.554,249.600 212.254 C 249.600 211.954,249.209 211.211,248.731 210.603 C 247.463 208.991,246.402 206.824,245.988 205.000 L 245.624 203.400 245.758 205.259 C 246.361 213.621,256.271 218.842,269.241 217.633 C 276.482 216.957,277.275 216.396,276.604 212.423 C 276.267 210.430,275.822 210.287,271.659 210.841 C 262.827 212.017,256.548 210.414,254.422 206.442 C 252.917 203.629,254.523 203.200,266.577 203.200 C 278.808 203.200,277.793 203.777,277.500 196.990 C 277.018 185.833,270.279 181.181,257.600 183.253 M101.142 186.607 C 99.398 187.554,99.200 188.921,99.200 200.010 C 99.200 212.060,99.227 212.257,101.101 213.700 L 102.529 214.800 113.772 214.800 L 125.014 214.800 126.453 213.823 C 128.355 212.530,128.400 212.211,128.400 200.010 C 128.400 188.449,128.229 187.422,126.159 186.557 C 124.195 185.736,102.666 185.779,101.142 186.607 M126.287 187.049 C 126.774 187.179,127.286 187.640,127.423 188.072 C 127.614 188.674,127.749 204.846,127.620 211.620 C 127.575 213.946,125.306 214.400,113.724 214.400 L 103.470 214.400 101.735 213.383 C 100.781 212.824,99.972 212.149,99.939 211.883 C 99.111 205.373,99.892 188.161,101.054 187.311 C 101.784 186.777,124.396 186.542,126.287 187.049 M260.600 188.689 C 260.160 188.798,259.620 189.026,259.400 189.197 C 259.180 189.368,258.417 189.632,257.704 189.785 C 256.873 189.962,256.161 190.481,255.718 191.231 C 255.338 191.874,254.908 192.400,254.762 192.400 C 253.476 192.400,253.321 197.310,254.600 197.533 C 255.378 197.668,255.379 197.656,254.643 197.100 C 251.665 194.848,256.958 189.520,262.173 189.520 C 266.823 189.520,271.304 195.302,268.100 197.168 C 267.486 197.525,267.480 197.577,268.051 197.588 C 271.859 197.659,268.833 190.725,264.370 189.153 C 262.172 188.379,261.965 188.354,260.600 188.689 M192.200 189.200 C 192.064 189.420,191.468 189.601,190.876 189.601 C 183.158 189.612,181.648 206.270,188.976 210.565 C 192.210 212.460,200.316 211.348,201.914 208.789 C 202.789 207.389,202.680 191.422,201.789 190.532 C 200.678 189.421,192.745 188.319,192.200 189.200 M200.700 190.647 C 201.195 190.961,201.608 191.619,201.618 192.109 C 201.794 201.008,201.558 207.805,201.045 208.587 C 199.510 210.930,191.050 211.589,188.443 209.569 C 183.599 205.815,183.295 195.597,187.908 191.579 C 190.129 189.644,198.196 189.056,200.700 190.647 M245.342 199.800 C 245.341 201.780,245.408 202.640,245.492 201.712 C 245.576 200.784,245.577 199.164,245.495 198.112 C 245.412 197.060,245.343 197.820,245.342 199.800 M258.482 197.896 C 259.958 197.973,262.478 197.973,264.082 197.897 C 265.687 197.821,264.480 197.758,261.400 197.758 C 258.320 197.757,257.007 197.819,258.482 197.896 M306.326 198.792 C 308.483 200.355,309.038 201.286,309.627 204.332 C 310.484 208.765,308.796 214.719,306.662 214.789 C 306.476 214.795,305.846 215.134,305.262 215.543 C 302.567 217.429,295.562 218.056,289.100 216.989 C 283.603 216.082,283.648 216.099,283.014 214.692 L 282.433 213.400 282.668 214.600 C 283.049 216.545,282.522 216.314,290.000 217.813 C 297.295 219.275,304.664 217.668,308.712 213.731 C 312.379 210.165,309.645 197.600,305.202 197.600 C 304.915 197.600,305.420 198.136,306.326 198.792 " stroke="none" fill="#f59474" fill-rule="evenodd"></path><path id="path4" d="M79.776 157.022 C 79.012 157.634,79.013 157.638,79.800 157.276 C 80.240 157.074,80.870 156.808,81.200 156.686 C 81.718 156.493,81.715 156.459,81.176 156.432 C 80.834 156.414,80.204 156.680,79.776 157.022 M148.400 157.564 C 148.950 158.014,149.580 158.383,149.800 158.385 C 150.228 158.388,149.505 157.834,148.200 157.160 C 147.669 156.885,147.736 157.021,148.400 157.564 M73.963 160.700 C 72.250 162.611,71.469 163.600,71.675 163.600 C 71.785 163.600,72.634 162.700,73.561 161.600 C 75.345 159.485,75.635 158.836,73.963 160.700 M156.428 165.000 C 156.428 165.220,156.686 165.850,157.000 166.400 C 157.314 166.950,157.572 167.220,157.572 167.000 C 157.572 166.780,157.314 166.150,157.000 165.600 C 156.686 165.050,156.428 164.780,156.428 165.000 M213.461 170.300 C 213.293 170.573,226.591 170.567,242.400 170.288 C 245.810 170.227,240.736 170.138,231.124 170.089 C 221.512 170.040,213.564 170.135,213.461 170.300 M88.100 171.596 C 87.385 172.032,86.800 172.503,86.800 172.643 C 86.800 172.783,87.037 172.701,87.328 172.460 C 87.618 172.219,88.473 171.754,89.228 171.427 C 89.982 171.099,90.330 170.825,90.000 170.817 C 89.670 170.809,88.815 171.160,88.100 171.596 M138.357 171.420 C 139.104 171.744,140.349 172.682,141.125 173.505 C 141.989 174.421,142.346 174.647,142.047 174.087 C 141.449 172.970,138.518 170.794,137.640 170.816 C 137.288 170.824,137.611 171.096,138.357 171.420 M68.990 200.600 C 68.990 216.880,69.039 223.482,69.100 215.270 C 69.160 207.059,69.160 193.739,69.100 185.670 C 69.039 177.602,68.990 184.320,68.990 200.600 M212.924 173.400 C 212.926 174.720,213.001 175.212,213.090 174.493 C 213.179 173.774,213.177 172.694,213.086 172.093 C 212.995 171.492,212.922 172.080,212.924 173.400 M249.598 174.833 C 249.596 175.145,249.325 175.918,248.995 176.551 C 248.507 177.486,248.500 177.615,248.958 177.235 C 249.577 176.721,250.168 174.835,249.819 174.486 C 249.699 174.365,249.599 174.522,249.598 174.833 M142.613 175.531 C 142.763 175.824,143.031 176.544,143.209 177.131 C 143.467 177.989,143.538 178.037,143.566 177.376 C 143.585 176.924,143.317 176.204,142.970 175.776 C 142.624 175.349,142.463 175.239,142.613 175.531 M316.075 177.616 L 315.200 178.431 315.295 194.516 L 315.391 210.600 315.493 194.600 C 315.610 176.320,315.427 177.200,319.113 177.200 C 320.267 177.200,321.243 177.457,321.769 177.900 C 322.599 178.599,322.599 178.599,321.838 177.700 C 320.791 176.464,317.366 176.414,316.075 177.616 M83.787 200.400 C 83.787 213.050,83.838 218.225,83.900 211.900 C 83.962 205.575,83.962 195.225,83.900 188.900 C 83.838 182.575,83.787 187.750,83.787 200.400 M225.959 178.300 C 226.797 178.993,226.807 179.199,226.907 197.800 L 227.008 216.600 227.104 197.644 C 227.193 179.994,227.152 178.652,226.500 178.157 C 225.455 177.364,224.978 177.490,225.959 178.300 M236.300 178.157 C 235.651 178.650,235.600 180.063,235.600 197.716 C 235.600 214.480,235.525 216.818,234.971 217.371 C 234.084 218.259,228.716 218.259,227.829 217.371 C 227.483 217.026,227.200 216.929,227.200 217.157 C 227.200 217.954,228.770 218.400,231.574 218.400 C 236.359 218.400,236.000 220.058,236.000 197.931 C 236.000 180.935,236.066 178.990,236.662 178.331 C 237.436 177.477,237.289 177.406,236.300 178.157 M322.434 179.353 C 322.329 181.668,323.878 182.800,327.153 182.800 C 330.912 182.800,331.200 183.042,331.200 186.200 C 331.200 189.220,330.836 189.600,327.943 189.600 C 324.439 189.600,324.399 189.711,324.406 199.389 C 324.409 203.795,324.544 207.609,324.706 207.863 C 324.868 208.118,324.945 204.570,324.878 199.979 C 324.731 189.943,324.713 190.000,327.986 190.000 C 331.118 190.000,331.600 189.493,331.600 186.200 C 331.600 182.755,331.195 182.400,327.268 182.400 C 323.954 182.400,323.546 182.147,322.776 179.613 C 322.552 178.872,322.460 178.803,322.434 179.353 M295.300 182.287 C 295.905 182.378,296.895 182.378,297.500 182.287 C 298.105 182.195,297.610 182.120,296.400 182.120 C 295.190 182.120,294.695 182.195,295.300 182.287 M193.491 182.689 C 194.201 182.777,195.461 182.779,196.291 182.692 C 197.121 182.605,196.540 182.533,195.000 182.531 C 193.460 182.529,192.781 182.600,193.491 182.689 M261.900 182.682 C 262.395 182.778,263.205 182.778,263.700 182.682 C 264.195 182.587,263.790 182.509,262.800 182.509 C 261.810 182.509,261.405 182.587,261.900 182.682 M291.905 182.683 C 292.402 182.779,293.122 182.775,293.505 182.675 C 293.887 182.575,293.480 182.496,292.600 182.501 C 291.720 182.505,291.407 182.587,291.905 182.683 M299.705 182.687 C 300.314 182.779,301.214 182.777,301.705 182.682 C 302.197 182.587,301.700 182.511,300.600 182.514 C 299.500 182.517,299.097 182.595,299.705 182.687 M200.300 183.082 C 200.795 183.178,201.605 183.178,202.100 183.082 C 202.595 182.987,202.190 182.909,201.200 182.909 C 200.210 182.909,199.805 182.987,200.300 183.082 M288.400 183.218 C 287.962 183.515,288.124 183.552,289.000 183.356 C 290.471 183.027,290.790 182.798,289.767 182.806 C 289.345 182.809,288.730 182.995,288.400 183.218 M204.105 183.487 C 204.714 183.579,205.614 183.577,206.105 183.482 C 206.597 183.387,206.100 183.311,205.000 183.314 C 203.900 183.317,203.497 183.395,204.105 183.487 M184.800 184.200 C 184.250 184.514,183.980 184.772,184.200 184.772 C 184.420 184.772,185.050 184.514,185.600 184.200 C 186.150 183.886,186.420 183.628,186.200 183.628 C 185.980 183.628,185.350 183.886,184.800 184.200 M208.200 183.880 C 210.010 184.304,210.000 184.175,210.000 207.244 C 210.000 219.284,209.891 229.419,209.757 229.767 C 209.330 230.881,203.032 230.667,202.223 229.511 C 201.723 228.798,201.600 228.755,201.600 229.297 C 201.600 230.951,209.140 231.607,209.986 230.026 C 210.257 229.520,210.400 221.672,210.400 207.315 C 210.400 183.564,210.397 183.534,208.277 183.646 C 207.469 183.689,207.463 183.707,208.200 183.880 M307.200 183.754 C 307.200 183.839,307.695 184.227,308.300 184.616 L 309.400 185.324 308.638 184.462 C 307.964 183.699,307.200 183.323,307.200 183.754 M181.970 185.900 L 181.000 187.000 182.200 186.000 C 182.860 185.450,183.475 184.955,183.567 184.900 C 183.658 184.845,183.555 184.800,183.336 184.800 C 183.118 184.800,182.503 185.295,181.970 185.900 M250.200 186.273 C 248.595 187.721,249.213 187.413,251.331 185.709 C 251.953 185.209,252.313 184.807,252.131 184.815 C 251.949 184.823,251.080 185.480,250.200 186.273 M283.375 186.100 L 282.200 187.400 283.500 186.225 C 284.215 185.579,284.800 184.994,284.800 184.925 C 284.800 184.616,284.470 184.888,283.375 186.100 M105.200 185.877 C 112.402 186.155,125.886 186.174,125.463 185.906 C 125.208 185.744,119.870 185.646,113.600 185.687 C 107.330 185.728,103.550 185.813,105.200 185.877 M281.426 189.002 C 281.053 189.788,280.828 190.740,280.927 191.116 C 281.074 191.674,281.116 191.652,281.156 191.000 C 281.183 190.560,281.477 189.678,281.810 189.040 C 282.142 188.403,282.345 187.811,282.260 187.726 C 282.174 187.641,281.799 188.215,281.426 189.002 M295.312 189.495 C 296.364 189.577,297.984 189.576,298.912 189.492 C 299.840 189.408,298.980 189.341,297.000 189.342 C 295.020 189.343,294.260 189.412,295.312 189.495 M193.305 189.887 C 193.914 189.979,194.814 189.977,195.305 189.882 C 195.797 189.787,195.300 189.711,194.200 189.714 C 193.100 189.717,192.697 189.795,193.305 189.887 M263.600 190.000 C 264.968 190.438,266.019 190.438,265.000 190.000 C 264.560 189.811,263.840 189.662,263.400 189.668 C 262.757 189.677,262.796 189.743,263.600 190.000 M291.400 190.000 C 290.896 190.217,290.822 190.344,291.200 190.344 C 291.530 190.344,292.160 190.189,292.600 190.000 C 293.104 189.783,293.178 189.656,292.800 189.656 C 292.470 189.656,291.840 189.811,291.400 190.000 M177.478 191.405 C 177.112 192.172,176.895 192.800,176.996 192.800 C 177.270 192.800,178.484 190.351,178.301 190.168 C 178.214 190.081,177.844 190.638,177.478 191.405 M197.305 190.287 C 197.914 190.379,198.814 190.377,199.305 190.282 C 199.797 190.187,199.300 190.111,198.200 190.114 C 197.100 190.117,196.697 190.195,197.305 190.287 M98.974 200.600 C 98.975 206.320,99.031 208.604,99.099 205.676 C 99.168 202.748,99.167 198.068,99.099 195.276 C 99.030 192.484,98.974 194.880,98.974 200.600 M266.000 190.525 C 266.000 190.594,266.585 191.179,267.300 191.825 L 268.600 193.000 267.425 191.700 C 266.330 190.488,266.000 190.216,266.000 190.525 M255.229 192.654 C 254.773 193.234,254.400 193.894,254.400 194.121 C 254.400 194.591,254.360 194.633,255.557 192.900 C 256.633 191.342,256.399 191.166,255.229 192.654 M288.800 192.200 C 288.276 192.831,288.849 194.936,289.685 195.453 C 289.895 195.582,289.759 195.094,289.384 194.369 C 288.853 193.342,288.802 192.888,289.154 192.325 C 289.702 191.447,289.488 191.371,288.800 192.200 M185.410 195.180 C 185.075 195.829,184.815 196.684,184.834 197.080 C 184.857 197.559,184.973 197.457,185.179 196.777 C 185.350 196.214,185.701 195.359,185.959 194.877 C 186.217 194.394,186.336 194.000,186.224 194.000 C 186.112 194.000,185.746 194.531,185.410 195.180 M254.000 195.776 C 254.000 196.313,254.147 196.844,254.328 196.955 C 254.508 197.067,254.577 196.627,254.482 195.979 C 254.272 194.549,254.000 194.435,254.000 195.776 M280.827 196.113 C 280.796 196.943,281.844 199.600,282.203 199.600 C 282.337 199.600,282.320 199.394,282.164 199.142 C 282.009 198.891,281.650 197.946,281.368 197.042 C 281.085 196.139,280.841 195.721,280.827 196.113 M268.309 196.475 C 268.179 196.868,266.479 197.055,261.567 197.219 L 255.000 197.439 261.224 197.519 C 267.203 197.597,269.695 197.162,268.741 196.208 C 268.599 196.066,268.405 196.186,268.309 196.475 M299.100 196.682 C 299.595 196.778,300.405 196.778,300.900 196.682 C 301.395 196.587,300.990 196.509,300.000 196.509 C 299.010 196.509,298.605 196.587,299.100 196.682 M308.045 199.381 C 308.400 199.831,308.890 200.560,309.133 201.000 C 309.377 201.440,309.581 201.578,309.588 201.306 C 309.595 201.035,309.105 200.306,308.500 199.687 C 307.895 199.068,307.690 198.930,308.045 199.381 M184.493 200.000 C 184.493 200.770,184.575 201.085,184.676 200.700 C 184.776 200.315,184.776 199.685,184.676 199.300 C 184.575 198.915,184.493 199.230,184.493 200.000 M283.487 201.609 C 284.195 202.351,284.842 202.878,284.925 202.779 C 285.008 202.681,284.429 202.073,283.638 201.429 L 282.200 200.258 283.487 201.609 M276.967 202.793 C 276.736 203.024,272.294 203.233,266.187 203.300 L 255.800 203.414 266.251 203.507 C 275.131 203.586,276.777 203.510,277.200 203.000 C 277.754 202.332,277.581 202.179,276.967 202.793 M176.093 204.000 C 176.093 204.770,176.175 205.085,176.276 204.700 C 176.376 204.315,176.376 203.685,176.276 203.300 C 176.175 202.915,176.093 203.230,176.093 204.000 M184.806 203.433 C 184.809 203.855,184.995 204.470,185.218 204.800 C 185.515 205.238,185.552 205.076,185.356 204.200 C 185.027 202.729,184.798 202.410,184.806 203.433 M288.800 203.825 C 290.080 204.107,299.640 204.223,298.941 203.948 C 298.533 203.787,295.950 203.664,293.200 203.675 C 290.450 203.685,288.470 203.752,288.800 203.825 M310.481 206.667 C 310.437 208.464,310.296 210.264,310.170 210.667 C 309.956 211.346,309.972 211.349,310.386 210.706 C 310.654 210.290,310.779 208.693,310.698 206.706 L 310.563 203.400 310.481 206.667 M300.761 205.354 C 303.092 208.560,300.764 210.893,294.800 211.329 C 293.197 211.446,293.253 211.468,295.313 211.530 C 300.598 211.690,303.700 208.281,300.961 205.322 L 299.922 204.200 300.761 205.354 M200.501 208.640 C 200.006 209.204,199.811 209.596,200.067 209.511 C 200.498 209.367,201.880 207.591,201.549 207.607 C 201.467 207.611,200.995 208.076,200.501 208.640 M247.208 210.017 C 248.531 212.610,253.073 216.476,254.684 216.381 C 254.858 216.371,254.190 215.934,253.200 215.411 C 250.823 214.154,249.173 212.579,247.827 210.282 C 246.476 207.976,246.081 207.807,247.208 210.017 M188.562 209.500 C 188.981 209.995,189.611 210.386,189.962 210.368 C 190.504 210.342,190.509 210.303,190.000 210.116 C 189.670 209.995,189.040 209.604,188.600 209.248 C 187.807 208.606,187.806 208.608,188.562 209.500 M178.677 211.631 C 179.075 212.308,179.656 213.073,179.968 213.331 C 180.280 213.589,180.032 213.035,179.415 212.100 C 178.120 210.137,177.609 209.812,178.677 211.631 M192.311 210.693 C 193.251 210.778,194.691 210.777,195.511 210.691 C 196.330 210.605,195.560 210.536,193.800 210.537 C 192.040 210.539,191.370 210.609,192.311 210.693 M271.700 210.676 C 272.085 210.776,272.715 210.776,273.100 210.676 C 273.485 210.575,273.170 210.493,272.400 210.493 C 271.630 210.493,271.315 210.575,271.700 210.676 M275.854 210.670 C 276.103 210.851,276.407 211.360,276.528 211.800 C 276.701 212.431,276.732 212.395,276.674 211.631 C 276.633 211.099,276.330 210.590,276.000 210.501 C 275.604 210.394,275.554 210.451,275.854 210.670 M282.509 212.000 C 282.509 212.990,282.587 213.395,282.682 212.900 C 282.778 212.405,282.778 211.595,282.682 211.100 C 282.587 210.605,282.509 211.010,282.509 212.000 M327.221 210.821 C 327.539 211.023,328.363 211.191,329.051 211.194 C 330.735 211.202,331.129 211.800,331.302 214.614 L 331.449 217.000 331.524 214.562 C 331.614 211.664,331.099 211.019,328.421 210.680 C 327.269 210.534,326.846 210.584,327.221 210.821 M264.115 211.096 C 265.388 211.176,267.368 211.175,268.515 211.094 C 269.662 211.014,268.620 210.949,266.200 210.950 C 263.780 210.951,262.842 211.016,264.115 211.096 M290.105 211.087 C 290.714 211.179,291.614 211.177,292.105 211.082 C 292.597 210.987,292.100 210.911,291.000 210.914 C 289.900 210.917,289.497 210.995,290.105 211.087 M100.888 213.813 C 101.486 214.443,102.047 214.877,102.135 214.779 C 102.223 214.680,101.733 214.165,101.047 213.634 L 99.800 212.669 100.888 213.813 M143.612 213.820 C 143.578 214.997,144.668 215.200,151.000 215.200 C 157.332 215.200,158.422 214.997,158.388 213.820 C 158.381 213.589,158.192 213.715,157.968 214.100 C 157.606 214.722,156.826 214.800,151.000 214.800 C 145.174 214.800,144.394 214.722,144.032 214.100 C 143.808 213.715,143.619 213.589,143.612 213.820 M180.876 213.966 C 180.968 214.277,181.484 214.806,182.022 215.141 C 182.780 215.614,182.865 215.621,182.400 215.175 C 182.070 214.859,181.554 214.330,181.254 214.000 C 180.815 213.517,180.741 213.510,180.876 213.966 M108.524 215.099 C 111.562 215.167,116.422 215.167,119.324 215.099 C 122.226 215.031,119.740 214.975,113.800 214.975 C 107.860 214.975,105.486 215.031,108.524 215.099 M276.432 215.667 C 276.414 216.033,275.905 216.514,275.300 216.735 C 274.695 216.956,274.481 217.151,274.824 217.168 C 275.765 217.216,276.940 216.205,276.687 215.565 C 276.516 215.134,276.456 215.158,276.432 215.667 M197.200 217.285 C 196.650 217.524,194.490 217.726,192.400 217.733 C 189.032 217.744,188.827 217.783,190.600 218.075 C 191.700 218.257,193.442 218.299,194.470 218.169 C 196.612 217.899,200.205 216.854,199.000 216.852 C 198.560 216.851,197.750 217.046,197.200 217.285 M200.690 217.291 C 200.911 217.571,201.193 218.070,201.315 218.400 C 201.466 218.810,201.547 218.728,201.568 218.143 C 201.586 217.671,201.305 217.172,200.943 217.034 C 200.452 216.845,200.388 216.910,200.690 217.291 M258.200 217.385 C 259.080 217.689,260.430 217.930,261.200 217.919 L 262.600 217.900 261.000 217.620 C 260.120 217.466,258.770 217.226,258.000 217.086 C 256.640 216.839,256.646 216.847,258.200 217.385 M285.600 217.200 C 286.968 217.638,288.019 217.638,287.000 217.200 C 286.560 217.011,285.840 216.862,285.400 216.868 C 284.757 216.877,284.796 216.943,285.600 217.200 M330.570 217.649 C 330.380 217.955,328.878 218.043,325.846 217.923 C 323.401 217.826,321.850 217.876,322.400 218.034 C 324.402 218.607,330.266 218.444,330.800 217.800 C 331.074 217.470,331.197 217.200,331.073 217.200 C 330.949 217.200,330.722 217.402,330.570 217.649 M268.307 217.890 C 269.026 217.979,270.106 217.977,270.707 217.886 C 271.308 217.795,270.720 217.722,269.400 217.724 C 268.080 217.726,267.588 217.801,268.307 217.890 M288.800 217.980 C 289.799 218.320,292.282 218.532,291.967 218.251 C 291.875 218.169,290.900 217.999,289.800 217.872 C 288.451 217.716,288.126 217.751,288.800 217.980 M299.800 218.000 C 298.711 218.277,298.693 218.307,299.600 218.325 C 300.150 218.335,300.960 218.189,301.400 218.000 C 302.386 217.576,301.466 217.576,299.800 218.000 M263.700 218.287 C 264.305 218.378,265.295 218.378,265.900 218.287 C 266.505 218.195,266.010 218.120,264.800 218.120 C 263.590 218.120,263.095 218.195,263.700 218.287 M85.600 226.946 C 85.600 227.056,86.140 227.530,86.800 228.000 C 87.460 228.470,88.000 228.764,88.000 228.654 C 88.000 228.544,87.460 228.070,86.800 227.600 C 86.140 227.130,85.600 226.836,85.600 226.946 M124.672 229.899 C 157.227 230.004,157.547 230.012,157.726 230.808 C 157.875 231.473,157.897 231.455,157.853 230.706 L 157.800 229.800 124.800 229.797 L 91.800 229.793 124.672 229.899 M69.604 233.400 C 69.605 233.620,69.963 234.340,70.400 235.000 C 71.436 236.564,71.437 236.008,70.401 234.310 C 69.962 233.589,69.604 233.180,69.604 233.400 M72.255 237.800 C 72.867 238.680,73.420 239.475,73.484 239.567 C 73.548 239.658,73.600 239.562,73.600 239.352 C 73.600 239.142,73.047 238.347,72.371 237.585 L 71.142 236.200 72.255 237.800 M149.600 242.230 C 148.390 242.982,147.548 243.597,147.729 243.598 C 148.191 243.601,151.552 241.601,151.823 241.162 C 152.131 240.664,152.086 240.686,149.600 242.230 M145.000 244.000 C 144.496 244.217,144.422 244.344,144.800 244.344 C 145.130 244.344,145.760 244.189,146.200 244.000 C 146.704 243.783,146.778 243.656,146.400 243.656 C 146.070 243.656,145.440 243.811,145.000 244.000 M82.714 244.472 C 83.091 244.621,97.080 244.716,113.800 244.682 C 130.520 244.648,141.050 244.571,137.200 244.512 C 120.405 244.252,82.089 244.224,82.714 244.472 " stroke="none" fill="#fc9c80" fill-rule="evenodd"></path></g></svg>