<svg id="Layer_1" data-name="Layer 1" xmlns="http://www.w3.org/2000/svg" viewBox="0 0 1291.81 274.72"><defs><style>.cls-1{fill:#0033a1;}</style></defs><title>Cognizant_Logo_Brand_Blue</title><path class="cls-1" d="M887.69,314.94l76.82-75.07H888.85V204.52h129.41v35.93l-76.83,74.78h78.29v35.35h-132Z" transform="translate(-146.13 -146.26)"/><rect class="cls-1" x="686.98" y="10.22" width="40.02" height="36.34"/><rect class="cls-1" x="686.44" y="58.7" width="40.02" height="146.06"/><path class="cls-1" d="M348.53,277.55a75.66,75.66,0,1,1,75.66,75.95A75.55,75.55,0,0,1,348.53,277.55Zm112.46,0c0-20.74-16.36-38-36.8-38-20.74,0-36.52,17.24-36.52,38s15.78,38,36.52,38C444.63,315.52,461,298.29,461,277.55Z" transform="translate(-146.13 -146.26)"/><path class="cls-1" d="M680.45,204.52h39.74v16.36c9.34-12,23.65-19.28,40.3-19.28,34.48,0,55.22,22.2,55.22,59.88v89.1H775.1V266.74c0-19.57-9.06-31-26.87-31-15.19,0-27.75,10.51-27.75,35v79.75h-40Z" transform="translate(-146.13 -146.26)"/><path class="cls-1" d="M1022,277.55c0-51.71,38-76,71-76,19,0,33.89,7,43.52,17.24V204.52h40V350.58h-40V334.22c-9.63,11.39-25.12,19.28-44.1,19.28C1061.45,353.5,1022,329,1022,277.55Zm115.67-.29c0-21.62-15.77-39.15-37.39-39.15-22.2,0-39.14,16.65-39.14,39.15s16.94,39.43,39.14,39.43C1121.92,316.69,1137.69,298.87,1137.69,277.26Z" transform="translate(-146.13 -146.26)"/><path class="cls-1" d="M1192.7,204.52h39.73v16.36c9.35-12,23.66-19.28,40.31-19.28,34.47,0,55.21,22.2,55.21,59.88v89.1h-40.61V266.74c0-19.57-9-31-26.87-31-15.19,0-27.75,10.51-27.75,35v79.75h-40Z" transform="translate(-146.13 -146.26)"/><path class="cls-1" d="M887.69,350.58V314.94l76.82-75.07H888.85V204.52h129.41v35.93l-76.83,74.78" transform="translate(-146.13 -146.26)"/><path class="cls-1" d="M305.84,276.28l-.55,1.16c-11.05,23.29-31.37,36.65-55.75,36.65-35.35,0-63-27.94-63-63.6,0-36.57,27.46-64.14,63.88-64.14,23.6,0,41.53,11.05,53.3,32.86l.63,1.16,35.62-22.77-.6-1c-18.5-31.51-51.76-50.32-88.95-50.32-59.43,0-104.24,44.81-104.24,104.23,0,60.4,43.84,104.24,104.24,104.24,38.93,0,73.32-21.61,92-57.8l.56-1.09Z" transform="translate(-146.13 -146.26)"/><path class="cls-1" d="M509.93,277.55c0-51.71,38-76,71-76,19,0,33.88,7.89,43.52,18.69V204.52h40v142c0,41.19-26,74.49-75.37,74.49-37.1,0-64.26-19.29-76-42.07l35.35-19.86c7.59,15.19,21,24.83,40.6,24.83,21.62,0,35.34-16.94,35.34-35.93V334.22c-9.64,11.39-25.12,19.28-44.1,19.28C549.36,353.5,509.93,329,509.93,277.55Zm115.67-.29c0-21.62-15.77-39.15-37.39-39.15-22.2,0-39.14,16.65-39.14,39.15s16.94,39.43,39.14,39.43C609.83,316.69,625.6,298.87,625.6,277.26Z" transform="translate(-146.13 -146.26)"/><path class="cls-1" d="M1426.51,240.45V204.52h-27.46V156.34h-40v48.18H1334.2v35.93H1359v46.74c0,47.62,15.19,63.39,61.64,63.39h5.84V313.19c-24.54,0-27.46-3.51-27.46-26.29V240.45Z" transform="translate(-146.13 -146.26)"/><path class="cls-1" d="M1435,173.77a10.19,10.19,0,0,1-14.46,0,9.93,9.93,0,0,1-3-7.25,10.21,10.21,0,1,1,17.42,7.25Zm-13.44-13.45a8.48,8.48,0,0,0-2.56,6.22,8.64,8.64,0,0,0,2.54,6.26,8.76,8.76,0,0,0,12.44,0,8.58,8.58,0,0,0,2.56-6.26,8.76,8.76,0,0,0-15-6.22Zm6,.57a8.55,8.55,0,0,1,3.06.4,2.78,2.78,0,0,1,1.74,2.84,2.47,2.47,0,0,1-1.09,2.22,4.27,4.27,0,0,1-1.62.54,2.71,2.71,0,0,1,1.92,1.1,3,3,0,0,1,.61,1.73v.83c0,.25,0,.53,0,.83a2.07,2.07,0,0,0,.09.58l.07.14h-1.85a.43.43,0,0,1,0-.11l0-.12,0-.36v-.89a2.76,2.76,0,0,0-1.06-2.57,4.77,4.77,0,0,0-2.2-.36h-1.56v4.41h-2V160.89Zm2.13,1.76a5.09,5.09,0,0,0-2.39-.41h-1.69v4.06h1.79a5.31,5.31,0,0,0,1.88-.25,2,2,0,0,0,.41-3.4Z" transform="translate(-146.13 -146.26)"/></svg>