<svg xmlns="http://www.w3.org/2000/svg" width="12" height="12" viewBox="0 0 12 12">
  <path id="Path_902" data-name="Path 902" d="M2.127,9.233a5.965,5.965,0,0,1,0-2.471,1.307,1.307,0,0,0,1.437-.6A1.306,1.306,0,0,0,2.972,4.72,5.965,5.965,0,0,1,4.72,2.972a1.307,1.307,0,0,0,1.441.591,1.306,1.306,0,0,0,.6-1.437,5.965,5.965,0,0,1,2.471,0,1.307,1.307,0,0,0,.6,1.437,1.306,1.306,0,0,0,1.441-.591A5.965,5.965,0,0,1,13.022,4.72a1.307,1.307,0,0,0-.591,1.441,1.306,1.306,0,0,0,1.437.6,5.965,5.965,0,0,1,0,2.471,1.307,1.307,0,0,0-1.437.6,1.306,1.306,0,0,0,.591,1.441,5.965,5.965,0,0,1-1.747,1.747,1.307,1.307,0,0,0-1.441-.591,1.306,1.306,0,0,0-.6,1.437,5.965,5.965,0,0,1-2.471,0,1.307,1.307,0,0,0-.6-1.437,1.306,1.306,0,0,0-1.441.591,5.965,5.965,0,0,1-1.747-1.747,1.307,1.307,0,0,0,.591-1.441,1.306,1.306,0,0,0-1.437-.6ZM3.2,8.123A2.117,2.117,0,0,1,4.515,11.3q.086.092.178.178A2.117,2.117,0,0,1,7.871,12.8q.126,0,.252,0A2.117,2.117,0,0,1,11.3,11.479q.092-.086.178-.178A2.117,2.117,0,0,1,12.8,8.123q0-.126,0-.252a2.117,2.117,0,0,1-1.317-3.178q-.087-.091-.178-.178A2.117,2.117,0,0,1,8.123,3.2q-.126,0-.252,0A2.117,2.117,0,0,1,4.693,4.515q-.092.086-.178.178A2.117,2.117,0,0,1,3.2,7.871Q3.2,8,3.2,8.123ZM8,9.8A1.8,1.8,0,1,1,9.8,8,1.8,1.8,0,0,1,8,9.8ZM8,8.6A.6.6,0,1,0,7.4,8,.6.6,0,0,0,8,8.6Z" transform="translate(-1.997 -1.997)" />
</svg>
