<svg xmlns="http://www.w3.org/2000/svg" width="12.2" height="10.788" viewBox="0 0 12.2 10.788">
  <path id="Path_901" data-name="Path 901" d="M9.857,3A3.229,3.229,0,0,1,13,6.429c0,4-4.286,6.286-5.714,7.143-1.13-.678-4.047-2.25-5.218-4.857H1V7.571h.691a5.448,5.448,0,0,1-.12-1.143A3.243,3.243,0,0,1,4.714,3,3.781,3.781,0,0,1,7.286,4.143,3.781,3.781,0,0,1,9.857,3Zm0,1.143a2.633,2.633,0,0,0-1.763.808l-.808.808-.808-.808a2.633,2.633,0,0,0-1.763-.808,2.107,2.107,0,0,0-2,2.286,4.319,4.319,0,0,0,.153,1.143H4.105L5.286,5.6,7,8.461l.534-.889h2.609V8.714H8.181L7,10.682,5.286,7.825l-.534.889h-1.4a8.075,8.075,0,0,0,2.021,2.23,15.376,15.376,0,0,0,1.383.971c.171.108.34.211.534.327.194-.115.363-.219.534-.326A15.4,15.4,0,0,0,9.2,10.945c1.7-1.354,2.655-2.834,2.655-4.516A2.094,2.094,0,0,0,9.857,4.143Z" transform="translate(-0.9 -2.9)" fill="#fff" stroke="#fff" stroke-width="0.2"/>
</svg>
