<svg xmlns="http://www.w3.org/2000/svg" width="18" height="18" viewBox="0 0 18 18">
  <path id="toggles" d="M1631.434,3577.557v7.661a.783.783,0,1,1-1.565,0v-7.661a.783.783,0,0,1,1.565,0Zm-.782-7.322a.783.783,0,0,0,.782-.783v-.669a.783.783,0,1,0-1.565,0v.669A.783.783,0,0,0,1630.652,3570.235ZM1619.67,3577a2.335,2.335,0,1,1-2.335-2.354A2.348,2.348,0,0,1,1619.67,3577Zm-1.565,0a.77.77,0,1,0-.77.789A.781.781,0,0,0,1618.105,3577Zm8.23,3.849a2.335,2.335,0,1,1-2.335-2.355A2.347,2.347,0,0,1,1626.335,3580.849Zm-1.565,0a.77.77,0,1,0-.77.79A.781.781,0,0,0,1624.77,3580.849Zm8.23-7.247a2.335,2.335,0,1,1-2.335-2.355A2.347,2.347,0,0,1,1633,3573.6Zm-1.565,0a.77.77,0,1,0-.77.79A.781.781,0,0,0,1631.434,3573.6ZM1624,3583.984a.782.782,0,0,0-.783.783v.45a.783.783,0,1,0,1.565,0v-.45A.782.782,0,0,0,1624,3583.984Zm0-6.455a.783.783,0,0,0,.782-.783v-7.964a.783.783,0,1,0-1.565,0v7.964A.783.783,0,0,0,1624,3577.529Zm-6.652,2.851a.783.783,0,0,0-.783.783v4.054a.783.783,0,1,0,1.565,0v-4.054A.782.782,0,0,0,1617.348,3580.38Zm0-6.721a.783.783,0,0,0,.782-.783v-4.093a.783.783,0,1,0-1.565,0v4.093A.783.783,0,0,0,1617.348,3573.659Z" transform="translate(-3568 1633) rotate(-90)" fill="#fff"/>
</svg>
