<svg version="1.1" id="avatar" xmlns="http://www.w3.org/2000/svg" xmlns:xlink="http://www.w3.org/1999/xlink" x="0px" y="0px"
     width="1024px" height="1024px" viewBox="0 0 1024 1024" enable-background="new 0 0 1024 1024" xml:space="preserve" fill="#D5D5D5">
<path d="M512.002,8.057C233.098,8.057,7,233.682,7,511.996c0,278.33,226.098,503.948,505.002,503.948
    c278.899,0,504.998-225.618,504.998-503.948C1017,233.682,790.901,8.057,512.002,8.057z M517.069,977.108
    c-171.562,0-293.432-104.875-295.168-106.611c27.778-16.159,141.757-38.287,168.439-55.04
    c29.54-18.554,20.047-120.051,20.047-120.051l-20.047-17.503c0,0-4.035-46.479-13.786-62.526
    c-16.686-27.46-40.102-100.032-40.102-100.032s-20.047-14.568-20.047-40.03c0-25.455,20.047-40.007,20.047-40.007
    s-15.663-70.83-15.663-120.051c0-111.904,85.294-160.058,202.167-160.058c116.882,0,181.912,56.654,181.912,160.058
    c0,49.221-7.514,120.051-7.514,120.051s20.047,14.552,20.047,40.007c0,25.462-20.047,40.03-20.047,40.03
    s-20.604,62.713-40.1,100.032c-8.7,16.64-13.788,62.526-13.788,62.526l-20.049,17.503c0,0-9.493,101.497,20.049,120.051
    c26.334,16.535,137.734,38.318,167.316,54.417C810.782,871.833,688.638,977.108,517.069,977.108z"/>
</svg>
