<?xml version="1.0" encoding="UTF-8" standalone="no"?>
<svg width="107px" height="106px" viewBox="0 0 107 106" version="1.1" xmlns="http://www.w3.org/2000/svg" xmlns:xlink="http://www.w3.org/1999/xlink" xmlns:sketch="http://www.bohemiancoding.com/sketch/ns">
    <!-- Generator: Sketch 3.4.4 (17249) - http://www.bohemiancoding.com/sketch -->
    <title>haha</title>
    <desc>Created with Sketch.</desc>
    <defs>
        <path d="M73.6652924,-1.11022302e-15 C71.6169924,18.5129541 55.9078671,32.9122807 36.8326462,32.9122807 C17.7574253,32.9122807 2.04830001,18.5129541 -2.46469511e-14,-4.4408921e-16 L73.6652924,0 Z" id="path-1"></path>
    </defs>
    <g id="FB-emojii-Freebies" stroke="none" stroke-width="1" fill="none" fill-rule="evenodd" sketch:type="MSPage">
        <g sketch:type="MSArtboardGroup" transform="translate(-429.000000, -99.000000)" id="haha">
            <g sketch:type="MSLayerGroup" transform="translate(429.411765, 99.000000)">
                <g id="emoji" transform="translate(0.000000, 0.000000)">
                    <ellipse id="body" fill="#FFDA6A" sketch:type="MSShapeGroup" cx="52.9411765" cy="52.8947368" rx="52.9411765" ry="52.8947368"></ellipse>
                    <g id="expression" transform="translate(16.470588, 27.035088)">
                        <path d="M4.83060108,4.45408065 L17.7717776,10.9189929 L17.7717776,6.71361596 L4.83060108,13.1785282 C3.66829874,13.7591696 3.19718263,15.1712782 3.7783338,16.332561 C4.35948497,17.4938438 5.77283331,17.9645466 6.93513565,17.3839052 L19.8763121,10.9189929 C21.610544,10.0526376 21.610544,7.57997127 19.8763121,6.71361596 L6.93513565,0.248703684 C5.77283331,-0.331937708 4.35948497,0.138765143 3.7783338,1.30004793 C3.19718263,2.46133071 3.66829874,3.87343926 4.83060108,4.45408065 Z M67.1835423,0.248703684 L54.2423658,6.71361596 C52.5081339,7.57997127 52.5081339,10.0526376 54.2423658,10.9189929 L67.1835423,17.3839052 C68.3458446,17.9645466 69.7591929,17.4938438 70.3403441,16.332561 C70.9214953,15.1712782 70.4503792,13.7591696 69.2880768,13.1785282 L56.3469004,6.71361596 L56.3469004,10.9189929 L69.2880768,4.45408065 C70.4503792,3.87343926 70.9214953,2.46133071 70.3403441,1.30004793 C69.7591929,0.138765143 68.3458446,-0.331937708 67.1835423,0.248703684 Z" id="eyes" fill="#000000" sketch:type="MSShapeGroup"></path>
                        <g id="mouth" transform="translate(0.000000, 27.035088)">
                            <mask id="mask-2" sketch:name="Mask" fill="white">
                                <use xlink:href="#path-1"></use>
                            </mask>
                            <use id="Mask" fill="#000000" sketch:type="MSShapeGroup" xlink:href="#path-1"></use>
                            <ellipse id="Oval-12" fill="#F55065" sketch:type="MSShapeGroup" mask="url(#mask-2)" cx="37.0588235" cy="32.3245614" rx="45.2941176" ry="22.9210526"></ellipse>
                        </g>
                    </g>
                </g>
            </g>
        </g>
    </g>
</svg>