<?xml version="1.0" encoding="utf-8"?>
<!-- Generator: Adobe Illustrator 19.2.1, SVG Export Plug-In . SVG Version: 6.00 Build 0)  -->
<svg version="1.1" id="Layer_1" xmlns="http://www.w3.org/2000/svg" xmlns:xlink="http://www.w3.org/1999/xlink" x="0px" y="0px"
	 viewBox="0 0 40 40" style="enable-background:new 0 0 40 40;" xml:space="preserve">
<style type="text/css">
	.st0{fill:#757575;}
</style>
<g>
	<path class="st0" d="M33.3,31.9v1.4H2.9V12.4h30.5v1.7c0.3,0,0.4-0.1,0.6-0.1c0.1,0,0.4,0,0.5,0V7.1c0-0.8-0.6-1.5-1.5-1.5H3.1
		C2.3,5.4,1.6,6,1.6,7.1v26c0,0.8,0.6,1.5,1.5,1.5h29.7c0.8,0,1.5-0.6,1.5-1.5v-1c-0.1,0-0.4,0-0.5,0C33.9,32,33.6,31.9,33.3,31.9z
		 M2.9,6.9h30.5v4.6H2.9C2.9,11.4,2.9,6.9,2.9,6.9z"/>
	<circle class="st0" cx="6.4" cy="9.1" r="0.9"/>
	<circle class="st0" cx="10.9" cy="9.1" r="0.9"/>
	<circle class="st0" cx="15.4" cy="9.1" r="0.9"/>
	<path class="st0" d="M18.6,19.5c-0.3-0.1-0.5,0-0.6,0.3l-1.4,5.9c-0.1,0.3,0,0.5,0.3,0.6c0.3,0.1,0.5,0,0.6-0.3l1.4-5.9
		C19,19.9,18.9,19.6,18.6,19.5z"/>
	<path class="st0" d="M12.8,22.9l2.3-2.3c0.3-0.3,0.3-0.5,0-0.8c-0.3-0.3-0.5-0.3-0.8,0l-2.8,2.8c-0.3,0.3-0.3,0.5,0,0.8
		c0.1,0.1,0.1,0.1,0.3,0.1l2.6,2.6c0.3,0.3,0.5,0.3,0.8,0s0.3-0.5,0-0.8L12.8,22.9z"/>
	<path class="st0" d="M23.9,22.4L21,19.6c-0.3-0.3-0.5-0.3-0.8,0c-0.3,0.3-0.3,0.5,0,0.8l2.3,2.3L20.3,25c-0.3,0.3-0.3,0.5,0,0.8
		s0.5,0.3,0.8,0l2.8-2.8c0.1-0.1,0.3-0.3,0.1-0.4C24,22.8,24,22.5,23.9,22.4z"/>
	<path class="st0" d="M33.7,23.4c-1,0-1.9,0.9-1.9,1.9c0,0.4,0.1,0.6,0.3,1c0,0.1,0.1,0.3,0.3,0.3v0.6c0,0.4,0.1,0.8,0.4,1
		c0.3,0.3,0.6,0.4,1,0.4c0.8,0,1.4-0.6,1.4-1.4v-0.6c0.1-0.1,0.1-0.3,0.3-0.3c0.1-0.3,0.3-0.6,0.3-1C35.8,24.3,34.9,23.4,33.7,23.4z
		 M34.4,26.4L34.4,26.4l-0.1,1c0,0.1,0,0.3-0.1,0.4c0,0.1-0.1,0.1-0.4,0.1s-0.5-0.3-0.5-0.5v-1h-0.1c-0.3-0.3-0.4-0.5-0.4-0.9
		c0-0.5,0.5-1,1-1s1,0.5,1,1C34.7,25.9,34.6,26.1,34.4,26.4z"/>
	<path class="st0" d="M33.7,19.9c-1,0-2,0.3-3.1,0.8v-2.4c0-1.7,1.4-3.2,3.2-3.2c1.7,0,3.2,1.4,3.2,3.2v0.6c0,0.3,0.3,0.5,0.5,0.5
		s0.5-0.3,0.5-0.5v-0.6c0-2-1.5-3.8-3.6-4.1c-0.1,0-0.4,0-0.5,0c-0.3,0-0.4,0-0.6,0.1c-1.9,0.3-3.5,1.9-3.5,4v3.3
		c-1.3,1.2-1.9,2.8-1.9,4.6c0,3.2,2.3,5.6,5.4,6c0.3,0,0.4,0,0.6,0c0.1,0,0.4,0,0.5,0c3.1-0.3,5.5-2.9,5.5-6
		C39.9,22.5,37.1,19.9,33.7,19.9z M37.4,29.6c-0.5,0.4-1,0.8-1.5,1c-1.3,0.5-2.8,0.5-4,0c-0.6-0.3-1.2-0.6-1.5-1
		c-0.5-0.5-0.8-1-1-1.5c-0.3-0.6-0.4-1.3-0.4-1.9c0-0.6,0.1-1.3,0.4-1.9c0.3-0.6,0.6-1.2,1-1.5c0.5-0.5,1-0.8,1.5-1
		c0.6-0.3,1.3-0.4,1.9-0.4c0.6,0,1.3,0.1,1.9,0.4c0.6,0.3,1.2,0.6,1.5,1c0.5,0.5,0.8,1,1,1.5c0.3,0.6,0.4,1.3,0.4,1.9
		c0,0.6-0.1,1.3-0.4,1.9C38.2,28.7,37.8,29.2,37.4,29.6z"/>
</g>
</svg>
