<?xml version="1.0" encoding="UTF-8" standalone="no"?>
<svg width="107px" height="106px" viewBox="0 0 107 106" version="1.1" xmlns="http://www.w3.org/2000/svg" xmlns:xlink="http://www.w3.org/1999/xlink" xmlns:sketch="http://www.bohemiancoding.com/sketch/ns">
    <!-- Generator: Sketch 3.4.4 (17249) - http://www.bohemiancoding.com/sketch -->
    <title>wow</title>
    <desc>Created with Sketch.</desc>
    <defs></defs>
    <g id="FB-emojii-Freebies" stroke="none" stroke-width="1" fill="none" fill-rule="evenodd" sketch:type="MSPage">
        <g sketch:type="MSArtboardGroup" transform="translate(-182.000000, -347.000000)" id="wow">
            <g sketch:type="MSLayerGroup" transform="translate(182.352941, 347.017544)">
                <g id="emojii" sketch:type="MSShapeGroup">
                    <ellipse id="body" fill="#FFDA6A" cx="52.9411765" cy="52.8947368" rx="52.9411765" ry="52.8947368"></ellipse>
                    <path d="M52.9411765,95.2105263 C61.3878844,95.2105263 68.2352941,85.7378142 68.2352941,74.0526316 C68.2352941,62.367449 61.3878844,52.8947368 52.9411765,52.8947368 C44.4944685,52.8947368 37.6470588,62.367449 37.6470588,74.0526316 C37.6470588,85.7378142 44.4944685,95.2105263 52.9411765,95.2105263 Z M27.095413,51.1063897 C31.2093563,51.8317889 35.3767095,47.699388 36.403457,41.876414 C37.4302044,36.05344 34.9275376,30.7449347 30.8135943,30.0195355 C26.699651,29.2941363 22.5322978,33.4265372 21.5055504,39.2495111 C20.478803,45.0724851 22.9814697,50.3809905 27.095413,51.1063897 Z M79.2413962,51.1063897 C75.1274529,51.8317889 70.9600997,47.699388 69.9333522,41.876414 C68.9066048,36.05344 71.4092716,30.7449347 75.5232149,30.0195355 C79.6371582,29.2941363 83.8045114,33.4265372 84.8312588,39.2495111 C85.8580062,45.0724851 83.3553395,50.3809905 79.2413962,51.1063897 Z M23.8619192,18.0542863 C23.9027061,18.0033474 24.0233821,17.8698695 24.2201572,17.6810149 C24.5696049,17.345633 24.9890369,17.0059925 25.4739313,16.6879068 C27.9717928,15.0493353 31.0174986,14.6329201 34.7299402,16.2225709 C35.6257575,16.6061558 36.6631909,16.1915465 37.0471125,15.296515 C37.4310342,14.4014835 37.0160609,13.3649602 36.1202436,12.9813753 C31.2562843,10.8986498 26.9764927,11.4837917 23.5368459,13.7401647 C22.3723292,14.5040757 21.5620553,15.2817349 21.1059117,15.8514143 C20.4970713,16.6117971 20.6204619,17.721339 21.3815124,18.3296453 C22.1425629,18.9379516 23.2530789,18.8146691 23.8619192,18.0542863 Z M85.2308975,15.8514143 C84.7747539,15.2817349 83.96448,14.5040757 82.7999633,13.7401647 C79.3603165,11.4837917 75.0805249,10.8986498 70.2165656,12.9813753 C69.3207483,13.3649602 68.905775,14.4014835 69.2896967,15.296515 C69.6736183,16.1915465 70.7110517,16.6061558 71.606869,16.2225709 C75.3193106,14.6329201 78.3650164,15.0493353 80.8628779,16.6879068 C81.3477723,17.0059925 81.7672043,17.345633 82.116652,17.6810149 C82.3134271,17.8698695 82.4341031,18.0033474 82.47489,18.0542863 C83.0837303,18.8146691 84.1942463,18.9379516 84.9552968,18.3296453 C85.7163473,17.721339 85.8397379,16.6117971 85.2308975,15.8514143 Z" id="expression" fill="#000000"></path>
                </g>
            </g>
        </g>
    </g>
</svg>