<svg id="noun-details-1251525" xmlns="http://www.w3.org/2000/svg" width="17.618" height="20.109" viewBox="0 0 17.618 20.109">
  <path id="Path_15935" data-name="Path 15935" d="M157.8,43.512h-12.38a2.619,2.619,0,0,0-2.619,2.619V61a2.619,2.619,0,0,0,2.619,2.619H157.8A2.619,2.619,0,0,0,160.42,61V46.131a2.619,2.619,0,0,0-2.619-2.619ZM158.992,61a1.19,1.19,0,0,1-1.19,1.19h-12.38A1.19,1.19,0,0,1,144.23,61V46.131a1.19,1.19,0,0,1,1.19-1.19H157.8a1.19,1.19,0,0,1,1.19,1.19Z" transform="translate(-142.802 -43.512)"/>
  <path id="Path_15936" data-name="Path 15936" d="M208.533,266h-1.178a.714.714,0,0,0,0,1.429h1.178a.714.714,0,1,0,0-1.429Z" transform="translate(-203.926 -256.541)" fill="#2c6df5"/>
  <path id="Path_15937" data-name="Path 15937" d="M303.321,266h-6.978a.714.714,0,0,0,0,1.429h6.978a.714.714,0,1,0,0-1.429Z" transform="translate(-289.132 -256.541)" fill="#2c6df5"/>
  <path id="Path_15938" data-name="Path 15938" d="M208.533,165.2h-1.178a.714.714,0,1,0,0,1.429h1.178a.714.714,0,1,0,0-1.429Z" transform="translate(-203.926 -160.026)" fill="#2c6df5"/>
  <path id="Path_15939" data-name="Path 15939" d="M303.321,165.2h-6.978a.714.714,0,0,0,0,1.429h6.978a.714.714,0,0,0,0-1.429Z" transform="translate(-289.132 -160.026)" fill="#2c6df5"/>
  <path id="Path_15940" data-name="Path 15940" d="M208.533,366.8h-1.178a.714.714,0,1,0,0,1.428h1.178a.714.714,0,1,0,0-1.428Z" transform="translate(-203.926 -353.055)" fill="#2c6df5"/>
  <path id="Path_15941" data-name="Path 15941" d="M303.321,366.8h-6.978a.714.714,0,1,0,0,1.428h6.978a.714.714,0,1,0,0-1.428Z" transform="translate(-289.132 -353.055)" fill="#2c6df5"/>
</svg>
