<svg width="310px" height="310px" viewBox="0 -26 310 310" xmlns="http://www.w3.org/2000/svg">
  <g id="packet" transform="translate(-1719.982 -3702.416)">
    <path id="Path_29" data-name="Path 29" d="M2029.982,3732.7a30.287,30.287,0,0,0-30.287-30.287H1750.269a30.287,30.287,0,0,0-30.287,30.287v197.425a30.288,30.288,0,0,0,30.287,30.288h249.426a30.288,30.288,0,0,0,30.287-30.288Zm-280.021-6.287h249.567a6.611,6.611,0,0,1,6.454,6.283v.262l-126.748,126.55a6.231,6.231,0,0,1-4.382,1.774,6.056,6.056,0,0,1-4.294-1.774l-126.576-126.566v-.246A6.2,6.2,0,0,1,1749.961,3726.416Zm249.567,210H1749.961a6.161,6.161,0,0,1-5.979-6.245V3767.21l109.394,109.434a30.043,30.043,0,0,0,21.4,8.87,30.525,30.525,0,0,0,21.6-8.871l109.605-109.415v162.943A6.577,6.577,0,0,1,1999.528,3936.416Z"/>
  </g>
</svg>
