<svg viewBox="0 0 1128.00 1128.00" fill="#cb0606" class="icon" version="1.1"
    xmlns="http://www.w3.org/2000/svg">
    <g id="SVGRepo_bgCarrier" stroke-width="0"></g>
    <g id="SVGRepo_tracerCarrier" stroke-linecap="round" stroke-linejoin="round"></g>
    <g id="SVGRepo_iconCarrier">
        <path d="M1103.834104 757.260169L910.925506 423.059499 718.016909 88.858829C686.001595 33.158717 628.341362 0 564.147392 0c-64.357314 0-121.854203 33.158717-154.03286 88.858829L24.133993 757.260169c-32.178657 55.700112-32.178657 122.18089 0 177.881002s89.675546 88.858829 154.03286 88.858829h771.797735c64.357314 0 121.854203-33.158717 154.03286-88.858829s32.015313-122.18089-0.163344-177.881002z m-84.775243 128.714628a78.780539 78.780539 0 0 1-69.094273 39.855798H178.166853c-28.911788 0-54.720051-14.864253-69.094274-39.855798a79.368576 79.368576 0 0 1 0-79.874941L494.889775 137.86186A79.221566 79.221566 0 0 1 564.147392 98.006062c28.911788 0 54.720051 14.864253 69.094273 39.855798l385.817196 668.40134a79.058223 79.058223 0 0 1 0 79.711597zM567.087574 623.155208c27.11501 0 49.003031-21.88802 49.003031-49.003031V275.397033c0-27.11501-21.88802-49.003031-49.003031-49.003031s-49.003031 21.88802-49.003031 49.003031v298.755144c0 26.951667 21.88802 49.003031 49.003031 49.003031zM567.087574 690.126017c-43.449354 0-78.731536 35.282182-78.731536 78.731536s35.282182 78.731536 78.731536 78.731536 78.731536-35.282182 78.731536-78.731536-35.282182-78.731536-78.731536-78.731536z m0 98.006061c-10.617323 0-19.274525-8.657202-19.274526-19.274525 0-10.617323 8.657202-19.274525 19.274526-19.274525s19.274525 8.657202 19.274525 19.274525c0 10.617323-8.657202 19.274525-19.274525 19.274525z"></path>
    </g>
</svg>