<svg xmlns="http://www.w3.org/2000/svg" width="20" height="20" viewBox="0 0 20 20">
  <path id="information" d="M2513.415,2031.046a.761.761,0,0,1-.747-.908l1.071-5.437-.59.332a.761.761,0,0,1-.747-1.326l2.029-1.143a.761.761,0,0,1,1.12.81l-1.11,5.634.91-.4a.761.761,0,0,1,.608,1.4l-2.241.976A.765.765,0,0,1,2513.415,2031.046Zm2.159-10.383a1.084,1.084,0,1,0-.77.32A1.094,1.094,0,0,0,2515.574,2020.663ZM2524,2025a10,10,0,1,0-10,10A10.012,10.012,0,0,0,2524,2025Zm-1.739,0a8.261,8.261,0,1,1-8.261-8.261A8.271,8.271,0,0,1,2522.261,2025Z" transform="translate(-2504 -2015)" />
</svg>
