<svg width="102px" height="102px" viewBox="0 0 1920.00 1920.00"
  xmlns="http://www.w3.org/2000/svg" stroke="#f7aa02" stroke-width="0.019200000000000002" transform="rotate(0)">
  <g id="SVGRepo_bgCarrier" stroke-width="0"></g>
  <g id="SVGRepo_tracerCarrier" stroke-linecap="round" stroke-linejoin="round" stroke="#CCCCCC" stroke-width="7.68"></g>
  <g id="SVGRepo_iconCarrier">
    <path d="M320.006 962.032c0 352.866 287.052 639.974 640.026 639.974 173.767 0 334.093-69.757 451.938-188.072l-211.928-211.912h480.019v479.981l-155.046-155.114C1377.649 1674.883 1177.24 1762 960.032 1762 518.814 1762 160 1403.134 160 962.032ZM959.968 162C1401.186 162 1760 520.866 1760 961.968h-160.006c0-352.866-287.052-639.974-640.026-639.974-173.767 0-334.093 69.757-451.938 188.072l211.928 211.912H239.94V241.997L394.985 397.03C542.351 249.117 742.76 162 959.968 162Z" fill-rule="evenodd"></path>
  </g>
</svg>