<svg xmlns="http://www.w3.org/2000/svg" width="20" height="16.483" viewBox="0 0 20 16.483">
  <path id="list" d="M1413,2691.429a1.323,1.323,0,0,1-1.326,1.319h-12.107a1.319,1.319,0,1,1,0-2.638h12.107A1.323,1.323,0,0,1,1413,2691.429Zm-13.433,8.132h6.883a1.319,1.319,0,1,0,0-2.637h-6.883a1.319,1.319,0,1,0,0,2.637Zm9.713,4.176h-9.713a1.319,1.319,0,1,0,0,2.637h9.713a1.319,1.319,0,1,0,0-2.637ZM1394.437,2690a1.454,1.454,0,0,0-1.017.417,1.428,1.428,0,0,0,0,2.022,1.445,1.445,0,0,0,2.033,0,1.427,1.427,0,0,0,0-2.022A1.453,1.453,0,0,0,1394.437,2690Zm0,6.813a1.452,1.452,0,0,0-1.017.417,1.447,1.447,0,1,0,1.017-.417Zm0,6.813a1.454,1.454,0,0,0-1.017.417,1.428,1.428,0,0,0,0,2.022,1.447,1.447,0,0,0,2.033,0,1.427,1.427,0,0,0,0-2.022A1.453,1.453,0,0,0,1394.437,2703.626Z" transform="translate(-1393 -2690)"/>
</svg>
