<svg xmlns="http://www.w3.org/2000/svg" width="14" height="14" viewBox="0 0 14 14">
  <path id="Path_904" data-name="Path 904" d="M9,2A7,7,0,1,1,2,9,7,7,0,0,1,9,2ZM9,3.4A5.6,5.6,0,1,0,14.6,9,5.6,5.6,0,0,0,9,3.4Zm2.683,2.336a.415.415,0,0,1,.578.579q-2.289,3.2-2.519,3.428A1.05,1.05,0,0,1,8.257,8.257q.393-.392,3.426-2.521ZM12.85,8.3a.7.7,0,1,1-.7.7A.7.7,0,0,1,12.85,8.3Zm-7.7,0a.7.7,0,1,1-.7.7A.7.7,0,0,1,5.15,8.3ZM6.773,5.783a.7.7,0,1,1-.99,0,.7.7,0,0,1,.99,0ZM9,4.45a.7.7,0,1,1-.7.7A.7.7,0,0,1,9,4.45Z" transform="translate(-2 -2)"/>
</svg>
