<svg xmlns="http://www.w3.org/2000/svg" width="20" height="18.952" viewBox="0 0 20 18.952">
  <path id="star" d="M965.915,1815.931a.913.913,0,0,1-.494-.145l-5.124-3.3-5.124,3.3a.915.915,0,0,1-1.034-.031.9.9,0,0,1-.335-.971l1.6-5.645-4.789-4.018a.9.9,0,0,1-.278-.969.908.908,0,0,1,.8-.621l5.744-.41,2.585-5.615a.912.912,0,0,1,1.654,0l2.585,5.615,5.744.41a.908.908,0,0,1,.8.621.9.9,0,0,1-.278.969l-4.789,4.018,1.6,5.645a.9.9,0,0,1-.335.971A.913.913,0,0,1,965.915,1815.931Zm-5.618-5.419a.912.912,0,0,1,.494.145l3.594,2.312-1.108-3.9a.9.9,0,0,1,.288-.934l3.531-2.963-4.055-.29a.909.909,0,0,1-.762-.525l-1.982-4.305-1.982,4.305a.909.909,0,0,1-.762.525l-4.056.29,3.531,2.963a.9.9,0,0,1,.288.934l-1.108,3.9,3.594-2.312A.912.912,0,0,1,960.3,1810.513Z" transform="translate(-950.297 -1796.979)"/>
</svg>
