<svg xmlns="http://www.w3.org/2000/svg" x="0px" y="0px" viewBox="0 0 800 800" style="overflow:hidden!important;"><g id="svga-group-wrapper" transform="scale(4 4)"><g id="svga-group-backs-single"><path id="SvgjsPath7188" d="M225 225H-25V-25h250V225z" fill="#f9f2e7" stroke-width="none" opacity="1" stroke="none"></path><path id="SvgjsPath7189" d="M30.816 56.624l3.375 1.049 -2.886 2.041 0.045 3.535 -2.833-2.114 -3.347 1.136 1.134-3.348 -2.114-2.833 3.535 0.044 2.041-2.886L30.816 56.624zM40.051 33.259l-1.586 5.428 -5.372 1.771 4.672 3.187L37.79 49.3l4.475-3.458 5.385 1.725 -1.905-5.325 3.303-4.588 -5.653 0.168L40.051 33.259zM9.358 99.38l-2.422 3.986 -4.711 0.273 3.104 3.526 -1.17 4.508 4.344-1.807 3.987 2.514 -0.421-4.643 3.633-2.954 -4.602-1.063L9.358 99.38zM11.271 71.054l0.168 3.531 -2.814 2.14 3.41 0.932 1.166 3.337 1.939-2.955 3.534-0.077 -2.21-2.759 1.019-3.384 -3.306 1.25L11.271 71.054zM5.396 51.958l3.615-2.959 0.182 4.63 3.969 2.479L8.755 57.71 7.592 62.2l-2.905-3.641L0 58.856l2.612-3.853 -1.735-4.307L5.396 51.958zM5.222 135.998l2.556-1.095 -0.621 2.515 1.908 1.88 -2.799 0.256 -1.377 2.256 -1.111-2.357 -2.758-0.484 2.115-1.714 -0.329-2.556L5.222 135.998zM20.532 155.007l2.81 0.867 -2.402 1.688 0.038 2.922 -2.358-1.748 -2.785 0.939 0.943-2.768 -1.76-2.342 2.942 0.037 1.699-2.387L20.532 155.007zM31.034 83.795l4.647 0.739 -3.406 3.215 0.738 4.622 -4.139-2.236 -4.191 2.116 0.849-4.598 -3.329-3.312 4.666-0.606 2.132-4.164L31.034 83.795zM22.119 29.902l5.203 1.198 -4.104 3.329 0.474 5.232 -4.507-2.832 -4.909 2.035 1.322-5.08 -3.509-3.974 5.325-0.307 2.738-4.491L22.119 29.902zM26.758 136.314l4.432-0.083 -2.633 3.463 1.437 4.064 -4.2-1.354L22.251 145l0.04-4.301 -3.627-2.46 4.226-1.304 1.298-4.115L26.758 136.314zM56.458 148.571l4.296-0.914 -1.894 3.861 2.184 3.68 -4.349-0.525 -2.947 3.188 -0.792-4.187 -4.005-1.709 3.86-2.063 0.468-4.242L56.458 148.571zM41.369 162.985l5.203 1.198 -4.104 3.329 0.474 5.232 -4.507-2.832 -4.909 2.035 1.322-5.08 -3.509-3.975 5.325-0.307 2.738-4.491L41.369 162.985zM30.869 110.835l5.203 1.199 -4.104 3.328 0.474 5.232 -4.507-2.832 -4.909 2.035 1.322-5.08 -3.509-3.974 5.325-0.308 2.738-4.49L30.869 110.835zM45.782 133.007l2.81 0.867 -2.402 1.688 0.038 2.922 -2.358-1.748 -2.785 0.939 0.943-2.768 -1.76-2.342 2.942 0.037 1.699-2.387L45.782 133.007zM39.066 13.124l3.375 1.049 -2.886 2.041 0.045 3.535 -2.833-2.114 -3.347 1.136 1.134-3.348 -2.114-2.833 3.535 0.044 2.041-2.886L39.066 13.124zM60.934 3.517L65.4 3.387l-2.609 3.538 1.505 4.106 -4.255-1.331 -3.536 2.667 -0.019-4.36L52.795 5.55l4.244-1.365L58.293 0 60.934 3.517zM65.782 172.007l2.81 0.867 -2.402 1.688 0.038 2.922 -2.358-1.748 -2.785 0.939 0.943-2.768 -1.76-2.342 2.942 0.037 1.699-2.387L65.782 172.007zM49.908 108.489l4.072-0.469 -2.299 3.158 1.465 3.299 -3.91-0.764 -3.165 2.505 -0.116-3.63 -3.422-1.752 3.84-1.479 1.047-3.586L49.908 108.489zM169.184 120.86l-3.376-1.049 2.886-2.041 -0.045-3.535 2.833 2.113 3.347-1.135 -1.134 3.348 2.114 2.832 -3.535-0.045 -2.04 2.887L169.184 120.86zM159.948 144.224l1.587-5.428 5.371-1.771 -4.672-3.187 -0.024-5.655 -4.475 3.458 -5.386-1.725 1.905 5.325 -3.303 4.589 5.652-0.168L159.948 144.224zM190.642 78.103l2.422-3.986 4.712-0.273 -3.104-3.526 1.17-4.508 -4.345 1.807 -3.987-2.514 0.421 4.643 -3.633 2.954 4.602 1.063L190.642 78.103zM188.729 106.43l-0.168-3.531 2.814-2.14 -3.409-0.932L186.8 96.49l-1.939 2.955 -3.534 0.077 2.211 2.759 -1.02 3.384 3.307-1.25L188.729 106.43zM194.604 125.525l-3.615 2.959 -0.182-4.63 -3.969-2.479 4.406-1.602 1.163-4.49 2.905 3.642 4.688-0.298 -2.612 3.853 1.735 4.307L194.604 125.525zM194.778 41.485l-2.556 1.095 0.62-2.515 -1.907-1.88 2.799-0.256 1.377-2.256 1.11 2.357 2.759 0.484 -2.115 1.714 0.329 2.556L194.778 41.485zM179.468 22.477l-2.811-0.867 2.402-1.688L179.022 17l2.358 1.748 2.784-0.939 -0.943 2.768 1.76 2.342 -2.942-0.037 -1.699 2.387L179.468 22.477zM168.966 93.688l-4.647-0.739 3.406-3.215 -0.738-4.622 4.139 2.236 4.191-2.116 -0.85 4.598 3.329 3.312 -4.665 0.606 -2.132 4.164L168.966 93.688zM177.881 147.581l-5.203-1.198 4.104-3.329 -0.474-5.232 4.507 2.832 4.909-2.035 -1.322 5.08 3.509 3.975 -5.325 0.307 -2.737 4.491L177.881 147.581zM173.241 41.169l-4.432 0.083 2.634-3.463 -1.437-4.064 4.2 1.354 3.541-2.595 -0.039 4.301 3.627 2.46 -4.226 1.304 -1.299 4.115L173.241 41.169zM151.968 35.013l-4.296 0.914 1.894-3.861 -2.185-3.68 4.349 0.525 2.947-3.188 0.792 4.187 4.006 1.709 -3.86 2.063 -0.469 4.242L151.968 35.013zM158.631 14.498l-5.203-1.198 4.104-3.329 -0.474-5.232 4.507 2.832 4.909-2.035 -1.322 5.08 3.509 3.975 -5.325 0.307 -2.737 4.491L158.631 14.498zM169.131 66.648l-5.203-1.199 4.104-3.328 -0.474-5.232 4.507 2.832 4.909-2.035 -1.322 5.08 3.509 3.974 -5.325 0.308 -2.737 4.49L169.131 66.648zM131.544 149.7l-2.81-0.867 2.402-1.688 -0.038-2.922 2.358 1.748 2.784-0.939 -0.943 2.768 1.76 2.342 -2.942-0.037 -1.699 2.387L131.544 149.7zM160.934 164.36l-3.376-1.049 2.886-2.041 -0.045-3.535 2.833 2.113 3.347-1.135 -1.134 3.348 2.114 2.832 -3.535-0.045 -2.04 2.887L160.934 164.36zM139.065 173.967l-4.466 0.13 2.609-3.539 -1.505-4.105 4.255 1.33 3.535-2.667 0.019 4.36 3.691 2.457 -4.243 1.365 -1.254 4.186L139.065 173.967zM134.218 5.477l-2.811-0.867 2.402-1.688L133.772 0l2.358 1.748 2.784-0.939 -0.943 2.768 1.76 2.342 -2.942-0.037 -1.699 2.387L134.218 5.477zM151.776 111.519l-4.072 0.469 2.299-3.158 -1.465-3.299 3.91 0.764 3.165-2.505 0.115 3.63 3.423 1.752 -3.84 1.479 -1.048 3.586L151.776 111.519z" fill="#ffffff" stroke-width="none" opacity="1" stroke="none"></path></g><g id="svga-group-subwrapper" ><g id="svga-group-hair-back" ><path id="SvgjsPath7194" d="M38.058 105.866c-4.527-10.708-3.86-15.133-2.654-23.504 -2.078 2.251-3.322 5.27-6.713 8.063 0.263-2.006 4.269-13.639 4.587-14.493 -3.844 3.504-5.969 4.251-7.809 4.972 1.242-1.853 2.066-4.007 3.9-7.933h11.529c0.231 4.281 1.066 9.569 2.312 14.214C42.551 87.622 40.819 90.365 38.058 105.866zM158.91 74.599c-0.047 3.839-1.342 11.034-2.908 15.869 0.805 0.541 1.743 1.173 1.539 1.009 5.951 4.778 6.908 5.603 7.514 13.386 4.324-9.33 0.656-21.307 0.439-30.263H158.91zM165.502 74.599h4.441c-0.582 1.969-1.936 4.788-3.422 6.633C165.963 79.067 165.656 75.986 165.502 74.599z" fill="#a92d1c" stroke-width="none" opacity="1" stroke="none"></path><path id="SvgjsPath7195" d="M34.21 74.635c-3.399 8.93-3.599 11.16-5.399 15.54 2.85-2.348 4.987-6.981 6.9-8.22 -0.33 3.02-1.9 9.12-0.15 15.8 0.66 2.53 1.5 4.98 2.511 7.37 0.26-3.56 0.79-13.93 4.079-17.08 -2.26 5.95-3.55 13.73-3.55 19.8 -6.41-11.17-4.939-17.3-3.43-25.09 -2.34 2.67-3 6.01-7.49 8.73 1.53-3.23 2.021-7.07 5.19-14.94 -2.63 2.63-4.4 3.68-7.91 4.72 1.318-2.181 2.478-4.946 3.497-7.194h1.082c-0.999 2.154-2.031 4.326-3.289 6.204C28.881 79.245 31.4 77.325 34.21 74.635zM156.002 90.468c0.216 0.149 1.676 1.152 2.332 1.728 2.736 2.402 6.264 4.594 6.018 15.28 4.543-7.848 3.954-19.464 2.539-25.79 2.017-2.169 3.379-4.842 4.074-7.094l-1.203-0.011c-0.582 1.969-1.655 4.34-3.141 6.185 -0.56-2.165-0.865-4.579-1.019-5.966l-0.108-0.2c0.217 8.956 3.115 19.588-0.243 29.516C164.645 96.333 162.841 94.915 156.002 90.468z" fill="#8a1000" stroke-width="none" opacity="1" stroke="none"></path></g><g id="svga-group-humanbody-single"><path id="SvgjsPath7047" d="M195.417 199.778c-2.196-4.746-8.195-11.779-14.86-13.722 -8.239-2.403-26.837-5.308-33.733-6.923 -5.528-1.296-16.662-11.294-20.564-14.65 -0.7-0.6-1.273-1.839-1.287-2.76 -0.139-10.864 4.195-39.724 4.195-39.724H100 70.833c0 0 4.334 28.859 4.193 39.724 -0.011 0.921-0.587 2.16-1.285 2.76 -3.902 3.356-15.036 13.354-20.564 14.65 -6.897 1.615-25.495 4.619-33.733 7.022 -6.667 1.942-12.664 8.876-14.86 13.622 -3.708 8.008-4.584 22.5-4.584 35h100 100C200 222.278 199.123 207.786 195.417 199.778z" fill="#f6e4e2" stroke-width="none" opacity="1" stroke="none"></path><path id="SvgjsPath7048" d="M159.156 184.058c24.342 3.542 34.586 8.708 37.794 50.721H200c0-12.5-0.877-26.992-4.583-35 -2.196-4.746-8.195-11.779-14.86-13.722 -8.239-2.403-26.837-5.308-33.733-6.923 -5.528-1.296-18.242-12.069-21.643-16.35 3.36 4.704 12.791 15.605 21.054 18.46C150.188 182.61 153.48 183.232 159.156 184.058zM53.766 181.244c8.263-2.854 17.693-13.756 21.054-18.46 -3.4 4.28-16.114 15.054-21.643 16.35 -6.896 1.615-25.494 4.619-33.733 7.022 -6.665 1.942-12.664 8.876-14.86 13.622 -3.706 8.008-4.583 22.5-4.583 35h3.05c3.188-41.744 13.475-47.183 37.794-50.721C46.52 183.232 49.813 182.61 53.766 181.244z" fill="#ffffff" stroke-width="none" opacity="1" stroke="none"></path><path id="SvgjsPath7049" d="M95.646 197.62c0 0-5.074-1.609-7.083-2.379 -10.449-4.009-44.395-6.607-44.395-6.607s35.754 1.419 43.644 2.779c-0.458-4.767-3.017-20.004-3.017-20.004s5.149 16.815 6.409 21.057C91.878 194.734 95.646 197.62 95.646 197.62zM106.445 196.278c-0.089 0.073-0.191 0.168-0.302 0.268C106.256 196.461 106.358 196.372 106.445 196.278zM95.646 197.62c0 0 2.893 2.992 4.347 3.03 1.91 0.051 4.828-2.899 6.151-4.104 -1.265 0.957-4.159 1.391-5.31 1.436C99.504 198.033 95.646 197.62 95.646 197.62zM116.664 190.101c-1.545 0.248-4.386 0.789-4.386 0.789l2.287-14.89c-0.646 3.071-4.474 16.211-8.12 20.278 1.91-1.616 6.158-2.391 8.324-2.704 10.236-1.484 10.232-1.483 41.062-4.94C155.831 188.634 126.76 188.479 116.664 190.101z" fill="#e7c1bd" stroke-width="none" opacity="1" stroke="none"></path><path id="SvgjsPath7050" d="M195.417 199.778c-2.196-4.746-8.195-11.779-14.86-13.722 -8.239-2.403-26.837-5.308-33.733-6.923 -5.528-1.296-16.662-11.294-20.564-14.65 -0.7-0.6-1.273-1.839-1.287-2.76 -0.139-10.864 4.195-39.724 4.195-39.724H100 70.833c0 0 4.334 28.859 4.193 39.724 -0.011 0.921-0.587 2.16-1.285 2.76 -3.902 3.356-15.036 13.354-20.564 14.65 -6.897 1.615-25.495 4.619-33.733 7.022 -6.667 1.942-12.664 8.876-14.86 13.622 -3.708 8.008-4.584 22.5-4.584 35h100 100C200 222.278 199.123 207.786 195.417 199.778z" fill="none" stroke="#c8837c" stroke-width="1.5" opacity="1"></path></g><g id="svga-group-chinshadow-single"><path id="SvgjsPath7327" d="M100.021 171.866c8.183 0 16.871-4.943 24.199-10.675 -0.001-6.702 1.451-19.105 2.652-28.205 -15.382-2.247-38.406-2.279-53.766-0.152 1.184 8.96 2.625 21.206 2.671 28.02C83.119 166.767 91.822 171.866 100.021 171.866z" fill="url(#SvgjsLinearGradient7328)" opacity="1"></path></g><g id="svga-group-clothes-single" ><path id="SvgjsPath7308" d="M42.77 235.757l1.323-60.852c0 0 10.194-2.487 16.635-6.313 17.496 21.953 69.451 17.333 78.336-0.62 1.489 0.525 2.721 1.197 4.262 1.713 5 3.386 9.213 4.494 9.213 4.494l0.935 61.685C139.188 236.052 42.77 235.757 42.77 235.757z" fill="#f5f4f5" stroke-width="none" opacity="1"></path><path id="SvgjsPath7309" d="M154.014 177.705c-4.236-0.719-7.611-1.697-9.452-3.544 -5.343 10.025-26.763 16.378-33.855 17.309 20.554-6.276 29.188-10.813 32.598-21.583 1.99 2.383 6.522 3.549 12.313 4.538L154.014 177.705zM52.67 174.381c1.454-0.312 2.18-1.234 3.623-1.593l-1.528-1.867c-3.114 2.234-8.971 3.305-15.9 4.424l0.188 3.738c3.956-0.79 7.817-1.788 11.429-3.323 7.483 8.485 19.168 12.659 31.06 14.387C66.624 186.562 58.07 180.511 52.67 174.381z" fill="#ffffff" stroke-width="none" opacity="1"></path><path id="SvgjsPath7310" d="M137.861 170.055c-5.929 11.361-50.74 24.595-76.009 0.866 -1.571 0.615-6.271 2.085-6.271 2.085 18.406 23.08 72.345 23.227 86.702-0.112C142.221 172.87 139.321 170.737 137.861 170.055z" fill="#dfdde2" stroke-width="none" opacity="1"></path><path id="SvgjsPath7311" d="M139.008 167.841c-10.087 18.575-62.578 21.204-78.239 0.625 -5.72 1.556-11.219 4.876-16.756 5.707l-1.243 61.584 110.703 0.107 -0.855-62.386c-3.369-0.707-6.501-2.737-9.254-3.894C141.842 168.945 140.55 168.37 139.008 167.841zM60.39 169.087c13.903 23.086 68.817 18.455 79.419 0.099 1.286 0.499 1.615 0.696 3.106 1.183 -10.982 21.208-65.306 27.967-87.525 1.147C55.546 171.476 58.823 169.629 60.39 169.087zM54.287 172.418c17.963 27.046 77.26 22.856 89.583-1.287 1.771 1.391 4.53 2.989 7.936 3.735l1.66 59.08 -110.377 0.016 1.904-58.299C47.777 174.264 52.247 173.232 54.287 172.418z" fill="#b8b6c9" stroke-width="none" opacity="1"></path><path id="SvgjsPath7312" d="M-4.529 235.566c-2.574-13.852-2.292-47.592 9.013-47.521 13.136-5.311 29.269-11.404 42.802-15.311 6.908-7.246 13.436-14.137 26.188-21.314 0.389 2.599 1.874 8.541 0.011 11.773 -1.355 2.352-5.783 5.576-9.554 8.368 -2.029 2.72-3.927 5.374-6.599 9.089 5.168 22.301 9.601 33.78 10.097 53.123 0 0-1.452 0.689 64.471 0.397 2.215-22.339 4.993-33.561 10.379-54.098 0 0-4.308-5.014-7.207-8.87 -2.054-1.997-8.36-7.532-8.84-8.651 -1.175-2.741-0.548-6.188 0.11-11.367 10.793 4.873 17 12.021 26.082 21.303 7.729 2.119 30.86 9.967 42.445 15.216 3.965-0.11 6.203 1.999 7.872 5.466 5.405 11.195 4.126 27.297 2.18 42.789C185.83 235.989 49.887 238.17-4.529 235.566z" fill="#cbe9ee" stroke-width="none" opacity="1" stroke="none"></path><path id="SvgjsPath7313" d="M73.875 154.081c0.16 1.07 0.304 2.085 0.411 3.041 -0.218 0.266-17.212 23.353-17.336 23.525C61.126 171.148 67.1 161.305 73.875 154.081zM126.053 154.081c-0.159 1.07-0.184 2.085-0.291 3.041 0.218 0.266 16.931 22.469 17.054 22.642C138.391 170.914 132.828 161.305 126.053 154.081zM165.008 185.154c-4.28 6.231-5.194 8.382-9.879 14.557 1.071 0 2.799 0.166 3.87 0.166C162.663 193.592 162.67 190.393 165.008 185.154zM169.394 230.379c3.793-8.9 6.934-16.711 10.739-25.624l-1.247-2.014C175.717 211.896 172.354 221.199 169.394 230.379zM41.048 199.877c1.071 0 2.799-0.166 3.871-0.166 -4.685-6.175-5.599-6.561-9.878-12.792C37.377 192.158 37.384 193.592 41.048 199.877zM21.161 202.741l-1.247 2.014c3.806 8.913 4.765 16.724 8.559 25.624C25.512 221.199 24.33 211.896 21.161 202.741z" fill="#a8d7df" stroke-width="none" opacity="1" stroke="none"></path><path id="SvgjsPath7314" d="M65.638 169.283c1.181-1.646 5.237-7.272 8.601-12.561C75.227 162.179 73.413 165.416 65.638 169.283zM125.74 156.36c2.553 4.396 5.562 8.772 8.664 12.803C126 165.336 125.435 161.423 125.74 156.36z" fill="#87c5cf" stroke-width="none" opacity="1" stroke="none"></path><path id="SvgjsPath7315" d="M126.318 151.359c0.008-0.061 0.017-0.118 0.023-0.174 18.093 9.999 28.576 25.02 40.747 36.217 -0.448 0.721-1.228 1.193-1.687 1.905C152.656 179.609 146.599 164.946 126.318 151.359zM71.736 152.022c-15.034 8.213-36.242 33.357-38.318 35.269 0.448 0.724 0.691 0.577 1.15 1.288C47.314 178.882 50.793 169.283 71.736 152.022zM194.869 187.704c-1-0.799-24.646-10.039-42.59-14.969 33.698 16.299 45.587 18.545 51.471 24.321C203.367 196.057 202.586 187.489 194.869 187.704zM47.458 172.555c-13.524 3.914-30.839 10.098-42.975 15.491 -5.364 0.106-9.208 7.93-10.031 16.084C1.914 187.317-1.773 198.62 47.458 172.555z" fill="#f1fcfd" stroke-width="none" opacity="1" stroke="none"></path><path id="SvgjsPath7316" d="M206.6 210.062c-0.34-8.635-3.055-23.103-11.691-22.46 -0.714-0.61-20.822-9.767-42.285-15.611 -7.353-7.455-16.515-17.598-26.371-20.957 -0.711 6.428-1.477 10.622 0.216 12.714 2.241 2.439 4.93 4.879 7.568 6.522 4.616 6.136 8.139 9.778 8.139 9.778 -5.43 20.703-8.815 31.314-10.973 53.688H68.798c-2.157-22.373-5.543-32.984-10.973-53.688 0 0 3.522-3.643 8.139-9.778 2.639-1.644 5.327-4.083 7.568-6.522 1.692-2.092 0.927-6.286 0.216-12.714 -9.856 3.359-19.019 13.502-26.371 20.957 -21.463 5.845-41.571 15.001-42.285 15.611 -8.637-0.643-11.352 13.825-11.691 22.46 -0.411 10.487 1.435 24.938 1.585 25.938h210.029C205.165 234.999 207.011 220.549 206.6 210.062zM72.984 163.194c-2.258 2.233-3.658 3.181-6.473 5.282 4.829-6.271 4.341-5.433 7.708-11.229C74.37 159.739 73.433 162.751 72.984 163.194zM-3.172 234.028c-1.082-12.844-2.916-24.41 0.43-36.992 1.281-4.827 2.484-8.095 7.455-8.509 1.067 5.538 8.132 28.724 14.298 44.533 -6.226-24.192-5.311-18.81-8.219-28.452 -0.964-3.235-1.854-6.486-2.979-9.672 -0.783-2.214-1.65-4.387-2.262-6.653l40.433-14.865c-0.279 0.283-12.895 13.434-13.199 13.804 1.847 3.021 7.816 7.222 10.845 11.758 -12.436 1.174-18.508 3.173-23 3.84 0.331 0.919 9.061 25.353 9.976 27.656 -1.479-7.917-4.816-20.297-8.637-27.211 1.41-0.179 18.077-2.492 23.393-3.477 -1.476-2.854-8.043-8.437-11.559-12.619 20.646-18.162 25.422-27.402 39.593-35.454 0.15 1.509 0.443 3.011 0.55 4.519 -15.795 23.533-17.649 23.567-17.649 23.567 4.585 17.81 10.532 35.824 10.532 54.073L-3.172 234.028zM127.016 163.194c-0.448-0.443-1.386-3.455-1.235-5.947 3.367 5.797 2.879 4.958 7.708 11.229C130.674 166.375 129.273 165.428 127.016 163.194zM203.172 234.028l-70-0.154c0-18.249 5.947-36.264 10.532-54.073 0 0-1.854-0.034-17.649-23.567 0.106-1.508 0.399-3.01 0.55-4.519 14.171 8.052 18.946 17.292 39.593 35.454 -3.516 4.183-10.083 9.766-11.559 12.619 5.315 0.984 21.982 3.298 23.393 3.477 -3.82 6.914-7.157 19.294-8.637 27.211 0.915-2.304 9.645-26.737 9.976-27.656 -4.492-0.667-10.564-2.666-23-3.84 3.028-4.536 8.998-8.736 10.845-11.758 -0.305-0.37-12.92-13.521-13.199-13.804 0.001 0 40.433 14.865 40.433 14.865 -0.611 2.267-1.479 4.439-2.262 6.653 -1.125 3.186-2.015 6.437-2.979 9.672 -2.908 9.643-1.993 4.26-8.219 28.452 6.166-15.81 13.23-38.995 14.298-44.533 4.971 0.414 6.174 3.682 7.455 8.509C206.088 209.618 204.254 221.185 203.172 234.028z" fill="#6ab4c0" stroke-width="none" opacity="1" stroke="none"></path></g><g id="svga-group-head" ><g id="svga-group-ears-left" ><path id="SvgjsPath7303" d="M47.218 81.505c-0.967-2.487-8.082-6.002-11.21-5.447 -3.538 0.627-4.838 4.356-4.369 7.119 1.103 6.487 3.996 9.219 5.296 14.286 1.096 4.273 3.433 6.732 4.588 8.548 1.42 2.228 2.73 7.341 3.023 8.087 0.463 1.18 2.103 4.043 5.002 3.896 3.333-0.172 7.545-6.688 7.614-8.135C57.544 102.009 49.733 87.979 47.218 81.505z" fill="#f6e4e2" stroke="#c8837c" stroke-width="1.5" opacity="1"></path><path id="SvgjsPath7304" d="M47.953 107.96c0 0 0.429-1.071-0.094-2.022 -0.672-1.223-2.423-3.468-2.821-4.811 -0.325-1.098-0.16-3.445-0.213-4.593 -0.094-2.03-1.492-3.42-1.927-4.585 -2.914-7.793-6.792-12.623-9-13.626 -1.633 3.989-0.339 6.907 1.94 13.045 -1.375-8.342-0.054-10.95-0.054-10.95s4.018 3.465 6.001 11.172c0.359 1.391-1.111 4.294-0.83 5.705 0.352 1.772 4.184 5.201 5.257 6.635C47.049 105.047 47.953 107.96 47.953 107.96z" fill="#c8837c" stroke-width="none" opacity="1" stroke="none"></path></g><g id="svga-group-ears-right" ><path id="SvgjsPath7305" d="M152.52 81.505c0.967-2.487 8.082-6.002 11.211-5.447 3.539 0.627 4.838 4.356 4.369 7.119 -1.104 6.487-3.996 9.219-5.297 14.286 -1.096 4.273-3.434 6.732-4.588 8.548 -1.42 2.228-2.73 7.341-3.023 8.087 -0.463 1.18-2.104 4.043-5.002 3.896 -3.332-0.172-7.545-6.688-7.613-8.135C142.193 102.009 150.006 87.979 152.52 81.505z" fill="#f6e4e2" stroke="#c8837c" stroke-width="1.5" opacity="1"></path><path id="SvgjsPath7306" d="M151.785 107.96c0 0-0.43-1.071 0.094-2.022 0.672-1.223 2.424-3.468 2.82-4.811 0.324-1.098 0.16-3.445 0.215-4.593 0.094-2.03 1.49-3.42 1.926-4.585 2.914-7.793 6.793-12.623 9-13.626 1.633 3.989 0.338 6.907-1.939 13.045 1.375-8.342 0.053-10.95 0.053-10.95s-4.018 3.465-6.002 11.172c-0.357 1.391 1.111 4.294 0.83 5.705 -0.352 1.772-4.184 5.201-5.256 6.635C152.689 105.047 151.785 107.96 151.785 107.96z" fill="#c8837c" stroke-width="none" opacity="1" stroke="none"></path></g><g id="svga-group-faceshape-wrap" ><g id="svga-group-faceshape-single" ><path id="SvgjsPath7324" d="M158.785 78.006l-0.005 0c-0.01 0.046-12.197 40.27-15.879 52.418 -0.715 2.358-1.931 4.551-3.556 6.386 -6.375 7.194-23.768 25.057-39.324 25.057 -15.849 0-33.591-19.045-39.708-26.214 -1.442-1.688-2.507-3.633-3.172-5.765 -3.607-11.551-16.126-51.648-16.137-51.694h-0.001c-1.298-4.992-1.994-10.231-2.002-15.634C38.949 28.536 66.155 0.92 99.773 0.867c33.621-0.053 60.913 27.476 60.964 61.499C160.746 67.769 160.068 73.01 158.785 78.006z" fill="#f6e4e2" stroke-width="none" opacity="1" stroke="none"></path><path id="SvgjsPath7325" d="M132.168 10.26c14.31 11.135 23.671 29.457 23.699 50.208 0.009 5.404-0.615 10.645-1.796 15.641l-0.004 0c-0.009 0.046-11.223 40.27-14.608 52.417 -0.658 2.358-1.776 4.551-3.271 6.385 -5.865 7.195-21.866 25.059-36.178 25.059 -14.582 0-30.904-19.047-36.531-26.215 -1.327-1.689-2.306-3.633-2.918-5.764 -3.318-11.552-14.836-51.649-14.846-51.695h-0.001c-1.194-4.992-1.834-10.231-1.842-15.634 -0.029-20.827 9.348-39.239 23.713-50.412C50.392 21.159 38.967 40.508 39.001 62.56c0.008 5.403 0.704 10.643 2.002 15.634h0.001c0.01 0.046 12.53 40.143 16.137 51.694 0.666 2.132 1.73 4.076 3.172 5.765 6.116 7.169 23.858 26.214 39.708 26.214 15.557 0 32.949-17.862 39.324-25.057 1.625-1.835 2.841-4.027 3.556-6.386 3.682-12.148 15.869-52.372 15.879-52.418l0.005 0c1.283-4.997 1.961-10.237 1.952-15.641C160.704 40.389 149.297 21.135 132.168 10.26z" fill="#eed2cf" stroke-width="none" opacity="1" stroke="none"></path><path id="SvgjsPath7326" d="M158.785 78.006l-0.005 0c-0.01 0.046-12.197 40.27-15.879 52.418 -0.715 2.358-1.931 4.551-3.556 6.386 -6.375 7.194-23.768 25.057-39.324 25.057 -15.849 0-33.591-19.045-39.708-26.214 -1.442-1.688-2.507-3.633-3.172-5.765 -3.607-11.551-16.126-51.648-16.137-51.694h-0.001c-1.298-4.992-1.994-10.231-2.002-15.634C38.949 28.536 66.155 0.92 99.773 0.867c33.621-0.053 60.913 27.476 60.964 61.499C160.746 67.769 160.068 73.01 158.785 78.006z" fill="none" stroke="#c8837c" stroke-width="1.5" opacity="1"></path></g></g><g id="svga-group-mouth-single" ><path id="SvgjsPath7292" d="M100.182 141c-5.713 0.011-6.89-2.654-6.89-2.654 5.5 0.355 8.269 0.352 13.77-0.023C107.062 138.322 105.202 140.99 100.182 141z" fill="url(#SvgjsLinearGradient7293)" opacity="1"></path><path id="SvgjsPath7296" d="M84.557 134.475c3.326-0.44 6.44-2.644 11.501-3.439 2.373-0.373 2.949 0.4 4.054 0.414 1.184 0.015 2.717-0.69 4.031-0.512 6.125 0.831 5.396 2.467 11.315 3.352 -3.168 1.46-4.501 5.455-15.556 5.446C89.159 139.727 87.1 135.601 84.557 134.475z" fill="#da7c87" stroke-width="none" opacity="1" stroke="none"></path><path id="SvgjsPath7297" d="M91.318 135.048c0.446-0.532 5.698-1.207 8.911-1.206 3.404 0.001 8.715 0.481 9.01 1.19C104.432 135.155 95.022 135.133 91.318 135.048z" fill="#ffffff" stroke-width="none" opacity="1"></path><path id="SvgjsPath7298" d="M115.252 134.173c-1.96 0.192-3.961 0.548-5.968 0.681 -1.058-0.726-6.033-1.156-9.083-1.152 -2.683 0.003-6.974 0.512-8.549 1.05 -0.276 0.07-0.514 0.153-0.664 0.241 -3.775-0.211-6.196-0.68-6.259-0.686 -0.266-0.026-0.483 0.081-0.48 0.239 0.004 0.146 0.226 0.106 0.472 0.145 0.018 0.003 0.068 0.01 0.051 0.007 10.096 1.27 20.364 1.202 30.432-0.13 0.264-0.035 0.521 0.001 0.525-0.158C115.733 134.251 115.517 134.146 115.252 134.173zM99.987 135.159c-2.683-0.001-5.252-0.088-7.143-0.148 0.041-0.115 0.062-0.175 0.102-0.29 1.82-0.395 4.965-0.732 7.282-0.735 2.312-0.003 5.359 0.218 7.201 0.59 0.062 0.171 0.094 0.256 0.155 0.426C105.521 135.069 102.864 135.16 99.987 135.159z" fill="#ac2e3d" stroke-width="none" opacity="1" stroke="none"></path><path id="SvgjsPath7299" d="M99.798 138.56c-3.813-0.007-8.469-0.729-11.573-2.26 7.157 0.231 15.488 0.269 22.638-0.005C107.589 137.975 103.873 138.573 99.798 138.56zM100.153 132.96c3.904-0.006 7.402 0.312 10.986 0.965 -1.783-0.779-3.208-1.623-5.388-1.969 -0.978-0.154-1.549-0.346-2.513-0.166 -0.973 0.182-2.557 0.313-3.323 0.275 -1.978-0.096-2.997-0.313-4.496-0.19 -2.489 0.204-3.257 1.008-5.215 1.847C93.877 133.444 96.308 132.966 100.153 132.96z" fill="#e28c96" stroke-width="none" opacity="1" stroke="none"></path><path id="SvgjsPath7300" d="M93.404 136.958c2.576-0.154 11.612-0.211 13.539-0.091C103.598 138.01 98.311 138.664 93.404 136.958z" fill="#e99ca5" stroke-width="none" opacity="1" stroke="none"></path></g><g id="svga-group-eyes-left" ><g id="svga-group-eyesback-left"><path id="SvgjsPath7220" d="M60.505 80.842c0.241 2.336 0.667 11.497 13.706 11.489 5.836-0.005 13.361-3.612 13.211-8.063 0 0-6.704-7.009-14-7.009S60.504 80.831 60.505 80.842z" fill="url(#SvgjsRadialGradient7221)" opacity="1"></path></g><g id="svga-group-eyesiriswrapper-left" transform="translate(0.5 0.75)"><g id="svga-group-eyesiriscontrol-left" ><g id="svga-group-eyesiris-left" ><path id="SvgjsPath7278" d="M81.235 86.526c-1.086 5.079-5.203 8.071-9.202 6.676 -3.996-1.394-6.356-6.647-5.269-11.727 1.085-5.083 5.211-8.075 9.208-6.679C79.965 76.189 82.322 81.442 81.235 86.526z" fill="#66724e" stroke="#36441a" stroke-width="0.5" opacity="1"></path><path id="SvgjsPath7279" d="M81.056 84.591c-0.553 5.639-3.844 8.577-7.441 8.271 -3.323-0.285-6.293-3.404-6.57-8.791 1.15-0.42 2.676 0.263 4.014 0.002 -0.003 0.062-0.02 0.117-0.021 0.18 -0.109 2.068 1.195 3.87 2.908 4.017 1.72 0.146 3.197-1.419 3.303-3.486 0.012-0.269-0.001-0.534-0.033-0.789C78.409 84.225 79.869 83.999 81.056 84.591z" fill="#788165" stroke-width="none" opacity="1" stroke="none"></path><path id="SvgjsPath7280" d="M75.084 80.814c-1.65-0.6-3.334 0.599-3.76 2.69 -0.426 2.081 0.567 4.26 2.217 4.861 1.65 0.603 3.333-0.598 3.764-2.68C77.733 83.595 76.737 81.417 75.084 80.814z" fill="#000000" stroke-width="none" opacity="0.9"></path><path id="SvgjsPath7281" d="M75.084 80.814c-1.65-0.6-3.334 0.599-3.76 2.69 -0.426 2.081 0.567 4.26 2.217 4.861 1.65 0.603 3.333-0.598 3.764-2.68C77.733 83.595 76.737 81.417 75.084 80.814z" fill="none" stroke="#36441a" stroke-width="0.75" opacity="1"></path><path id="SvgjsPath7282" d="M70.451 89.818c-0.157 0.695-1.008 0.399-0.854-0.298 0.153-0.673 0.562-1.086 0.818-1.679 0.276-0.633 1.039-0.067 0.762 0.567C70.965 88.897 70.572 89.273 70.451 89.818L70.451 89.818zM71.807 88.71c-0.234 0.348-0.542 1.638-0.675 2.06 -0.211 0.672 0.642 0.961 0.851 0.298 0.073-0.229 0.32-1.373 0.45-1.563C72.799 88.958 72.18 88.16 71.807 88.71L71.807 88.71zM73.646 92.031c0.459-0.676 0.413-1.45 0.403-2.292 -0.007-0.723-0.888-0.724-0.882 0 0.007 0.465 0.115 1.114-0.146 1.498C72.65 91.781 73.271 92.579 73.646 92.031L73.646 92.031zM74.545 89.599c0.009 0.697 0.074 1.377 0.236 2.044 0.169 0.69 1.021 0.396 0.854-0.298 -0.142-0.576-0.2-1.144-0.205-1.746C75.421 88.875 74.54 88.875 74.545 89.599L74.545 89.599z" fill="#ffffff" stroke-width="none" opacity="0.5"></path><path id="SvgjsPath7283" d="M79.246 82.364c-0.868 0.663-2.174 0.066-2.916-1.334 -0.738-1.402-0.63-3.077 0.242-3.738 0.868-0.667 2.175-0.068 2.91 1.333C80.225 80.027 80.118 81.7 79.246 82.364z" fill="#ffffff" stroke-width="none" opacity="0.8"></path></g></g></g><g id="svga-group-eyesfront-left"><path id="SvgjsPath7245" d="M55.199 83.999c0 13.807 8.507 25 19 25s19-11.193 19-25 -8.507-25-19-25S55.199 70.192 55.199 83.999zM60.505 80.842c-0.001-0.011 5.621-3.583 12.917-3.583s14 7.009 14 7.009c0.15 4.45-7.375 8.058-13.211 8.063C61.172 92.339 60.746 83.179 60.505 80.842z" fill="#f6e4e2" stroke-width="none" opacity="1" stroke="none"></path><path id="SvgjsPath7246" d="M58.098 84.073c-0.078 7.733 8.894 13.964 18.553 13.926 9.657-0.044 17.473-6.342 17.446-14.077C94.072 76.191 86.23 69.959 76.57 70 66.909 70.043 58.202 73.495 58.098 84.073zM60.505 80.842c-0.001-0.011 5.621-3.583 12.917-3.583s14 7.009 14 7.009c0.15 4.45-7.375 8.058-13.211 8.063C61.172 92.339 60.746 83.179 60.505 80.842z" fill="url(#SvgjsRadialGradient7247)" opacity="1"></path><path id="SvgjsPath7251" d="M60.505 80.842c0.241 2.336 0.667 11.497 13.706 11.489 5.836-0.005 13.361-3.612 13.211-8.063 0 0-6.704-7.009-14-7.009S60.504 80.831 60.505 80.842z" fill="url(#SvgjsRadialGradient7252)" opacity="1"></path><path id="SvgjsPath7255" d="M88.143 81.99c-0.995-1.708-5.02-5.623-10.804-6.99C84.38 76.245 86.134 78.672 88.143 81.99z" fill="#c8837c" stroke-width="none" opacity="1" stroke="none"></path><path id="SvgjsPath7256" d="M60.707 81.467c0.099 1.422 1.79 5.64 2.534 6.819 -2.275-1.08-2.705-4.186-7.099-8.199 14.067-7.027 24.748-5.142 32 5.061C78.764 76.573 71.396 75.496 60.707 81.467zM83.776 89.792c0 0-6.42 2.373-9.923 2.41 -3.503 0.039-8.483-1.906-8.483-1.906s4.851 2.565 8.483 2.57C77.487 92.872 83.776 89.792 83.776 89.792z" fill="#000000" stroke-width="none" opacity="1" stroke="none"></path></g></g><g id="svga-group-eyes-right" ><g id="svga-group-eyesback-right"><path id="SvgjsPath7228" d="M139.097 80.842c-0.241 2.336-0.667 11.497-13.706 11.489 -5.836-0.005-13.361-3.612-13.211-8.063 0 0 6.704-7.009 14-7.009S139.098 80.831 139.097 80.842z" fill="url(#SvgjsRadialGradient7229)" opacity="1"></path></g><g id="svga-group-eyesiriswrapper-right" transform="translate(-0.5 0.75)"><g id="svga-group-eyesiriscontrol-right" ><g id="svga-group-eyesiris-right" ><path id="SvgjsPath7284" d="M133.235 86.526c-1.086 5.079-5.202 8.071-9.201 6.676 -3.997-1.394-6.356-6.647-5.27-11.727 1.086-5.083 5.212-8.075 9.208-6.679C131.965 76.189 134.322 81.442 133.235 86.526z" fill="#66724e" stroke="#36441a" stroke-width="0.5" opacity="1"></path><path id="SvgjsPath7285" d="M133.056 84.591c-0.553 5.639-3.844 8.577-7.44 8.271 -3.322-0.285-6.294-3.404-6.57-8.791 1.151-0.42 2.677 0.263 4.014 0.002 -0.003 0.062-0.019 0.117-0.021 0.18 -0.108 2.068 1.195 3.87 2.909 4.017 1.72 0.146 3.197-1.419 3.302-3.486 0.013-0.269-0.001-0.534-0.032-0.789C130.409 84.225 131.869 83.999 133.056 84.591z" fill="#788165" stroke-width="none" opacity="1" stroke="none"></path><path id="SvgjsPath7286" d="M127.084 80.814c-1.65-0.6-3.335 0.599-3.76 2.69 -0.427 2.081 0.567 4.26 2.217 4.861 1.65 0.603 3.334-0.598 3.765-2.68C129.733 83.595 128.736 81.417 127.084 80.814z" fill="#000000" stroke-width="none" opacity="0.9"></path><path id="SvgjsPath7287" d="M127.084 80.814c-1.65-0.6-3.335 0.599-3.76 2.69 -0.427 2.081 0.567 4.26 2.217 4.861 1.65 0.603 3.334-0.598 3.765-2.68C129.733 83.595 128.736 81.417 127.084 80.814z" fill="none" stroke="#36441a" stroke-width="0.75" opacity="1"></path><path id="SvgjsPath7288" d="M122.451 89.818c-0.157 0.695-1.008 0.399-0.854-0.298 0.153-0.673 0.562-1.086 0.817-1.679 0.276-0.633 1.039-0.067 0.762 0.567C122.965 88.897 122.571 89.273 122.451 89.818L122.451 89.818zM123.807 88.71c-0.234 0.348-0.542 1.638-0.675 2.06 -0.211 0.672 0.642 0.961 0.851 0.298 0.072-0.229 0.32-1.373 0.449-1.563C124.8 88.958 124.18 88.16 123.807 88.71L123.807 88.71zM125.646 92.031c0.46-0.676 0.414-1.45 0.403-2.292 -0.007-0.723-0.889-0.724-0.882 0 0.008 0.465 0.115 1.114-0.146 1.498C124.65 91.781 125.271 92.579 125.646 92.031L125.646 92.031zM126.545 89.599c0.009 0.697 0.074 1.377 0.236 2.044 0.17 0.69 1.021 0.396 0.854-0.298 -0.143-0.576-0.201-1.144-0.205-1.746C127.422 88.875 126.54 88.875 126.545 89.599L126.545 89.599z" fill="#ffffff" stroke-width="none" opacity="0.5"></path><path id="SvgjsPath7289" d="M131.246 82.364c-0.868 0.663-2.174 0.066-2.916-1.334 -0.738-1.402-0.63-3.077 0.243-3.738 0.867-0.667 2.174-0.068 2.909 1.333C132.225 80.027 132.118 81.7 131.246 82.364z" fill="#ffffff" stroke-width="none" opacity="0.8"></path></g></g></g><g id="svga-group-eyesfront-right"><path id="SvgjsPath7266" d="M125.402 58.999c-10.493 0-19 11.193-19 25s8.507 25 19 25 19-11.193 19-25S135.896 58.999 125.402 58.999zM125.391 92.331c-5.836-0.005-13.361-3.612-13.211-8.063 0 0 6.704-7.009 14-7.009s12.918 3.572 12.917 3.583C138.855 83.179 138.43 92.339 125.391 92.331z" fill="#f6e4e2" stroke-width="none" opacity="1" stroke="none"></path><path id="SvgjsPath7267" d="M123.031 70c-9.66-0.041-17.502 6.192-17.526 13.922 -0.026 7.735 7.789 14.033 17.446 14.077 9.659 0.038 18.631-6.193 18.553-13.926C141.399 73.495 132.692 70.043 123.031 70zM125.391 92.331c-5.836-0.005-13.361-3.612-13.211-8.063 0 0 6.704-7.009 14-7.009s12.918 3.572 12.917 3.583C138.855 83.179 138.43 92.339 125.391 92.331z" fill="url(#SvgjsRadialGradient7268)" opacity="1"></path><path id="SvgjsPath7272" d="M139.097 80.842c-0.241 2.336-0.667 11.497-13.706 11.489 -5.836-0.005-13.361-3.612-13.211-8.063 0 0 6.704-7.009 14-7.009S139.098 80.831 139.097 80.842z" fill="url(#SvgjsRadialGradient7273)" opacity="1"></path><path id="SvgjsPath7276" d="M111.459 81.99c0.995-1.708 5.02-5.623 10.804-6.99C115.222 76.245 113.468 78.672 111.459 81.99z" fill="#c8837c" stroke-width="none" opacity="1" stroke="none"></path><path id="SvgjsPath7277" d="M111.459 85.148c7.252-10.203 17.933-12.088 32-5.061 -4.394 4.013-4.823 7.119-7.099 8.199 0.744-1.179 2.436-5.397 2.534-6.819C128.205 75.496 120.838 76.573 111.459 85.148zM125.748 92.866c3.633-0.005 8.483-2.57 8.483-2.57s-4.98 1.944-8.483 1.906c-3.503-0.038-9.923-2.41-9.923-2.41S122.114 92.872 125.748 92.866z" fill="#000000" stroke-width="none" opacity="1" stroke="none"></path></g></g><g id="svga-group-facehighlight-single" ><path id="SvgjsPath7039" d="M141 113.974c0.035 22.622-18.292 40.994-40.938 41.025 -22.642 0.037-41.028-18.273-41.063-40.9 -0.035-22.62 18.292-41.064 40.937-41.1C122.579 72.964 140.967 91.349 141 113.974z" fill="url(#SvgjsRadialGradient7040)" opacity="1"></path><path id="SvgjsPath7043" d="M137.5 53.999c0 20.711-16.789 37.5-37.499 37.5 -20.711 0-37.501-16.789-37.501-37.5s16.79-37.5 37.501-37.5C120.711 16.499 137.5 33.288 137.5 53.999z" fill="url(#SvgjsRadialGradient7044)" opacity="1"></path></g><g id="svga-group-eyebrows-left" ><path id="SvgjsPath7290" d="M93.7 78.245c-9.176-3.435-12.813-6.732-20.729-9.713 -6.51-2.452-13.342-2.906-20.071-1.49 8.225 0.87 11.916 0.9 20.316 4.263C80.024 74.03 86.37 77.873 93.7 78.245z" fill="#a46c47" stroke-width="none" opacity="1" stroke="none"></path></g><g id="svga-group-eyebrows-right" ><path id="SvgjsPath7291" d="M106.5 78.545c9.176-3.62 13.013-7.447 20.929-10.589 6.51-2.584 13.342-3.063 20.071-1.57 -8.225 0.917-11.916 0.948-20.316 4.493C120.376 73.751 113.83 78.153 106.5 78.545z" fill="#a46c47" stroke-width="none" opacity="1" stroke="none"></path></g><g id="svga-group-nose-single" ><path id="SvgjsPath7301" d="M100.729 120.838c-0.354 0.161-1.185 0.161-1.448-0.103 0 0-6.296-2.153-5.498-4.215 1.264-3.262 12.727-0.761 12.717 0C106.475 118.462 100.729 120.838 100.729 120.838z" fill="#e7c1bd" stroke-width="none" opacity="1" stroke="none"></path><path id="SvgjsPath7302" d="M92.215 113.609c0 0 5.448-18.624 6.008-22.61 1.063 6.47-1.503 20.873-1.774 23.812 -0.329 3.569 3.455 5.688 3.455 5.688 0.293 0.371-0.061 0.602-0.516 0.456l-6.631-2.559C91.186 117.061 91.186 115.79 92.215 113.609zM103.176 116.911c0.915 0.207 1.106 0.576 1.035 0.957 -0.069 0.385-0.462 0.911-1.288 0.43 -0.907-0.526-2.619-0.767-2.619-0.767S102.261 116.701 103.176 116.911z" fill="#c8837c" stroke-width="none" opacity="1" stroke="none"></path></g><g id="svga-group-hair-front" ><path id="SvgjsPath7197" d="M57.802 28.734c9.237-8.79 44.55-0.761 55.197 0.239 10.142 0.782 23.526-30.339 43.604 49.479 -0.045 3.839-1.289 10.633-2.796 15.468 -0.145-0.101-0.286-0.208-0.431-0.306 0 0 0.518 3.257-6.059 14.39 0.349-8.073-1.212-13.893-2.492-21.414 -15.709-19.987-30.389-24.674-41.56-28.155 7.5 8.755 14.919 16.79 18.165 25.564 -13.646-9.576-32.408-28.884-32.408-28.884S90.426 59.819 116.709 84C105.766 81.32 85.363 70.32 71.072 49.048c-2.746 4.5 12.4 30.794 12.827 31.801 -7.663-6.086-18.079-14.636-20.755-24.62 0 0-1.571 4.043-2.662 8.635 -2.878 12.162-2.904 27.281-3.429 31.125 -1.665-8.721-1.925-18.482-1.922-18.355 -3.905 17.893-0.419 30.394-0.352 34.724 -5.198-10.435-10.604-22.897-12.177-34.534C42.604 77.824 54.221 27.134 57.802 28.734z" fill="#b84131" stroke-width="none" opacity="0.1" stroke="none"></path><path id="SvgjsPath7198" d="M29.382 67.866c0.08-5.39 1.12-13.92 2.921-18.78 -3.28 3.39-7.41 7.39-10.78 9.5 4.46-3.86 5.841-7.16 15.921-28.3 6.189-12.98 10.287-26.75 22.378-28.37 4.079-0.56 8.05 0.99 11.779 2.59 9.61-8.79 21.59-12.331 32.671-11.331 33.879 2.51 42.916 24.391 61.036 28.771 -2.84 0.83-7.616-0.468-10.336-1.748 3.75 5.06 2.422 4.531 10.692 12.801 3.369 3.34 6.482 7.444 10.543 9.854 -5.449-0.681-8.313-4.834-16.282-9.104 1.149 1.84 5.249 8.094 11.929 14.494 2.87 2.74 7.6 6.584 10.898 8.914 -2.409-0.96-9.488-3.726-15.607-9.152 3.169 4.531 12.262 12.94 8.145 29.881 -0.832-7.406 0.002-16.415-7.049-20.895 0.784 3.301 3.814 10.222 1.604 17.708H158.91c-0.047 3.839-1.342 10.934-2.908 15.769 -0.151-0.101-0.297-0.208-0.449-0.306 0 0-0.503 3.257-7.344 14.39 0.363-8.073-0.222-13.893-1.553-21.414 -16.346-19.987-31.619-24.674-43.241-28.155 7.804 8.755 13.813 18.837 17.192 27.612 -11.046-11.66-33.834-29.767-33.834-29.767s0.364 4.866 27.712 29.046c-9.449-5.795-29.698-15.006-44.566-36.278 -2.858 4.5 10.819 30.794 11.264 31.801 -7.974-6.086-14.646-16.636-17.435-26.62 0 0-3.716 6.043-4.847 10.635 -2.995 12.162-1.984 22.281-2.528 26.125 -1.732-8.721-3.042-13.482-3.039-13.355 -4.066 17.893 0.604 32.394 0.672 36.724C48.6 100.471 41.934 85.908 40.297 74.271H28.7C29.369 69.944 28.873 69.932 29.382 67.866z" fill="#b84131" stroke-width="none" opacity="1" stroke="none"></path><path id="SvgjsPath7199" d="M22.764 37.286c3.811-0.17 5.876 0.099 10.356-0.261 0.67-1.53 2.738-5.55 3.438-7.07C33.059 33.055 25.794 36.976 22.764 37.286z" fill="#991b0a" stroke-width="none" opacity="1" stroke="none"></path><path id="SvgjsPath7200" d="M120 6c16.027-2.29 30.9 14.922 44.42 16.002 -2.873 0.59-7.386-1.022-9.989-2.247 3.75 5.06 2.74 5.09 11.011 13.36 3.369 3.34 5.77 6.92 9.83 9.33 -4.352-0.722-7.869-4.955-15.656-9.179C150.467 19.744 136.495 7.833 120 6zM63.748 50.777c0 0-3.716 6.043-4.847 10.635 -2.995 12.162-1.984 22.281-2.528 26.125 -1.732-8.721-3.042-13.482-3.039-13.355 -0.098 0.428-0.185 0.851-0.272 1.275 -3.569 17.303 0.878 31.222 0.944 35.449C48.6 100.471 41.934 86.008 40.297 74.372H28.7c0.669-4.328 0.173-4.44 0.682-6.505 0.08-5.39 1.12-13.92 2.921-18.78 -3.28 3.39-7.41 7.39-10.78 9.5 4.384-3.794 5.799-7.06 15.417-27.242C39.903 26.734 43.257 22.367 47 18c-7 9-11 20-12 31 2-6 8.079-10.064 12.204-14.833C42.858 40.958 39.721 47.555 38 57c1.263-2.166 3.05-3.376 4.352-5 -2.063 6.007-1.46 9.452-0.544 14.033C42.71 58.906 44.209 47.331 48 41c0 11-3.411 21.569 1.005 33.277 -0.041-8.667 3.242-16.555 5.526-22.481 -0.454 2.152-0.105 7.455 0.016 9.648 1.278-6.668 2.146-13.21 6.033-18.583 -1.734-9.968-4.468-20.679-0.784-23.305 -5.987 10.398 12.487 19.472 11.935 19.03 10.333 5.74 16.882 6.44 22.24 7.796 -3.495-2.813-5.311-6.313-8.84-9.096 10 3.45 23.963 14.121 31.086 18.481 1.902 2.784 2.074 3.492 2.641 4.833 -4.081-1.928-9.18-3.742-15.442-5.618 14.409 16.165 11.53 12.905 17.192 27.612 -9.815-10.361-9.8-10.658-32.423-28.645 2.733 3.566 9.971 13.486 26.301 27.924 -3.69-2.263-31.135-17.061-44.566-36.278 -0.641 5.223 0.076 8.654 11.264 31.801C79.136 76.769 71.168 69.641 63.748 50.777zM118.857 60.601c8.503 4.017 17.955 10.501 27.799 22.537 1.331 7.521 1.916 13.341 1.553 21.414 1.527-2.485 2.724-4.558 3.684-6.309 3.342-6.095 3.66-8.081 3.66-8.081 0.152 0.098 0.298 0.205 0.449 0.306 1.566-4.835 2.861-11.629 2.908-15.468h10.733c2.212-7.485-1.049-15.243-1.833-18.544 7.051 4.48 7.24 12.74 7.57 20.16 3.37-16.67-5.95-24.64-8.9-29.41 6.17 4.79 13.061 8.53 15.471 9.49 -3.301-2.33-7.41-5.47-10.28-8.21 -3.639-3.486-6.618-7.18-8.769-10.124C158.216 35.96 154.726 32.363 150 30c7.927 5.284 10.424 13.671 12.956 21.745 -1.214-1.753-3.177-2.936-4.23-4.512 1.251 3.286 3.089 6.694 2.274 10.767 -5-7-7-17-15-23 8.079 8.079 8.639 29.358 8.605 33.148C146.453 29.071 111.941-7.698 77 6c35-11 65 26 69 58 -7-8-9-18-19-23 5 5 8 13 11 19 -11-13-20-26-35-35 7 8 16 15 21 25 3 3 4 7 6 10 -7-7-15.796-14.161-24.869-16.816C115.319 51.958 118.141 58.904 118.857 60.601z" fill="#a92d1c" stroke-width="none" opacity="1" stroke="none"></path><path id="SvgjsPath7201" d="M117.766 5.829c8.292-0.029 31.523 6.494 43.094 29.199C148.464 17.819 135.714 9.892 117.766 5.829zM137.845 38.708C124.893 11.58 100.687 3.229 87.714 4.067 97.087 3.465 123.506 13.067 137.845 38.708zM73.181 14.559C72.572 9.286 65.426 3.87 57.615 6.905c-0.671 0.261-1.261 0.737-1.929 0.979C64.214 4.803 72.008 9.383 73.181 14.559zM70.78 17.966c-2.271-3.246-5.344-6.239-9.309-7.198C49.418 7.854 40.4 25.7 38.314 33.687c0.263-1.003 10.596-25.068 23.497-22.066C65.532 12.47 68.414 15.113 70.78 17.966zM69.574 20.271c-1.129 13.933 30.875 23.767 37.895 29.705C94.975 39.407 69.766 32.882 69.574 20.271zM124.793 51.149c-2.651-4.433-13.662-22.247-31.359-32.846 -10.977-6.574-15.238-2.604-17.326-1.636C90.316 10.093 116.346 39.44 124.793 51.149z" fill="#991b0a" stroke-width="none" opacity="1" stroke="none"></path><path id="SvgjsPath7202" d="M154.605 30.218c0 0-12.998-14.019-32.379-20.881C136.712 12.957 145.32 20.083 154.605 30.218zM122.58 10.545c8.373 2.862 22.848 18.934 24.674 22.069C142.53 24.503 131.43 12.888 122.58 10.545zM96.203 7.936c16.427 3.769 31.383 22.259 31.383 22.259C120.613 19.403 109.143 9.004 96.203 7.936zM82.027 17.556c7.952 2.046 25.885 16.866 26.805 18.162C106.244 32.075 90.721 18.78 82.027 17.556zM76.314 19.112c8.738 1.131 15.985 8.446 17.066 9.925C88.838 22.824 84.179 19.303 76.314 19.112zM75.442 21.879c8.537 8.845 21.252 11.429 25.864 17.449C94.935 31.012 83.235 29.092 75.442 21.879zM85.865 42.83c-11.211-6.084-18.966-11.368-20.703-12.851 -1.836-1.565-6.52-5.33-3.095-9.151 -2.542 1.67-2.01 5.382 1.396 8.925C67.167 33.607 84.863 42.83 85.865 42.83 84.895 42.303 85.864 42.83 85.865 42.83zM93.761 46.37c-8.66-2.08-17.527-5.034-24.96-10.046 -5.172-3.487-12.865-11.624-8.86-16.402 1.146-1.371 3.559-2.013 5.297-1.993 -1.732-0.021-3.829 0.4-5.168 1.556 -3.872 3.344 0.268 11.895 6.736 16.54C74.633 41.646 84.462 44.373 93.761 46.37zM94.196 11.99c1.66 0.332 3.306 0.552 4.901 1.161 13.539 5.162 26.441 21.077 26.441 21.077C118.564 23.811 106.82 13.181 94.196 11.99zM95.438 16.421c15.557 5.988 32.561 25.947 33.561 26.663C121.432 31.611 108.664 19.74 95.438 16.421zM56.114 18.851c-10.322-2.044-15.184 15.403-15.779 16.404C43.838 28.076 49.19 18.188 56.114 18.851zM56.22 30.75c-8.761 8.218-6.864 18.622-6.717 23.478C49.338 45.406 51.606 36.237 56.22 30.75z" fill="#c75849" stroke-width="none" opacity="1" stroke="none"></path><path id="SvgjsPath7203" d="M31.491 50.465c-3.98 10.99-2.87 22.38-2.931 23.38 -0.079 0.171-0.238 0.529-0.317 0.703 1.05-0.224 0.815-0.006 1.079-0.006 2.013-4.338 4.543-10.008 11.318-19.136 -4.29 5.17-8.16 10.6-11.21 16.62 1.811-11.55 9.17-21.13 10.021-22.35 -4.04 5.13-7.82 10.61-9.87 17.39 0.08-5.39 1.319-13.72 3.12-18.58 -3.28 3.39-7.41 7.69-10.78 9.8 4.46-3.86 6.04-6.86 16.12-28 6.189-12.98 9.689-26.55 21.78-28.17 4.079-0.56 8.05 0.79 11.779 2.39 9.61-8.79 21.59-11.83 32.671-10.83 33.879 2.51 42.409 23.86 60.529 28.24 -2.84 0.83-7.65-0.88-10.37-2.16 3.75 5.06 2.74 5.09 11.011 13.36 3.369 3.34 5.77 6.92 9.83 9.33 -4.4-0.73-7.94-5.05-15.91-9.32 1.149 1.84 5.629 8.96 12.31 15.36 2.87 2.74 6.979 5.88 10.28 8.21 -2.41-0.96-9.301-4.7-15.471-9.49 2.95 4.77 12.271 12.74 8.9 29.41 -0.33-7.42-0.52-15.68-7.57-20.16 0.784 3.301 4.045 11.059 1.833 18.544h0.317 0.875c2.142-6.938-0.861-13.751-2.085-17.224 6.409 5.8 6.31 18.31 5.67 24.379 2.521-6.85 3.479-13.449 1.46-20.489 -1.13-3.96-3.5-7.46-5.96-10.71 -0.17-0.23-0.351-0.46-0.521-0.69 4.69 3.76 10.521 7.08 16.11 8.14 0 0-17.069-12.22-24.31-23.26 1.8 1.29 4.25 3.34 6.64 4.95 3.45 2.35 6.17 3.54 10.14 3.04 -4.72-2.17-7.83-6.79-11.149-10.25 -7.37-7.74-4.36-3.42-10.56-11.66 5 2.04 7.649 1.84 10.67 0.75 -1.701-0.4-3.48-0.87-5.08-1.49 -13.41-5.19-28.451-28.98-60.24-29.1 -10.9-0.05-22.641 4.17-30.32 12.49 -1.33-0.61-2.68-1.13-4.04-1.57 -17.26-5.55-23.17 10.32-30.74 26.41 -2.88 2.39-8.47 7.94-16.029 8.68 3.67 0.26 7.54 0.58 12.06 0.2 -6.62 15.06-6.979 16.7-15.57 23.75C24.331 58.795 26.661 55.875 31.491 50.465zM35.961 30.755c-0.7 1.52-2.37 4.34-3.04 5.87 -4.48 0.36-5.55 0.39-9.36 0.56C26.591 36.875 32.461 33.855 35.961 30.755zM39.938 70.539c0 1.85 2.122 11.566 4.412 17.556 -1.18-6.81-1.41-13.92-1.229-20.82 0.18-7.13 1.3-14.12 3.34-20.95 -4.72 19.62-2.17 45.13 7.229 63.271 -1.909-9.51-3.02-19.14-1.81-28.82 0.28-2.24 0.66-4.46 1.16-6.66 0 0-0.92-8.37 1.49-22.32 -1.641 11.57-0.5 22.83 1.76 34.21 -0.22-8.28 0.2-16.63 2.32-24.67 1.159-4.4 2.439-5.78 4.5-10.88 -1.131-4.1-1.711-8.32-2.11-12.54 1.93 12.83 5.399 20.15 12.35 30.55 2.061 3.07 4.2 5.89 7.16 8.15 -2.08-3.64-8.96-19.1-9.37-20.14 -1.37-3.47-2.2-7.06-1.569-10.78 -2.04-3.2-3.83-6.56-5.46-9.99 5.229 9.7 12.039 18.21 20.34 25.49 4.29 3.77 8.859 7.25 13.56 10.48 4.841 3.33 10.04 5.93 15.03 8.99 -6.52-5.46-12.99-11.4-17.41-16.21 -2.68-2.92-5.81-5.87-7.97-9.21 -2.15-3.33-3.08-7.14-4.78-10.7 1.69 2.91 2.9 6.02 4.15 8.13 0.31 0.52 11.819 9.16 16.89 13.98 6.44 6.11 9.75 8.16 15.851 14.6 -2.791-6.18-3.521-9.17-11.131-19.26 -5.02-6.66-7.09-7.03-13.779-17.45 1.729 2.37 3.479 4.67 5.47 6.83 1.04 1.13 2.1 2.22 3.17 3.32 6.21 1.86 11.96 2.92 21.659 8.94 16.671 10.35 20.201 18.04 26.971 24.64 -1.2-4.17-4.88-11.15-8.18-16.9 -3.01-5.25-6.32-10.68-9.99-15.14 4.641 4.16 8.07 9.47 11.13 14.84 3.22 5.68 6.81 11.79 7.899 18.31 -2.109-1.62-4.01-3.43-5.869-5.34 1.119 6.33 1.73 12.93 1.439 19.36 9.016-14.682 12.535-35.524 9.849-48.787 6.943 27.12-5.726 44.18-11.658 54.876 0.46-6.54-0.2-21.98-0.71-26.4 -2.21-2.759-17.912-19.588-41.29-27.14 4.12 4.12 7.729 8.4 10.58 13.51 2.61 4.7 5.1 9.62 6.6 15.03 -5.3-5.3-11.079-10.12-16.739-15.01 -5.82-5.03-11.44-10.28-17.24-15.33 1.569 2.35 3.42 4.57 14.779 15.65 5.99 5.85 15.33 14.29 15.53 14.51 -1-0.38-17.76-9.09-25.62-15.05 -8.22-6.23-17.02-14.11-22.58-22.81 -0.489 6.01 3.061 12.45 4.9 16.33 2 4.21 4.979 11.6 8.229 16.96 -5.04-2.96-8.85-7.15-11.92-12.14 -3.189-5.18-6.06-10.19-7.84-16.03 -1.5 2.98-3.14 5.96-3.84 9.25 -0.74 3.46-1.229 6.95-1.57 10.47 -0.67 7.07-1.43 14.33-1.02 21.44 -1.74-5.47-3.07-10.94-3.64-16.67 -1.7 9.52-0.091 23.48 1.779 37.28 -5.149-7.021-9.5-17.16-11.99-26.3C41.511 81.005 39.658 74.499 39.938 70.539z" fill="#8a1000" stroke-width="none" opacity="1" stroke="none"></path></g></g></g></g><defs id="SvgjsDefs6996"><radialGradient id="SvgjsRadialGradient7040" cx="100" cy="114" r="41" gradientUnits="userSpaceOnUse" class="svga-on-canvas-facehighlight-gradient-single-0"><stop id="SvgjsStop7041" stop-opacity="0.5" stop-color="#ffffff" offset="0" ></stop><stop id="SvgjsStop7042" stop-opacity="0" stop-color="#f6e4e2" offset="0.9" ></stop></radialGradient><radialGradient id="SvgjsRadialGradient7044" cx="100" cy="54" r="37" gradientUnits="userSpaceOnUse" class="svga-on-canvas-facehighlight-gradient-single-1"><stop id="SvgjsStop7045" stop-opacity="0.5" stop-color="#ffffff" offset="0" ></stop><stop id="SvgjsStop7046" stop-opacity="0" stop-color="#f6e4e2" offset="0.9" ></stop></radialGradient><radialGradient id="SvgjsRadialGradient7125" cx="-568.659" cy="-521.042" r="59.751" gradientTransform="matrix(0.096 -0.0248 0.0245 0.0961 141.2814 119.9893)" gradientUnits="userSpaceOnUse" class="svga-on-canvas-eyesiris-gradient-left-1"><stop id="SvgjsStop7126" stop-opacity="1" stop-color="#ffffff" offset="0" ></stop><stop id="SvgjsStop7127" stop-opacity="0" stop-color="#ffffff" offset="1" ></stop></radialGradient><radialGradient id="SvgjsRadialGradient7129" cx="-582.838" cy="-519.099" r="59.745" gradientTransform="matrix(0.0991 8.856319e-004 -0.0011 0.0991 131.1134 135.9855)" gradientUnits="userSpaceOnUse" class="svga-on-canvas-eyesiris-gradient-left-2"><stop id="SvgjsStop7130" stop-opacity="1" stop-color="#ffffff" offset="0" ></stop><stop id="SvgjsStop7131" stop-opacity="0" stop-color="#ffffff" offset="1" ></stop></radialGradient><linearGradient id="SvgjsLinearGradient7135" x1="122.67" y1="88.268" x2="123.606" y2="87.152" gradientTransform="matrix(1 0 0 1 -52 0)" gradientUnits="userSpaceOnUse" class="svga-on-canvas-eyesiris-gradient-left-5"><stop id="SvgjsStop7136" stop-opacity="1" stop-color="#ffffff" offset="0" ></stop><stop id="SvgjsStop7137" stop-opacity="0" stop-color="#ffffff" offset="1" ></stop></linearGradient><linearGradient id="SvgjsLinearGradient7139" x1="127.212" y1="82.296" x2="126.463" y2="83.189" gradientTransform="matrix(1 0 0 1 -52 0)" gradientUnits="userSpaceOnUse" class="svga-on-canvas-eyesiris-gradient-left-6"><stop id="SvgjsStop7140" stop-opacity="1" stop-color="#ffffff" offset="0" ></stop><stop id="SvgjsStop7141" stop-opacity="0" stop-color="#ffffff" offset="1" ></stop></linearGradient><linearGradient id="SvgjsLinearGradient7143" x1="129.636" y1="79.822" x2="127.91" y2="81.879" gradientTransform="matrix(1 0 0 1 -52 0)" gradientUnits="userSpaceOnUse" class="svga-on-canvas-eyesiris-gradient-left-7"><stop id="SvgjsStop7144" stop-opacity="1" stop-color="#ffffff" offset="0" ></stop><stop id="SvgjsStop7145" stop-opacity="0" stop-color="#ffffff" offset="1" ></stop></linearGradient><radialGradient id="SvgjsRadialGradient7148" cx="-568.654" cy="-521.042" r="59.752" gradientTransform="matrix(0.096 -0.0248 0.0245 0.0961 193.2804 119.9894)" gradientUnits="userSpaceOnUse" class="svga-on-canvas-eyesiris-gradient-right-1"><stop id="SvgjsStop7149" stop-opacity="1" stop-color="#ffffff" offset="0" ></stop><stop id="SvgjsStop7150" stop-opacity="0" stop-color="#ffffff" offset="1" ></stop></radialGradient><radialGradient id="SvgjsRadialGradient7152" cx="-582.833" cy="-519.102" r="59.747" gradientTransform="matrix(0.0991 8.856319e-004 -0.0011 0.0991 183.1126 135.9856)" gradientUnits="userSpaceOnUse" class="svga-on-canvas-eyesiris-gradient-right-2"><stop id="SvgjsStop7153" stop-opacity="1" stop-color="#ffffff" offset="0" ></stop><stop id="SvgjsStop7154" stop-opacity="0" stop-color="#ffffff" offset="1" ></stop></radialGradient><linearGradient id="SvgjsLinearGradient7158" x1="122.67" y1="88.268" x2="123.606" y2="87.152" gradientUnits="userSpaceOnUse" class="svga-on-canvas-eyesiris-gradient-right-5"><stop id="SvgjsStop7159" stop-opacity="1" stop-color="#ffffff" offset="0" ></stop><stop id="SvgjsStop7160" stop-opacity="0" stop-color="#ffffff" offset="1" ></stop></linearGradient><linearGradient id="SvgjsLinearGradient7162" x1="127.212" y1="82.296" x2="126.463" y2="83.189" gradientUnits="userSpaceOnUse" class="svga-on-canvas-eyesiris-gradient-right-6"><stop id="SvgjsStop7163" stop-opacity="1" stop-color="#ffffff" offset="0" ></stop><stop id="SvgjsStop7164" stop-opacity="0" stop-color="#ffffff" offset="1" ></stop></linearGradient><linearGradient id="SvgjsLinearGradient7166" x1="129.636" y1="79.822" x2="127.91" y2="81.879" gradientUnits="userSpaceOnUse" class="svga-on-canvas-eyesiris-gradient-right-7"><stop id="SvgjsStop7167" stop-opacity="1" stop-color="#ffffff" offset="0" ></stop><stop id="SvgjsStop7168" stop-opacity="0" stop-color="#ffffff" offset="1" ></stop></linearGradient><radialGradient id="SvgjsRadialGradient7221" cx="126.035" cy="84.795" r="10.908" gradientTransform="matrix(-1 0 0 1 200 0)" gradientUnits="userSpaceOnUse" class="svga-on-canvas-eyesback-gradient-left-0"><stop id="SvgjsStop7222" stop-opacity="1" stop-color="#ffffff" offset="0" ></stop><stop id="SvgjsStop7223" stop-opacity="1" stop-color="#fdfefe" offset="0.544" ></stop><stop id="SvgjsStop7224" stop-opacity="1" stop-color="#f6f8f9" offset="0.74" ></stop><stop id="SvgjsStop7225" stop-opacity="1" stop-color="#eaeff2" offset="0.879" ></stop><stop id="SvgjsStop7226" stop-opacity="1" stop-color="#d9e3e8" offset="0.992" ></stop><stop id="SvgjsStop7227" stop-opacity="1" stop-color="#d8e2e7" offset="1" ></stop></radialGradient><radialGradient id="SvgjsRadialGradient7229" cx="125.637" cy="84.795" r="10.908" gradientUnits="userSpaceOnUse" class="svga-on-canvas-eyesback-gradient-right-0"><stop id="SvgjsStop7230" stop-opacity="1" stop-color="#ffffff" offset="0" ></stop><stop id="SvgjsStop7231" stop-opacity="1" stop-color="#fdfefe" offset="0.544" ></stop><stop id="SvgjsStop7232" stop-opacity="1" stop-color="#f6f8f9" offset="0.74" ></stop><stop id="SvgjsStop7233" stop-opacity="1" stop-color="#eaeff2" offset="0.879" ></stop><stop id="SvgjsStop7234" stop-opacity="1" stop-color="#d9e3e8" offset="0.992" ></stop><stop id="SvgjsStop7235" stop-opacity="1" stop-color="#d8e2e7" offset="1" ></stop></radialGradient><radialGradient id="SvgjsRadialGradient7237" cx="126.035" cy="84.795" r="10.908" gradientTransform="matrix(-1 0 0 1 200 0)" gradientUnits="userSpaceOnUse" class="svga-on-canvas-eyesfront-gradient-left-0"><stop id="SvgjsStop7238" stop-opacity="1" stop-color="#ffffff" offset="0" ></stop><stop id="SvgjsStop7239" stop-opacity="1" stop-color="#fdfefe" offset="0.544" ></stop><stop id="SvgjsStop7240" stop-opacity="1" stop-color="#f6f8f9" offset="0.74" ></stop><stop id="SvgjsStop7241" stop-opacity="1" stop-color="#eaeff2" offset="0.879" ></stop><stop id="SvgjsStop7242" stop-opacity="1" stop-color="#d9e3e8" offset="0.992" ></stop><stop id="SvgjsStop7243" stop-opacity="1" stop-color="#d8e2e7" offset="1" ></stop></radialGradient><radialGradient id="SvgjsRadialGradient7247" cx="123.813" cy="83.449" fx="136.255" fy="83.484" r="17.696" gradientTransform="matrix(0.9998 0.0208 0.0166 -0.7998 -48.9873 147.6178)" gradientUnits="userSpaceOnUse" class="svga-on-canvas-eyesfront-gradient-left-3"><stop id="SvgjsStop7248" stop-opacity="1" stop-color="#e7c1bd" offset="0" ></stop><stop id="SvgjsStop7249" stop-opacity="0.3" stop-color="#e7c1bd" offset="0.7" ></stop><stop id="SvgjsStop7250" stop-opacity="0" stop-color="#f6e4e2" offset="1" ></stop></radialGradient><radialGradient id="SvgjsRadialGradient7252" cx="122.749" cy="106.061" r="28.568" gradientTransform="matrix(-0.8829 -0.4695 -0.4131 0.777 229.4492 81.2793)" gradientUnits="userSpaceOnUse" class="svga-on-canvas-eyesfront-gradient-left-4"><stop id="SvgjsStop7253" stop-opacity="0" stop-color="#000000" offset="0.9" ></stop><stop id="SvgjsStop7254" stop-opacity="0.2" stop-color="#000000" offset="1" ></stop></radialGradient><radialGradient id="SvgjsRadialGradient7258" cx="125.637" cy="84.795" r="10.908" gradientUnits="userSpaceOnUse" class="svga-on-canvas-eyesfront-gradient-right-0"><stop id="SvgjsStop7259" stop-opacity="1" stop-color="#ffffff" offset="0" ></stop><stop id="SvgjsStop7260" stop-opacity="1" stop-color="#fdfefe" offset="0.544" ></stop><stop id="SvgjsStop7261" stop-opacity="1" stop-color="#f6f8f9" offset="0.74" ></stop><stop id="SvgjsStop7262" stop-opacity="1" stop-color="#eaeff2" offset="0.879" ></stop><stop id="SvgjsStop7263" stop-opacity="1" stop-color="#d9e3e8" offset="0.992" ></stop><stop id="SvgjsStop7264" stop-opacity="1" stop-color="#d8e2e7" offset="1" ></stop></radialGradient><radialGradient id="SvgjsRadialGradient7268" cx="123.414" cy="83.449" fx="135.857" fy="83.484" r="17.696" gradientTransform="matrix(-0.9998 0.0208 -0.0166 -0.7998 248.1905 147.6261)" gradientUnits="userSpaceOnUse" class="svga-on-canvas-eyesfront-gradient-right-3"><stop id="SvgjsStop7269" stop-opacity="1" stop-color="#e7c1bd" offset="0" ></stop><stop id="SvgjsStop7270" stop-opacity="0.3" stop-color="#e7c1bd" offset="0.7" ></stop><stop id="SvgjsStop7271" stop-opacity="0" stop-color="#f6e4e2" offset="1" ></stop></radialGradient><radialGradient id="SvgjsRadialGradient7273" cx="122.351" cy="106.061" r="28.568" gradientTransform="matrix(0.8829 -0.4695 0.4131 0.777 -29.4959 81.0923)" gradientUnits="userSpaceOnUse" class="svga-on-canvas-eyesfront-gradient-right-4"><stop id="SvgjsStop7274" stop-opacity="0" stop-color="#000000" offset="0.9" ></stop><stop id="SvgjsStop7275" stop-opacity="0.2" stop-color="#000000" offset="1" ></stop></radialGradient><linearGradient id="SvgjsLinearGradient7293" x1="100" y1="141" x2="100" y2="138" gradientUnits="userSpaceOnUse" class="svga-on-canvas-mouth-gradient-single-0"><stop id="SvgjsStop7294" stop-opacity="1" stop-color="#eed2cf" offset="0.1" ></stop><stop id="SvgjsStop7295" stop-opacity="1" stop-color="#e7c1bd" offset="1" ></stop></linearGradient><linearGradient id="SvgjsLinearGradient7328" x1="100" y1="171" x2="100" y2="131" gradientUnits="userSpaceOnUse" class="svga-on-canvas-chinshadow-gradient-single-0"><stop id="SvgjsStop7329" stop-opacity="0.8" stop-color="#e7c1bd" offset="0" ></stop><stop id="SvgjsStop7330" stop-opacity="1" stop-color="#c8837c" offset="0.7" ></stop></linearGradient></defs></svg>