<svg xmlns="http://www.w3.org/2000/svg" x="0px" y="0px" viewBox="0 0 800 800" style="overflow:hidden!important;"><g id="svga-group-wrapper" transform="scale(4 4)"><g id="svga-group-backs-single"><path id="SvgjsPath4704" d="M225,225H-25V-25h250V225z" fill="#cdb380" stroke-width="none" opacity="1" stroke="none"></path><path id="SvgjsPath4705" d="M16,9.999c0,3.313-2.687,6-6,6s-6-2.687-6-6s2.687-6,6-6S16,6.686,16,9.999z M28,3.999c-3.313,0-6,2.687-6,6s2.687,6,6,6s6-2.687,6-6S31.313,3.999,28,3.999z M46,3.999c-3.313,0-6,2.687-6,6s2.687,6,6,6s6-2.687,6-6S49.313,3.999,46,3.999z M64,3.999c-3.313,0-6,2.687-6,6s2.687,6,6,6s6-2.687,6-6S67.313,3.999,64,3.999z M82,3.999c-3.313,0-6,2.687-6,6s2.687,6,6,6s6-2.687,6-6S85.313,3.999,82,3.999z M100,3.999c-3.313,0-6,2.687-6,6s2.687,6,6,6s6-2.687,6-6S103.313,3.999,100,3.999z M118,3.999c-3.313,0-6,2.687-6,6s2.687,6,6,6s6-2.687,6-6S121.313,3.999,118,3.999z M136,3.999c-3.313,0-6,2.687-6,6s2.687,6,6,6s6-2.687,6-6S139.313,3.999,136,3.999z M154,3.999c-3.313,0-6,2.687-6,6s2.687,6,6,6s6-2.687,6-6S157.313,3.999,154,3.999z M172,3.999c-3.313,0-6,2.687-6,6s2.687,6,6,6s6-2.687,6-6S175.313,3.999,172,3.999z M190,3.999c-3.313,0-6,2.687-6,6s2.687,6,6,6s6-2.687,6-6S193.313,3.999,190,3.999z M16,27.999c0,3.313-2.687,6-6,6s-6-2.687-6-6s2.687-6,6-6S16,24.686,16,27.999z M28,21.999c-3.313,0-6,2.687-6,6s2.687,6,6,6s6-2.687,6-6S31.313,21.999,28,21.999z M46,21.999c-3.313,0-6,2.687-6,6s2.687,6,6,6s6-2.687,6-6S49.313,21.999,46,21.999z M64,21.999c-3.313,0-6,2.687-6,6s2.687,6,6,6s6-2.687,6-6S67.313,21.999,64,21.999z M82,21.999c-3.313,0-6,2.687-6,6s2.687,6,6,6s6-2.687,6-6S85.313,21.999,82,21.999z M100,21.999c-3.313,0-6,2.687-6,6s2.687,6,6,6s6-2.687,6-6S103.313,21.999,100,21.999z M118,21.999c-3.313,0-6,2.687-6,6s2.687,6,6,6s6-2.687,6-6S121.313,21.999,118,21.999z M136,21.999c-3.313,0-6,2.687-6,6s2.687,6,6,6s6-2.687,6-6S139.313,21.999,136,21.999z M154,21.999c-3.313,0-6,2.687-6,6s2.687,6,6,6s6-2.687,6-6S157.313,21.999,154,21.999z M172,21.999c-3.313,0-6,2.687-6,6s2.687,6,6,6s6-2.687,6-6S175.313,21.999,172,21.999z M190,21.999c-3.313,0-6,2.687-6,6s2.687,6,6,6s6-2.687,6-6S193.313,21.999,190,21.999z M16,45.999c0,3.313-2.687,6-6,6s-6-2.687-6-6s2.687-6,6-6S16,42.686,16,45.999z M28,39.999c-3.313,0-6,2.687-6,6s2.687,6,6,6s6-2.687,6-6S31.313,39.999,28,39.999z M46,39.999c-3.313,0-6,2.687-6,6s2.687,6,6,6s6-2.687,6-6S49.313,39.999,46,39.999z M64,39.999c-3.313,0-6,2.687-6,6s2.687,6,6,6s6-2.687,6-6S67.313,39.999,64,39.999z M82,39.999c-3.313,0-6,2.687-6,6s2.687,6,6,6s6-2.687,6-6S85.313,39.999,82,39.999z M100,39.999c-3.313,0-6,2.687-6,6s2.687,6,6,6s6-2.687,6-6S103.313,39.999,100,39.999z M118,39.999c-3.313,0-6,2.687-6,6s2.687,6,6,6s6-2.687,6-6S121.313,39.999,118,39.999z M136,39.999c-3.313,0-6,2.687-6,6s2.687,6,6,6s6-2.687,6-6S139.313,39.999,136,39.999z M154,39.999c-3.313,0-6,2.687-6,6s2.687,6,6,6s6-2.687,6-6S157.313,39.999,154,39.999z M172,39.999c-3.313,0-6,2.687-6,6s2.687,6,6,6s6-2.687,6-6S175.313,39.999,172,39.999z M190,39.999c-3.313,0-6,2.687-6,6s2.687,6,6,6s6-2.687,6-6S193.313,39.999,190,39.999z M16,63.999c0,3.313-2.687,6-6,6s-6-2.687-6-6s2.687-6,6-6S16,60.686,16,63.999z M28,57.999c-3.313,0-6,2.687-6,6s2.687,6,6,6s6-2.687,6-6S31.313,57.999,28,57.999z M46,57.999c-3.313,0-6,2.687-6,6s2.687,6,6,6s6-2.687,6-6S49.313,57.999,46,57.999z M64,57.999c-3.313,0-6,2.687-6,6s2.687,6,6,6s6-2.687,6-6S67.313,57.999,64,57.999z M82,57.999c-3.313,0-6,2.687-6,6s2.687,6,6,6s6-2.687,6-6S85.313,57.999,82,57.999z M100,57.999c-3.313,0-6,2.687-6,6s2.687,6,6,6s6-2.687,6-6S103.313,57.999,100,57.999z M118,57.999c-3.313,0-6,2.687-6,6s2.687,6,6,6s6-2.687,6-6S121.313,57.999,118,57.999z M136,57.999c-3.313,0-6,2.687-6,6s2.687,6,6,6s6-2.687,6-6S139.313,57.999,136,57.999z M154,57.999c-3.313,0-6,2.687-6,6s2.687,6,6,6s6-2.687,6-6S157.313,57.999,154,57.999z M172,57.999c-3.313,0-6,2.687-6,6s2.687,6,6,6s6-2.687,6-6S175.313,57.999,172,57.999z M190,57.999c-3.313,0-6,2.687-6,6s2.687,6,6,6s6-2.687,6-6S193.313,57.999,190,57.999z M16,81.999c0,3.313-2.687,6-6,6s-6-2.687-6-6s2.687-6,6-6S16,78.686,16,81.999z M28,75.999c-3.313,0-6,2.687-6,6s2.687,6,6,6s6-2.687,6-6S31.313,75.999,28,75.999z M46,75.999c-3.313,0-6,2.687-6,6s2.687,6,6,6s6-2.687,6-6S49.313,75.999,46,75.999z M64,75.999c-3.313,0-6,2.687-6,6s2.687,6,6,6s6-2.687,6-6S67.313,75.999,64,75.999z M82,75.999c-3.313,0-6,2.687-6,6s2.687,6,6,6s6-2.687,6-6S85.313,75.999,82,75.999z M100,75.999c-3.313,0-6,2.687-6,6s2.687,6,6,6s6-2.687,6-6S103.313,75.999,100,75.999z M118,75.999c-3.313,0-6,2.687-6,6s2.687,6,6,6s6-2.687,6-6S121.313,75.999,118,75.999z M136,75.999c-3.313,0-6,2.687-6,6s2.687,6,6,6s6-2.687,6-6S139.313,75.999,136,75.999z M154,75.999c-3.313,0-6,2.687-6,6s2.687,6,6,6s6-2.687,6-6S157.313,75.999,154,75.999z M172,75.999c-3.313,0-6,2.687-6,6s2.687,6,6,6s6-2.687,6-6S175.313,75.999,172,75.999z M190,75.999c-3.313,0-6,2.687-6,6s2.687,6,6,6s6-2.687,6-6S193.313,75.999,190,75.999z M16,99.999c0,3.313-2.687,6-6,6s-6-2.687-6-6s2.687-6,6-6S16,96.686,16,99.999z M28,93.999c-3.313,0-6,2.687-6,6s2.687,6,6,6s6-2.687,6-6S31.313,93.999,28,93.999z M46,93.999c-3.313,0-6,2.687-6,6s2.687,6,6,6s6-2.687,6-6S49.313,93.999,46,93.999z M64,93.999c-3.313,0-6,2.687-6,6s2.687,6,6,6s6-2.687,6-6S67.313,93.999,64,93.999z M82,93.999c-3.313,0-6,2.687-6,6s2.687,6,6,6s6-2.687,6-6S85.313,93.999,82,93.999z M100,93.999c-3.313,0-6,2.687-6,6s2.687,6,6,6s6-2.687,6-6S103.313,93.999,100,93.999z M118,93.999c-3.313,0-6,2.687-6,6s2.687,6,6,6s6-2.687,6-6S121.313,93.999,118,93.999z M136,93.999c-3.313,0-6,2.687-6,6s2.687,6,6,6s6-2.687,6-6S139.313,93.999,136,93.999z M154,93.999c-3.313,0-6,2.687-6,6s2.687,6,6,6s6-2.687,6-6S157.313,93.999,154,93.999z M172,93.999c-3.313,0-6,2.687-6,6s2.687,6,6,6s6-2.687,6-6S175.313,93.999,172,93.999z M190,93.999c-3.313,0-6,2.687-6,6s2.687,6,6,6s6-2.687,6-6S193.313,93.999,190,93.999z M16,171.999c0,3.313-2.687,6-6,6s-6-2.687-6-6s2.687-6,6-6S16,168.686,16,171.999z M28,165.999c-3.313,0-6,2.687-6,6s2.687,6,6,6s6-2.687,6-6S31.313,165.999,28,165.999z M46,165.999c-3.313,0-6,2.687-6,6s2.687,6,6,6s6-2.687,6-6S49.313,165.999,46,165.999z M64,165.999c-3.313,0-6,2.687-6,6s2.687,6,6,6s6-2.687,6-6S67.313,165.999,64,165.999z M82,165.999c-3.313,0-6,2.687-6,6s2.687,6,6,6s6-2.687,6-6S85.313,165.999,82,165.999z M100,165.999c-3.313,0-6,2.687-6,6s2.687,6,6,6s6-2.687,6-6S103.313,165.999,100,165.999z M118,165.999c-3.313,0-6,2.687-6,6s2.687,6,6,6s6-2.687,6-6S121.313,165.999,118,165.999z M136,165.999c-3.313,0-6,2.687-6,6s2.687,6,6,6s6-2.687,6-6S139.313,165.999,136,165.999z M154,165.999c-3.313,0-6,2.687-6,6s2.687,6,6,6s6-2.687,6-6S157.313,165.999,154,165.999z M172,165.999c-3.313,0-6,2.687-6,6s2.687,6,6,6s6-2.687,6-6S175.313,165.999,172,165.999z M190,165.999c-3.313,0-6,2.687-6,6s2.687,6,6,6s6-2.687,6-6S193.313,165.999,190,165.999z M16,189.999c0,3.313-2.687,6-6,6s-6-2.687-6-6s2.687-6,6-6S16,186.686,16,189.999z M28,183.999c-3.313,0-6,2.687-6,6s2.687,6,6,6s6-2.687,6-6S31.313,183.999,28,183.999z M46,183.999c-3.313,0-6,2.687-6,6s2.687,6,6,6s6-2.687,6-6S49.313,183.999,46,183.999z M64,183.999c-3.313,0-6,2.687-6,6s2.687,6,6,6s6-2.687,6-6S67.313,183.999,64,183.999z M82,183.999c-3.313,0-6,2.687-6,6s2.687,6,6,6s6-2.687,6-6S85.313,183.999,82,183.999z M100,183.999c-3.313,0-6,2.687-6,6s2.687,6,6,6s6-2.687,6-6S103.313,183.999,100,183.999z M118,183.999c-3.313,0-6,2.687-6,6s2.687,6,6,6s6-2.687,6-6S121.313,183.999,118,183.999z M136,183.999c-3.313,0-6,2.687-6,6s2.687,6,6,6s6-2.687,6-6S139.313,183.999,136,183.999z M154,183.999c-3.313,0-6,2.687-6,6s2.687,6,6,6s6-2.687,6-6S157.313,183.999,154,183.999z M172,183.999c-3.313,0-6,2.687-6,6s2.687,6,6,6s6-2.687,6-6S175.313,183.999,172,183.999z M190,183.999c-3.313,0-6,2.687-6,6s2.687,6,6,6s6-2.687,6-6S193.313,183.999,190,183.999z M16,117.999c0,3.313-2.687,6-6,6s-6-2.687-6-6s2.687-6,6-6S16,114.686,16,117.999z M28,111.999c-3.313,0-6,2.687-6,6s2.687,6,6,6s6-2.687,6-6S31.313,111.999,28,111.999z M46,111.999c-3.313,0-6,2.687-6,6s2.687,6,6,6s6-2.687,6-6S49.313,111.999,46,111.999z M64,111.999c-3.313,0-6,2.687-6,6s2.687,6,6,6s6-2.687,6-6S67.313,111.999,64,111.999z M82,111.999c-3.313,0-6,2.687-6,6s2.687,6,6,6s6-2.687,6-6S85.313,111.999,82,111.999z M100,111.999c-3.313,0-6,2.687-6,6s2.687,6,6,6s6-2.687,6-6S103.313,111.999,100,111.999z M118,111.999c-3.313,0-6,2.687-6,6s2.687,6,6,6s6-2.687,6-6S121.313,111.999,118,111.999z M136,111.999c-3.313,0-6,2.687-6,6s2.687,6,6,6s6-2.687,6-6S139.313,111.999,136,111.999z M154,111.999c-3.313,0-6,2.687-6,6s2.687,6,6,6s6-2.687,6-6S157.313,111.999,154,111.999z M172,111.999c-3.313,0-6,2.687-6,6s2.687,6,6,6s6-2.687,6-6S175.313,111.999,172,111.999z M190,111.999c-3.313,0-6,2.687-6,6s2.687,6,6,6s6-2.687,6-6S193.313,111.999,190,111.999z M16,135.999c0,3.313-2.687,6-6,6s-6-2.687-6-6s2.687-6,6-6S16,132.686,16,135.999z M28,129.999c-3.313,0-6,2.687-6,6s2.687,6,6,6s6-2.687,6-6S31.313,129.999,28,129.999z M46,129.999c-3.313,0-6,2.687-6,6s2.687,6,6,6s6-2.687,6-6S49.313,129.999,46,129.999z M64,129.999c-3.313,0-6,2.687-6,6s2.687,6,6,6s6-2.687,6-6S67.313,129.999,64,129.999z M82,129.999c-3.313,0-6,2.687-6,6s2.687,6,6,6s6-2.687,6-6S85.313,129.999,82,129.999z M100,129.999c-3.313,0-6,2.687-6,6s2.687,6,6,6s6-2.687,6-6S103.313,129.999,100,129.999z M118,129.999c-3.313,0-6,2.687-6,6s2.687,6,6,6s6-2.687,6-6S121.313,129.999,118,129.999z M136,129.999c-3.313,0-6,2.687-6,6s2.687,6,6,6s6-2.687,6-6S139.313,129.999,136,129.999z M154,129.999c-3.313,0-6,2.687-6,6s2.687,6,6,6s6-2.687,6-6S157.313,129.999,154,129.999z M172,129.999c-3.313,0-6,2.687-6,6s2.687,6,6,6s6-2.687,6-6S175.313,129.999,172,129.999z M190,129.999c-3.313,0-6,2.687-6,6s2.687,6,6,6s6-2.687,6-6S193.313,129.999,190,129.999z M16,153.999c0,3.313-2.687,6-6,6s-6-2.687-6-6s2.687-6,6-6S16,150.686,16,153.999z M28,147.999c-3.313,0-6,2.687-6,6s2.687,6,6,6s6-2.687,6-6S31.313,147.999,28,147.999z M46,147.999c-3.313,0-6,2.687-6,6s2.687,6,6,6s6-2.687,6-6S49.313,147.999,46,147.999z M64,147.999c-3.313,0-6,2.687-6,6s2.687,6,6,6s6-2.687,6-6S67.313,147.999,64,147.999z M82,147.999c-3.313,0-6,2.687-6,6s2.687,6,6,6s6-2.687,6-6S85.313,147.999,82,147.999z M100,147.999c-3.313,0-6,2.687-6,6s2.687,6,6,6s6-2.687,6-6S103.313,147.999,100,147.999z M118,147.999c-3.313,0-6,2.687-6,6s2.687,6,6,6s6-2.687,6-6S121.313,147.999,118,147.999z M136,147.999c-3.313,0-6,2.687-6,6s2.687,6,6,6s6-2.687,6-6S139.313,147.999,136,147.999z M154,147.999c-3.313,0-6,2.687-6,6s2.687,6,6,6s6-2.687,6-6S157.313,147.999,154,147.999z M172,147.999c-3.313,0-6,2.687-6,6s2.687,6,6,6s6-2.687,6-6S175.313,147.999,172,147.999z M190,147.999c-3.313,0-6,2.687-6,6s2.687,6,6,6s6-2.687,6-6S193.313,147.999,190,147.999z" fill="#be9f63" stroke-width="none" opacity="1" stroke="none"></path></g><g id="svga-group-subwrapper" ><g id="svga-group-hair-back" ><path id="SvgjsPath4856" d="M100.5,100.5h-1v-1h1V100.5z" fill="#b84131" stroke-width="none" opacity="1"></path></g><g id="svga-group-humanbody-single"><path id="SvgjsPath4560" d="M190.858 199.866c-6.008-10.158-13.474-11.973-19.628-13.936 -6.323-2.016-19.346-3.178-26.449-4.6 -6.86-1.373-23.153-5.789-23.339-13.488 -0.192-8.066 4.291-40.09 4.291-40.09H74.005c0 0 4.487 32.023 4.294 40.09 -0.184 7.699-16.48 12.115-23.341 13.488 -7.104 1.422-20.125 2.584-26.448 4.6 -6.156 1.963-13.624 3.777-19.632 13.936 -3.644 6.16-6.008 16.133-6.008 27.133h194C196.869 215.999 194.509 206.026 190.858 199.866z" fill="#d9a494" stroke-width="none" opacity="1" stroke="none"></path><path id="SvgjsPath4561" d="M121.442 167.843c2.495 10.929 18.165 13.698 26.293 15.325 21.909 4.379 33.772 5.134 42.297 19.539 2.903 4.916 5.459 15.864 5.962 24.153 1.835 0.291 0.531-17.432-5.136-26.994 -9.742-16.472-29.089-15.135-46.077-18.535C137.921 179.958 121.628 175.542 121.442 167.843L121.442 167.843zM78.558 167.843c-0.186 7.699-16.479 12.115-23.339 13.488 -16.988 3.4-36.335 2.063-46.077 18.535 -5.667 9.563-6.971 27.285-5.136 26.994 0.503-8.289 3.059-19.237 5.962-24.153 8.524-14.405 20.388-15.16 42.297-19.539C60.393 181.541 76.063 178.771 78.558 167.843L78.558 167.843z" fill="#e8c1b6" stroke-width="none" opacity="1" stroke="none"></path><path id="SvgjsPath4562" d="M51.206 189.513c0 0 28.641 0.299 33.473 1.885 2.314 0.758 8.372 5.633 8.372 5.633s-6.556-3.17-8.658-3.758C79.51 191.909 51.206 189.513 51.206 189.513zM99.795 199.999c2.053-0.041 7.887-3.799 7.887-3.799s-5.574 2.059-7.342 2.16c-1.491 0.086-6.366-1.238-6.366-1.238S98.112 200.032 99.795 199.999zM117.008 192.757c6.75-1.818 29.786-3.23 29.786-3.23s-23.791-0.516-30.51 1.725c-2.252 0.752-7.562 5.16-7.562 5.16S114.786 193.354 117.008 192.757z" fill="#ca8975" stroke-width="none" opacity="1" stroke="none"></path><path id="SvgjsPath4563" d="M190.858 199.866c-9.741-16.471-29.122-15.142-46.077-18.535 -6.86-1.373-23.153-5.789-23.339-13.488 -0.192-8.066 4.291-40.09 4.291-40.09H74.005c0 0 4.487 32.023 4.294 40.09 -0.184 7.699-16.48 12.115-23.341 13.488 -7.104 1.422-20.125 2.584-26.448 4.6 -6.156 1.963-13.624 3.777-19.632 13.936 -3.644 6.16-6.008 16.133-6.008 27.133h194C196.869 215.999 194.509 206.026 190.858 199.866z" fill="none" stroke="#ab5a41" stroke-width="1.5" opacity="1"></path></g><g id="svga-group-chinshadow-single"><path id="SvgjsPath4867" d="M74.767 128.517c0.63 4.561 3.424 25.109 4.058 35.365 4.747 3.863 11.162 7.168 21.177 7.121 9.822 0.046 16.18-3.132 20.899-6.899 0.607-10.183 3.436-30.995 4.069-35.587l0.017-0.113H74.751L74.767 128.517z" fill="url(#SvgjsLinearGradient4868)" opacity="1"></path></g><g id="svga-group-clothes-single" ><path id="SvgjsPath4831" d="M103.441 229.899c-18.333 0-36.705-0.539-54.995-1.778 -15.203-1.031-30.378-2.423-45.577-3.513 -0.395 0.562-0.339-0.934-0.358-1.242 -0.063-1.019-0.104-2.04-0.108-3.061 -0.009-2.058 0.125-4.13 0.574-6.143 0.412-1.843 1.173-3.577 1.822-5.344 0.053-0.144-1.718-1.102-2-1.258 0.727-1.272 1.67-2.456 2.597-3.584 -1.756-1.127-3.547-2.263-5.246-3.476 2.355-2.815 5.602-4.512 8.114-7.131 -1.025-0.663-2.03-1.359-2.985-2.12 -0.249-0.198-0.494-0.4-0.739-0.604 -0.398-0.33-0.075-0.435 0.216-0.759 0.425-0.499 0.867-0.984 1.325-1.454 1.696-1.742 3.599-3.279 5.626-4.62 4.417-2.919 9.418-4.918 14.568-6.104 1.312-0.303 2.636-0.552 3.968-0.749 0.461-0.08 0.925-0.19 1.351-0.075 0.531 0.144 1.088 0.551 1.586 0.79 2.117 1.021 4.265 1.973 6.442 2.859 4.636 1.888 9.383 3.491 14.194 4.869 20.634 5.908 42.528 7.305 63.728 3.957 10.546-1.665 20.96-4.469 30.987-8.119 2.774-1.011 5.52-2.112 8.219-3.31 1.013-0.449 2.021-0.91 3.02-1.389 0.744-0.356 1.186-0.409 2.011-0.421 1.568-0.021 3.148-0.094 4.706 0.141 1.621 0.243 3.188 0.774 4.719 1.343 5.999 2.224 11.475 5.193 16.34 9.392 -0.431 0.458-0.87 0.913-1.323 1.35 1.913 1.457 3.546 3.266 5.062 5.121 0.879 1.077 1.694 2.196 2.517 3.315 0.321 0.438 0.049 2.004 0.067 2.573 0.1 3.061 0.932 5.686 2.035 8.515 0.77 1.973 1.441 3.979 1.761 6.08 0.436 2.859 0.07 5.589-0.246 8.435 -0.124 1.114-0.213 2.231-0.309 3.348 -0.022 0.256-0.044 0.512-0.071 0.768 -0.883 0-1.768 0.036-2.65 0.053 -4.932 0.09-9.864 0.194-14.795 0.344 -13.384 0.405-26.743 1.258-40.132 1.603 -6.907 0.178-13.815 0.343-20.715 0.725C113.639 229.509 108.56 229.899 103.441 229.899z" fill="#fcde4f" stroke-width="none" opacity="1" stroke="none"></path><path id="SvgjsPath4832" d="M77.072 191.553c-1.295 1.902-2.474 3.882-3.612 5.878 0.287-2.083 0.496-4.185 0.693-6.286C75.123 191.296 76.092 191.433 77.072 191.553zM63.583 189.148c-1.714 3.7-3.554 7.359-4.999 11.145 2.029-3.547 4.106-7.188 5.76-10.973 2.949 0.654 5.948 1.226 8.976 1.7 -0.287 2.577-0.464 5.174-0.613 7.761 -0.95 1.683-1.88 3.374-2.84 5.041 -3.623 6.266-4.811 11.162-5.662 14.774 -1.625-0.151-2.969-0.323-3.7-0.436 -4.553-0.704-6.474-1.493-7.751-2.169 1.157-4.26 2.227-8.547 2.989-12.896 0.891-5.067 1.316-10.248 2.384-15.28C59.92 188.301 61.742 188.749 63.583 189.148zM43.154 182.938c-2.722 2.521-4.514 4.708-9.047 10.241 1.425-3.317 3.316-7.444 5.79-11.571C40.966 182.064 42.045 182.513 43.154 182.938zM187.52 189.909c0.012 0.01 0.028 0.027 0.049 0.049 2.069 1.976 4.257 4.631 6.019 6.931v0.009 0.011c-1.635 1.455-2.939 2.823-4.098 3.442 -0.674-0.798-1.366-1.588-2.059-2.398 -1.444-1.682-2.653-3.582-4.147-5.218 -0.079-0.087-0.16-0.183-0.238-0.268 -0.139-0.142-0.275-0.285-0.417-0.418 0.725-0.684 1.427-1.379 2.131-2.074 0.116-0.112 0.225-0.227 0.334-0.34 0.338-0.325 0.664-0.658 0.991-0.99C186.55 189.016 187.024 189.443 187.52 189.909zM173.05 206.446c1.269 1.824 3.257 4.154 5.147 6.285 -2.17 1.178-3.633 2.176-4.634 2.853 -1.474-1.827-3.256-3.832-6.097-7.256 0.149-0.076 0.298-0.151 0.445-0.229 1.682-0.901 2.84-1.862 4.356-2.852 0.206 0.353 0.452 0.741 0.752 1.151C173.021 206.407 173.029 206.426 173.05 206.446zM163.229 180.506c4.891 4.801 9.126 9.662 13.956 16.971 1.199-1.139 2.438-2.243 3.713-3.315 0.588-0.491 1.192-0.973 1.814-1.437 -6.55-6.479-13.323-12.555-22.224-14.804C161.277 178.646 162.18 179.49 163.229 180.506zM148.026 182.634c6.139 7.397 15.392 15.233 18.885 19.114 -4.039-5.621-12.343-13.122-18.212-19.37 2.318-0.885 4.585-1.836 6.823-2.86 6.084 7.7 14.174 19.093 17.991 24.551 -0.493 0.246-0.94 0.486-1.367 0.731 -0.03 0.021-0.057 0.037-0.086 0.058 -1.407 0.848-2.594 1.787-4.702 2.957 -0.071 0.037-0.148 0.076-0.218 0.115 -0.07 0.038-0.129 0.065-0.188 0.096 -1.481 0.768-2.979 1.243-4.653 1.604 -0.791 0.161-1.592 0.334-2.385 0.553 -3.394-4.488-6.057-9.527-9.213-14.169 -2.019-2.978-4.374-5.782-6.257-8.834 -0.535-0.875-1.058-1.797-1.633-2.689C144.574 183.909 146.317 183.29 148.026 182.634zM118.851 190.394c1.889 4.355 2.661 5.896 5.682 15.928 -0.495-2.482-0.931-4.964-1.693-7.379 -0.922-2.899-1.782-5.278-3.324-8.662 2.769-0.506 5.492-1.046 8.153-1.644 2.407 2.69 4.283 6.083 9.641 13.158 2.721 3.549 5.434 7.114 7.739 10.907 -1.166 0.617-2.384 1.141-3.654 1.454 -18.623 5.486-11.567 3.48-20.01 5.041 -0.148 0.026-0.347 0.057-0.565 0.085 -0.583-2.891-1.513-6.551-3.432-12.752 -2.307-7.427-4.168-11.837-5.651-14.986C114.148 191.192 116.515 190.812 118.851 190.394zM106.074 192.247c1.719 4.784 3.046 9.699 4.035 14.692 0.636 3.271 1.181 6.552 1.753 9.822 0.247 1.417 0.477 2.854 0.792 4.271 -4.93 0.818-10.224 0.077-13.531 0.03 0.07-2.283 0.051-2.807 0.189-4.148 0.306-3.042 0.484-6.113 0.802-9.166 0.317-3.178 0.714-6.351 0.671-9.547 -0.029-1.873-0.087-3.748 0.139-5.581C102.649 192.535 104.372 192.409 106.074 192.247zM96.463 192.752c-1.318 4.261-2.733 8.502-3.971 12.79 -0.02-4.279-0.147-8.549-0.386-12.819C93.562 192.761 95.017 192.771 96.463 192.752zM88.019 192.571c-0.396 5.212-0.989 10.394-1.325 15.614 1.197-6.856 1.593-10.974 1.572-15.593 1.17 0.055 2.336 0.104 3.505 0.12 -0.13 5.041-0.1 10.09 0.079 15.129 0 0.01 0 0.01 0 0.01 -1.465 5.439-1.772 9.215-1.841 12.496 -2.801 0.504-5.663 0.741-8.512 0.903 -5.87 0.333-7.988-0.172-10.224-0.353 0.147-0.504 0.316-1.006 0.484-1.513 0.041-0.122 0.09-0.256 0.129-0.379 1.791-5.287 4.147-10.643 5.571-13.475 3.625-7.169 5.316-10.839 6.642-13.228C85.406 192.421 86.713 192.504 88.019 192.571zM52.101 186.085c-0.841 2.995-1.771 7.361-4.414 15.368 -1.138 3.432-2.217 6.847-3.137 10.346 -0.218 0.836-0.327 1.702-0.376 2.577 -1.989-0.78-3.939-1.626-5.889-2.5 -1.218-0.581-2.237-1.087-3.088-1.522 -0.05-0.028-0.109-0.058-0.159-0.087 -0.96-0.492-1.711-0.911-2.326-1.234 2.197-3.14 4.652-6.676 6.77-9.775 3.217-4.688 5.988-9.68 9.433-14.206C49.963 185.4 51.022 185.754 52.101 186.085zM33.762 211.515c-1.861 2.157-3.257 5.315-4.771 8.414 -2.446-0.789-4.911-1.531-7.345-2.357 0.167-0.297 0.335-0.58 0.505-0.877 0.198-0.34 0.396-0.692 0.593-1.055 0.01-0.027 0.02-0.056 0.041-0.084 1.196-2.188 2.405-4.593 3.663-6.344 1.296 0.627 2.72 1.171 4.157 1.599 0.237 0.066 0.484 0.132 0.723 0.199 0.068-0.104 0.148-0.209 0.218-0.313 0.326-0.457 0.652-0.933 0.99-1.417 0.455 0.285 0.939 0.59 1.444 0.903 0.199 0.124 0.416 0.267 0.673 0.408 -0.238 0.229-0.475 0.465-0.691 0.714C33.889 211.37 33.83 211.447 33.762 211.515zM35.532 179.629c-2.483 3.558-4.74 7.324-6.135 11.317 2.098-3.767 4.463-7.37 6.622-11.089 1.108 0.533 2.247 1.046 3.406 1.542 -2.041 2.976-4.188 6.989-6.86 13.683 -2.644 3.319-5.137 6.78-7.295 10.424 -3.583-1.209-8.789-3.045-9.481-3.303 -1.575-0.513-3.713-1.53-5.592-2.528 -0.09-0.048-0.168-0.096-0.259-0.133 -0.959-0.522-1.83-1.026-2.502-1.454 1.099-1.065 2.207-2.113 3.336-3.129 0.168-0.161 0.345-0.322 0.523-0.475 6.623-5.991 13.699-11.251 22.161-15.892C34.126 178.944 34.82 179.288 35.532 179.629zM3.257 202.271c-0.12-0.076-0.248-0.162-0.367-0.237 -0.822-0.53-1.643-1.046-2.435-1.513 1.366-1.501 2.98-2.747 4.494-3.918 0.03-0.026 0.07-0.047 0.1-0.085 1.287-0.979 2.503-1.92 3.404-2.91 0.466 0.287 0.94 0.57 1.406 0.846 -1.039 1.019-2.079 2.085-3.098 3.187 -0.089 0.086-0.169 0.173-0.248 0.267 0.198 0.171 0.406 0.332 0.614 0.485 0.307 0.237 0.634 0.447 0.96 0.628 0.484 0.257 0.96 0.533 1.426 0.817 -1.505 1.103-2.91 2.547-4.069 3.929C4.732 203.27 3.998 202.768 3.257 202.271zM3.108 207.55c0.703-1.01 1.555-2.17 2.494-3.32 0.07-0.077 0.129-0.15 0.188-0.229 1.217-1.454 2.583-2.891 4-4.003 1.009 0.6 2.019 1.206 3.116 1.701 1.744 0.771 3.515 1.455 5.326 2.082 2.197 0.763 4.493 1.531 6.818 2.084 -0.335 0.581-0.661 1.16-0.979 1.75 -0.038 0.058-0.068 0.113-0.099 0.17 0.118 0.077 0.237 0.162 0.357 0.24 0.563 0.37 1.187 0.721 1.85 1.054 -1.296 1.646-2.544 3.966-3.751 6.361 -3.652-1.17-7.304-2.368-10.827-3.841 -1.882-0.828-3.761-1.616-5.583-2.567 -0.098-0.047-0.445-0.229-0.93-0.477 0.238-0.94 0.415-1.891 0.514-2.861 -0.188 0.931-0.465 1.834-0.771 2.729C4.336 208.156 3.722 207.852 3.108 207.55z" fill="#edcc33" stroke-width="none" opacity="1" stroke="none"></path><path id="SvgjsPath4833" d="M194.201 202.214c-0.229-1.597-0.267-3.224-0.257-4.85 0-0.182 0-0.362 0-0.532 0-0.01 0.01-0.01 0.01-0.01 -0.01-0.076-0.01-0.152 0-0.228 -0.041 0.028-0.08 0.057-0.109 0.085 -0.07-0.095-0.141-0.19-0.209-0.294 -1.643-2.292-3.662-4.784-5.621-6.638 0.029-0.02 0.059-0.039 0.09-0.048 -0.031 0.009-0.071 0.019-0.101 0.039 -0.555-0.522-1.1-0.99-1.631-1.399 0.285-0.275 0.563-0.561 0.819-0.846 0.178-0.171 0.339-0.331 0.495-0.504 -0.119-0.105-0.238-0.198-0.355-0.303 -3.525-2.901-7.307-5.517-11.541-7.354 -8.026-3.354-9.216-3.394-13.232-3.318 -0.586 0-1.229 0.021-1.961 0.021 -0.297 0.142-0.604 0.293-0.91 0.436 -0.169 0.077-0.336 0.161-0.505 0.248 -0.159 0.066-0.317 0.143-0.485 0.218 -0.979 0.457-1.979 0.903-3.008 1.352 -0.288 0.114-0.566 0.236-0.854 0.359 -2.225 0.941-4.561 1.866-7.035 2.75 -0.2 0.074-0.396 0.15-0.604 0.219 -1.652 0.59-3.364 1.169-5.137 1.73 -0.156 0.057-0.315 0.104-0.474 0.151 -0.893 0.286-1.811 0.562-2.743 0.837 -0.132 0.038-0.255 0.076-0.386 0.115 -0.82 0.247-1.665 0.484-2.514 0.723 -0.318 0.094-0.644 0.179-0.971 0.266 -1.593 0.437-3.239 0.864-4.917 1.283 -1.041 0.255-2.088 0.505-3.142 0.742 -0.095 0.019-0.195 0.047-0.303 0.067 -2.546 0.559-5.109 1.063-7.68 1.5 -0.21 0.039-0.421 0.067-0.627 0.105 -2.404 0.392-4.83 0.731-7.256 1.007 -0.116 0.013-0.234 0.03-0.355 0.038 -1.632 0.184-3.272 0.333-4.919 0.468 -0.097 0.008-0.188 0.019-0.285 0.019 -1.417 0.104-2.832 0.19-4.257 0.256 -0.07 0-0.128 0.009-0.196 0.009 -1.297 0.06-2.585 0.096-3.881 0.104 -0.061 0.012-0.118 0.012-0.179 0 -0.377 0.012-0.753 0.021-1.129 0.021 -1.296 0.009-2.572 0-3.849-0.03 -0.06 0-0.118 0-0.179 0 -1.207-0.026-2.396-0.065-3.573-0.122 -0.04 0-0.079 0-0.119-0.009 -1.029-0.039-2.049-0.104-3.067-0.174 -0.109 0-0.219-0.009-0.328-0.019 0 0 0 0-0.009 0 -2.129-0.144-4.216-0.33-6.264-0.57 -0.121-0.009-0.248-0.018-0.367-0.037 -1.275-0.142-2.543-0.304-3.791-0.476 -0.268-0.037-0.534-0.076-0.802-0.116 -2.968-0.436-5.849-0.94-8.611-1.5 -0.236-0.048-0.485-0.104-0.721-0.153 -1.98-0.408-3.891-0.854-5.752-1.321 -0.137-0.038-0.277-0.066-0.415-0.104 -1.762-0.448-3.474-0.913-5.117-1.398 -0.15-0.037-0.288-0.084-0.436-0.123 -0.94-0.275-1.86-0.561-2.762-0.846 -0.147-0.047-0.296-0.096-0.435-0.145 -1.632-0.522-3.207-1.056-4.701-1.597 -0.168-0.065-0.336-0.122-0.505-0.19 -1.256-0.455-2.475-0.922-3.632-1.379 -0.138-0.057-0.277-0.114-0.416-0.171 -1.247-0.503-2.425-1.007-3.544-1.491 -0.138-0.066-0.276-0.126-0.405-0.184 -0.594-0.265-1.159-0.531-1.712-0.789 -0.169-0.073-0.338-0.15-0.495-0.234 -0.732-0.346-1.426-0.686-2.079-1.019 -0.109-0.058-0.217-0.117-0.325-0.173 -0.407 0.049-0.813 0.104-1.208 0.173 -11.185 1.655-20.191 6.665-25.547 12.959 -0.188 0.209-0.365 0.419-0.523 0.628 0.178 0.162 0.375 0.323 0.574 0.484 0.989 0.828 2.158 1.665 3.375 2.454 -0.912 0.935-2.158 1.854-3.484 2.873 -0.089-0.049-0.158-0.077-0.178-0.077 -0.04 0 0.01 0.077 0.079 0.153 -1.504 1.15-3.098 2.435-4.375 4.013 -0.049 0.056-0.099 0.113-0.148 0.17 0.089 0.058 0.177 0.123 0.277 0.192 0.703 0.454 1.525 1.007 2.396 1.587 0.109 0.075 0.217 0.153 0.336 0.218 0.722 0.495 1.483 0.998 2.237 1.483 -0.901 1.094-1.644 2.132-2.148 2.911 -0.11 0.162-0.208 0.323-0.307 0.475 -0.051 0.067-0.089 0.142-0.129 0.21 0.099 0.058 0.197 0.124 0.297 0.171 0.614 0.37 1.217 0.742 1.731 1.056 -0.375 1.016-0.782 2.023-1.148 3.063 -1.464 3.907-1.366 8.546-1.04 12.798 0 0.058 0.011 0.105 0.021 0.162 0.148 0 0.297 0 0.455 0 -0.009-0.043-0.009-0.087-0.009-0.13 17.807 1.25 48.215 4.196 69.411 4.714 52.426 1.265 26.427 0.161 65.135-0.779 33.931-0.839 23.727-1.42 59.207-2.037 0.13-0.011 0.269-0.011 0.407-0.011 0-0.063 0.009-0.131 0.019-0.199 0.168-1.844 0.287-3.699 0.564-5.543C199.12 211.467 194.934 207.283 194.201 202.214zM187.52 189.909c0.012 0.01 0.028 0.027 0.049 0.049 2.069 1.976 4.257 4.631 6.019 6.931v0.009 0.011c-1.635 1.455-2.939 2.823-4.098 3.442 -0.674-0.798-1.366-1.588-2.059-2.398 -1.444-1.682-2.653-3.582-4.147-5.218 -0.079-0.087-0.16-0.183-0.238-0.268 -0.139-0.142-0.275-0.285-0.417-0.418 0.725-0.684 1.427-1.379 2.131-2.074 0.116-0.112 0.225-0.227 0.334-0.34 0.338-0.325 0.664-0.658 0.991-0.99C186.55 189.016 187.024 189.443 187.52 189.909zM182.253 206.986c1.221 1.112 2.812 2.712 4.079 4.252 -1.861 1.599-3.563 3.251-5.722 3.756 -0.603-0.742-1.236-1.493-1.869-2.235 -0.071-0.076-0.128-0.143-0.19-0.218 -1.96-2.274-3.919-4.442-5.234-6.115 -0.011-0.01-0.021-0.019-0.021-0.027 -0.356-0.448-0.661-0.866-0.907-1.228 0.404-0.267 0.84-0.543 1.323-0.818 0.446 0.638 0.833 1.189 1.14 1.628 0.028 0.057 0.069 0.112 0.109 0.161 0.188-0.077 0.376-0.145 0.556-0.201 0.019-0.008 0.049-0.008 0.066-0.017 2.297-0.725 3.803-1.495 5.139-2.367 0.067-0.041 0.138-0.088 0.198-0.137 -0.042-0.064-0.073-0.122-0.111-0.177 -1.205-2.008-2.355-3.844-3.474-5.546 1.279-1.074 2.555-2.158 3.832-3.244 0.612-0.502 1.236-1.016 1.868-1.521 1.479 1.808 2.693 3.881 4.219 5.63 0.594 0.675 1.187 1.34 1.77 2.006 0.021 0.02 0.03 0.039 0.05 0.049 0.515 0.587 1.021 1.168 1.504 1.767 -2.671 1.655-5.567 2.892-8.314 4.46 -0.026 0.03-0.068 0.047-0.107 0.068C182.184 206.939 182.215 206.97 182.253 206.986zM173.05 206.446c1.269 1.824 3.257 4.154 5.147 6.285 -2.17 1.178-3.633 2.176-4.634 2.853 -1.474-1.827-3.256-3.832-6.097-7.256 0.149-0.076 0.298-0.151 0.445-0.229 1.682-0.901 2.84-1.862 4.356-2.852 0.206 0.353 0.452 0.741 0.752 1.151C173.021 206.407 173.029 206.426 173.05 206.446zM161.537 176.569c4.921 0.218 11.244 0.911 25.222 10.619 -0.3 0.249-0.595 0.516-0.882 0.8 -0.097 0.076-0.199 0.173-0.288 0.277 -0.356 0.331-0.702 0.685-1.027 1.044 -0.109 0.105-0.21 0.221-0.297 0.325 -0.647 0.71-1.248 1.464-1.804 2.263 -0.059 0.074-0.11 0.141-0.146 0.22 0.036 0.037 0.077 0.083 0.116 0.121 0.13 0.145 0.249 0.275 0.366 0.419 -0.653 0.484-1.284 0.99-1.899 1.504 -1.275 1.072-2.514 2.177-3.713 3.315 -4.83-7.309-9.065-12.17-13.956-16.971 -1.306-1.265-2.393-2.273-3.304-3.1C160.47 177.13 161.003 176.852 161.537 176.569zM159.38 177.681c2.752 2.947 6.721 6.847 10.799 11.875 2.227 2.749 4.376 5.573 6.485 8.427 0.036 0.058 0.075 0.114 0.114 0.171 1.278 1.73 2.545 3.47 3.804 5.21 -2.01 1.087-3.823 1.893-5.17 2.397 -0.056-0.114-0.115-0.239-0.188-0.353 -0.227-0.409-0.503-0.885-0.83-1.417 -0.036-0.074-0.088-0.161-0.147-0.246 -3.374-5.544-11.273-16.992-17.847-24.63C157.401 178.649 158.391 178.174 159.38 177.681zM148.026 182.634c6.139 7.397 15.392 15.233 18.885 19.114 -4.039-5.621-12.343-13.122-18.212-19.37 2.318-0.885 4.585-1.836 6.823-2.86 6.084 7.7 14.174 19.093 17.991 24.551 -0.493 0.246-0.94 0.486-1.367 0.731 -0.03 0.021-0.057 0.037-0.086 0.058 -1.407 0.848-2.594 1.787-4.702 2.957 -0.071 0.037-0.148 0.076-0.218 0.115 -0.07 0.038-0.129 0.065-0.188 0.096 -1.481 0.768-2.979 1.243-4.653 1.604 -0.791 0.161-1.592 0.334-2.385 0.553 -3.394-4.488-6.057-9.527-9.213-14.169 -2.019-2.978-4.374-5.782-6.257-8.834 -0.535-0.875-1.058-1.797-1.633-2.689C144.574 183.909 146.317 183.29 148.026 182.634zM142.24 184.67c0.622 1.188 1.187 2.405 1.811 3.518 1.672 3.025 4.028 5.821 5.978 8.691 3.057 4.526 5.839 9.301 9.49 13.417 0.031 0.048 0.069 0.087 0.109 0.124 0.129-0.028 0.267-0.057 0.405-0.076 1.792-0.313 3.685-0.19 7.226-1.91 1.623 2.178 3.729 4.926 5.81 7.482 0.03 0.047 0.067 0.094 0.108 0.143 0.359 0.447 0.711 0.886 1.06 1.314 -2.039 0.853-4.751 1.567-9.056 2.053 -1.011-1.305-2.138-2.502-3.248-3.709 -1.376-1.484-2.801-2.967-4.047-4.565 -0.355-0.474-0.703-0.949-1.039-1.443 -0.019-0.03-0.039-0.057-0.059-0.097 -0.081 0.019-0.158 0.049-0.238 0.076 -0.583 0.191-1.159 0.41-1.722 0.638 -4.187-7.009-12.672-20.817-13.114-21.576 -0.663-1.111-1.317-2.225-2.04-3.271C140.537 185.222 141.385 184.955 142.24 184.67zM135.783 186.618c3.464 5.05 6.591 10.308 9.72 15.548 -3.789-7.979-6.313-12.135-8.77-15.823 0.819-0.228 1.636-0.466 2.448-0.713 0.661 1.113 1.233 2.283 1.826 3.442 0.99 1.948 8.753 14.776 10.108 16.793 1.088 1.559 2.228 3.08 3.345 4.61 -2.711 1.124-5.284 2.54-8.007 3.663 -0.219-0.505-0.446-0.988-0.692-1.464 -0.039-0.098-0.091-0.191-0.149-0.286 -2.533-5.013-5.601-8.74-7.474-11.185 -5.016-6.606-7.333-10.105-10.028-12.672C130.717 187.952 133.268 187.313 135.783 186.618zM118.851 190.394c1.889 4.355 2.661 5.896 5.682 15.928 -0.495-2.482-0.931-4.964-1.693-7.379 -0.922-2.899-1.782-5.278-3.324-8.662 2.769-0.506 5.492-1.046 8.153-1.644 2.407 2.69 4.283 6.083 9.641 13.158 2.721 3.549 5.434 7.114 7.739 10.907 -1.166 0.617-2.384 1.141-3.654 1.454 -18.623 5.486-11.567 3.48-20.01 5.041 -0.148 0.026-0.347 0.057-0.565 0.085 -0.583-2.891-1.513-6.551-3.432-12.752 -2.307-7.427-4.168-11.837-5.651-14.986C114.148 191.192 116.515 190.812 118.851 190.394zM111.06 191.648c0.05-0.007 0.108-0.017 0.159-0.027 3.276 9.176 6.244 18.428 8.818 27.796 0.03 0.046 0.04 0.105 0.052 0.161 0.255 0.903 0.503 1.814 0.751 2.729 -2.268 0.503-4.534 0.731-6.949 0.637 -0.049 0-0.209-0.009-0.436-0.009 -0.108-0.601-0.207-1.207-0.286-1.817 -0.01-0.055-0.01-0.113-0.021-0.17 -0.196-1.57-0.326-3.149-0.505-4.698 -0.354-3.3-0.931-6.589-1.611-9.842 -1.208-5.829-2.478-9.852-4.505-14.207C108.052 192.049 109.565 191.868 111.06 191.648zM106.074 192.247c1.719 4.784 3.046 9.699 4.035 14.692 0.636 3.271 1.181 6.552 1.753 9.822 0.247 1.417 0.477 2.854 0.792 4.271 -4.93 0.818-10.224 0.077-13.531 0.03 0.07-2.283 0.051-2.807 0.189-4.148 0.306-3.042 0.484-6.113 0.802-9.166 0.317-3.178 0.714-6.351 0.671-9.547 -0.029-1.873-0.087-3.748 0.139-5.581C102.649 192.535 104.372 192.409 106.074 192.247zM100.567 192.63c-0.465 2.156-0.501 4.401-0.621 6.618 -0.198 3.431-0.743 6.854-1.03 10.276 -0.278 3.406-0.604 6.794-0.505 10.214 0 0.066 0.02 0.581 0.039 1.313 0 0.018 0 0.049 0 0.074 0.021 0.476 0.042 1.028 0.061 1.618 -2.664 0.209-5.343 0.058-8.018 0.008 0.07-0.74 0.138-1.501 0.218-2.291 0.01-0.084 0.01-0.161 0.019-0.247 0.258-2.527 0.574-5.344 1.278-8.653 0.138-0.684 0.307-1.387 0.484-2.119 0 0 0-0.01 0-0.021 0.129-0.493 0.258-0.998 0.396-1.521 1.366-5.049 2.792-10.06 3.899-15.155C98.055 192.734 99.313 192.697 100.567 192.63zM96.463 192.752c-1.318 4.261-2.733 8.502-3.971 12.79 -0.02-4.279-0.147-8.549-0.386-12.819C93.562 192.761 95.017 192.771 96.463 192.752zM88.019 192.571c-0.396 5.212-0.989 10.394-1.325 15.614 1.197-6.856 1.593-10.974 1.572-15.593 1.17 0.055 2.336 0.104 3.505 0.12 -0.13 5.041-0.1 10.09 0.079 15.129 0 0.01 0 0.01 0 0.01 -1.465 5.439-1.772 9.215-1.841 12.496 -2.801 0.504-5.663 0.741-8.512 0.903 -5.87 0.333-7.988-0.172-10.224-0.353 0.147-0.504 0.316-1.006 0.484-1.513 0.041-0.122 0.09-0.256 0.129-0.379 1.791-5.287 4.147-10.643 5.571-13.475 3.625-7.169 5.316-10.839 6.642-13.228C85.406 192.421 86.713 192.504 88.019 192.571zM83.596 192.269c-1.694 2.499-3.869 6.446-7.423 13.454 -2.179 4.299-3.959 8.701-5.127 13.275 -2.128-0.021-4.405-0.172-6.346-0.354 1.643-5.267 3.663-10.193 6.247-14.682 0.593-1.027 1.127-1.977 1.612-2.853l0.484-0.864c2.198-4.014 3.356-6.447 4.554-8.614C79.587 191.877 81.587 192.097 83.596 192.269zM77.072 191.553c-1.295 1.902-2.474 3.882-3.612 5.878 0.287-2.083 0.496-4.185 0.693-6.286C75.123 191.296 76.092 191.433 77.072 191.553zM63.583 189.148c-1.714 3.7-3.554 7.359-4.999 11.145 2.029-3.547 4.106-7.188 5.76-10.973 2.949 0.654 5.948 1.226 8.976 1.7 -0.287 2.577-0.464 5.174-0.613 7.761 -0.95 1.683-1.88 3.374-2.84 5.041 -3.623 6.266-4.811 11.162-5.662 14.774 -1.625-0.151-2.969-0.323-3.7-0.436 -4.553-0.704-6.474-1.493-7.751-2.169 1.157-4.26 2.227-8.547 2.989-12.896 0.891-5.067 1.316-10.248 2.384-15.28C59.92 188.301 61.742 188.749 63.583 189.148zM57.624 187.686c-1.415 4.962-2.01 10.117-2.929 15.233 -0.763 4.26-1.663 8.509-2.524 12.75 -0.02 0.068-0.03 0.133-0.04 0.2 -0.159 0.77-0.317 1.54-0.465 2.31 -0.99-0.304-1.99-0.596-2.99-0.894 -0.06-0.018-2.048-0.57-3.979-1.104 0.069-0.513 0.128-0.94 0.178-1.331 0.01-0.065 0.02-0.133 0.029-0.199 0.318-2.206 0.733-3.49 3.812-12.883 1.188-3.615 2.454-7.268 3.087-11.014 0.257-1.502 0.476-3.023 0.791-4.517C54.239 186.743 55.921 187.229 57.624 187.686zM52.101 186.085c-0.841 2.995-1.771 7.361-4.414 15.368 -1.138 3.432-2.217 6.847-3.137 10.346 -0.218 0.836-0.327 1.702-0.376 2.577 -1.989-0.78-3.939-1.626-5.889-2.5 -1.218-0.581-2.237-1.087-3.088-1.522 -0.05-0.028-0.109-0.058-0.159-0.087 -0.96-0.492-1.711-0.911-2.326-1.234 2.197-3.14 4.652-6.676 6.77-9.775 3.217-4.688 5.988-9.68 9.433-14.206C49.963 185.4 51.022 185.754 52.101 186.085zM33.762 211.515c-1.861 2.157-3.257 5.315-4.771 8.414 -2.446-0.789-4.911-1.531-7.345-2.357 0.167-0.297 0.335-0.58 0.505-0.877 0.198-0.34 0.396-0.692 0.593-1.055 0.01-0.027 0.02-0.056 0.041-0.084 1.196-2.188 2.405-4.593 3.663-6.344 1.296 0.627 2.72 1.171 4.157 1.599 0.237 0.066 0.484 0.132 0.723 0.199 0.068-0.104 0.148-0.209 0.218-0.313 0.326-0.457 0.652-0.933 0.99-1.417 0.455 0.285 0.939 0.59 1.444 0.903 0.199 0.124 0.416 0.267 0.673 0.408 -0.238 0.229-0.475 0.465-0.691 0.714C33.889 211.37 33.83 211.447 33.762 211.515zM48.399 184.868c-3.722 4.271-6.631 9.101-9.857 13.799 -1.484 2.159-4.108 6.097-6.572 9.965 -0.038 0.078-0.089 0.152-0.138 0.218 -0.347 0.554-0.683 1.095-1.02 1.626 -1.415-0.436-2.841-0.958-4.158-1.548 -0.088-0.039-0.168-0.078-0.257-0.114 -0.691-0.313-1.336-0.637-1.94-0.98 0.385-0.608 0.792-1.216 1.197-1.825 0.07-0.094 0.139-0.198 0.218-0.303 1.712-2.521 3.554-4.984 5.443-7.399 0.436-0.563 0.881-1.123 1.328-1.683 0.732-0.933 1.483-1.855 2.235-2.775 5.505-6.743 6.702-8.398 8.859-10.681C45.252 183.757 46.806 184.327 48.399 184.868zM43.154 182.938c-2.722 2.521-4.514 4.708-9.047 10.241 1.425-3.317 3.316-7.444 5.79-11.571C40.966 182.064 42.045 182.513 43.154 182.938zM35.532 179.629c-2.483 3.558-4.74 7.324-6.135 11.317 2.098-3.767 4.463-7.37 6.622-11.089 1.108 0.533 2.247 1.046 3.406 1.542 -2.041 2.976-4.188 6.989-6.86 13.683 -2.644 3.319-5.137 6.78-7.295 10.424 -3.583-1.209-8.789-3.045-9.481-3.303 -1.575-0.513-3.713-1.53-5.592-2.528 -0.09-0.048-0.168-0.096-0.259-0.133 -0.959-0.522-1.83-1.026-2.502-1.454 1.099-1.065 2.207-2.113 3.336-3.129 0.168-0.161 0.345-0.322 0.523-0.475 6.623-5.991 13.699-11.251 22.161-15.892C34.126 178.944 34.82 179.288 35.532 179.629zM5.326 190.289c5.265-5.6 13.708-10.716 25.307-13.196 0.743 0.418 1.504 0.826 2.287 1.225 -7.898 3.736-15.372 8.729-22.488 15.577 -0.435-0.313-0.9-0.639-1.366-0.972 -0.098-0.065-0.207-0.143-0.307-0.21C7.552 191.858 6.335 191.004 5.326 190.289zM4.475 196.232c0.029 0.019 0.059 0.049 0.089 0.067 0 0-0.01 0.01-0.021 0.019C4.523 196.281 4.503 196.251 4.475 196.232zM3.257 202.271c-0.12-0.076-0.248-0.162-0.367-0.237 -0.822-0.53-1.643-1.046-2.435-1.513 1.366-1.501 2.98-2.747 4.494-3.918 0.03-0.026 0.07-0.047 0.1-0.085 1.287-0.979 2.503-1.92 3.404-2.91 0.466 0.287 0.94 0.57 1.406 0.846 -1.039 1.019-2.079 2.085-3.098 3.187 -0.089 0.086-0.169 0.173-0.248 0.267 0.198 0.171 0.406 0.332 0.614 0.485 0.307 0.237 0.634 0.447 0.96 0.628 0.484 0.257 0.96 0.533 1.426 0.817 -1.505 1.103-2.91 2.547-4.069 3.929C4.732 203.27 3.998 202.768 3.257 202.271zM3.108 207.55c0.703-1.01 1.555-2.17 2.494-3.32 0.07-0.077 0.129-0.15 0.188-0.229 1.217-1.454 2.583-2.891 4-4.003 1.009 0.6 2.019 1.206 3.116 1.701 1.744 0.771 3.515 1.455 5.326 2.082 2.197 0.763 4.493 1.531 6.818 2.084 -0.335 0.581-0.661 1.16-0.979 1.75 -0.038 0.058-0.068 0.113-0.099 0.17 0.118 0.077 0.237 0.162 0.357 0.24 0.563 0.37 1.187 0.721 1.85 1.054 -1.296 1.646-2.544 3.966-3.751 6.361 -3.652-1.17-7.304-2.368-10.827-3.841 -1.882-0.828-3.761-1.616-5.583-2.567 -0.098-0.047-0.445-0.229-0.93-0.477 0.238-0.94 0.415-1.891 0.514-2.861 -0.188 0.931-0.465 1.834-0.771 2.729C4.336 208.156 3.722 207.852 3.108 207.55zM180.986 226.366c-3.603 0.037-8.088 0.22-13.421 0.419 -6.868 0.267-15.162 0.569-24.814 0.705 -6.083 0.084-12.925 0.388-20.694 0.691 -9.314 0.354-19.982 0.704-32.334 0.647 -6.205-0.018-12.838-0.151-19.934-0.428 -8.324-0.332-17.292-0.864-26.961-1.693 -6.948-0.588-11.887-0.958-15.569-1.188 -9.315-0.574-18.201-0.425-24.288-0.809 0-0.004 0-0.007 0-0.011 -0.068-2.271-0.119-4.543 0.059-6.799 0.099-3.089 1.208-5.961 1.95-8.909 0.594 0.362 1 0.618 1.039 0.637 1.782 1.056 3.722 1.893 5.642 2.663 3.493 1.398 7.047 2.405 10.708 3.263 -0.168 0.342-0.336 0.684-0.503 1.027 -0.029 0.056-0.218 0.425-0.445 0.911 -0.03 0.048-0.06 0.104-0.09 0.162 0.07 0.037 0.139 0.066 0.208 0.094 1.248 0.533 2.515 0.998 3.831 1.418 1.178 0.322 2.355 0.646 3.533 0.95 0.09 0.031 0.178 0.048 0.267 0.066 0.041-0.057 0.071-0.104 0.101-0.161 1.703-3.032 3.058-6.209 4.82-8.452 0.048-0.067 0.098-0.144 0.168-0.209 0.177-0.237 0.375-0.457 0.584-0.666 0.552 0.313 1.216 0.656 1.968 1.018 0.01 0 0.021 0.01 0.039 0.01 2 0.969 4.603 2.033 7.315 2.9 -0.03 0.466-0.04 0.932-0.06 1.396 0 0.105-0.01 0.22-0.01 0.335 0.179 0.067 0.367 0.131 0.555 0.189 2.276 0.741 4.611 1.368 6.947 1.968 0.148 0.038 0.287 0.076 0.436 0.116 0.029-0.096 0.059-0.201 0.089-0.307 0.188-0.685 0.376-1.377 0.563-2.072 1.287 0.874 2.91 1.798 7.712 2.53 1.196 0.179 2.425 0.351 3.661 0.475 0.148 0.019 0.296 0.028 0.435 0.048 2.138 0.199 4.306 0.285 6.434 0.151 -0.119 0.466-0.218 0.932-0.328 1.398 -0.009 0.047-0.019 0.096-0.029 0.152 0.208 0.019 0.425 0.059 0.644 0.085 1.305 0.21 2.613 0.513 3.929 0.695 2.712 0.407 9.304 0.189 14.856-1.15 -0.019 0.722-0.019 1.426-0.029 2.11 0 0.028 0 0.065 0 0.095 0.167 0.019 0.346 0.027 0.514 0.037 2.684 0.229 5.385 0.429 8.037 0.105 0.178-0.019 0.356-0.047 0.545-0.075 0-0.067 0-0.144 0-0.209 0.029-0.573 0.048-1.074 0.048-1.504 0.781 0.085 1.573 0.246 2.337 0.361 1.632 0.267 6.856 0.657 11.239-0.333 0.121 0.572 0.262 1.142 0.42 1.702 0.028 0.095 0.049 0.182 0.074 0.266l0.321 0.021c0.366 0.027 0.632 0.047 0.703 0.057 2.235 0.199 4.502-0.067 6.709-0.629l0.457-0.122c-0.011-0.104-0.029-0.21-0.051-0.314 -0.129-0.866-0.277-1.73-0.456-2.691 0.367-0.029 0.685-0.038 0.901-0.058 8.176-0.809 4.037-0.151 11.987-2.179 5.986-1.521 9.146-2.851 11.471-4.269 0.267 0.438 0.516 0.876 0.771 1.313 0.019 0.048 0.051 0.104 0.08 0.152 0.157-0.048 0.306-0.104 0.466-0.152 2.8-0.97 5.403-2.369 8.075-3.623 0.109-0.047 0.228-0.105 0.336-0.152 0.545-0.257 1.101-0.504 1.664-0.742 1.296 2.272 3.117 4.26 4.929 6.249 1.021 1.102 2.228 2.205 3.128 3.431 0.07 0.097 0.139 0.191 0.198 0.286 0.167-0.01 0.327-0.021 0.484-0.029 3.147-0.207 6.147-0.808 9.036-2.177 0.17-0.084 0.339-0.172 0.507-0.256 -0.042-0.059-0.081-0.115-0.12-0.162 -0.349-0.466-0.693-0.925-1.07-1.38 2.351-1.321 2.844-1.74 4.683-2.814 0.663 0.742 1.307 1.456 1.91 2.103 0.04 0.065 0.099 0.122 0.157 0.179 0.102-0.01 0.211-0.027 0.308-0.047 2.187-0.456 3.901-2.148 5.672-3.813 0.06-0.047 0.109-0.105 0.168-0.161 -0.028-0.037-0.059-0.084-0.1-0.123 -1.198-1.531-2.791-3.071-4.137-4.154 2.998-1.494 5.514-2.341 8.324-4.404 0.108-0.074 0.217-0.162 0.327-0.247 -0.031-0.037-0.062-0.086-0.089-0.125 -0.437-0.579-0.901-1.149-1.375-1.72 1.127-0.522 2.393-1.75 3.998-3.243 -0.179 1.816-0.278 3.634-0.082 5.429 0.625 5.517 4.219 7.049 3.378 18.552 -0.13 1.751-0.109 3.491-0.12 5.23C191.488 226.366 186.232 226.31 180.986 226.366z" fill="#ceab03" stroke-width="none" opacity="1" stroke="none"></path></g><g id="svga-group-head" ><g id="svga-group-ears-left" style="display:none;"><path id="SvgjsPath4826" d="M47.218 82.634c-0.967-2.31-8.082-5.576-11.21-5.06 -3.538 0.583-4.838 4.047-4.369 6.612 1.103 6.025 3.996 8.563 5.296 13.268 1.096 3.97 3.433 6.253 4.588 7.938 1.42 2.07 2.73 6.818 3.023 7.512 0.463 1.096 2.103 3.757 5.002 3.619 3.333-0.16 7.545-6.211 7.614-7.557C57.544 101.679 49.733 88.647 47.218 82.634z" fill="#d9a494" stroke="#ab5a41" stroke-width="1.5" opacity="1"></path><path id="SvgjsPath4827" d="M47.953 107.204c0 0 0.429-0.995-0.094-1.879 -0.672-1.134-2.423-3.219-2.821-4.467 -0.325-1.021-0.16-3.2-0.213-4.266 -0.094-1.886-1.492-3.177-1.927-4.26 -2.914-7.238-6.792-11.723-9-12.656 -1.633 3.705-0.339 6.416 1.94 12.116 -1.375-7.748-0.054-10.17-0.054-10.17S39.803 84.842 41.786 92c0.359 1.292-1.111 3.988-0.83 5.299 0.352 1.646 4.184 4.83 5.257 6.163C47.049 104.5 47.953 107.204 47.953 107.204z" fill="#ab5a41" stroke-width="none" opacity="1" stroke="none"></path></g><g id="svga-group-ears-right" style="display:none;"><path id="SvgjsPath4828" d="M152.52 82.634c0.967-2.31 8.082-5.576 11.211-5.06 3.539 0.583 4.838 4.047 4.369 6.612 -1.104 6.025-3.996 8.563-5.297 13.268 -1.096 3.97-3.434 6.253-4.588 7.938 -1.42 2.07-2.73 6.818-3.023 7.512 -0.463 1.096-2.104 3.757-5.002 3.619 -3.332-0.16-7.545-6.211-7.613-7.557C142.193 101.679 150.006 88.647 152.52 82.634z" fill="#d9a494" stroke="#ab5a41" stroke-width="1.5" opacity="1"></path><path id="SvgjsPath4829" d="M151.785 107.204c0 0-0.43-0.995 0.094-1.879 0.672-1.134 2.424-3.219 2.82-4.467 0.324-1.021 0.16-3.2 0.215-4.266 0.094-1.886 1.49-3.177 1.926-4.26 2.914-7.238 6.793-11.723 9-12.656 1.633 3.705 0.338 6.416-1.939 12.116 1.375-7.748 0.053-10.17 0.053-10.17s-4.018 3.219-6.002 10.376c-0.357 1.292 1.111 3.988 0.83 5.299 -0.352 1.646-4.184 4.83-5.256 6.163C152.689 104.5 151.785 107.204 151.785 107.204z" fill="#ab5a41" stroke-width="none" opacity="1" stroke="none"></path></g><g id="svga-group-faceshape-wrap" ><g id="svga-group-faceshape-single" ><path id="SvgjsPath4864" d="M100.002 0.867C66.384 0.919 39.082 28.09 39.134 61.564c0.009 5.316 0.704 10.471 2.002 15.382h0.001C41.15 77 51.427 107.873 54.086 120.29c2.38 11.116 12.959 20.132 17.72 25.046 5.47 5.649 12.307 14.008 28.197 13.934 15.889 0.074 22.727-8.284 28.197-13.934 4.761-4.914 15.34-13.93 17.72-25.046 2.659-12.417 12.937-43.291 12.947-43.344h0.002c1.298-4.911 1.994-10.066 2.002-15.382C160.923 28.09 133.62 0.919 100.002 0.867z" fill="#d9a494" stroke-width="none" opacity="1"></path><path id="SvgjsPath4865" d="M133.47 10.898c14.604 11.017 24.131 29.011 24.1 49.346 -0.008 5.315-0.664 10.471-1.892 15.382h-0.002c-0.011 0.053-9.73 30.925-12.246 43.342 -2.251 11.117-12.256 20.132-16.76 25.047 -5.173 5.649-11.64 14.008-26.667 13.934 -15.028 0.074-21.495-8.284-26.668-13.934 -4.502-4.915-14.508-13.93-16.759-25.047C54.06 106.552 44.34 75.68 44.329 75.626h-0.001c-1.228-4.911-1.885-10.066-1.893-15.382 -0.03-20.335 9.497-38.33 24.101-49.346 -16.522 10.863-27.433 29.499-27.4 50.666 0.009 5.316 0.704 10.471 2.002 15.382h0.001C41.15 77 51.427 107.873 54.086 120.29c2.38 11.116 12.959 20.132 17.72 25.046 5.47 5.649 12.307 14.008 28.197 13.934 15.889 0.074 22.727-8.284 28.197-13.934 4.761-4.914 15.34-13.93 17.72-25.046 2.659-12.417 12.937-43.291 12.947-43.344h0.002c1.298-4.911 1.994-10.066 2.002-15.382C160.903 40.398 149.992 21.762 133.47 10.898z" fill="#d19684" stroke-width="none" opacity="1"></path><path id="SvgjsPath4866" d="M100.002 0.867C66.384 0.919 39.082 28.09 39.134 61.564c0.009 5.316 0.704 10.471 2.002 15.382h0.001C41.15 77 51.427 107.873 54.086 120.29c2.38 11.116 12.959 20.132 17.72 25.046 5.47 5.649 12.307 14.008 28.197 13.934 15.889 0.074 22.727-8.284 28.197-13.934 4.761-4.914 15.34-13.93 17.72-25.046 2.659-12.417 12.937-43.291 12.947-43.344h0.002c1.298-4.911 1.994-10.066 2.002-15.382C160.923 28.09 133.62 0.919 100.002 0.867z" fill="none" stroke="#ab5a41" stroke-width="1.5" opacity="1"></path></g></g><g id="svga-group-mouth-single" ><path id="SvgjsPath4815" d="M99.867 142.685c-4.159 0-7.651-3.162-7.651-3.162 7.261 1.131 16.154-0.671 16.154-0.671S105.119 142.685 99.867 142.685z" fill="#ca8975" stroke-width="none" opacity="1" stroke="none"></path><path id="SvgjsPath4816" d="M99.869 138.507c-2.691 0.025-8.86-1.635-11.18-2.938 -1.374-0.769-3.749-3.433-5.4-4.788 -0.635-0.521-0.371-1.528 0.466-1.569 2.036-0.099 4.65 0.979 5.876 1.169 2.565 0.389 5.805 1.835 10.195 1.835 3.262 0 6.828-1.15 9.101-1.574 1.367-0.254 4.529-1.376 6.755-1.501 0.838-0.05 1.18 0.777 0.56 1.316 -1.739 1.526-4.526 4.328-6.028 5.112C107.783 136.837 102.294 138.485 99.869 138.507z" fill="#000000" stroke-width="none" opacity="0.5"></path><path id="SvgjsPath4817" d="M86.859 129.328c0 0 0.286 2.427 0.722 3.12 0.6 0.954 4.257 2.914 5.717 3.188 0.993 0.184 2.814 0.476 3.816 0.613 1.085 0.148 1.695 0.015 2.791-0.021 1.179-0.038 2.186 0.132 3.336-0.135 0.819-0.19 3.215-0.834 3.997-1.145 0.604-0.242 1.814-0.643 2.364-0.992 0.456-0.288 1.866-1.333 2.146-1.795 0.366-0.605 0.709-2.752 0.709-2.752L86.859 129.328z" fill="#ffffff" stroke-width="none" opacity="1"></path><path id="SvgjsPath4818" d="M92.17 129.748c0 0-0.522 5.283-0.568 5.375 -0.047 0.092-0.179-5.375-0.179-5.375H92.17zM94.364 130.335l0.464 5.601 0.298-5.601H94.364zM99.485 131.161l0.579 5.088 0.375-5.176L99.485 131.161zM103.978 130.093c0.973 0.088 1.298 5.446 1.298 5.446l0.134-5.446H103.978zM107.705 129.438c0 0 0.386 5.114 0.44 5.018 0.053-0.097 0.153-5.018 0.153-5.018H107.705zM88.876 129.436l0.283 4.181 0.283-4.181H88.876zM110.375 129.011l0.086 4.38 0.432-4.413L110.375 129.011z" fill="#000000" stroke-width="none" opacity="0.1"></path><path id="SvgjsPath4819" d="M116.764 129.126c-1.218-0.406-3.771-0.125-5.061-0.294 -1.83-0.239-5.542-0.409-7.392-0.356 -1.161 0.034-3.449 0.457-4.608 0.484 -1.191 0.027-3.562-0.461-4.751-0.471 -1.888-0.012-5.689 0.214-7.54 0.534 -1.279 0.222-3.89-0.113-4.914 0.475 -0.237 0.137-0.095 0.75 0 0.981 0.862 2.089 4.188 5.489 7.067 7.497 3.698 2.579 7.586 3.38 10.643 3.381 4.035 0.003 8.785-2.247 12.762-5.639 1.758-1.5 3.982-4.091 4.353-5.537C117.512 129.451 117.079 129.231 116.764 129.126zM99.816 136.352c-2.488 0.019-8.26-1.229-10.697-2.494 -1.461-0.759-3.7-2.577-5.226-3.708 -0.588-0.435-0.454-0.789 0.321-0.822 1.882-0.084 5.042 0.944 6.177 1.1 2.371 0.324 5.366 1.531 9.425 1.531 3.013 0 6.312-0.959 8.414-1.311 1.264-0.213 4.833-1.278 6.89-1.384 0.775-0.04 0.926 0.276 0.354 0.727 -1.61 1.271-4.326 3.216-6.055 4.066C107.224 135.139 102.057 136.328 99.816 136.352z" fill="#ff3399" stroke="#f01884" stroke-width="0.75" opacity="1"></path><path id="SvgjsPath4820" d="M86.869 134.124c2.588 0.523 8.417 3.611 13.315 3.444 5.105-0.175 12.685-4.745 13.685-4.244 0.373 1.199-9.853 6.985-13.685 7.077C96.747 140.482 85.786 135.485 86.869 134.124zM99.485 131.161c3.109-0.042 6.909-0.442 9.469-1.672 -2.918-1.013-6.938 0.115-9.251 0.168 -3 0.07-5.51-0.934-8.289 0.058C94.069 130.622 96.798 131.198 99.485 131.161z" fill="#ff4da6" stroke-width="none" opacity="1" stroke="none"></path><path id="SvgjsPath4821" d="M97.732 139.024c-1.881-0.424-1.945-0.596-0.162-0.42 1.09 0.106 2.18 0.132 3.238 0.03 0.141-0.015 0.281-0.029 0.419-0.049 1.195-0.157 2.479-0.546 3.768-1.051 2.015-0.792 2.051-0.6 0.053 0.446 -1.467 0.767-2.831 1.324-3.798 1.44l-0.062 0.007C100.364 139.509 99.123 139.34 97.732 139.024z" fill="#ff66b3" stroke-width="none" opacity="1" stroke="none"></path><path id="SvgjsPath4822" d="M79.599 130.722c0 0-0.561-1.256-0.482-1.724 0.11-0.657 1.521-1.958 1.521-1.958s-0.854 1.498-0.986 1.971C79.523 129.468 79.599 130.722 79.599 130.722zM120.163 130.881c0 0 0.609-1.364 0.523-1.873 -0.119-0.714-1.652-2.127-1.652-2.127s0.929 1.628 1.072 2.142C120.245 129.519 120.163 130.881 120.163 130.881z" fill="#ab5a41" stroke-width="none" opacity="1" stroke="none"></path></g><g id="svga-group-eyes-left" ><g id="svga-group-eyesback-left"><path id="SvgjsPath4741" d="M79.063 92.229c-4.31 0.755-7.656 0.71-10.688-0.204 -3.127-0.943-7.188-4.825-8.596-8.495 3.715-0.277 11.349-0.597 14.89-0.154 4.688 0.586 9.474 2.406 12.305 5.236 -0.016 0.294-0.053 0.583-0.087 0.872C84.602 91.031 81.366 91.825 79.063 92.229z" fill="url(#SvgjsRadialGradient4742)" opacity="1"></path></g><g id="svga-group-eyesiriswrapper-left" transform="translate(-1 0.5)"><g id="svga-group-eyesiriscontrol-left" ><g id="svga-group-eyesiris-left" ><path id="SvgjsPath4871" d="M83.5 87.001c0 4.693-3.806 8.498-8.5 8.498s-8.5-3.805-8.5-8.498c0-4.697 3.806-8.502 8.5-8.502S83.5 82.304 83.5 87.001z" fill="#681711" stroke="#3a0400" stroke-width="0.5" opacity="1"></path><path id="SvgjsPath4872" d="M70.058 90.974c1.241-0.103 0.142-0.434 0.142-0.434 -0.613-0.331-1.768-0.839-1.768-1.306 0-1.461 2.002-1.839-0.048-2.416 -2.13-1.955 1.653-1.914 1.625-1.98 -1.381-3.366 0.423-1.518 1.183-2.512 2.816-3.682 0.785 0.378 2.314 0 0.554-0.136-1.105-2.169 0.048-1.884 0.763 0.187 0.937 0.821 0.937 0.821 0.557-0.109 1.428-0.966 1.428-0.966 1.061 0.32 1.806 1.827 1.478 1.545 0.522-0.063 1.252-0.313 1.822-0.483 0 0 0.1-0.338 0.196-0.047 1.3 3.77 4.652 3.5 0.792 4.589 0 0-0.249 0 0.542 0.627 3.839 3.066-2.978 2.117 0.638 3.527 0.147-0.146-2.167 1.368-2.167 1.787 0 0.71-1.477 2.576-2.757 1.841 -0.714-0.408-0.823 0.85-1.243 0.269 -0.823-1.138-2.467-0.049-1.859-1.095 0.898-0.737-0.926 0.289-1.28 0.289 -1.172 0 1.534-3.942 5.516-1.013 1.165 0.853-1.224-2.03 0.886-2.03 0.211 0.069 0.148-0.739 0.148-0.966 -1.098-0.215 1.969-0.005 1.969-1.788 0.193 0.039 0.721-0.495-2.316 0 0 0-0.097-1.063-0.048-1.256 0.156-0.62 1.72-0.422 1.28-1.063 -0.001-0.001-1.132-2.272-1.132-2.272 -3.645-0.586-1.562-0.952-3.841-0.483 -0.108 0.535-4.881 2.811-4.729 3.866 0.142 0.995 2.997 1.328 0.295 3.091C74.157 96.989 67.118 89.06 70.058 90.974z" fill="#77251f" stroke-width="none" opacity="1"></path><path id="SvgjsPath4873" d="M75,79.562l0.243,6.223l2.603-5.656l-2.158,5.84l4.572-4.229l-4.229,4.57l5.842-2.157l-5.655,2.604l6.222,0.242l-6.222,0.242l5.655,2.604l-5.842-2.157l4.229,4.57l-4.572-4.229l2.158,5.84l-2.603-5.656L75,94.437l-0.243-6.223l-2.604,5.656l2.156-5.84l-4.57,4.229l4.229-4.57l-5.842,2.157l5.655-2.604l-6.219-0.242l6.219-0.242l-5.655-2.604l5.842,2.157l-4.229-4.57l4.57,4.229l-2.156-5.84l2.604,5.656L75,79.562z" fill="#681711" stroke="#590b06" stroke-width="0.5" opacity="1"></path><path id="SvgjsPath4874" d="M76.128,81.428l-0.764,4.697l2.808-3.841l-2.501,4.047l4.065-2.476l-3.859,2.783l4.702-0.73l-4.632,1.092l4.626,1.125l-4.699-0.762l3.842,2.808l-4.05-2.5l2.476,4.064l-2.783-3.86l0.73,4.702l-1.092-4.632l-1.126,4.625l0.764-4.697l-2.811,3.841l2.504-4.048l-4.064,2.476l3.86-2.783l-4.702,0.73l4.631-1.093l-4.625-1.125l4.697,0.761l-3.842-2.808l4.05,2.5l-2.475-4.064l2.782,3.86l-0.73-4.701l1.095,4.632L76.128,81.428z" fill="#681711" stroke="#490500" stroke-width="0.5" opacity="1"></path><path id="SvgjsPath4875" d="M78.188 87c0 1.761-1.428 3.187-3.188 3.187S71.813 88.76 71.813 87c0-1.76 1.428-3.188 3.188-3.188S78.188 85.239 78.188 87z" fill="#000000" stroke-width="none" opacity="0.9"></path><path id="SvgjsPath4876" d="M71.653 93.108c-0.469 0.469-1.396 0.304-2.069-0.37 -0.674-0.673-0.84-1.6-0.37-2.069 0.469-0.469 1.396-0.304 2.069 0.37S72.123 92.638 71.653 93.108z" fill="#ffffff" stroke-width="none" opacity="0.7"></path><path id="SvgjsPath4877" d="M81.809 85.326c-0.702 0.703-2.404 0.142-3.8-1.255 -1.396-1.396-1.958-3.097-1.255-3.8 0.703-0.703 2.404-0.142 3.8 1.255C81.95 82.922 82.511 84.624 81.809 85.326z" fill="#ffffff" stroke-width="none" opacity="0.9"></path></g></g></g><g id="svga-group-eyesfront-left"><path id="SvgjsPath4766" d="M56 88c0 13.808 8.06 24.999 18 24.999S92 101.808 92 88c0-13.809-8.06-25.001-18-25.001S56 74.191 56 88zM59.78 83.53c3.715-0.277 11.349-0.597 14.89-0.154 4.952 0.619 10.04 2.6 12.788 5.71 -2.289 1.82-5.897 2.705-8.395 3.143 -4.31 0.755-7.656 0.71-10.688-0.204C65.249 91.083 61.188 87.2 59.78 83.53z" fill="#d9a494" stroke-width="none" opacity="1" stroke="none"></path><path id="SvgjsPath4767" d="M56.143 86.915c0.027 8.284 8.484 14.962 18.902 14.919 10.414-0.047 18.836-6.796 18.813-15.08 -0.027-8.285-8.486-14.963-18.902-14.92C64.539 71.881 56.119 78.63 56.143 86.915zM59.78 83.53c3.715-0.277 11.349-0.597 14.89-0.154 4.952 0.619 10.04 2.6 12.788 5.71 -2.289 1.82-5.897 2.705-8.395 3.143 -4.31 0.755-7.656 0.71-10.688-0.204C65.249 91.083 61.188 87.2 59.78 83.53z" fill="url(#SvgjsRadialGradient4768)" opacity="1"></path><path id="SvgjsPath4772" d="M59.78 83.53c3.715-0.277 11.349-0.597 14.89-0.154 4.952 0.619 10.04 2.6 12.788 5.71 -2.289 1.82-5.897 2.705-8.395 3.143 -4.31 0.755-7.656 0.71-10.688-0.204C65.249 91.083 61.188 87.2 59.78 83.53z" fill="url(#SvgjsRadialGradient4773)" opacity="1"></path><path id="SvgjsPath4776" d="M67.363 79.695c6.133-0.278 8.613 0.088 12.986 1.384 1.662 0.602 1.852 0.772 2.555 1.214C79.119 80.256 68.83 79.641 67.363 79.695zM59.396 86.752c2.854 5.494 4.797 4.894 7.531 6.058 0.025 0.009-1.51-0.579-2.664-1.196C61.273 89.895 60.908 89.163 59.396 86.752z" fill="#ab5a41" stroke-width="none" opacity="1" stroke="none"></path><path id="SvgjsPath4777" d="M56 81.734c3.096 2.525 4.363 5.953 7.398 8.529 2.037 1.729 5.877 2.717 9.602 2.773 3.844 0.058 8.59-0.434 10.258-0.855 2.838-0.718 3.539-1.278 6.742-1.472 -1.986-3.039-3.836-4.399-6.268-5.841 -2.977-1.764-5.074-2.279-8.719-2.564C70.16 81.924 56 81.734 56 81.734zM60.705 83.826c3.467-0.258 10.59-0.557 13.895-0.144 4.621 0.577 9.369 2.426 11.934 5.328 -2.137 1.699-5.504 2.524-7.834 2.933 -4.021 0.705-7.145 0.663-9.973-0.19C65.809 90.874 62.02 87.251 60.705 83.826z" fill="#153a4d" stroke-width="none" opacity="1" stroke="none"></path></g></g><g id="svga-group-eyes-right" ><g id="svga-group-eyesback-right"><path id="SvgjsPath4749" d="M120.937 92.229c4.31 0.755 7.656 0.71 10.688-0.204 3.127-0.943 7.188-4.825 8.596-8.495 -3.715-0.277-11.349-0.597-14.89-0.154 -4.688 0.586-9.474 2.406-12.305 5.236 0.016 0.294 0.053 0.583 0.087 0.872C115.398 91.031 118.634 91.825 120.937 92.229z" fill="url(#SvgjsRadialGradient4750)" opacity="1"></path></g><g id="svga-group-eyesiriswrapper-right" transform="translate(1 0.5)"><g id="svga-group-eyesiriscontrol-right" ><g id="svga-group-eyesiris-right" ><path id="SvgjsPath4878" d="M133.5 87.001c0 4.692-3.806 8.498-8.5 8.498s-8.5-3.806-8.5-8.498c0-4.697 3.806-8.502 8.5-8.502S133.5 82.304 133.5 87.001z" fill="#681711" stroke="#3a0400" stroke-width="0.5" opacity="1"></path><path id="SvgjsPath4879" d="M120.059 90.974c1.24-0.103 0.142-0.434 0.142-0.434 -0.613-0.33-1.768-0.838-1.768-1.305 0-1.461 2.002-1.84-0.048-2.416 -2.131-1.956 1.652-1.915 1.625-1.981 -1.382-3.366 0.423-1.518 1.182-2.512 2.816-3.682 0.785 0.378 2.314 0 0.555-0.136-1.104-2.169 0.048-1.884 0.763 0.186 0.938 0.821 0.938 0.821 0.557-0.109 1.428-0.966 1.428-0.966 1.061 0.32 1.806 1.828 1.478 1.546 0.521-0.063 1.252-0.313 1.821-0.483 0 0 0.1-0.338 0.196-0.046 1.3 3.77 4.652 3.499 0.791 4.589 0 0-0.249 0 0.542 0.627 3.84 3.065-2.978 2.117 0.638 3.527 0.148-0.147-2.167 1.367-2.167 1.786 0 0.711-1.477 2.576-2.757 1.842 -0.714-0.409-0.822 0.85-1.243 0.269 -0.823-1.138-2.468-0.049-1.859-1.095 0.898-0.737-0.926 0.288-1.28 0.288 -1.172 0 1.534-3.942 5.516-1.013 1.165 0.854-1.225-2.029 0.886-2.029 0.212 0.069 0.148-0.739 0.148-0.967 -1.097-0.214 1.97-0.004 1.97-1.787 0.193 0.038 0.721-0.496-2.316 0 0 0-0.097-1.064-0.048-1.256 0.156-0.619 1.721-0.422 1.28-1.063 -0.001-0.001-1.133-2.271-1.133-2.271 -3.645-0.587-1.562-0.953-3.84-0.483 -0.108 0.535-4.881 2.811-4.729 3.866 0.142 0.994 2.996 1.328 0.295 3.092C124.157 96.989 117.118 89.06 120.059 90.974z" fill="#77251f" stroke-width="none" opacity="1"></path><path id="SvgjsPath4880" d="M125,79.562l0.242,6.222l2.604-5.656l-2.158,5.84l4.571-4.228l-4.229,4.57l5.842-2.157l-5.655,2.604l6.222,0.242l-6.222,0.242l5.655,2.604l-5.842-2.157l4.229,4.57l-4.571-4.228l2.158,5.84l-2.604-5.656L125,94.437l-0.242-6.222l-2.605,5.656l2.157-5.84l-4.57,4.228l4.229-4.57l-5.842,2.157l5.654-2.604l-6.219-0.242l6.219-0.242l-5.654-2.604l5.842,2.157l-4.229-4.57l4.57,4.228l-2.157-5.84l2.605,5.656L125,79.562z" fill="#681711" stroke="#590b06" stroke-width="0.5" opacity="1"></path><path id="SvgjsPath4881" d="M126.128,81.428l-0.764,4.697l2.808-3.841l-2.501,4.047l4.064-2.475l-3.859,2.782l4.702-0.73l-4.632,1.093l4.626,1.125l-4.699-0.762l3.843,2.808l-4.05-2.5l2.476,4.063l-2.783-3.86l0.73,4.702l-1.092-4.632l-1.126,4.625l0.764-4.697l-2.812,3.841l2.505-4.047l-4.065,2.475l3.86-2.782l-4.702,0.73l4.631-1.094l-4.624-1.124l4.696,0.761l-3.842-2.808l4.05,2.501l-2.476-4.063l2.782,3.86l-0.73-4.702l1.095,4.632L126.128,81.428z" fill="#681711" stroke="#490500" stroke-width="0.5" opacity="1"></path><path id="SvgjsPath4882" d="M128.188 87c0 1.761-1.428 3.187-3.188 3.187s-3.188-1.426-3.188-3.187c0-1.76 1.428-3.188 3.188-3.188S128.188 85.239 128.188 87z" fill="#000000" stroke-width="none" opacity="0.9"></path><path id="SvgjsPath4883" d="M121.653 93.108c-0.47 0.469-1.396 0.304-2.069-0.369 -0.674-0.673-0.84-1.601-0.369-2.07 0.469-0.47 1.395-0.304 2.068 0.369C121.956 91.712 122.122 92.639 121.653 93.108z" fill="#ffffff" stroke-width="none" opacity="0.7"></path><path id="SvgjsPath4884" d="M131.809 85.326c-0.702 0.703-2.403 0.142-3.8-1.254 -1.396-1.396-1.957-3.098-1.256-3.8 0.703-0.703 2.405-0.142 3.8 1.254C131.949 82.922 132.512 84.624 131.809 85.326z" fill="#ffffff" stroke-width="none" opacity="0.9"></path></g></g></g><g id="svga-group-eyesfront-right"><path id="SvgjsPath4787" d="M126 62.999c-9.94 0-18 11.193-18 25.001 0 13.808 8.06 24.999 18 24.999S144 101.808 144 88C144 74.191 135.94 62.999 126 62.999zM131.624 92.025c-3.031 0.914-6.378 0.959-10.688 0.204 -2.497-0.438-6.105-1.323-8.395-3.143 2.748-3.11 7.836-5.091 12.788-5.71 3.541-0.443 11.175-0.123 14.89 0.154C138.812 87.2 134.751 91.083 131.624 92.025z" fill="#d9a494" stroke-width="none" opacity="1" stroke="none"></path><path id="SvgjsPath4788" d="M125.045 71.834c-10.416-0.043-18.875 6.635-18.902 14.92 -0.023 8.284 8.398 15.033 18.813 15.08 10.418 0.043 18.875-6.635 18.902-14.919C143.881 78.63 135.461 71.881 125.045 71.834zM131.624 92.025c-3.031 0.914-6.378 0.959-10.688 0.204 -2.497-0.438-6.105-1.323-8.395-3.143 2.748-3.11 7.836-5.091 12.788-5.71 3.541-0.443 11.175-0.123 14.89 0.154C138.812 87.2 134.751 91.083 131.624 92.025z" fill="url(#SvgjsRadialGradient4789)" opacity="1"></path><path id="SvgjsPath4793" d="M140.22 83.53c-3.715-0.277-11.349-0.597-14.89-0.154 -4.952 0.619-10.04 2.6-12.788 5.71 2.289 1.82 5.897 2.705 8.395 3.143 4.31 0.755 7.656 0.71 10.688-0.204C134.751 91.083 138.812 87.2 140.22 83.53z" fill="url(#SvgjsRadialGradient4794)" opacity="1"></path><path id="SvgjsPath4797" d="M117.096 82.293c0.703-0.442 0.893-0.613 2.555-1.214 4.373-1.295 6.854-1.662 12.986-1.384C131.17 79.641 120.881 80.256 117.096 82.293zM135.736 91.614c-1.154 0.617-2.689 1.205-2.664 1.196 2.734-1.164 4.678-0.564 7.531-6.058C139.092 89.163 138.727 89.895 135.736 91.614z" fill="#ab5a41" stroke-width="none" opacity="1" stroke="none"></path><path id="SvgjsPath4798" d="M124.986 82.304c-3.645 0.285-5.742 0.8-8.719 2.564 -2.432 1.441-4.281 2.802-6.268 5.841 3.203 0.193 3.904 0.754 6.742 1.472 1.668 0.421 6.414 0.913 10.258 0.855 3.725-0.056 7.564-1.044 9.602-2.773 3.035-2.576 4.303-6.003 7.398-8.529C144 81.734 129.84 81.924 124.986 82.304zM131.273 91.753c-2.828 0.853-5.951 0.895-9.973 0.19 -2.33-0.409-5.697-1.234-7.834-2.933 2.564-2.902 7.313-4.751 11.934-5.328 3.305-0.413 10.428-0.114 13.895 0.144C137.98 87.251 134.191 90.874 131.273 91.753z" fill="#153a4d" stroke-width="none" opacity="1" stroke="none"></path></g></g><g id="svga-group-facehighlight-single" ><path id="SvgjsPath4552" d="M140.204 113.007c0.035 22.275-17.995 40.365-40.273 40.396 -22.274 0.036-40.361-17.993-40.396-40.272C59.501 90.857 77.53 72.77 99.808 72.735 122.083 72.701 140.171 90.73 140.204 113.007z" fill="url(#SvgjsRadialGradient4553)" opacity="1"></path><path id="SvgjsPath4556" d="M135,55.999c0,19.329-15.671,35-35,35c-19.329,0-35-15.671-35-35s15.671-35,35-35C119.329,20.999,135,36.67,135,55.999z" fill="url(#SvgjsRadialGradient4557)" opacity="1"></path></g><g id="svga-group-eyebrows-left" ><path id="SvgjsPath4885" d="M54 73.189c9.954-9.974 16.761-4.714 30.589-2.063 0.845 0.162 6.32 0.337 5.31 2.268 -0.483 0.924-2.036 0.814-2.903 0.798C73.308 73.936 66.652 64.197 54 73.189z" fill="#b7513b" stroke-width="none" opacity="1" stroke="none"></path></g><g id="svga-group-eyebrows-right" ><path id="SvgjsPath4886" d="M144.519 73.494c-12.071-9.095-19.137 0.037-31.727 0.388 -4.076 0.116-3.813-2.101-2.078-2.451 2.014-0.407 2.563 0.033 8.451-1.382C130.507 67.324 136.346 64.828 144.519 73.494z" fill="#b7513b" stroke-width="none" opacity="1" stroke="none"></path></g><g id="svga-group-nose-single" ><path id="SvgjsPath4823" d="M94.803 91.719c0 0 0.661 2.089 0.679 2.718 0.032 1.07-0.102 1.907-0.191 2.729 -0.579 5.369-3.579 13.137-3.418 16.845 0.07 1.597 1.125 3.926 1.125 3.926s-2.537-0.654-3.094-5.178c-0.23-1.866 1.717-5.479 2.397-7.23 0.646-1.664 1.906-7.059 2.348-8.798 0.186-0.729 0.52-1.607 0.515-2.362C95.162 93.697 94.803 91.719 94.803 91.719zM94.514 118.386c0 0 0.3 2.483 3.237 3.092 2.758 0.57 4.305-2.242 4.305-2.242s-2.292 1.442-4.052 0.925C97.075 119.889 94.514 118.386 94.514 118.386zM105.082 113.04c-0.02 0.595-0.198 2.316-0.198 2.316s0.904-1.384 0.962-1.93c0.104-0.98-1.063-3.808-1.063-3.808S105.109 112.176 105.082 113.04z" fill="#ca8975" stroke-width="none" opacity="1" stroke="none"></path><path id="SvgjsPath4824" d="M92.489 108.932c-1.224 3.882-2.089 7.991 1.481 9.82 0.467 0.239 0.967 0.416 1.475 0.517 0.276 0.054 0.479 0.288 0.722 0.441 0.557 0.357 1.475 0.408 2.113 0.518 2.454 0.424 4.93-0.568 5.538-2.942 -1.527 2.045-2.878 2.609-4.955 2.446 -2.493-0.196-4.573-2.28-5.227-4.726 -0.389-1.454-0.54-2.916-0.424-4.433 0.108-1.302 0.487-2.593 0.707-3.883 0.412-2.326 1.408-7.191 1.401-9.62 -0.398 1.693-1.119 5.687-1.392 6.661 -0.204 0.726-0.635 2.199-0.811 2.933C92.978 107.253 92.667 108.364 92.489 108.932zM92.207 115.405c-0.163-1.144 0.045-2.348 0.294-3.457 0.088 2.204 0.708 4.771 2.122 6.399C93.401 117.86 92.414 116.852 92.207 115.405 92.061 114.382 92.458 117.163 92.207 115.405z" fill="#ab5a41" stroke-width="none" opacity="1" stroke="none"></path><path id="SvgjsPath4825" d="M95.57 113.331c0.158 0.712 0.032 1.354-0.281 1.438 -0.313 0.082-0.634-0.351-0.792-1.063 -0.158-0.711-0.09-1.432 0.222-1.513C95.032 112.11 95.413 112.62 95.57 113.331z" fill="#f8e1da" stroke-width="none" opacity="1" stroke="none"></path></g><g id="svga-group-hair-front" ><path id="SvgjsPath4858" d="M47.869 62.985c3.513-27.218 48.858-44.766 54.189-42.089 3.002-1.44 59.328 41.036 59.561 62.839 0 0-22.007 19.356-22.043 12.485 -0.167-6.713-13.667-24.08-19.264-31.097 -5.428-6.805-11.027-15.225-14.647-23.392 -4.578 8.854-19.762 23.128-25.737 27.531C67.71 78.266 61 97.833 57.482 108.704c-0.619 1.911-4.764 11.061-5.409 13.031C47.527 110.639 44.016 90.357 47.869 62.985z" fill="#b84131" stroke-width="none" opacity="0.1"></path><path id="SvgjsPath4859" d="M168.612 36.164c-11.808-25.213-46.156-48.481-67.878-36.371C56.411-23.993-12.496 66.971 47.647 132.54c0.04 0.039 0.068 0.08 0.106 0.117 6.074 6.596 13.227 12.621 20.452 17.504 -7.228-9.984-13.803-23.407-15.666-35.879 5.939-18.021 9.266-33.725 25.459-47.317 11.026-9.255 24.281-19.122 26.669-31.375 8.063 19.831 29.816 38.467 34.742 52.624 0.175 14.627-3.735 28.098-4.854 32.623 0.078-0.156 0.164-0.309 0.252-0.461 2.984-5.375 5.861-10.77 7.771-16.451 0.83 17.059-5.808 30.435-9.904 39.925 -0.024 0.074-0.057 0.152-0.096 0.229 0.096-0.055 0.184-0.117 0.277-0.174 10.322-6.818 20.082-19.361 26.105-31.27 -0.029 6.242-0.487 14.134-0.654 16.42 12.835-17.958 14.087-34.884 15.084-37.911 1.148 5.97 3.297 11.975 4.45 14.41C177.24 88.977 179.117 61.413 168.612 36.164z" fill="#b84131" stroke-width="none" opacity="1"></path><path id="SvgjsPath4860" d="M51.208 109.438c0-6.093 5.659-15.235 9.328-19.373 -2.775 5.59-9.544 23.984-12.005 36.941 -10.121-26.649-12.492-60.43 1.831-85.612 -7.582 20.698-12.034 42.867-4.909 64.212 -0.282-10.386-3.378-28.761 11.511-52.691C52.404 70.117 49.348 88.952 51.208 109.438zM132.976 143.647c7.391-16.72 11.956-30.775 10.782-43.793 -2.152-25.444-27.056-37.068-38.985-64.839 0.318-1.777 0.471-3.621 0.444-5.539 9.521 17.034 19.978 32.215 32.325 47.389 8.24 11.171 9.617 24.143 9.675 37.368 8.372-21.988 6.938-47.563-1.999-68.982 10.55 22.035 11.512 45.986 7.673 69.938 9.591-21.079 15.347-44.071 9.591-67.063 7.674 15.328 6.716 32.574 4.798 49.817 4.887-15.444 4.245-31.577 4.527-47.23 4.599 17.244 5.055 34.973 5.669 53.032 -1.95-5.682-2.966-10.747-3.828-15.828 -0.933 7.967-8.212 29.021-13.68 36.627 0.328-4.131 1.277-12.111 0.624-15.301 7.063-15.559 9.48-33.147 4.829-48.237 5.855 21.703-3.052 49.26-18.405 68.239C140.26 137.597 132.976 143.647 132.976 143.647zM31.064 89.32c-6.8-45.275 9.097-58.79 13.522-70.31 -29.467 43.476-22.078 83.66 4.453 113.845 -4.957-12.771-8.754-27.238-9.195-40.821 -2.356-23.177 2.663-43.048 16.813-60.129C36.466 39.67 32.89 69.26 31.064 89.32zM61.507 71.393c0.009-0.046 0.054-0.11 0.073-0.151 6.306-13.188 36.734-34.118 34.307-50.216C95.953 36.276 64.273 57.929 61.507 71.393zM144.898 70.541c-6.164-26.016-21.354-29.824-28.256-47.629C121.069 39.346 141.615 56.636 144.898 70.541zM156.993 57.518c-0.429-1-2.813-44.361-41.932-52.052C147.991 14.834 155.178 53.282 156.993 57.518zM54.609 48.921c2.004-8.177 19.884-29.726 44.862-36.666C66.938 18.025 56.496 41.245 54.609 48.921z" fill="#a92d1c" stroke-width="none" opacity="1"></path><path id="SvgjsPath4861" d="M139.866 89.507c1.416 4.177 2.241 8.354 2.585 12.531 -1.793 5.488-4.423 10.873-7.097 16.119C138.077 106.88 139.948 98.58 139.866 89.507zM66.029 147.937c-6.774-9.178-12.443-20.299-14.15-31.596 -1.161 3.689-2.178 7.482-3.069 11.373 -0.164 1-7.26-16.94-9.166-35.68 0.441 13.583 3.739 27.053 8.696 39.825C53.527 137.663 59.466 143.026 66.029 147.937z" fill="#991b0a" stroke-width="none" opacity="1"></path><path id="SvgjsPath4862" d="M99.492 21.262c6.403 27.793-34.873 40.474-47.226 76.474C58.369 65.985 105.136 46.985 99.492 21.262zM61.565 55.39c7.799-16.374 20.656-28.475 35.459-38.564C80.005 25.778 68.787 37.707 61.565 55.39zM44.976 31.335C57.328 16.982 73.192 2.764 93.413 6.039 71.708-0.369 56.906 15.907 44.976 31.335zM144.42 40.044c-7.511-14.379-11.145-24.352-28.859-28.113C128.931 15.938 138.894 27.608 144.42 40.044zM160.831 41.313c-8.623-20.082-15.026-37.805-40.267-40.29C140.522 4.832 153.31 23.794 160.831 41.313zM148.999 87.979c-6.548-25.538-31.097-43.208-37.737-69.219C117.109 44.848 140.279 62.557 148.999 87.979z" fill="#c75849" stroke-width="none" opacity="1"></path><path id="SvgjsPath4863" d="M68.099 150.319c-0.357-0.24-0.713-0.482-1.071-0.742 -7.286-5.061-13.82-10.709-19.416-16.789l-0.105-0.117c-18.576-20.25-26.419-44.969-22.688-71.48C28.485 32.793 56.267-4.408 85.672-4.408c5.168 0 10.234 1.339 15.061 3.98 3.049-1.681 6.354-2.657 9.824-2.902 0.989-0.11 2.008-0.165 3.02-0.165 22.907 0 46.485 20.957 55.21 39.577 10.676 25.664 8.609 53.598 9.244 69.465 -1.773 0.431-4.38-14.611-4.7-13.611 -2.573 15.701-7.636 27.015-15.258 37.785 0.342-5.056 0.642-11.302 0.69-16.279 -5.813 11.226-16.08 24.686-26.651 31.145 0.644-1.295 5.088-11.688 6.555-15.709 2.759-8.625 3.989-16.467 3.762-23.93 -1.189 3.328-7.057 16.209-8.058 15.842 1.29-5.103 5.015-18.297 4.849-32.574 -2.741-7.384-12.181-19.162-16.715-24.847 -6.644-8.33-13.507-16.938-17.777-27.128 -2.516 11.593-15.759 20.462-25.535 29.844l-1.06 1.019C62.619 79.735 58.88 95.656 52.723 114.343c1.617 10.686 6.855 22.955 14.758 34.453l0.317 0.453c0.187 0.271 0.373 0.535 0.563 0.799L68.099 150.319zM85.601-3.042c-27.724 0-51.227 30.485-57.536 57.25 -8.282 38.193 6.515 69.453 37.047 92.8 -5.138-7.166-11.279-17.813-13.293-29.828 -1.255 4.081-2.127 7.559-2.953 11.145 -0.874-1.174-11.19-25.575-9.863-52.053 1.522-30.324 18.792-47.229 19.792-46.254C34.57 56.681 38.052 98.385 48.472 126.302c8.589-43.809 21.73-53.742 30.996-62.736 9.346-9.079 22.174-17.653 24.512-29.297 0.84-3.792 0.87-8.88-0.459-14.422 1-0.263 2.621 8.516 1.45 15.145 4.28 9.938 11.15 18.077 17.798 25.946 11.641 13.784 20.032 24.737 21.18 38.901 1.676 18.497-6.649 34.395-10.519 43.248 9.021-7.685 19.341-20.076 25.357-33.021 12.789-27.033 6.814-49.114 6.814-49.114 4.394 14.256 2.641 31.864-4.81 48.315 0.605 3.115-0.233 10.563-0.574 14.588 4.892-7.168 12.303-27.878 13.241-35.958 0.15-0.004 3.665 14.189 3.777 14.535 -0.797-25.368-1.724-48.296-12.615-70.531 -7.655-16.931-31.764-34.917-52.126-34.917 -5.002 0-10.735 1.879-15.997 6.018l-0.243-0.296c1.055-0.911 2.188-1.744 3.368-2.48C95.049-1.944 90.333-3.042 85.601-3.042zM136.789 112.726c-0.259 1.234-0.548 2.518-0.87 3.895 2.262-4.479 4.684-9.54 6.353-14.64 -0.331-3.818-1.073-7.623-2.217-11.269C139.975 98.485 138.447 105.874 136.789 112.726z" fill="#8a1000" stroke-width="none" opacity="1"></path></g></g></g></g><defs id="SvgjsDefs4509"><radialGradient id="SvgjsRadialGradient4553" cx="100" cy="113" r="40" gradientUnits="userSpaceOnUse" class="svga-on-canvas-facehighlight-gradient-single-0"><stop id="SvgjsStop4554" stop-opacity="0.5" stop-color="#e8c1b6" offset="0" ></stop><stop id="SvgjsStop4555" stop-opacity="0" stop-color="#d9a494" offset="0.9" ></stop></radialGradient><radialGradient id="SvgjsRadialGradient4557" cx="100" cy="57" r="36" gradientUnits="userSpaceOnUse" class="svga-on-canvas-facehighlight-gradient-single-1"><stop id="SvgjsStop4558" stop-opacity="0.5" stop-color="#e8c1b6" offset="0" ></stop><stop id="SvgjsStop4559" stop-opacity="0" stop-color="#d9a494" offset="0.9" ></stop></radialGradient><radialGradient id="SvgjsRadialGradient4638" cx="-558.588" cy="-490.918" r="84.646" gradientTransform="matrix(0.096 -0.0248 0.0245 0.0961 140.5478 120.3577)" gradientUnits="userSpaceOnUse" class="svga-on-canvas-eyesiris-gradient-left-1"><stop id="SvgjsStop4639" stop-opacity="0.8" stop-color="#ffffff" offset="0" ></stop><stop id="SvgjsStop4640" stop-opacity="0" stop-color="#ffffff" offset="1" ></stop></radialGradient><radialGradient id="SvgjsRadialGradient4642" cx="-565.337" cy="-492.691" r="84.644" gradientTransform="matrix(0.0991 8.856325e-004 -0.0011 0.0991 130.3774 136.3533)" gradientUnits="userSpaceOnUse" class="svga-on-canvas-eyesiris-gradient-left-2"><stop id="SvgjsStop4643" stop-opacity="0.8" stop-color="#ffffff" offset="0" ></stop><stop id="SvgjsStop4644" stop-opacity="0" stop-color="#ffffff" offset="1" ></stop></radialGradient><linearGradient id="SvgjsLinearGradient4648" x1="122.283" y1="93.047" x2="123.61" y2="91.466" gradientTransform="matrix(1 0 0 1 -52 0)" gradientUnits="userSpaceOnUse" class="svga-on-canvas-eyesiris-gradient-left-5"><stop id="SvgjsStop4649" stop-opacity="1" stop-color="#ffffff" offset="0" ></stop><stop id="SvgjsStop4650" stop-opacity="0" stop-color="#ffffff" offset="1" ></stop></linearGradient><linearGradient id="SvgjsLinearGradient4652" x1="127" y1="85" x2="125" y2="87" gradientTransform="matrix(1 0 0 1 -50 0)" gradientUnits="userSpaceOnUse" class="svga-on-canvas-eyesiris-gradient-left-6"><stop id="SvgjsStop4653" stop-opacity="1" stop-color="#ffffff" offset="0" ></stop><stop id="SvgjsStop4654" stop-opacity="0" stop-color="#ffffff" offset="1" ></stop></linearGradient><linearGradient id="SvgjsLinearGradient4656" x1="130" y1="81" x2="126" y2="85" gradientTransform="matrix(1 0 0 1 -50 0)" gradientUnits="userSpaceOnUse" class="svga-on-canvas-eyesiris-gradient-left-7"><stop id="SvgjsStop4657" stop-opacity="1" stop-color="#ffffff" offset="0" ></stop><stop id="SvgjsStop4658" stop-opacity="0" stop-color="#ffffff" offset="1" ></stop></linearGradient><radialGradient id="SvgjsRadialGradient4661" cx="-578.76" cy="-490.73" r="84.646" gradientTransform="matrix(0.096 -0.0248 0.0245 0.0961 192.4794 119.8404)" gradientUnits="userSpaceOnUse" class="svga-on-canvas-eyesiris-gradient-right-1"><stop id="SvgjsStop4662" stop-opacity="0.8" stop-color="#ffffff" offset="0" ></stop><stop id="SvgjsStop4663" stop-opacity="0" stop-color="#ffffff" offset="1" ></stop></radialGradient><radialGradient id="SvgjsRadialGradient4665" cx="-584.778" cy="-487.329" r="84.644" gradientTransform="matrix(0.0991 8.856325e-004 -0.0011 0.0991 182.3104 135.839)" gradientUnits="userSpaceOnUse" class="svga-on-canvas-eyesiris-gradient-right-2"><stop id="SvgjsStop4666" stop-opacity="0.8" stop-color="#ffffff" offset="0" ></stop><stop id="SvgjsStop4667" stop-opacity="0" stop-color="#ffffff" offset="1" ></stop></radialGradient><linearGradient id="SvgjsLinearGradient4671" x1="120.284" y1="93.047" x2="121.611" y2="91.467" gradientUnits="userSpaceOnUse" class="svga-on-canvas-eyesiris-gradient-right-5"><stop id="SvgjsStop4672" stop-opacity="1" stop-color="#ffffff" offset="0" ></stop><stop id="SvgjsStop4673" stop-opacity="0" stop-color="#ffffff" offset="1" ></stop></linearGradient><linearGradient id="SvgjsLinearGradient4675" x1="127" y1="85" x2="125" y2="87" gradientUnits="userSpaceOnUse" class="svga-on-canvas-eyesiris-gradient-right-6"><stop id="SvgjsStop4676" stop-opacity="1" stop-color="#ffffff" offset="0" ></stop><stop id="SvgjsStop4677" stop-opacity="0" stop-color="#ffffff" offset="1" ></stop></linearGradient><linearGradient id="SvgjsLinearGradient4679" x1="130" y1="81" x2="126" y2="85" gradientUnits="userSpaceOnUse" class="svga-on-canvas-eyesiris-gradient-right-7"><stop id="SvgjsStop4680" stop-opacity="1" stop-color="#ffffff" offset="0" ></stop><stop id="SvgjsStop4681" stop-opacity="0" stop-color="#ffffff" offset="1" ></stop></linearGradient><linearGradient id="SvgjsLinearGradient4685" x1="100" y1="141" x2="100" y2="138" gradientUnits="userSpaceOnUse" class="svga-on-canvas-mouth-gradient-single-0"><stop id="SvgjsStop4686" stop-opacity="1" stop-color="#d19684" offset="0.1" ></stop><stop id="SvgjsStop4687" stop-opacity="1" stop-color="#ca8975" offset="1" ></stop></linearGradient><radialGradient id="SvgjsRadialGradient4742" cx="127" cy="87.834" r="14" gradientTransform="matrix(-1 0 0 1 200 0)" gradientUnits="userSpaceOnUse" class="svga-on-canvas-eyesback-gradient-left-0"><stop id="SvgjsStop4743" stop-opacity="1" stop-color="#ffffff" offset="0" ></stop><stop id="SvgjsStop4744" stop-opacity="1" stop-color="#fdfefe" offset="0.544" ></stop><stop id="SvgjsStop4745" stop-opacity="1" stop-color="#f6f8f9" offset="0.74" ></stop><stop id="SvgjsStop4746" stop-opacity="1" stop-color="#eaeff2" offset="0.879" ></stop><stop id="SvgjsStop4747" stop-opacity="1" stop-color="#d9e3e8" offset="0.992" ></stop><stop id="SvgjsStop4748" stop-opacity="1" stop-color="#d8e2e7" offset="1" ></stop></radialGradient><radialGradient id="SvgjsRadialGradient4750" cx="127" cy="87.834" r="14" gradientUnits="userSpaceOnUse" class="svga-on-canvas-eyesback-gradient-right-0"><stop id="SvgjsStop4751" stop-opacity="1" stop-color="#ffffff" offset="0" ></stop><stop id="SvgjsStop4752" stop-opacity="1" stop-color="#fdfefe" offset="0.544" ></stop><stop id="SvgjsStop4753" stop-opacity="1" stop-color="#f6f8f9" offset="0.74" ></stop><stop id="SvgjsStop4754" stop-opacity="1" stop-color="#eaeff2" offset="0.879" ></stop><stop id="SvgjsStop4755" stop-opacity="1" stop-color="#d9e3e8" offset="0.992" ></stop><stop id="SvgjsStop4756" stop-opacity="1" stop-color="#d8e2e7" offset="1" ></stop></radialGradient><radialGradient id="SvgjsRadialGradient4758" cx="127" cy="87.834" r="14" gradientTransform="matrix(-1 0 0 1 200 0)" gradientUnits="userSpaceOnUse" class="svga-on-canvas-eyesfront-gradient-left-0"><stop id="SvgjsStop4759" stop-opacity="1" stop-color="#ffffff" offset="0" ></stop><stop id="SvgjsStop4760" stop-opacity="1" stop-color="#fdfefe" offset="0.544" ></stop><stop id="SvgjsStop4761" stop-opacity="1" stop-color="#f6f8f9" offset="0.74" ></stop><stop id="SvgjsStop4762" stop-opacity="1" stop-color="#eaeff2" offset="0.879" ></stop><stop id="SvgjsStop4763" stop-opacity="1" stop-color="#d9e3e8" offset="0.992" ></stop><stop id="SvgjsStop4764" stop-opacity="1" stop-color="#d8e2e7" offset="1" ></stop></radialGradient><radialGradient id="SvgjsRadialGradient4768" cx="125.16" cy="86.942" fx="138.734" fy="85.449" r="18.705" gradientTransform="matrix(0.9998 0.0208 0.0131 -0.6281 -51.4298 138.9481)" gradientUnits="userSpaceOnUse" class="svga-on-canvas-eyesfront-gradient-left-3"><stop id="SvgjsStop4769" stop-opacity="1" stop-color="#ca8975" offset="0" ></stop><stop id="SvgjsStop4770" stop-opacity="0.3" stop-color="#ca8975" offset="0.7" ></stop><stop id="SvgjsStop4771" stop-opacity="0" stop-color="#d9a494" offset="1" ></stop></radialGradient><radialGradient id="SvgjsRadialGradient4773" cx="67.721" cy="109.165" r="29.505" gradientTransform="matrix(1.0322 -0.0541 0.0541 1.0322 -5.8613 6.0176)" gradientUnits="userSpaceOnUse" class="svga-on-canvas-eyesfront-gradient-left-4"><stop id="SvgjsStop4774" stop-opacity="0" stop-color="#000000" offset="0.95" ></stop><stop id="SvgjsStop4775" stop-opacity="0.3" stop-color="#000000" offset="1" ></stop></radialGradient><radialGradient id="SvgjsRadialGradient4779" cx="127" cy="87.834" r="14" gradientUnits="userSpaceOnUse" class="svga-on-canvas-eyesfront-gradient-right-0"><stop id="SvgjsStop4780" stop-opacity="1" stop-color="#ffffff" offset="0" ></stop><stop id="SvgjsStop4781" stop-opacity="1" stop-color="#fdfefe" offset="0.544" ></stop><stop id="SvgjsStop4782" stop-opacity="1" stop-color="#f6f8f9" offset="0.74" ></stop><stop id="SvgjsStop4783" stop-opacity="1" stop-color="#eaeff2" offset="0.879" ></stop><stop id="SvgjsStop4784" stop-opacity="1" stop-color="#d9e3e8" offset="0.992" ></stop><stop id="SvgjsStop4785" stop-opacity="1" stop-color="#d8e2e7" offset="1" ></stop></radialGradient><radialGradient id="SvgjsRadialGradient4789" cx="125.16" cy="86.942" fx="138.734" fy="85.449" r="18.705" gradientTransform="matrix(-0.9998 0.0208 -0.0131 -0.6281 251.4298 138.9481)" gradientUnits="userSpaceOnUse" class="svga-on-canvas-eyesfront-gradient-right-3"><stop id="SvgjsStop4790" stop-opacity="1" stop-color="#ca8975" offset="0" ></stop><stop id="SvgjsStop4791" stop-opacity="0.3" stop-color="#ca8975" offset="0.7" ></stop><stop id="SvgjsStop4792" stop-opacity="0" stop-color="#d9a494" offset="1" ></stop></radialGradient><radialGradient id="SvgjsRadialGradient4794" cx="67.721" cy="109.165" r="29.506" gradientTransform="matrix(-1.0322 -0.0541 -0.0541 1.0322 205.8613 6.0176)" gradientUnits="userSpaceOnUse" class="svga-on-canvas-eyesfront-gradient-right-4"><stop id="SvgjsStop4795" stop-opacity="0" stop-color="#000000" offset="0.95" ></stop><stop id="SvgjsStop4796" stop-opacity="0.3" stop-color="#000000" offset="1" ></stop></radialGradient><linearGradient id="SvgjsLinearGradient4868" x1="99.98" y1="171.27" x2="99.98" y2="136.351" gradientUnits="userSpaceOnUse" class="svga-on-canvas-chinshadow-gradient-single-0"><stop id="SvgjsStop4869" stop-opacity="0.8" stop-color="#ca8975" offset="0" ></stop><stop id="SvgjsStop4870" stop-opacity="1" stop-color="#ab5a41" offset="0.7" ></stop></linearGradient></defs></svg>