<svg id="noun-flow-1360557" xmlns="http://www.w3.org/2000/svg" width="15.593" height="15.612" viewBox="0 0 15.593 15.612">
  <path id="Path_17043" data-name="Path 17043" d="M94.932,37.965a2.205,2.205,0,0,0,.453-4.363V31.847A.848.848,0,0,1,96.233,31h3.754v2.626a2.206,2.206,0,1,0,1.018-.017V31h3.822a.848.848,0,0,1,.848.848V33.6a2.205,2.205,0,1,0,1.018.029V31.847a1.866,1.866,0,0,0-1.866-1.866h-3.822V26.715a2.206,2.206,0,1,0-1.018-.017v3.283H96.233a1.866,1.866,0,0,0-1.866,1.866V33.63a2.205,2.205,0,0,0,.565,4.335Zm6.786-2.205a1.187,1.187,0,1,1-.348-.84A1.188,1.188,0,0,1,101.718,35.759Zm5.6,0a1.187,1.187,0,1,1-.348-.84A1.188,1.188,0,0,1,107.316,35.759Zm-7.973-11.2a1.187,1.187,0,1,1,.348.84A1.188,1.188,0,0,1,99.343,24.562ZM94.932,34.572a1.187,1.187,0,1,1-.84.348A1.188,1.188,0,0,1,94.932,34.572Z" transform="translate(-92.737 -22.356)" />
</svg>
