<svg id="noun-flag-1057635" xmlns="http://www.w3.org/2000/svg" width="18.27" height="20.675" viewBox="0 0 18.27 20.675">
  <path id="Path_16102" data-name="Path 16102" d="M165.435,73.319v1.72a.523.523,0,0,0,.521.521h10.635a.8.8,0,0,0,.652-.365.779.779,0,0,0,0-.756l-2.32-3.78,2.346-3.78a.779.779,0,0,0,0-.756.743.743,0,0,0-.652-.365h-6.1V63.8a.523.523,0,0,0-.521-.521H161.16a1.569,1.569,0,0,0-1.564,1.564v18.09a.521.521,0,1,0,1.043,0V73.319ZM176.044,66.8l-2.216,3.6a.519.519,0,0,0,0,.547l2.216,3.6h-9.566v-1.2H170a.523.523,0,0,0,.521-.521v-6h5.526Zm-15.4-1.955a.523.523,0,0,1,.521-.521H169.5v7.95h-8.862Z" transform="translate(-159.346 -63.033)"/>
  <path id="Path_16102_-_Outline" data-name="Path 16102 - Outline" d="M161.16,63.033H170a.772.772,0,0,1,.771.771v1.7h5.849a.988.988,0,0,1,.87.493,1.035,1.035,0,0,1,0,1l-.006.01-2.264,3.648,2.245,3.657a1.035,1.035,0,0,1,0,1l-.007.011a1.056,1.056,0,0,1-.864.482H165.956a.772.772,0,0,1-.771-.771v-1.47h-4.3v9.368a.771.771,0,1,1-1.543,0V64.848A1.816,1.816,0,0,1,161.16,63.033Zm15.078,2.976h-5.971V63.8a.272.272,0,0,0-.271-.271H161.16a1.316,1.316,0,0,0-1.314,1.314v18.09a.271.271,0,1,0,.543,0V73.069h5.3v1.97a.272.272,0,0,0,.271.271h10.635a.555.555,0,0,0,.436-.242.532.532,0,0,0,0-.5l-2.4-3.906,2.424-3.9a.532.532,0,0,0,0-.508.5.5,0,0,0-.433-.236h-.324v1.069h-.127l-2.131,3.46a.272.272,0,0,0,0,.27l0,.007,2.45,3.978H166.228v-1.7H170a.272.272,0,0,0,.271-.271V66.578h5.62Zm-.658,1.069h-4.812v5.745a.772.772,0,0,1-.771.771h-3.269v.7H175.6l-1.979-3.213a.773.773,0,0,1,0-.816Zm-14.42-3h8.591v8.45h-9.362V64.847A.772.772,0,0,1,161.16,64.076Zm8.091.5H161.16a.272.272,0,0,0-.271.271v7.179h8.362Z" transform="translate(-159.346 -63.033)"/>
</svg>
