<svg xmlns="http://www.w3.org/2000/svg" width="14.895" height="17" viewBox="0 0 14.895 17">
  <g id="noun-details-1251525" transform="translate(-93.994 -43.512)">
    <path id="Path_15935" data-name="Path 15935" d="M155.483,43.512H145.016a2.214,2.214,0,0,0-2.214,2.214V58.3a2.214,2.214,0,0,0,2.214,2.214h10.467A2.214,2.214,0,0,0,157.7,58.3V45.726a2.214,2.214,0,0,0-2.214-2.214ZM156.489,58.3a1.006,1.006,0,0,1-1.006,1.006H145.016A1.006,1.006,0,0,1,144.01,58.3V45.726a1.006,1.006,0,0,1,1.006-1.006h10.467a1.006,1.006,0,0,1,1.006,1.006Z" transform="translate(-48.808 0)" />
    <path id="Path_15936" data-name="Path 15936" d="M208.24,266h-1a.6.6,0,0,0,0,1.208h1a.6.6,0,1,0,0-1.208Z" transform="translate(-110.352 -214.491)" />
    <path id="Path_15937" data-name="Path 15937" d="M302.132,266h-5.9a.6.6,0,0,0,0,1.208h5.9a.6.6,0,1,0,0-1.208Z" transform="translate(-196.142 -214.491)" />
    <path id="Path_15938" data-name="Path 15938" d="M208.24,165.2h-1a.6.6,0,1,0,0,1.208h1a.6.6,0,1,0,0-1.208Z" transform="translate(-110.352 -117.314)" />
    <path id="Path_15939" data-name="Path 15939" d="M302.132,165.2h-5.9a.6.6,0,1,0,0,1.208h5.9a.6.6,0,1,0,0-1.208Z" transform="translate(-196.142 -117.314)" />
    <path id="Path_15940" data-name="Path 15940" d="M208.24,366.8h-1a.6.6,0,1,0,0,1.208h1a.6.6,0,1,0,0-1.208Z" transform="translate(-110.352 -311.668)" />
    <path id="Path_15941" data-name="Path 15941" d="M302.132,366.8h-5.9a.6.6,0,1,0,0,1.208h5.9a.6.6,0,1,0,0-1.208Z" transform="translate(-196.142 -311.668)" />
  </g>
</svg>
