<?xml version="1.0" encoding="utf-8"?>
<!-- Generator: Adobe Illustrator 19.2.1, SVG Export Plug-In . SVG Version: 6.00 Build 0)  -->
<svg version="1.1" id="Layer_1" xmlns="http://www.w3.org/2000/svg" xmlns:xlink="http://www.w3.org/1999/xlink" x="0px" y="0px"
	 viewBox="0 0 664.3 264.7" style="enable-background:new 0 0 664.3 264.7;" xml:space="preserve">
<style type="text/css">
	.st10{fill:#59ABBC;}
	.st11{fill:#68AA45;}
</style>
<g>
	<g>
		<path d="M40.3,35c0-1.6-0.1-3.3-0.8-4.2c-0.8-0.9-2.5-1.2-3.2-1.2c-3,0-4.2,1.8-4.4,2.2c-0.1,0.3-0.8,1-0.8,6v7.7
			c0,7.1,2.3,7.9,5.2,7.9c1.1,0,4.5-0.4,4.6-6.1h3.8c0.2,9.1-6.3,9.1-8.2,9.1c-3.6,0-9.1-0.2-9.1-11.5v-8.2c0-8.2,3.6-10.5,9.3-10.5
			c5.7,0,7.9,3,7.6,8.6H40.3z"/>
		<path d="M47.8,46.1c0-5.9,0.7-10.8,7.7-10.8c7,0,7.7,4.9,7.7,10.8c0,8.9-3.4,10.2-7.7,10.2S47.8,55,47.8,46.1z M59.7,44.7
			c0-5.5-1.7-6.7-4.3-6.7c-2.5,0-4.2,1.2-4.2,6.7c0,6.6,0.8,8.9,4.2,8.9C58.9,53.6,59.7,51.3,59.7,44.7z"/>
		<path d="M77.9,35.7h3.3V58c0,4.5-3,5.6-7.5,5.6c-3.4,0-6.4-1.7-6.1-5.4h3.7c0,1.9,1.3,2.9,3.1,2.9c2.3,0,3.5-1.4,3.5-3.5v-4.2
			h-0.1c-0.8,1.6-2.7,2.5-4.4,2.5c-5.5,0-6.6-4.7-6.6-10.7c0-9.3,4.7-9.9,6.3-9.9c2.1,0,3.8,0.9,4.7,2.9h0.1V35.7z M74.1,38
			c-3.7,0-3.9,4.5-3.9,7.2c0,6.5,1.5,8,3.9,8c4,0,3.8-4.7,3.8-7.5C78,42.7,78.2,38,74.1,38z"/>
		<path d="M97.5,55.9v-14c0-2.2-0.8-3.9-3.6-3.9c-3.6,0-4.1,3.2-4.1,6v12h-3.3v-16c0-1.4-0.1-2.8-0.2-4.2h3.5v2.6H90
			c1.3-2.3,2.8-3,5.4-3c4.3,0,5.4,2.6,5.4,6.6v14H97.5z"/>
		<path d="M106.6,27h3.7v3.5h-3.7V27z M110.1,55.9h-3.3V35.7h3.3V55.9z"/>
		<path d="M127.6,38.7l-8.9,14.5h9.2v2.7h-12.8v-3.1l8.8-14.4v-0.1h-8.4v-2.7h12.1V38.7z"/>
		<path d="M142.2,53L142.2,53c-1.1,2.3-2.6,3.3-5.2,3.3c-4.3,0-5.5-2.8-5.5-6.7c0-6.1,6-6.4,10.6-6.3c0.1-2.7,0.1-5.6-3.4-5.6
			c-2.2,0-3.4,1.5-3.2,3.6h-3.6c0.2-4.5,2.6-6.1,6.9-6.1c5.2,0,6.6,2.7,6.6,6.1v9.7c0,1.6,0.2,3.2,0.4,4.8h-3.6V53z M134.7,49.9
			c0,2,1,3.7,3.2,3.7c2,0,4.5-1.2,4.2-7.8C139,45.9,134.7,45.6,134.7,49.9z"/>
		<path d="M161.7,55.9v-14c0-2.2-0.8-3.9-3.6-3.9c-3.6,0-4.1,3.2-4.1,6v12h-3.3v-16c0-1.4-0.1-2.8-0.2-4.2h3.5v2.6h0.2
			c1.3-2.3,2.8-3,5.4-3c4.3,0,5.4,2.6,5.4,6.6v14H161.7z"/>
		<path d="M171.5,35.7v-3.9l3.3-1.5v5.4h4.4v2.5h-4.4v12.4c0,1.3,0,2.9,3,2.9c0.2,0,0.8-0.1,1.5-0.2v2.5c-1.1,0.1-2.2,0.3-3.2,0.3
			c-3.1,0-4.5-1.3-4.5-3.6V38.2h-3.3v-2.5H171.5z"/>
	</g>
</g>
<g>
	<path class="st10" d="M93,138c-1.7,5.2-4.1,9.6-7.2,13.3c-3.1,3.7-6.7,6.5-11,8.6c-4.3,2-9,3-14.2,3c-5.1,0-9.8-1-14.1-3
		c-4.3-2-7.9-4.8-10.9-8.4c-3-3.6-5.4-8-7-13.2c-1.7-5.2-2.5-10.9-2.5-17.3c0-6.4,0.9-12.1,2.6-17.3c1.7-5.2,4.1-9.6,7.2-13.3
		c3.1-3.7,6.7-6.5,11-8.6c4.3-2,9-3,14.1-3c5.2,0,9.9,1,14.2,3c4.3,2,7.9,4.8,10.9,8.4c3,3.6,5.4,8,7,13.2
		c1.7,5.2,2.5,10.9,2.5,17.3C95.5,127.1,94.7,132.8,93,138z M81.4,108.4c-1.1-3.7-2.7-6.9-4.7-9.5c-2-2.6-4.4-4.6-7.2-6
		c-2.8-1.4-5.8-2.1-9-2.1s-6.2,0.7-8.9,2s-5,3.3-6.9,5.9c-1.9,2.6-3.5,5.7-4.5,9.4c-1.1,3.7-1.6,7.9-1.6,12.6
		c0,4.7,0.6,8.9,1.7,12.6c1.1,3.7,2.7,6.9,4.7,9.5c2,2.6,4.3,4.6,7.1,6c2.8,1.4,5.8,2.1,9,2.1s6.2-0.7,8.9-2s5-3.3,7-5.9
		c2-2.6,3.5-5.7,4.6-9.4c1.1-3.7,1.6-7.9,1.6-12.6S82.5,112.1,81.4,108.4z"/>
	<path class="st10" d="M145.2,161.6v-34.5c0-6.2-1.1-10.5-3.3-13c-2.2-2.5-5.3-3.7-9.2-3.7c-4,0-7.1,1.4-9.3,4.1
		c-2.2,2.7-3.2,6.5-3.2,11.5v35.6h-12.1v-61.1h12.1v5.9c1.6-2.3,3.7-4,6.5-5.3c2.8-1.3,5.7-1.9,8.9-1.9c7.1,0,12.5,2.3,16.2,6.9
		c3.7,4.6,5.5,11.4,5.5,20.5v35H145.2z"/>
	<path class="st10" d="M220.9,132.9c-0.1,1-0.2,1.8-0.2,2.4h-40.4c0.3,2.9,0.9,5.5,1.9,7.6c0.9,2.1,2.1,3.8,3.5,5.2
		c1.4,1.4,2.9,2.4,4.7,3c1.7,0.7,3.5,1,5.4,1c2.6,0,4.9-0.4,7-1.3c2.1-0.9,4.2-2.1,6.2-3.6l7.1,7.7c-2.7,2.6-5.7,4.5-9.1,5.9
		c-3.3,1.4-7.3,2.1-12,2.1c-3.6,0-7-0.7-10.2-2.1c-3.2-1.4-6-3.5-8.4-6.2c-2.4-2.7-4.3-6-5.7-10c-1.4-4-2.1-8.5-2.1-13.5
		c0-5.2,0.7-9.8,2-13.7c1.3-4,3.1-7.3,5.5-9.9c2.3-2.7,5.1-4.7,8.4-6.1c3.3-1.4,6.9-2.1,10.9-2.1c4.3,0,8.1,0.8,11.3,2.4
		c3.2,1.6,5.9,3.8,8,6.6c2.1,2.8,3.7,6,4.8,9.8c1,3.7,1.6,7.6,1.6,11.8C221,130.9,221,131.9,220.9,132.9z M207.8,119.4
		c-0.6-1.9-1.5-3.5-2.6-4.9c-1.2-1.4-2.6-2.5-4.4-3.3c-1.7-0.8-3.9-1.2-6.3-1.2c-4,0-7.2,1.3-9.6,4c-2.4,2.7-3.8,6.5-4.4,11.3h28.4
		C208.8,123.3,208.4,121.3,207.8,119.4z"/>
	<path class="st11" d="M293.5,139.3c-2.1,5.1-5,9.3-8.7,12.6c-3.6,3.3-7.9,5.7-12.6,7.3c-4.8,1.6-9.8,2.3-15.2,2.3h-22.2V80.1H257
		c5.4,0,10.6,0.8,15.4,2.3c4.8,1.6,9.1,4,12.6,7.3c3.6,3.3,6.4,7.5,8.5,12.6c2.1,5.1,3.1,11.3,3.1,18.5
		C296.7,128,295.6,134.2,293.5,139.3z M282.7,109.2c-1-3.5-2.6-6.5-4.8-9.1c-2.2-2.5-5.1-4.5-8.5-5.9c-3.5-1.4-7.6-2.1-12.4-2.1h-10
		v57.5h10c4.8,0,9-0.7,12.4-2.1c3.5-1.4,6.3-3.4,8.5-5.9c2.2-2.5,3.8-5.6,4.8-9.1c1-3.5,1.5-7.4,1.5-11.6
		C284.2,116.6,283.7,112.7,282.7,109.2z"/>
	<path class="st11" d="M358.6,132.9c-0.1,1-0.2,1.8-0.2,2.4H318c0.3,2.9,0.9,5.5,1.9,7.6c0.9,2.1,2.1,3.8,3.5,5.2
		c1.4,1.4,2.9,2.4,4.7,3c1.7,0.7,3.5,1,5.4,1c2.6,0,4.9-0.4,7-1.3c2.1-0.9,4.2-2.1,6.2-3.6l7.1,7.7c-2.7,2.6-5.7,4.5-9.1,5.9
		c-3.3,1.4-7.3,2.1-12,2.1c-3.6,0-7-0.7-10.2-2.1c-3.2-1.4-6-3.5-8.4-6.2c-2.4-2.7-4.3-6-5.7-10c-1.4-4-2.1-8.5-2.1-13.5
		c0-5.2,0.7-9.8,2-13.7c1.3-4,3.1-7.3,5.5-9.9c2.3-2.7,5.1-4.7,8.4-6.1c3.3-1.4,6.9-2.1,10.9-2.1c4.3,0,8.1,0.8,11.3,2.4
		c3.2,1.6,5.9,3.8,8,6.6c2.1,2.8,3.7,6,4.8,9.8c1,3.7,1.6,7.6,1.6,11.8C358.7,130.9,358.6,131.9,358.6,132.9z M345.5,119.4
		c-0.6-1.9-1.5-3.5-2.6-4.9c-1.2-1.4-2.6-2.5-4.4-3.3s-3.9-1.2-6.3-1.2c-4,0-7.2,1.3-9.6,4c-2.4,2.7-3.8,6.5-4.4,11.3h28.4
		C346.4,123.3,346.1,121.3,345.5,119.4z"/>
	<path class="st11" d="M396.9,161.6h-12l-21.9-61.1h12.6l10.9,33.2c1,2.9,1.9,5.8,2.7,8.4c0.8,2.7,1.4,4.9,1.8,6.6
		c0.4-1.7,0.9-3.9,1.7-6.6c0.7-2.7,1.6-5.5,2.5-8.4l10.5-33.2h12.7L396.9,161.6z"/>
	<path class="st11" d="M492.9,138c-1.7,5.2-4.1,9.6-7.2,13.3c-3.1,3.7-6.7,6.5-11,8.6c-4.3,2-9,3-14.2,3c-5.1,0-9.8-1-14.1-3
		c-4.3-2-7.9-4.8-10.9-8.4c-3-3.6-5.4-8-7-13.2c-1.7-5.2-2.5-10.9-2.5-17.3c0-6.4,0.9-12.1,2.6-17.3c1.7-5.2,4.1-9.6,7.2-13.3
		c3.1-3.7,6.7-6.5,11-8.6c4.3-2,9-3,14.1-3c5.2,0,9.9,1,14.2,3c4.3,2,7.9,4.8,10.9,8.4c3,3.6,5.4,8,7,13.2
		c1.7,5.2,2.5,10.9,2.5,17.3C495.5,127.1,494.6,132.8,492.9,138z M481.4,108.4c-1.1-3.7-2.7-6.9-4.7-9.5c-2-2.6-4.4-4.6-7.2-6
		c-2.8-1.4-5.8-2.1-9-2.1c-3.3,0-6.2,0.7-8.9,2s-5,3.3-6.9,5.9c-1.9,2.6-3.5,5.7-4.5,9.4c-1.1,3.7-1.6,7.9-1.6,12.6
		c0,4.7,0.6,8.9,1.7,12.6c1.1,3.7,2.7,6.9,4.7,9.5c2,2.6,4.3,4.6,7.1,6c2.8,1.4,5.8,2.1,9,2.1s6.2-0.7,8.9-2s5-3.3,7-5.9
		c2-2.6,3.5-5.7,4.6-9.4c1.1-3.7,1.6-7.9,1.6-12.6S482.5,112.1,481.4,108.4z"/>
	<path class="st11" d="M557.4,145.7c-1.3,3.8-3.1,7-5.3,9.6c-2.2,2.6-4.8,4.5-7.7,5.7c-2.9,1.2-6,1.9-9.1,1.9c-3.1,0-6-0.7-8.7-2.1
		c-2.7-1.4-4.9-3.1-6.6-4.9v22l-11.9,6.2v-83.5h11.9v5.9c2.2-2,4.7-3.7,7.2-5.1c2.6-1.4,5.5-2.1,8.7-2.1c3.3,0,6.3,0.6,9.2,1.9
		c2.9,1.2,5.4,3.2,7.5,5.8c2.1,2.6,3.8,6,5,10.2c1.2,4.2,1.8,9.1,1.8,14.9C559.4,137.3,558.7,141.8,557.4,145.7z M543.7,115.6
		c-2.4-3.5-5.7-5.2-10.1-5.2c-2.9,0-5.5,0.8-7.9,2.4c-2.4,1.6-4.4,3.4-5.9,5.4v25.6c0.7,0.9,1.5,1.9,2.5,2.8c1,0.9,2.1,1.8,3.4,2.5
		c1.2,0.8,2.5,1.4,3.9,1.9c1.4,0.5,2.9,0.8,4.4,0.8c4.3,0,7.6-1.6,9.8-4.8c2.2-3.2,3.4-8,3.4-14.5
		C547.3,124.6,546.1,119,543.7,115.6z"/>
	<path class="st11" d="M611.3,153.3c-1.3,2.3-3,4.1-5.1,5.5c-2.1,1.4-4.5,2.4-7.3,3c-2.8,0.6-5.6,0.9-8.7,0.9
		c-4.2,0-8.4-0.7-12.5-2.2c-4.2-1.5-7.8-3.3-10.9-5.6l5.5-9.1c2.9,2,5.8,3.5,8.9,4.5c3.1,1,6,1.5,8.9,1.5c7.4,0,11.2-2.2,11.2-6.7
		c0-2.3-1.3-4.2-3.8-5.6c-2.5-1.4-6-2.9-10.4-4.7c-3.3-1.2-6-2.5-8.3-3.8c-2.3-1.3-4.2-2.7-5.6-4.1c-1.4-1.5-2.5-3.1-3.1-4.9
		c-0.6-1.8-0.9-3.9-0.9-6.3c0-2.7,0.5-5.1,1.5-7.2c1-2.1,2.4-3.8,4.3-5.2s4.1-2.4,6.6-3.1c2.6-0.7,5.4-1,8.4-1
		c3.9,0,7.6,0.6,11.2,1.9c3.6,1.2,6.8,2.9,9.5,4.9l-5.2,9.2c-2.5-1.8-5-3.1-7.6-4c-2.6-0.9-5.3-1.3-8.3-1.3c-2.9,0-5.1,0.5-6.4,1.6
		c-1.3,1-2,2.4-2,4c0,0.8,0.2,1.5,0.5,2.2c0.3,0.7,0.9,1.3,1.7,2c0.9,0.7,2,1.4,3.4,2.2c1.4,0.7,3.3,1.6,5.6,2.5
		c3.4,1.3,6.4,2.6,9,3.8c2.6,1.2,4.7,2.6,6.5,4.1c1.7,1.5,3,3.3,3.9,5.3c0.9,2,1.3,4.5,1.3,7.3C613.2,148.2,612.6,151.1,611.3,153.3
		z"/>
	<path class="st11" d="M619.8,80h-3.4v10.3h-1.3V80h-3.4v-1.2h8V80z"/>
	<path class="st11" d="M631.6,90.2h-1.2v-7.7v-1.2c0,0.2-0.1,0.5-0.3,0.9c-0.1,0.3-0.2,0.6-0.4,1l-3.1,7.4l-3-7.4
		c-0.1-0.2-0.2-0.6-0.4-1s-0.3-0.7-0.3-0.9v1.2v7.7h-1.2V78.8l1.4,0l2.7,6.8c0.1,0.3,0.3,0.7,0.5,1.2c0.2,0.5,0.3,0.9,0.3,1
		c0.1-0.3,0.2-0.6,0.4-1c0-0.1,0.2-0.4,0.4-1.2l2.7-6.8l1.4,0V90.2z"/>
</g>
<g>
	<path class="st11" d="M466.6,230.1h-3.5v-31.5h3.5V230.1z"/>
	<path class="st11" d="M492.7,230.1h-3.4v-13.8c0-4.9-1.9-7.4-5.6-7.4c-1.7,0-3.1,0.6-4.1,1.7c-1.1,1.3-1.7,3.2-1.7,5.7v13.8h-3.4
		v-23.6h3.4v2.9c0.7-1,1.6-1.8,2.7-2.5c1.1-0.6,2.4-0.9,3.8-0.9c2.6,0,4.6,0.8,6.1,2.4c1.5,1.6,2.2,4,2.2,7.4V230.1z"/>
	<path class="st11" d="M514.4,224c0,2.2-0.8,3.8-2.5,5.1c-1.5,1.1-3.4,1.6-5.6,1.6c-1.6,0-3.1-0.3-4.4-0.8s-2.7-1.3-3.9-2.3l2-2.5
		c1,0.9,2,1.5,3,2c1.1,0.4,2.2,0.7,3.4,0.7c1.6,0,2.8-0.3,3.6-0.9c0.8-0.6,1.2-1.5,1.2-2.7c0-0.9-0.4-1.7-1.2-2.4
		c-0.8-0.7-2.3-1.5-4.4-2.4c-2.5-1.1-4.2-2.1-5.1-3c-1.1-1.1-1.6-2.5-1.6-4.3s0.7-3.3,2.1-4.4c1.4-1.1,3.1-1.7,5.3-1.7
		c1.6,0,3,0.2,4.2,0.7c1.2,0.4,2.3,1.1,3.3,1.9l-1.9,2.5c-0.9-0.7-1.8-1.3-2.7-1.6c-0.9-0.3-2-0.5-3.2-0.5c-1.2,0-2.2,0.3-2.9,0.8
		c-0.7,0.5-1,1.2-1,2.1c0,1,0.3,1.7,1,2.3c0.7,0.6,2.1,1.3,4.2,2.3c2.7,1.2,4.4,2.2,5.2,2.9C513.8,220.5,514.4,222,514.4,224z"/>
	<path class="st11" d="M524.9,199.9c0,0.7-0.2,1.2-0.7,1.7c-0.5,0.5-1,0.7-1.6,0.7c-0.7,0-1.3-0.2-1.8-0.7c-0.5-0.5-0.7-1-0.7-1.7
		c0-0.7,0.2-1.2,0.7-1.7c0.5-0.5,1.1-0.7,1.8-0.7c0.6,0,1.2,0.2,1.6,0.7C524.6,198.6,524.9,199.2,524.9,199.9z M524.2,230.1h-3.4
		v-23.6h3.4V230.1z"/>
	<path class="st11" d="M549.3,228c0,3.7-0.9,6.3-2.7,8.1c-1.9,1.8-5,2.7-9.3,2.7l-1.1-2.6c3.8,0,6.4-0.6,7.7-1.7c1.3-1.2,2-3.2,2-6.1
		v-1.2c-0.9,1-1.9,1.8-3,2.4c-1.3,0.7-2.7,1-4.1,1c-2.5,0-4.5-0.9-6-2.8c-1.7-2.1-2.5-5.1-2.5-9.1c0-4.1,0.9-7.2,2.6-9.5
		c1.6-2.1,3.7-3.2,6.3-3.2c1.4,0,2.7,0.3,3.8,0.9c1,0.5,1.9,1.2,2.8,2.3v-2.7h3.4V228z M545.9,224.3v-11.8c-0.7-1.1-1.6-1.9-2.7-2.6
		c-1.1-0.7-2.3-1-3.7-1c-1.9,0-3.4,0.8-4.3,2.5c-1,1.7-1.5,4.1-1.5,7.3c0,2.9,0.5,5.2,1.5,6.7c1,1.5,2.5,2.3,4.4,2.3
		c1.2,0,2.3-0.3,3.4-0.9C544.1,226.3,545,225.4,545.9,224.3z"/>
	<path class="st11" d="M574.7,230.1h-3.4v-13.8c0-4.9-1.9-7.4-5.6-7.4c-1.7,0-3.1,0.6-4.1,1.7c-1.1,1.3-1.7,3.2-1.7,5.7v13.8h-3.4
		v-30.9l3.4-1.9v12c0.7-1,1.6-1.8,2.7-2.5c1.1-0.6,2.4-0.9,3.8-0.9c2.6,0,4.6,0.8,6.1,2.4c1.5,1.6,2.2,4,2.2,7.4V230.1z"/>
	<path class="st11" d="M591.8,209.3h-5.9v15.4c0,1.1,0.2,1.8,0.5,2.2c0.3,0.4,1,0.6,1.9,0.6c1.1,0,2.3-0.2,3.3-0.7l-0.2,2.9
		c-1.3,0.5-2.8,0.8-4.4,0.8c-1.5,0-2.6-0.4-3.3-1.2c-0.8-0.9-1.2-2.3-1.2-4.2v-16h-2.9v-2.8h2.9v-7.3l3.4-1.9v9.1h5.9V209.3z"/>
	<path class="st11" d="M612.4,224c0,2.2-0.8,3.8-2.5,5.1c-1.5,1.1-3.4,1.6-5.6,1.6c-1.6,0-3.1-0.3-4.4-0.8s-2.7-1.3-3.9-2.3l2-2.5
		c1,0.9,2,1.5,3,2c1.1,0.4,2.2,0.7,3.4,0.7c1.6,0,2.8-0.3,3.6-0.9c0.8-0.6,1.2-1.5,1.2-2.7c0-0.9-0.4-1.7-1.2-2.4
		c-0.8-0.7-2.3-1.5-4.4-2.4c-2.5-1.1-4.2-2.1-5.1-3c-1.1-1.1-1.6-2.5-1.6-4.3s0.7-3.3,2.1-4.4c1.4-1.1,3.1-1.7,5.3-1.7
		c1.6,0,3,0.2,4.2,0.7c1.2,0.4,2.3,1.1,3.3,1.9L610,211c-0.9-0.7-1.8-1.3-2.7-1.6c-0.9-0.3-2-0.5-3.2-0.5c-1.2,0-2.2,0.3-2.9,0.8
		c-0.7,0.5-1,1.2-1,2.1c0,1,0.3,1.7,1,2.3c0.7,0.6,2.1,1.3,4.2,2.3c2.7,1.2,4.4,2.2,5.2,2.9C611.8,220.5,612.4,222,612.4,224z"/>
</g>
</svg>
