<svg xmlns="http://www.w3.org/2000/svg" width="10" height="10" viewBox="0 0 20 20">
  <g id="Group_38115" data-name="Group 38115" transform="translate(-1293 -893)">
    <path id="Path_16490" data-name="Path 16490" d="M10,.313a10,10,0,1,0,10,10A10.011,10.011,0,0,0,10,.313Zm0,17.663a7.663,7.663,0,1,1,7.663-7.663A7.671,7.671,0,0,1,10,17.976Z" transform="translate(1293 892.688)"/>
    <path id="Path_16491" data-name="Path 16491" d="M42.319,37.92H39.631V35.233a1.012,1.012,0,0,0-2.024,0V37.92H34.92a1.012,1.012,0,1,0,0,2.024h2.688v2.688a1.012,1.012,0,1,0,2.024,0V39.944h2.688a1.012,1.012,0,0,0,0-2.024Z" transform="translate(1264.092 863.779)"/>
  </g>
</svg>
