<svg xmlns="http://www.w3.org/2000/svg" width="24.054" height="20.479" viewBox="0 0 24.054 20.479">
  <path id="time-reverse" d="M1639.413,4252.24a10.207,10.207,0,0,1-10.151,10.238,10.026,10.026,0,0,1-5.746-1.8,1.049,1.049,0,0,1,1.189-1.728,7.959,7.959,0,0,0,4.557,1.424,8.139,8.139,0,1,0-8.052-8.433l2.439-2.462a1.042,1.042,0,0,1,1.479,0,1.053,1.053,0,0,1,0,1.485l-3.992,4.03a1.044,1.044,0,0,1-1.483,0l-3.993-4.03a1.053,1.053,0,0,1,0-1.485,1.042,1.042,0,0,1,1.479,0l1.994,2.014a10.147,10.147,0,0,1,20.272.743Zm-10.2-5.959a1.048,1.048,0,0,0-1.046,1.05v4.91a1.076,1.076,0,0,0,.328.74l2.247,2.257a1.056,1.056,0,0,0,.748.31,1.04,1.04,0,0,0,.722-1.792l-1.952-1.948v-4.476A1.048,1.048,0,0,0,1629.216,4246.281Z" transform="translate(-1615.359 -4242)"/>
</svg>
