<svg xmlns="http://www.w3.org/2000/svg" width="20.045" height="20.056" viewBox="0 0 20.045 20.056">
  <g id="noun-save-1126638" transform="translate(-122.502 -52.261)">
    <path id="Path_15955" data-name="Path 15955" d="M127.116,52.261a.752.752,0,0,0-.141.017c-.7,0-1.325.017-1.833.074a2.494,2.494,0,0,0-2.561,2.563,26.706,26.706,0,0,0-.078,2.754V66.92a26.541,26.541,0,0,0,.08,2.757,2.494,2.494,0,0,0,2.563,2.561,26.708,26.708,0,0,0,2.754.078h9.252a26.545,26.545,0,0,0,2.757-.08,2.494,2.494,0,0,0,2.561-2.563,26.7,26.7,0,0,0,.078-2.754V59.21a5.04,5.04,0,0,0-.345-2.4,9.6,9.6,0,0,0-1.936-2.256,9.645,9.645,0,0,0-2.25-1.938,4.8,4.8,0,0,0-2.286-.343h0a.766.766,0,0,0-.236,0h-7.6c-.236,0-.414,0-.628,0a.769.769,0,0,0-.155-.013Zm.783,1.552h6.939V56.9H127.9Zm-1.542.012V57.67a.771.771,0,0,0,.771.771h8.481a.771.771,0,0,0,.771-.771V53.833a2.42,2.42,0,0,1,.944.163,10.155,10.155,0,0,1,1.851,1.647l0,0a10.047,10.047,0,0,1,1.647,1.855,3.828,3.828,0,0,1,.182,1.711v7.71c0,1.153,0,2.008-.069,2.582a1.035,1.035,0,0,1-1.2,1.2c-.575.065-1.43.069-2.584.069H127.9c-1.153,0-2.008,0-2.582-.069a1.035,1.035,0,0,1-1.2-1.2c-.065-.575-.069-1.43-.069-2.584V57.668c0-1.153,0-2.008.069-2.582a1.035,1.035,0,0,1,1.2-1.2c.279-.031.63-.048,1.042-.057Z" transform="translate(0 0)"/>
    <path id="Path_15956" data-name="Path 15956" d="M283.084,280a3.084,3.084,0,1,0,3.084,3.084A3.1,3.1,0,0,0,283.084,280Zm0,1.542a1.542,1.542,0,1,1-1.542,1.542A1.53,1.53,0,0,1,283.084,281.542Z" transform="translate(-150.559 -217.706)"/>
  </g>
</svg>
