<svg xmlns="http://www.w3.org/2000/svg" width="19.995" height="19.997" viewBox="0 0 19.995 19.997">
  <g id="noun-feed-3025525" transform="translate(-128.95 -58.898)">
    <path id="Path_16064" data-name="Path 16064" d="M131.6,389.208a2.649,2.649,0,1,1,2.649-2.649A2.652,2.652,0,0,1,131.6,389.208Zm0-3.814a1.165,1.165,0,1,0,1.165,1.165A1.165,1.165,0,0,0,131.6,385.394Z" transform="translate(0 -310.313)"/>
    <path id="Path_16065" data-name="Path 16065" d="M194.911,286.411h-1.484a5.915,5.915,0,0,0-5.909-5.909v-1.484a7.393,7.393,0,0,1,7.393,7.393Z" transform="translate(-55.919 -210.165)"/>
    <path id="Path_16066" data-name="Path 16066" d="M199.9,181.2h-1.484a10.906,10.906,0,0,0-10.893-10.893v-1.484A12.368,12.368,0,0,1,199.9,181.2Z" transform="translate(-55.929 -104.958)"/>
    <path id="Path_16067" data-name="Path 16067" d="M204.816,76.246h-1.484a15.882,15.882,0,0,0-15.864-15.864V58.9a17.337,17.337,0,0,1,17.348,17.348Z" transform="translate(-55.871 0)"/>
  </g>
</svg>
