<svg xmlns="http://www.w3.org/2000/svg" width="24.104" height="24.104" viewBox="0 0 24.104 24.104">
  <g id="Group_38165" data-name="Group 38165" transform="translate(-486.961 -462.561)">
    <path id="Path_16131" data-name="Path 16131" d="M117.059,35.008a12.052,12.052,0,1,0,12.055,12.049A12.059,12.059,0,0,0,117.059,35.008Zm0,1.722a10.33,10.33,0,1,1-10.327,10.327A10.316,10.316,0,0,1,117.059,36.73Z" transform="translate(381.951 427.553)" fill="#00389d"/>
    <path id="Path_16132" data-name="Path 16132" d="M245.04,279.94v6.889h10.327V279.94Zm1.722,1.722h6.883v3.444h-6.883Z" transform="translate(248.809 194.67)" fill="#00389d"/>
    <path id="Path_16133" data-name="Path 16133" d="M266.785,140.04a4.093,4.093,0,0,0-3.781,2.2,5.09,5.09,0,0,0-.521,2.1v3.444H264.2v-3.444a3.442,3.442,0,0,1,.337-1.335,2.643,2.643,0,0,1,4.487,0,3.519,3.519,0,0,1,.343,1.335v3.444h1.722v-3.444a5.093,5.093,0,0,0-.521-2.1,4.1,4.1,0,0,0-3.787-2.2Z" transform="translate(232.225 327.688)" fill="#00389d"/>
  </g>
</svg>
