<svg xmlns="http://www.w3.org/2000/svg" width="24.098" height="24.09" viewBox="0 0 24.098 24.09">
  <g id="Group_38166" data-name="Group 38166" transform="translate(-486.966 -351.58)">
    <path id="Path_16129" data-name="Path 16129" d="M154.691,72.727a12.043,12.043,0,0,0-9.651,19.25.726.726,0,0,0,.05.073,11.946,11.946,0,0,0,8.361,4.709h.03l.255.022.1.007c.068,0,.137.01.206.014l.165.007.157.007h.657l.158-.007.164-.007c.069,0,.138-.008.206-.014l.1-.007.255-.022h.031a11.952,11.952,0,0,0,8.361-4.709.756.756,0,0,0,.049-.073,12.043,12.043,0,0,0-9.657-19.251Zm.534,22.39h-.047l-.217.009h-.534l-.217-.009h-.047a10.331,10.331,0,0,1-7.218-3.486,12.193,12.193,0,0,1,15.505,0,10.338,10.338,0,0,1-7.222,3.486Zm8.236-4.843h0a13.888,13.888,0,0,0-17.54,0,10.354,10.354,0,1,1,17.54,0Z" transform="translate(344.321 278.854)" fill="#00389d"/>
    <path id="Path_16130" data-name="Path 16130" d="M271.963,131.119a4.811,4.811,0,1,0,3.4,1.407,4.808,4.808,0,0,0-3.4-1.407Zm0,7.919a3.115,3.115,0,1,1,2.2-.913,3.113,3.113,0,0,1-2.2.913Z" transform="translate(227.051 223.855)" fill="#00389d"/>
  </g>
</svg>
