<svg id="noun-calendar-428406" xmlns="http://www.w3.org/2000/svg" width="16.005" height="16.005" viewBox="0 0 16.005 16.005">
  <path id="Path_15907" data-name="Path 15907" d="M84.4,52.268H71.6a1.6,1.6,0,0,1-1.6-1.6V38.93a1.488,1.488,0,0,1,1.334-1.6h.8V38.4h-.8c-.092,0-.267.208-.267.533V50.668a.534.534,0,0,0,.534.534H84.4a.534.534,0,0,0,.534-.534V38.93c0-.325-.175-.533-.267-.533h-.8V37.33h.8a1.488,1.488,0,0,1,1.334,1.6V50.668a1.6,1.6,0,0,1-1.6,1.6" transform="translate(-70 -36.263)" fill-rule="evenodd"/>
  <path id="Path_15908" data-name="Path 15908" d="M182.536,3.2A.534.534,0,0,1,182,2.668V.534a.534.534,0,1,1,1.067,0V2.668a.534.534,0,0,1-.533.534" transform="translate(-178.801)" fill-rule="evenodd"/>
  <path id="Path_15909" data-name="Path 15909" d="M481.2,3.2a.534.534,0,0,1-.533-.534V.534a.534.534,0,1,1,1.067,0V2.668a.534.534,0,0,1-.534.534" transform="translate(-468.929)" fill-rule="evenodd"/>
  <path id="Path_15910" data-name="Path 15910" d="M256.67,37.332H262V38.4H256.67Z" transform="translate(-251.335 -36.265)" fill-rule="evenodd"/>
  <path id="Path_15911" data-name="Path 15911" d="M107.33,149.33H121.2V150.4H107.33Z" transform="translate(-106.263 -145.062)" fill-rule="evenodd"/>
  <path id="Path_15912" data-name="Path 15912" d="M518,224h1.067v1.067H518Z" transform="translate(-505.196 -217.598)" fill-rule="evenodd"/>
  <path id="Path_15913" data-name="Path 15913" d="M443.33,224H444.4v1.067H443.33Z" transform="translate(-432.66 -217.598)" fill-rule="evenodd"/>
  <path id="Path_15914" data-name="Path 15914" d="M368.67,224h1.067v1.067H368.67Z" transform="translate(-360.134 -217.598)" fill-rule="evenodd"/>
  <path id="Path_15915" data-name="Path 15915" d="M294,224h1.067v1.067H294Z" transform="translate(-287.598 -217.598)" fill-rule="evenodd"/>
  <path id="Path_15916" data-name="Path 15916" d="M219.33,224H220.4v1.067H219.33Z" transform="translate(-215.062 -217.598)" fill-rule="evenodd"/>
  <path id="Path_15917" data-name="Path 15917" d="M518,298.67h1.067v1.067H518Z" transform="translate(-505.196 -290.134)" fill-rule="evenodd"/>
  <path id="Path_15918" data-name="Path 15918" d="M443.33,298.67H444.4v1.067H443.33Z" transform="translate(-432.66 -290.134)" fill-rule="evenodd"/>
  <path id="Path_15919" data-name="Path 15919" d="M368.67,298.67h1.067v1.067H368.67Z" transform="translate(-360.134 -290.134)" fill-rule="evenodd"/>
  <path id="Path_15920" data-name="Path 15920" d="M294,298.67h1.067v1.067H294Z" transform="translate(-287.598 -290.134)" fill-rule="evenodd"/>
  <path id="Path_15921" data-name="Path 15921" d="M219.33,298.67H220.4v1.067H219.33Z" transform="translate(-215.062 -290.134)" fill-rule="evenodd"/>
  <path id="Path_15922" data-name="Path 15922" d="M144.67,298.67h1.067v1.067H144.67Z" transform="translate(-142.536 -290.134)" fill-rule="evenodd"/>
  <path id="Path_15923" data-name="Path 15923" d="M518,373.33h1.067V374.4H518Z" transform="translate(-505.196 -362.66)" fill-rule="evenodd"/>
  <path id="Path_15924" data-name="Path 15924" d="M443.33,373.33H444.4V374.4H443.33Z" transform="translate(-432.66 -362.66)" fill-rule="evenodd"/>
  <path id="Path_15925" data-name="Path 15925" d="M368.67,373.33h1.067V374.4H368.67Z" transform="translate(-360.134 -362.66)" fill-rule="evenodd"/>
  <path id="Path_15926" data-name="Path 15926" d="M294,373.33h1.067V374.4H294Z" transform="translate(-287.598 -362.66)" fill-rule="evenodd"/>
  <path id="Path_15927" data-name="Path 15927" d="M219.33,373.33H220.4V374.4H219.33Z" transform="translate(-215.062 -362.66)" fill-rule="evenodd"/>
  <path id="Path_15928" data-name="Path 15928" d="M144.67,373.33h1.067V374.4H144.67Z" transform="translate(-142.536 -362.66)" fill-rule="evenodd"/>
  <path id="Path_15929" data-name="Path 15929" d="M443.33,448H444.4v1.067H443.33Z" transform="translate(-432.66 -435.196)" fill-rule="evenodd"/>
  <path id="Path_15930" data-name="Path 15930" d="M368.67,448h1.067v1.067H368.67Z" transform="translate(-360.134 -435.196)" fill-rule="evenodd"/>
  <path id="Path_15931" data-name="Path 15931" d="M294,448h1.067v1.067H294Z" transform="translate(-287.598 -435.196)" fill-rule="evenodd"/>
  <path id="Path_15932" data-name="Path 15932" d="M219.33,448H220.4v1.067H219.33Z" transform="translate(-215.062 -435.196)" fill-rule="evenodd"/>
  <path id="Path_15933" data-name="Path 15933" d="M144.67,448h1.067v1.067H144.67Z" transform="translate(-142.536 -435.196)" fill-rule="evenodd"/>
</svg>
