<svg xmlns="http://www.w3.org/2000/svg" width="24" height="20.433" viewBox="0 0 24 20.433">
  <path id="time-reverse" d="M1639.359,4252.217a10.184,10.184,0,0,1-10.128,10.216,10.005,10.005,0,0,1-5.733-1.793,1.046,1.046,0,0,1,1.186-1.724,7.94,7.94,0,0,0,4.547,1.421,8.121,8.121,0,1,0-8.034-8.414l2.433-2.456a1.039,1.039,0,0,1,1.475,0,1.051,1.051,0,0,1,0,1.482l-3.984,4.021a1.039,1.039,0,0,1-1.479,0l-3.984-4.021a1.051,1.051,0,0,1,0-1.482,1.04,1.04,0,0,1,1.476,0l1.99,2.009a10.124,10.124,0,0,1,20.227.741Zm-10.174-5.946a1.046,1.046,0,0,0-1.044,1.047v4.9a1.073,1.073,0,0,0,.327.738l2.242,2.252a1.041,1.041,0,1,0,1.466-1.479l-1.948-1.944v-4.466A1.046,1.046,0,0,0,1629.185,4246.271Z" transform="translate(-1615.359 -4242)" />
</svg>
