<svg xmlns="http://www.w3.org/2000/svg" width="20" height="20" viewBox="0 0 20 20">
  <path id="view-thumb" d="M514.479,2031.613h-6.2a1.388,1.388,0,0,1-1.279-1.474v-5.665a1.388,1.388,0,0,1,1.279-1.473h6.2a1.389,1.389,0,0,1,1.279,1.474v5.665A1.388,1.388,0,0,1,514.479,2031.613Zm-5.661-2.105h5.122v-4.4h-5.122Zm16.9,2.105h-6.2a1.388,1.388,0,0,1-1.279-1.474v-5.665a1.388,1.388,0,0,1,1.279-1.473h6.2a1.389,1.389,0,0,1,1.279,1.474v5.665A1.388,1.388,0,0,1,525.721,2031.613Zm-5.661-2.105h5.122v-4.4H520.06ZM514.479,2043h-6.2a1.388,1.388,0,0,1-1.279-1.474v-5.665a1.388,1.388,0,0,1,1.279-1.474h6.2a1.388,1.388,0,0,1,1.279,1.474v5.665A1.388,1.388,0,0,1,514.479,2043Zm-5.661-2.105h5.122v-4.4h-5.122Zm16.9,2.105h-6.2a1.388,1.388,0,0,1-1.279-1.474v-5.665a1.388,1.388,0,0,1,1.279-1.474h6.2a1.388,1.388,0,0,1,1.279,1.474v5.665A1.388,1.388,0,0,1,525.721,2043Zm-5.661-2.105h5.122v-4.4H520.06Z" transform="translate(-507 -2023)"/>
</svg>
