<svg xmlns="http://www.w3.org/2000/svg" width="17.012" height="18.001" viewBox="0 0 17.012 18.001">
  <path id="trash" d="M1633.914,1799.813l-.6,11.438a.791.791,0,0,1-.79.75h-10.029a.791.791,0,0,1-.79-.75l-.6-11.438a.791.791,0,0,1,1.58-.083l.564,10.689h8.528l.564-10.689a.791.791,0,0,1,1.58.083Zm2.1-2.648a.792.792,0,0,1-.791.791h-15.429a.791.791,0,0,1,0-1.583h4.352v-1.78a.569.569,0,0,1,.637-.594h5.451a.569.569,0,0,1,.638.594v1.78h4.352A.791.791,0,0,1,1636.012,1797.165Zm-10.484-.791h3.956v-.989h-3.956Zm.332,12.858h.016a.724.724,0,0,0,.676-.75l-.2-8.552a.7.7,0,0,0-.708-.686.688.688,0,0,0-.676.7l.2,8.57A.727.727,0,0,0,1625.86,1809.232Zm3.262,0a.709.709,0,0,0,.692-.695l.2-8.541a.7.7,0,0,0-.676-.713.689.689,0,0,0-.709.674l-.2,8.549a.7.7,0,0,0,.676.726Z" transform="translate(-1619 -1794)" fill="#d31a27"/>
</svg>
