<svg xmlns="http://www.w3.org/2000/svg" width="14.744" height="18" viewBox="0 0 14.744 18">
  <g id="noun-warning-notification-4130500" transform="translate(-192.322 -87.499)">
    <path id="Path_16098" data-name="Path 16098" d="M203.867,101.408h-9a2.528,2.528,0,0,1-2.536-2.242,2.454,2.454,0,0,1,1.227-2.332V93.226a5.727,5.727,0,0,1,5.727-5.727h.818a5.727,5.727,0,0,1,5.727,5.727v3.608a2.454,2.454,0,0,1,1.227,2.332c-.1,1.08-.982,2.242-3.191,2.242Zm-4.582-12.273a4.091,4.091,0,0,0-4.091,4.091v4.148a.819.819,0,0,1-.614.818.818.818,0,0,0-.614.834.9.9,0,0,0,.916.745h9c.344,0,1.489-.057,1.555-.745a.818.818,0,0,0-.63-.892.818.818,0,0,1-.614-.818V93.226a4.091,4.091,0,0,0-4.091-4.091Z" fill="#fe8822"/>
    <path id="Path_16099" data-name="Path 16099" d="M283.273,422.455c-1.833,0-3.273-1.08-3.273-2.455h1.636c0,.335.638.818,1.636.818s1.636-.483,1.636-.818h1.636C286.545,421.374,285.105,422.455,283.273,422.455Z" transform="translate(-83.578 -316.956)" fill="#fe8822"/>
    <path id="Path_16100" data-name="Path 16100" d="M333.318,178.273a.818.818,0,0,1-.818-.818v-1.636a.818.818,0,1,1,1.636,0v1.636a.818.818,0,0,1-.818.818Z" transform="translate(-133.624 -83.41)" fill="#fe8822"/>
    <path id="Path_16101" data-name="Path 16101" d="M334.136,263.318a.818.818,0,1,1-.818-.818.818.818,0,0,1,.818.818" transform="translate(-133.624 -166.819)" fill="#fe8822"/>
  </g>
</svg>
