<?xml version="1.0" encoding="utf-8"?>
<!-- Generator: Adobe Illustrator 19.2.1, SVG Export Plug-In . SVG Version: 6.00 Build 0)  -->
<svg version="1.1" id="Layer_1" xmlns="http://www.w3.org/2000/svg" xmlns:xlink="http://www.w3.org/1999/xlink" x="0px" y="0px"
	 viewBox="0 0 40 40" style="enable-background:new 0 0 40 40;" xml:space="preserve">
<style type="text/css">
	.st0{fill:none;}
	.st1{fill:#387C2C;}
</style>
<g>
	<path class="st0" d="M2.8,29.1h34.5V4.4H2.8V29.1z M23.9,13.9c-0.2-0.5-0.2-0.9,0-1.2c0.5-0.2,0.9-0.2,1.2,0l4.2,4.2
		c0.2,0.1,0.2,0.5,0.2,0.6c0,0.2-0.1,0.5-0.2,0.6l-4.2,4.2c-0.5,0.2-0.9,0.2-1.2,0c-0.2-0.2-0.2-0.7,0-0.9l3.7-3.7L23.9,13.9z
		 M18,21.6l2.2-8.9c0.1-0.5,0.6-0.6,1-0.5c0.5,0.1,0.6,0.6,0.5,1l-2.2,8.9c-0.1,0.5-0.6,0.6-1,0.5C18,22.5,17.9,22,18,21.6z
		 M10.6,17.1c0-0.2,0.1-0.5,0.2-0.6l4.2-4.2c0.5-0.2,0.9-0.2,1.2,0c0.2,0.5,0.2,0.9,0,1.2l-3.7,3.7l3.7,3.7c0.2,0.5,0.2,0.9,0,1.2
		c-0.5,0.2-0.9,0.2-1.2,0L10.7,18C10.6,17.9,10.5,17.6,10.6,17.1z"/>
	<rect x="2.8" y="30.3" class="st0" width="34.5" height="5.2"/>
	<path class="st1" d="M15,22.2c0.2,0.2,0.7,0.2,1.2,0c0.2-0.2,0.2-0.7,0-1.2l-3.7-3.7l3.7-3.7c0.2-0.2,0.2-0.7,0-1.2
		c-0.2-0.2-0.7-0.2-1.2,0l-4.2,4.2c-0.1,0.1-0.2,0.2-0.2,0.6c-0.1,0.5,0,0.7,0.1,0.9L15,22.2z"/>
	<path class="st1" d="M18.5,22.7c0.5,0.1,0.9,0,1-0.5l2.2-8.9c0.1-0.5,0-0.9-0.5-1c-0.5-0.1-0.9,0-1,0.5L18,21.7
		C17.9,22,18,22.5,18.5,22.7z"/>
	<path class="st1" d="M36.9,3H3.1C2.3,3,1.4,3.7,1.4,4.9v30.4c0,0.9,0.7,1.7,1.7,1.7h12.2h1.4h6.6h1.4h12.2c0.9,0,1.7-0.7,1.7-1.7
		V4.9C38.6,3.7,37.9,3,36.9,3z M37.3,35.5H2.8v-5.2h34.5C37.3,30.3,37.3,35.5,37.3,35.5z M37.3,29.1H2.8V4.4h34.5
		C37.3,4.4,37.3,29.1,37.3,29.1z"/>
	<path class="st1" d="M23.9,22.2c0.2,0.2,0.7,0.2,1.2,0l4.2-4.2c0.1-0.1,0.2-0.2,0.2-0.6c0-0.1,0-0.5-0.2-0.6l-4.2-4.2
		c-0.2-0.2-0.7-0.2-1.2,0c-0.2,0.2-0.2,0.7,0,1.2l3.7,3.7l-3.7,3.7C23.6,21.5,23.6,22,23.9,22.2z"/>
</g>
</svg>
