<?xml version="1.0" encoding="utf-8"?>
<!-- Generator: Adobe Illustrator 19.2.1, SVG Export Plug-In . SVG Version: 6.00 Build 0)  -->
<svg version="1.1" id="Layer_1" xmlns="http://www.w3.org/2000/svg" xmlns:xlink="http://www.w3.org/1999/xlink" x="0px" y="0px"
	 viewBox="0 0 40 40" style="enable-background:new 0 0 40 40;" xml:space="preserve">
<style type="text/css">
	.st0{fill:none;}
	.st1{fill:#757575;}
</style>
<g>
	<path class="st0" d="M27.9,8.8H2.4v3.9h25.5V8.8z M5.4,11.5c-0.5,0-0.7-0.4-0.7-0.8C4.6,10.3,5,10,5.4,10c0.4,0,0.8,0.4,0.8,0.8
		C6.1,11.3,5.8,11.5,5.4,11.5z M9,11.5c-0.5,0-0.8-0.4-0.8-0.8C8.3,10.3,8.6,10,9,10c0.5,0,0.8,0.4,0.8,0.8
		C9.9,11.3,9.5,11.5,9,11.5z M12.8,11.5c-0.5,0-0.8-0.4-0.8-0.8c0-0.5,0.4-0.8,0.8-0.8c0.5,0,0.8,0.4,0.8,0.8
		C13.6,11.3,13.3,11.5,12.8,11.5z"/>
	<path class="st0" d="M21.9,21.4c0-1.6,0.5-3.3,1.7-4.4c1.3-1.1,2.6-1.6,4.1-1.8l0,0v-1.6H2.4v17.6h25.5v-3.6l0,0
		c-1.5,0-3.1-0.6-4.1-1.8C22.6,24.6,21.9,23.1,21.9,21.4z M12.6,24.3c0.2,0.3,0.2,0.5,0,0.6c-0.3,0.3-0.5,0.3-0.6,0l-2.3-2.3
		c-0.1-0.1-0.1-0.3-0.1-0.4s0-0.3,0.1-0.4l2.3-2.2c0.2-0.3,0.5-0.3,0.6,0c0.2,0.1,0.2,0.5,0,0.6l-2,2L12.6,24.3z M15.9,20l-1.3,5
		c-0.1,0.3-0.4,0.4-0.5,0.3c-0.3-0.1-0.4-0.4-0.3-0.5l1.3-5c0.1-0.3,0.4-0.4,0.5-0.3C15.9,19.5,16,19.8,15.9,20z M20,22.6L17.6,25
		c-0.3,0.3-0.5,0.3-0.6,0c-0.3-0.3-0.3-0.5,0-0.6l2-2l-2-2c-0.3-0.3-0.3-0.5,0-0.6c0.3-0.3,0.5-0.3,0.6,0l2.2,2.2
		c0.1,0.1,0.1,0.3,0.1,0.4C20,22.5,20,22.5,20,22.6z"/>
	<path class="st0" d="M31.6,17.9c-0.9-0.9-2.3-1.4-3.5-1.4s-2.5,0.5-3.5,1.4c-0.9,0.9-1.4,2.2-1.4,3.5s0.5,2.5,1.4,3.5
		c0.9,0.9,2.2,1.4,3.5,1.4s2.5-0.5,3.5-1.4c1-1,1.5-2.2,1.4-3.5C33,20.1,32.6,18.9,31.6,17.9z"/>
	<path class="st1" d="M15.6,19.5c-0.3-0.1-0.5,0-0.5,0.3l-1.2,5c-0.1,0.3,0,0.5,0.2,0.5c0.3,0.1,0.5,0,0.5-0.3l1.3-5
		C16,19.8,15.9,19.5,15.6,19.5z"/>
	<path class="st1" d="M12.6,19.6c-0.3-0.3-0.5-0.3-0.6,0l-2.3,2.2c-0.1,0.1-0.1,0.3-0.1,0.4s0,0.3,0.1,0.4l2.3,2.2
		c0.2,0.3,0.5,0.3,0.6,0c0.2-0.3,0.2-0.5,0-0.6l-2-2l2-2C12.9,20.1,12.9,19.8,12.6,19.6z"/>
	<path class="st1" d="M17.6,19.6c-0.3-0.3-0.5-0.3-0.6,0c-0.1,0.3-0.3,0.5,0,0.6l2,2l-2,2c-0.3,0.3-0.3,0.5,0,0.6
		c0.3,0.3,0.5,0.3,0.6,0l2.2-2.3c0.1-0.1,0.1-0.3,0.1-0.4c0-0.1,0-0.3-0.1-0.4L17.6,19.6z"/>
	<circle class="st1" cx="5.4" cy="10.8" r="0.8"/>
	<circle class="st1" cx="9" cy="10.8" r="0.8"/>
	<circle class="st1" cx="12.8" cy="10.8" r="0.8"/>
	<path class="st1" d="M38.6,31.3l-5.9-5.9l0.1-0.1c0.9-1.1,1.4-2.4,1.4-3.9c0-1.6-0.6-3.3-1.8-4.4c-1-1-2.2-1.5-3.6-1.7l0,0V9.1
		c0-0.6-0.5-1.4-1.4-1.4h-25c-0.6,0-1.4,0.5-1.4,1.4v21.7c0,0.6,0.5,1.4,1.4,1.4h25c0.6,0,1.4-0.5,1.4-1.4v-3.3
		c1.1-0.1,2.2-0.5,3.1-1.4l0.1-0.1l5.8,5.8L38,32c0.1,0,0.3,0.1,0.4,0.1c0.4,0,0.5-0.3,0.5-0.5C38.6,31.4,38.6,31.3,38.6,31.3z
		 M2.4,8.8h25.5v3.9H2.4V8.8z M27.9,27.6v3.6H2.4V13.6h25.5v1.6l0,0c-1.5,0.1-3,0.6-4.1,1.7c-1.3,1.3-1.8,2.8-1.8,4.4
		s0.6,3.3,1.8,4.4C24.7,26.9,26.4,27.6,27.9,27.6L27.9,27.6z M31.6,25c-1,1-2.3,1.4-3.5,1.4s-2.6-0.5-3.5-1.4c-1-1-1.4-2.3-1.4-3.5
		c0-1.3,0.5-2.6,1.4-3.5c1-1,2.2-1.4,3.5-1.4s2.6,0.5,3.5,1.4c1,1,1.4,2.3,1.4,3.5C33.1,22.8,32.6,24,31.6,25z"/>
</g>
</svg>
