<?xml version="1.0" encoding="utf-8"?>
<!-- Generator: Adobe Illustrator 15.0.0, SVG Export Plug-In . SVG Version: 6.00 Build 0)  -->
<!DOCTYPE svg PUBLIC "-//W3C//DTD SVG 1.1//EN" "http://www.w3.org/Graphics/SVG/1.1/DTD/svg11.dtd">
<svg version="1.1"  xmlns="http://www.w3.org/2000/svg" xmlns:xlink="http://www.w3.org/1999/xlink" x="0px" y="0px"
	 width="48px" height="48px" viewBox="0 0 48 48" enable-background="new 0 0 48 48" xml:space="preserve">
<g>
	<polygon fill="#2196F3" points="20,20 9,20 20,9 	"/>
	<path fill="#2196F3" d="M17.55,19.55c-0.512,0-1.023-0.195-1.414-0.586L6.021,9l2.828-2.828l10.115,9.964
		c0.781,0.781,0.781,2.047,0,2.828C18.573,19.354,18.062,19.55,17.55,19.55z"/>
	<polygon fill="#2196F3" points="20,28 9,28 20,39 	"/>
	<path fill="#2196F3" d="M17.55,28.45c-0.512,0-1.023,0.194-1.414,0.586L6,39.172L8.828,42l10.136-10.136
		c0.781-0.781,0.781-2.048,0-2.828C18.573,28.646,18.062,28.45,17.55,28.45z"/>
	<polygon fill="#2196F3" points="28.01,20 39.01,20 28.01,9 	"/>
	<path fill="#2196F3" d="M30.461,19.55c0.512,0,1.023-0.195,1.414-0.586L41.988,9l-2.827-2.828l-10.114,9.964
		c-0.781,0.781-0.781,2.047,0,2.828C29.438,19.354,29.949,19.55,30.461,19.55z"/>
	<polygon fill="#2196F3" points="28,28 39,28 28,39 	"/>
	<path fill="#2196F3" d="M30.45,28.45c0.512,0,1.022,0.194,1.413,0.586L42,39.172L39.172,42L29.036,31.864
		c-0.781-0.781-0.781-2.048,0-2.828C29.427,28.646,29.938,28.45,30.45,28.45z"/>
</g>
</svg>
