<?xml version="1.0" encoding="utf-8"?>
<!-- Generator: Adobe Illustrator 19.2.1, SVG Export Plug-In . SVG Version: 6.00 Build 0)  -->
<svg version="1.1" id="Layer_1" xmlns="http://www.w3.org/2000/svg" xmlns:xlink="http://www.w3.org/1999/xlink" x="0px" y="0px"
	 viewBox="0 0 40 40" style="enable-background:new 0 0 40 40;" xml:space="preserve">
<style type="text/css">
	.st0{fill:none;}
	.st1{fill:#757575;}
</style>
<g>
	<path class="st0" d="M32.3,15.3l-0.3-0.1L31.9,15c-0.6-2-1.6-3.7-3.3-4.8c-1.6-1.3-3.7-2-5.6-2c-3,0-5.9,1.5-7.7,4l-0.6,0.6
		l-0.6-0.5c-0.9-0.8-1.8-1-2.9-1c-2.5,0-4.7,2.1-4.7,4.7c0,0.5,0,0.9,0.1,1.3l0.1,0.6l-0.5,0.3c-2.5,1.3-4.2,3.8-4.2,6.7
		c0,3.9,3.2,7.2,7.1,7.2h9.8h1.4h8.5c4.7,0,8.5-3.9,8.5-8.6C37.4,19.9,35.5,16.7,32.3,15.3z M26.1,20c-0.3,0.3-0.8,0.3-0.9,0
		l-3.4-3.4v9.6v0.9c0,0.3-0.3,0.6-0.6,0.6s-0.6-0.3-0.6-0.6v-0.9v-1.4v-8.3L17,20c-0.3,0.3-0.8,0.3-0.9,0c-0.3-0.3-0.3-0.8,0-0.9
		l4.7-4.7c0.3-0.3,0.8-0.3,0.9,0l4.7,4.7C26.4,19.2,26.4,19.7,26.1,20z"/>
	<g>
		<path class="st0" d="M32.3,15.3l-0.3-0.1L31.9,15c-0.6-2-1.6-3.7-3.3-4.8c-1.6-1.3-3.7-2-5.6-2c-3,0-5.9,1.5-7.7,4l-0.6,0.6
			l-0.6-0.5c-0.9-0.8-1.8-1-2.9-1c-2.5,0-4.7,2.1-4.7,4.7c0,0.5,0,0.9,0.1,1.3l0.1,0.6l-0.5,0.3c-2.5,1.3-4.2,3.8-4.2,6.7
			c0,3.9,3.2,7.2,7.1,7.2h9.8h1.4h8.5c4.7,0,8.5-3.9,8.5-8.6C37.4,19.9,35.5,16.7,32.3,15.3z M26.1,20c-0.3,0.3-0.8,0.3-0.9,0
			l-3.4-3.4v9.6v0.9c0,0.3-0.3,0.6-0.6,0.6s-0.6-0.3-0.6-0.6v-0.9v-1.4v-8.3L17,20c-0.3,0.3-0.8,0.3-0.9,0c-0.3-0.3-0.3-0.8,0-0.9
			l4.7-4.7c0.3-0.3,0.8-0.3,0.9,0l4.7,4.7C26.4,19.2,26.4,19.7,26.1,20z"/>
		<g>
			<path class="st0" d="M32.3,15.3l-0.3-0.1L31.9,15c-0.6-2-1.6-3.7-3.3-4.8c-1.6-1.3-3.7-2-5.6-2c-3,0-5.9,1.5-7.7,4l-0.6,0.6
				l-0.6-0.5c-0.9-0.8-1.8-1-2.9-1c-2.5,0-4.7,2.1-4.7,4.7c0,0.5,0,0.9,0.1,1.3l0.1,0.6l-0.5,0.3c-2.5,1.3-4.2,3.8-4.2,6.7
				c0,3.9,3.2,7.2,7.1,7.2h9.8h1.4h8.5c4.7,0,8.5-3.9,8.5-8.6C37.4,19.9,35.5,16.7,32.3,15.3z M26.1,20c-0.3,0.3-0.8,0.3-0.9,0
				l-3.4-3.4v9.6v0.9c0,0.3-0.3,0.6-0.6,0.6s-0.6-0.3-0.6-0.6v-0.9v-1.4v-8.3L17,20c-0.3,0.3-0.8,0.3-0.9,0c-0.3-0.3-0.3-0.8,0-0.9
				l4.7-4.7c0.3-0.3,0.8-0.3,0.9,0l4.7,4.7C26.4,19.2,26.4,19.7,26.1,20z"/>
			<path class="st1" d="M37.1,17.7c-0.9-1.5-2.3-2.5-3.9-3.3l-0.1-0.1v-0.1c-0.6-2-2-3.8-3.7-5.2c-1.8-1.5-4-2.3-6.4-2.3
				c-3.2,0-6.2,1.4-8.2,3.9l-0.1,0.3l-0.3-0.1c-0.9-0.5-1.8-0.8-2.9-0.8c-3.3,0-6.1,2.8-6.1,6.1c0,0.3,0,0.6,0,0.8v0.3l-0.3,0.1
				C2.7,18.7,1,21.6,1,24.7c0,4.7,3.8,8.6,8.5,8.6h9.8h1.4h8.5c2.5,0,4.9-1,6.9-2.9c1.8-1.8,2.9-4.4,2.9-7.1
				C38.7,21.3,38.2,19.4,37.1,17.7z M29.2,31.9h-8.5h-1.4H9.5c-3.9,0-7.1-3.2-7.1-7.2c0-2.9,1.6-5.4,4.2-6.7l0.5-0.3l-0.1-0.6
				c-0.1-0.5-0.1-0.9-0.1-1.3c0-2.5,2.1-4.7,4.7-4.7c1,0,2.1,0.3,2.9,1l0.6,0.5l0.5-0.6c1.8-2.5,4.7-4,7.7-4c2.1,0,3.9,0.6,5.6,2
				c1.5,1.3,2.8,3,3.3,4.8l0.1,0.3l0.3,0.1c3.2,1.4,5.2,4.5,5.2,7.9C37.4,27.9,33.6,31.9,29.2,31.9z"/>
			<path class="st1" d="M21.5,14.4c-0.3-0.3-0.8-0.3-0.9,0l-4.7,4.7c-0.3,0.3-0.3,0.8,0,0.9c0.3,0.3,0.8,0.3,0.9,0l3.4-3.4v8.3v1.4
				v0.9c0,0.3,0.3,0.6,0.6,0.6c0.3,0,0.6-0.3,0.6-0.6v-0.9v-9.6l3.4,3.3c0.3,0.3,0.8,0.3,0.9,0c0.3-0.3,0.3-0.8,0-0.9L21.5,14.4z"/>
		</g>
	</g>
</g>
</svg>
