<?xml version="1.0" encoding="utf-8"?>
<!-- Generator: Adobe Illustrator 19.2.1, SVG Export Plug-In . SVG Version: 6.00 Build 0)  -->
<svg version="1.1" id="Layer_1" xmlns="http://www.w3.org/2000/svg" xmlns:xlink="http://www.w3.org/1999/xlink" x="0px" y="0px"
	 viewBox="0 0 40 40" style="enable-background:new 0 0 40 40;" xml:space="preserve">
<style type="text/css">
	.st0{fill:none;}
	.st1{fill:#387C2C;}
</style>
<g>
	<path class="st0" d="M10.4,9.2v0.5V11v0.8v14.8l0,0v1.9V29v5.5h20.7v-6.4l0,0l0,0l0,0v-2.6l0,0V12.1l0,0V9.5l0,0V6.9H10.4V9.2z
		 M23.1,31.7h-5c-0.4,0-0.5-0.1-0.5-0.4s0.1-0.4,0.5-0.4h5c0.4,0,0.5,0.1,0.5,0.4C23.6,31.6,23.4,31.7,23.1,31.7z M19.5,24.4
		l1.4-4.7c0.1-0.3,0.4-0.3,0.6-0.3s0.4,0.3,0.4,0.5l-1.4,4.7C20.2,25,20.1,25,19.8,25C19.5,24.8,19.3,24.7,19.5,24.4z M26.3,22
		c0.1,0.1,0.1,0.3,0.1,0.3c0.1,0.1,0,0.3-0.1,0.3l-2.6,2.2c-0.4,0.3-0.5,0.3-0.7,0s-0.4-0.4,0-0.6l2.1-1.8L23,20.6
		c-0.4-0.3-0.4-0.4,0-0.6c0.4-0.3,0.5-0.3,0.7,0L26.3,22z M18.1,12.5h2v-1.7c0-0.3,0.1-0.4,0.5-0.4c0.4,0,0.5,0.1,0.5,0.4v1.7h2
		c0.4,0,0.5,0.1,0.5,0.4c0,0.3-0.1,0.4-0.5,0.4h-1.9V15c0,0.3-0.1,0.4-0.5,0.4c-0.4,0-0.5-0.1-0.5-0.4v-1.7h-2.1
		c-0.4,0-0.5-0.1-0.5-0.4C17.7,12.6,17.8,12.5,18.1,12.5z M15,22l2.6-2.2c0.4-0.3,0.5-0.3,0.7,0c0.4,0.3,0.4,0.4,0,0.6l-2.1,1.8
		l2.2,1.8c0.4,0.3,0.4,0.4,0,0.6c-0.4,0.2-0.5,0.3-0.7,0l-2.5-2.1c-0.1,0-0.1,0-0.4-0.1C14.7,22.4,14.7,22.2,15,22z"/>
	<path class="st1" d="M18.1,13.3h2V15c0,0.3,0.1,0.4,0.5,0.4c0.4,0,0.5-0.1,0.5-0.4v-1.7h2c0.4,0,0.5-0.1,0.5-0.4
		c0-0.3-0.1-0.4-0.5-0.4h-1.9v-1.7c0-0.3-0.1-0.4-0.5-0.4c-0.4,0-0.5,0.1-0.5,0.4v1.7h-2.1c-0.4,0-0.5,0.1-0.5,0.4
		C17.7,13.1,17.8,13.3,18.1,13.3z"/>
	<path class="st1" d="M23.1,30.8h-5c-0.4,0-0.5,0.1-0.5,0.4s0.1,0.4,0.5,0.4h5c0.4,0,0.5-0.1,0.5-0.4S23.4,30.8,23.1,30.8z"/>
	<path class="st1" d="M30.5,6H10.9C9.9,6,9,6.6,9,7.6v26.9c0,0.8,0.7,1.6,1.9,1.6h19.8c0.9,0,1.9-0.6,1.9-1.6V7.6
		C32.3,6.8,31.4,6,30.5,6z M30.9,9.8L30.9,9.8v2.6l0,0v13.5l0,0v2.6l0,0l0,0l0,0v6.4H10.2v-5.6v-0.5v-2.1l0,0V11.8V11V9.8V9.2v-2
		h20.7V9.8z"/>
	<path class="st1" d="M20.3,24.7l1.4-4.7c0.1-0.3,0-0.4-0.4-0.5c-0.4-0.1-0.5,0-0.6,0.3l-1.3,4.6c-0.1,0.3,0,0.4,0.4,0.5
		C20,25.1,20.2,25,20.3,24.7z"/>
	<path class="st1" d="M15.2,22.6l2.5,2.1c0.4,0.3,0.5,0.3,0.7,0c0.4-0.3,0.4-0.4,0-0.6l-2.2-1.8l2.1-1.8c0.4-0.3,0.4-0.4,0-0.6
		c-0.4-0.3-0.5-0.3-0.7,0L15,22c-0.4,0.3-0.4,0.4,0,0.6C15.1,22.6,15.1,22.6,15.2,22.6z"/>
	<path class="st1" d="M22.9,19.8c-0.4,0.3-0.4,0.4,0,0.6l2.1,1.8L22.9,24c-0.4,0.3-0.4,0.4,0,0.6c0.4,0.2,0.5,0.3,0.7,0l2.6-2.2
		c0.1-0.1,0.4-0.3,0.1-0.3c0-0.1,0-0.3-0.1-0.3l-2.6-2.2C23.4,19.6,23.3,19.6,22.9,19.8z"/>
</g>
</svg>
