<?xml version="1.0" encoding="utf-8"?>
<!-- Generator: Adobe Illustrator 19.2.1, SVG Export Plug-In . SVG Version: 6.00 Build 0)  -->
<svg version="1.1" id="Layer_1" xmlns="http://www.w3.org/2000/svg" xmlns:xlink="http://www.w3.org/1999/xlink" x="0px" y="0px"
	 viewBox="0 0 40 40" style="enable-background:new 0 0 40 40;" xml:space="preserve">
<style type="text/css">
	.st0{fill:none;}
	.st1{fill:#387C2C;}
</style>
<g>
	<path class="st0" d="M2.8,34.4h34.4v-6.9H2.8V34.4z M33.5,29.8c0.6,0,1.1,0.5,1.1,1.1S34.1,32,33.5,32s-1.1-0.5-1.1-1.1
		S32.9,29.8,33.5,29.8z M10.9,30.4c0.1-0.1,0.2-0.2,0.5-0.2h2.2c0.4,0,0.6,0.4,0.6,0.6c0,0.4-0.2,0.6-0.6,0.6h-2.2
		c-0.1,0-0.4-0.1-0.5-0.2c-0.1-0.1-0.2-0.2-0.2-0.5C10.7,30.7,10.8,30.6,10.9,30.4z M6.1,30.2h2.2c0.1,0,0.4,0.1,0.5,0.2
		c0.1,0.1,0.2,0.2,0.2,0.5c0,0.1-0.1,0.4-0.2,0.5c-0.1,0.1-0.2,0.2-0.5,0.2H6.1c-0.4,0-0.6-0.4-0.6-0.6C5.5,30.6,5.8,30.2,6.1,30.2z
		"/>
	<path class="st0" d="M2.8,23.3h34.4v-6.9H2.8V23.3z M33.5,18.9c0.6,0,1.1,0.5,1.1,1.1c0,0.6-0.5,1.1-1.1,1.1s-1.1-0.5-1.1-1.1
		C32.4,19.4,32.9,18.9,33.5,18.9z M10.9,19.5c0.1-0.1,0.2-0.2,0.5-0.2h2.2c0.4,0,0.6,0.4,0.6,0.6c0,0.4-0.2,0.6-0.6,0.6h-2.2
		c-0.1,0-0.4-0.1-0.5-0.2c-0.1-0.1-0.2-0.2-0.2-0.5C10.7,19.8,10.8,19.6,10.9,19.5z M6.1,19.3h2.2c0.1,0,0.4,0.1,0.5,0.2
		c0.1,0.1,0.2,0.2,0.2,0.5c0,0.1-0.1,0.4-0.2,0.5c-0.1,0.1-0.2,0.2-0.5,0.2H6.1c-0.4,0-0.6-0.4-0.6-0.6C5.5,19.6,5.8,19.3,6.1,19.3z
		"/>
	<path class="st0" d="M37.2,5.6H2.8v6.9h34.4V5.6z M8.8,9.6C8.7,9.7,8.6,9.8,8.3,9.8H6.1c-0.4,0-0.6-0.4-0.6-0.6
		c0-0.4,0.2-0.6,0.6-0.6h2.2c0.1,0,0.4,0.1,0.5,0.2c0.1,0.1,0.2,0.2,0.2,0.5C8.9,9.3,8.9,9.4,8.8,9.6z M13.6,9.8h-2.2
		c-0.1,0-0.4-0.1-0.5-0.2c-0.1-0.1-0.2-0.2-0.2-0.5c0-0.1,0.1-0.4,0.2-0.5c0.1-0.1,0.2-0.2,0.5-0.2h2.2c0.4,0,0.6,0.4,0.6,0.6
		C14.2,9.4,13.9,9.8,13.6,9.8z M33.5,10.2c-0.6,0-1.1-0.5-1.1-1.1c0-0.6,0.5-1.1,1.1-1.1s1.1,0.5,1.1,1.1
		C34.6,9.7,34,10.2,33.5,10.2z"/>
	<path class="st1" d="M38.4,13.7V4.4H1.6v9.3h17.8v1.6H1.6v9.3h17.8v1.6H1.6v9.3h36.9v-9.3H20.6v-1.6h17.8v-9.3H20.6v-1.6L38.4,13.7
		L38.4,13.7z M37.2,34.4H2.8v-6.9h34.4V34.4z M37.2,23.3H2.8v-6.9h34.4V23.3z M2.8,5.6h34.4v6.9H2.8V5.6z"/>
	<circle class="st1" cx="33.5" cy="9.1" r="1.1"/>
	<path class="st1" d="M8.3,8.5H6.1c-0.4,0-0.6,0.2-0.6,0.6c0,0.4,0.4,0.6,0.6,0.6h2.2c0.1,0,0.4-0.1,0.5-0.2
		c0.1-0.1,0.2-0.2,0.2-0.5c0-0.1-0.1-0.4-0.2-0.5C8.7,8.5,8.5,8.5,8.3,8.5z"/>
	<path class="st1" d="M13.5,8.5h-2.2c-0.1,0-0.4,0.1-0.5,0.2s-0.2,0.2-0.2,0.5c0,0.1,0.1,0.4,0.2,0.5c0.1,0.1,0.2,0.2,0.5,0.2h2.2
		c0.4,0,0.6-0.2,0.6-0.6C14.2,8.7,13.9,8.5,13.5,8.5z"/>
	<circle class="st1" cx="33.5" cy="20" r="1.1"/>
	<path class="st1" d="M6.1,20.6h2.2c0.1,0,0.4-0.1,0.5-0.2c0.1-0.1,0.2-0.2,0.2-0.5c0-0.1-0.1-0.4-0.2-0.5c-0.1-0.1-0.2-0.2-0.5-0.2
		H6.1c-0.4,0-0.6,0.2-0.6,0.6C5.5,20.4,5.8,20.6,6.1,20.6z"/>
	<path class="st1" d="M11.4,20.6h2.2c0.4,0,0.6-0.2,0.6-0.6c0-0.4-0.4-0.6-0.6-0.6h-2.2c-0.1,0-0.4,0.1-0.5,0.2
		c-0.1,0.1-0.2,0.2-0.2,0.5c0,0.1,0.1,0.4,0.2,0.5C11,20.6,11.2,20.6,11.4,20.6z"/>
	<circle class="st1" cx="33.5" cy="30.9" r="1.1"/>
	<path class="st1" d="M6.1,31.5h2.2c0.1,0,0.4-0.1,0.5-0.2c0.1-0.1,0.2-0.2,0.2-0.5c0-0.1-0.1-0.4-0.2-0.5c-0.1-0.1-0.2-0.2-0.5-0.2
		H6.1c-0.4,0-0.6,0.2-0.6,0.6C5.5,31.3,5.8,31.5,6.1,31.5z"/>
	<path class="st1" d="M11.4,31.5h2.2c0.4,0,0.6-0.2,0.6-0.6s-0.4-0.6-0.6-0.6h-2.2c-0.1,0-0.4,0.1-0.5,0.2c-0.1,0.1-0.2,0.2-0.2,0.5
		c0,0.1,0.1,0.4,0.2,0.5C11,31.5,11.2,31.5,11.4,31.5z"/>
</g>
</svg>
