<?xml version="1.0" encoding="utf-8"?>
<!-- Generator: Adobe Illustrator 15.0.0, SVG Export Plug-In . SVG Version: 6.00 Build 0)  -->
<!DOCTYPE svg PUBLIC "-//W3C//DTD SVG 1.1//EN" "http://www.w3.org/Graphics/SVG/1.1/DTD/svg11.dtd">
<svg version="1.1"  xmlns="http://www.w3.org/2000/svg" xmlns:xlink="http://www.w3.org/1999/xlink" x="0px" y="0px"
	 width="48px" height="48px" viewBox="0 0 48 48" enable-background="new 0 0 48 48" xml:space="preserve">
<g>
	<polygon fill="#2196F3" points="42,42 31,42 42,31 	"/>
	<path fill="#2196F3" d="M39.55,41.404c-0.512,0-1.022-0.194-1.413-0.586L28.316,31l2.828-2.828l9.818,9.819
		c0.781,0.78,0.781,2.047,0,2.827C40.573,41.21,40.063,41.404,39.55,41.404z"/>
	<polygon fill="#2196F3" points="17,42 6,42 6,31 	"/>
	<path fill="#2196F3" d="M8.45,41.55c-0.512,0-1.023-0.194-1.414-0.586c-0.781-0.78-0.781-2.047,0-2.828l9.136-9.823L19,31.141
		l-9.136,9.823C9.474,41.354,8.962,41.55,8.45,41.55z"/>
	<polygon fill="#2196F3" points="42,6 31,6 42,17 	"/>
	<path fill="#2196F3" d="M39.55,6.595c-0.512,0-1.022,0.195-1.413,0.586L28.172,17l2.973,2.828l9.819-9.819
		c0.781-0.781,0.781-2.047,0-2.828C40.573,6.79,40.063,6.595,39.55,6.595z"/>
	<polygon fill="#2196F3" points="17,6 6,6 6,17 	"/>
	<path fill="#2196F3" d="M8.653,6.591c-0.512,0-1.023,0.195-1.414,0.586c-0.781,0.781-0.781,2.047,0,2.828L17,19.828L19.828,17
		l-9.761-9.823C9.677,6.786,9.165,6.591,8.653,6.591z"/>
</g>
</svg>
