<?xml version="1.0" encoding="utf-8"?>
<!-- Generator: Adobe Illustrator 19.2.1, SVG Export Plug-In . SVG Version: 6.00 Build 0)  -->
<svg version="1.1" id="Layer_1" xmlns="http://www.w3.org/2000/svg" xmlns:xlink="http://www.w3.org/1999/xlink" x="0px" y="0px"
	 viewBox="0 0 40 40" style="enable-background:new 0 0 40 40;" xml:space="preserve">
<style type="text/css">
	.st0{fill:#757575;}
</style>
<g>
	<path class="st0" d="M15.5,21h-0.1v-6.7c0-0.4-0.3-0.6-0.6-0.6s-0.6,0.3-0.6,0.6V21H14c-0.9,0.3-1.4,1.2-1.4,2.1
		c0,1.2,1,2.2,2.2,2.2s2.2-1,2.2-2.2C16.9,22.2,16.4,21.3,15.5,21z M14.7,24.2c-0.5,0-1-0.4-1-1c0-0.6,0.4-1,1-1c0.6,0,1,0.4,1,1
		C15.8,23.9,15.4,24.2,14.7,24.2z"/>
	<path class="st0" d="M34.3,21.2l-5.5,5.5l-2.6-2.6c-0.3-0.3-0.8-0.3-0.9,0c-0.1,0.1-0.3,0.3-0.3,0.5c0,0.1,0.1,0.4,0.3,0.5l3.1,3.1
		c0.1,0.1,0.3,0.1,0.5,0.1c0.1,0,0.4-0.1,0.5-0.3l6-6c0.3-0.3,0.3-0.6,0-0.9C34.9,20.9,34.5,20.9,34.3,21.2z"/>
	<path class="st0" d="M30.3,15.6c-0.6,0-1.4,0.1-2.1,0.3c-0.3-1-0.6-2.1-1.2-3l-0.1-0.1c-1.2-2.1-3-3.7-5.1-5h-0.1l0,0l0,0l0,0
		C19.6,6.6,17.2,6,14.7,6c-7.7,0-14,6.3-14,14s6.3,14,14,14c3.2,0,6.3-1.2,8.9-3.1c1.7,1.8,4.1,3,6.7,3c5,0,9-4.1,9-9
		C39.3,19.7,35.2,15.6,30.3,15.6z M19.7,31.7c-1.5,0.6-3.2,1-5,1s-3.3-0.4-5-1C8.2,31,6.9,30.1,5.6,29c-1-1.2-2.1-2.6-2.7-4.1
		c-0.6-1.5-1-3.2-1-5s0.4-3.3,1-5c0.1-0.3,0.3-0.5,0.3-0.6h0.1L6,15.8c0.1,0.1,0.4,0.1,0.6,0c0.1-0.1,0.3-0.3,0.3-0.5
		c0-0.3-0.1-0.4-0.3-0.5l-2.7-1.5l0.1-0.1c0.5-0.6,1-1.3,1.5-1.9c0.6-0.6,1.3-1.2,1.9-1.5l0.1-0.1l1.5,2.7c0.1,0.3,0.3,0.3,0.5,0.3
		c0.4,0,0.6-0.3,0.6-0.6c0-0.1,0-0.3-0.1-0.3L8.7,8.8l0.1-0.1c0.3-0.1,0.5-0.3,0.6-0.3c1.3-0.5,2.7-0.9,4.2-1H14v3.1
		c0,0.4,0.3,0.6,0.6,0.6c0.4,0,0.6-0.3,0.6-0.6V7.4h0.3c1.4,0.1,2.8,0.4,4.2,1c0.3,0.1,0.5,0.3,0.6,0.3l0.1,0.1L19,11.5
		c0,0.1-0.1,0.1-0.1,0.3c0,0.4,0.3,0.6,0.6,0.6c0.3,0,0.4-0.1,0.5-0.3l1.5-2.7l0.1,0.1c0.6,0.5,1.3,1,1.9,1.5
		c0.6,0.6,1.2,1.3,1.5,1.9l0.1,0.1l-2.7,1.5c-0.3,0.1-0.3,0.3-0.3,0.5c0,0.3,0.1,0.4,0.3,0.5s0.4,0.1,0.6,0l2.7-1.5l0.1,0.1
		c0.1,0.3,0.3,0.5,0.3,0.6c0.1,0.4,0.4,0.9,0.5,1.4c-3.3,1.3-5.9,4.6-5.9,8.3c0,1.9,0.6,3.6,1.5,5.1C21.9,30.5,20.9,31.2,19.7,31.7z
		 M35.9,30.5c-1.5,1.5-3.5,2.3-5.7,2.3c-2.1,0-4.1-0.8-5.7-2.3c-1.5-1.5-2.3-3.5-2.3-5.7c0-2.1,0.8-4.1,2.3-5.7
		c1.5-1.5,3.5-2.3,5.7-2.3c2.1,0,4.1,0.8,5.7,2.3c1.5,1.5,2.3,3.5,2.3,5.7C38.4,27.1,37.6,29,35.9,30.5z"/>
</g>
</svg>
