<?xml version="1.0" encoding="utf-8"?>
<!-- Generator: Adobe Illustrator 19.2.1, SVG Export Plug-In . SVG Version: 6.00 Build 0)  -->
<svg version="1.1" id="Layer_1" xmlns="http://www.w3.org/2000/svg" xmlns:xlink="http://www.w3.org/1999/xlink" x="0px" y="0px"
	 viewBox="0 0 40 40" style="enable-background:new 0 0 40 40;" xml:space="preserve">
<style type="text/css">
	.st0{fill:#757575;}
</style>
<g>
	<path class="st0" d="M32.8,23l-5.6,5.6c-0.1,0.1-0.2,0.1-0.5,0.1s-0.2,0-0.5-0.1l-2.9-2.9c-0.1-0.1-0.1-0.2-0.1-0.5
		c0-0.1,0-0.2,0.1-0.5c0.2-0.2,0.7-0.2,0.8,0l2.4,2.4l5.1-5.1l0,0l0,0l0,0c0.2-0.1,0.6-0.1,0.8,0C33,22.4,33,22.8,32.8,23z"/>
	<path class="st0" d="M31.9,22.2L31.9,22.2L31.9,22.2L31.9,22.2l-5.1,5.1l-2.4-2.4c-0.2-0.2-0.7-0.2-0.8,0c-0.1,0.1-0.1,0.2-0.1,0.5
		s0,0.2,0.1,0.5l2.9,2.9c0.1,0.1,0.2,0.1,0.5,0.1s0.2,0,0.5-0.1l5.6-5.6c0.2-0.2,0.2-0.7,0-0.8C32.6,21.9,32.2,21.9,31.9,22.2z"/>
	<path class="st0" d="M29.7,15.8c-0.2-0.8-0.6-1.5-1-2.3l-0.1-0.2l2-2L26,6.8l-2,2l-0.4-0.2c-0.8-0.6-1.9-1-2.9-1.2h-0.2V4.8H14v2.7
		h-0.2c-1,0.2-2,0.7-2.9,1.2l-0.2,0.1l-2-2l-4.5,4.5l2,2l-0.1,0.2c-0.6,0.8-0.8,1.9-1.2,2.9v0.2H2.1v6.4h2.7v0.2
		c0.2,1,0.7,2,1.2,2.9l0.1,0.2l-2,2L8.7,33l2-2l0.2,0.1c0.8,0.6,1.9,1,2.9,1.2H14V35h6.4v-2.7h0.2c0.1,0,0.2-0.1,0.5-0.1
		c1.7,1.9,4.3,3,7,3c5.2,0,9.7-4.3,9.7-9.7C37.8,20.6,34.2,16.4,29.7,15.8z M19.5,31.6V34h-4.2v-2.4l-1-0.2c-1-0.2-1.9-0.6-2.7-1.2
		l-1-0.6L9,31.2l-3-3l1.7-1.7l-0.6-1c-0.5-0.8-0.8-1.7-1.2-2.7l-0.2-1H3.3v-4.2h2.4l0.2-1c0.2-1,0.6-1.9,1.2-2.7l0.6-1l-1.7-1.7l3-3
		l1.7,1.7l1-0.6c0.8-0.5,1.7-0.8,2.7-1.2l1-0.2V5.7h4.2v2.4l1,0.2c1,0.2,1.9,0.6,2.7,1.2l1,0.6l1.7-1.7l3,3L27.2,13l0.6,1
		c0.2,0.6,0.6,1.2,0.7,1.7c-0.1,0-0.1,0-0.2,0c-2,0-3.9,0.7-5.6,1.7c-0.8-2-2.9-3.5-5.2-3.5c-3.2,0-5.8,2.6-5.8,5.8s2.6,5.8,5.8,5.8
		c0.5,0,0.7,0,1.2-0.1c0,2.1,0.7,4.2,2,5.7L19.5,31.6z M21.8,18.1c-1.9,1.5-3,3.8-3.2,6.3c-0.5,0.1-0.7,0.1-1.2,0.1
		c-1.3,0-2.4-0.5-3.5-1.4c-0.8-0.8-1.4-2.1-1.4-3.5c0-1.3,0.5-2.4,1.4-3.5c0.8-0.8,2.1-1.4,3.5-1.4s2.4,0.5,3.5,1.4
		C21.2,17,21.5,17.4,21.8,18.1z M34.1,31.2c-1.5,1.5-3.7,2.4-6,2.4s-4.4-0.8-6-2.4c-1.5-1.5-2.4-3.7-2.4-6s0.8-4.4,2.4-6
		s3.7-2.4,6-2.4s4.4,0.8,6,2.4c1.5,1.5,2.4,3.7,2.4,6C36.6,27.5,35.7,29.7,34.1,31.2z"/>
</g>
</svg>
