<svg xmlns="http://www.w3.org/2000/svg" width="10" height="10" viewBox="0 0 20 20">
  <g id="Group_38020" data-name="Group 38020" transform="translate(3390 12765)">
    <path id="Path_16244" data-name="Path 16244" d="M10,141.711a10,10,0,1,0,10,10A10.011,10.011,0,0,0,10,141.711Zm0,17.662a7.663,7.663,0,1,1,7.663-7.663A7.671,7.671,0,0,1,10,159.373Z" transform="translate(-3390 -12906.711)" />
    <path id="Path_16245" data-name="Path 16245" d="M47.646,182.867a.985.985,0,0,0-1.393,0L44.4,184.718l-1.851-1.851a.985.985,0,1,0-1.393,1.393l1.851,1.851-1.851,1.851a.985.985,0,1,0,1.393,1.393L44.4,187.5l1.851,1.851a.985.985,0,1,0,1.393-1.393L45.8,186.112l1.851-1.851A.985.985,0,0,0,47.646,182.867Z" transform="translate(-3424.402 -12941.111)" />
  </g>
</svg>
