<svg xmlns="http://www.w3.org/2000/svg" width="10" height="10" viewBox="0 0 19.111 20">
  <path id="download" d="M2303.111,2916.838v6.051A1.111,1.111,0,0,1,2302,2924h-16.889a1.111,1.111,0,0,1-1.112-1.111v-6.051a1.111,1.111,0,1,1,2.222,0v4.94h14.667v-4.94a1.111,1.111,0,1,1,2.222,0Zm-10.349,1.394a1.111,1.111,0,0,0,1.588,0l4.433-4.526a1.111,1.111,0,0,0-1.588-1.555l-2.528,2.581v-9.621a1.111,1.111,0,0,0-2.222,0v9.62l-2.527-2.581a1.111,1.111,0,1,0-1.587,1.555Z" transform="translate(-2284 -2904)"/>
</svg>
