<svg xmlns="http://www.w3.org/2000/svg" width="10" height="10" viewBox="0 0 20 18.753">
  <path id="document-edit" d="M1863.763,1573.863l-1.773-1.66a.772.772,0,0,0-.527-.2h0a.772.772,0,0,0-.527.2L1850.6,1581.9a.684.684,0,0,0-.162.231l-1.151,2.718a.647.647,0,0,0,.167.734.773.773,0,0,0,.523.2.8.8,0,0,0,.273-.048l2.914-1.068a.751.751,0,0,0,.254-.155l10.348-9.683A.648.648,0,0,0,1863.763,1573.863Zm-11.293,9.581-1.186.435.475-1.122,9.7-9.1.732.685Zm7.555-.818v7.215a.991.991,0,0,1-1.029.912h-14.032a.952.952,0,0,1-.988-.912v-15.373a.921.921,0,0,1,.988-.872h10.265a.915.915,0,1,1,0,1.825h-9.277v13.508h12.1v-6.3a.991.991,0,0,1,1.975,0Z" transform="translate(-1843.976 -1572)"/>
</svg>
