<svg xmlns="http://www.w3.org/2000/svg" width="21.633" height="21.503" viewBox="0 0 21.633 21.503">
  <path id="home" d="M1192.1,2249.794a.941.941,0,0,1-.657-.266l-9.219-8.948-9.219,8.948a.944.944,0,0,1-1.33-.016.931.931,0,0,1,.016-1.322l9.876-9.585a.944.944,0,0,1,1.314,0l9.876,9.585a.931.931,0,0,1,.016,1.322A.94.94,0,0,1,1192.1,2249.794Zm-2.058,9.113v-9.136a.941.941,0,0,0-1.881,0v8.2h-2.939v-5a1.246,1.246,0,0,0-1.248-1.241h-3.5a1.246,1.246,0,0,0-1.248,1.241v5h-2.939v-8.2a.941.941,0,0,0-1.881,0v9.136a.938.938,0,0,0,.94.935h4.82a.938.938,0,0,0,.941-.935v-5.3h2.233v5.3a.938.938,0,0,0,.941.935h4.82A.938.938,0,0,0,1190.039,2258.907Z" transform="translate(-1171.405 -2238.338)" fill="#296dfa"/>
</svg>
