<svg xmlns="http://www.w3.org/2000/svg" width="10" height="10" viewBox="0 0 20 21.163">
  <path id="trash" d="M1636.534,1800.835l-.71,13.447a.93.93,0,0,1-.929.881H1623.1a.93.93,0,0,1-.929-.881l-.71-13.447a.93.93,0,1,1,1.858-.1l.663,12.566h10.026l.663-12.566a.93.93,0,0,1,1.858.1Zm2.466-3.114a.931.931,0,0,1-.93.93h-18.14a.93.93,0,0,1,0-1.861h5.116V1794.7a.669.669,0,0,1,.749-.7h6.408a.669.669,0,0,1,.75.7v2.093h5.116A.93.93,0,0,1,1639,1797.721Zm-12.326-.93h4.651v-1.163h-4.651Zm.39,15.116h.019a.851.851,0,0,0,.795-.882l-.237-10.055a.822.822,0,0,0-.833-.807.809.809,0,0,0-.795.827l.237,10.076A.854.854,0,0,0,1627.065,1811.907Zm3.835,0a.833.833,0,0,0,.813-.817l.237-10.041a.819.819,0,0,0-.794-.838.81.81,0,0,0-.833.792l-.237,10.051a.826.826,0,0,0,.795.854Z" transform="translate(-1619 -1794)"/>
</svg>
