<svg xmlns="http://www.w3.org/2000/svg" width="23.443" height="13.616" viewBox="0 0 23.443 13.616">
  <path id="Path_16569" data-name="Path 16569" d="M22.144,22.64A13.515,13.515,0,0,0-.7,22.64l-.3.516.3.516a13.515,13.515,0,0,0,22.846,0l.3-.516ZM10.834,26.817a3.994,3.994,0,1,1,3.994-3.994A4,4,0,0,1,10.834,26.817ZM1.928,23.156a10.56,10.56,0,0,1,3.707-3.425,6.014,6.014,0,0,0,.811,7.253A10.582,10.582,0,0,1,1.928,23.156ZM15.391,26.8a6.033,6.033,0,0,0,.763-6.865,10.542,10.542,0,0,1,3.361,3.224A10.56,10.56,0,0,1,15.391,26.8Zm-2.986-4.053a1.683,1.683,0,1,1-1.683-1.684A1.684,1.684,0,0,1,12.405,22.744Z" transform="translate(1 -16.348)"/>
</svg>
