<svg xmlns="http://www.w3.org/2000/svg" width="20" height="19.996" viewBox="0 0 20 19.996">
  <path id="Shape_1" data-name="Shape 1" d="M1214.567,42.88a10,10,0,1,1,10-10A10.01,10.01,0,0,1,1214.567,42.88Zm0-18.257a8.259,8.259,0,1,0,8.261,8.259A8.269,8.269,0,0,0,1214.567,24.623Zm.987,9.6a.978.978,0,0,0-.118,0v.528a.87.87,0,0,1-1.739,0v-.7c0-.716.3-1.57,1.857-1.57a1.281,1.281,0,0,0,1.395-1.3,2.085,2.085,0,0,0-.446-1.607,2.548,2.548,0,0,0-1.992-.7c-1.967,0-2.024,1.272-2.024,1.416a.87.87,0,0,1-1.739,0c0-.878.676-3.155,3.763-3.155a4.2,4.2,0,0,1,3.3,1.286,3.783,3.783,0,0,1,.879,2.968A3.006,3.006,0,0,1,1215.554,34.224Zm-1.813,2.46a1.089,1.089,0,1,1-.317.767A1.1,1.1,0,0,1,1213.74,36.683Z" transform="translate(-1204.567 -22.884)" fill="#296dfa"/>
</svg>
