<svg xmlns="http://www.w3.org/2000/svg" width="20" height="20" viewBox="0 0 20 20">
  <g id="Group_38593" data-name="Group 38593" transform="translate(3484 12764)">
    <path id="Path_16242" data-name="Path 16242" d="M10,.313a10,10,0,1,0,10,10A10.011,10.011,0,0,0,10,.313Zm0,17.663a7.663,7.663,0,1,1,7.663-7.663A7.671,7.671,0,0,1,10,17.976Z" transform="translate(-3484 -12764.313)" fill="#289946"/>
    <path id="Path_16243" data-name="Path 16243" d="M23.125,18.556l-4.807,4.808L16.558,21.6a.83.83,0,0,0-1.173,1.173l2.346,2.346a.829.829,0,0,0,1.173,0L24.3,19.73a.83.83,0,0,0-1.174-1.174Z" transform="translate(-3494.141 -12776.313)" fill="#289946"/>
  </g>
</svg>
