<?xml version="1.0" encoding="iso-8859-1"?>
<!-- Generator: Adobe Illustrator 16.0.0, SVG Export Plug-In . SVG Version: 6.00 Build 0)  -->
<!DOCTYPE svg PUBLIC "-//W3C//DTD SVG 1.1//EN" "http://www.w3.org/Graphics/SVG/1.1/DTD/svg11.dtd">
<svg version="1.1" id="Capa_1" xmlns="http://www.w3.org/2000/svg" xmlns:xlink="http://www.w3.org/1999/xlink" x="0px" y="0px"
	 width="31.54px" height="31.54px" viewBox="0 0 31.54 31.54" style="enable-background:new 0 0 31.54 31.54;" xml:space="preserve"
	>
<g>
	<g>
		<path d="M24.547,27.678h-2.033l-1.125-2.979c0.613-0.112,1.076-0.635,1.076-1.279c0-0.729-0.59-1.3-1.319-1.3H20.41l-0.921-2.458
			h1.882c0.154,0,0.311-0.021,0.428-0.072v-2.51c-0.117-0.05-0.272-0.051-0.428-0.051h-2.865l-0.92-2.458h3.785
			c0.154,0,0.311-0.041,0.428-0.087v-2.359c-0.176,0-0.39-0.069-0.57-0.128H16.6l-0.92-2.459h5.153l1.709-1.926
			c-0.221-0.427-0.66-0.707-1.17-0.707h-6.68l-1.185-3.102h11.041v1.659c0.703-0.502,1.756-0.524,2.517-0.064V3.425
			c0-1.275-0.97-2.313-2.245-2.313H12.522l-0.037-0.095C12.25,0.404,11.66,0,11.003,0H3.725C2.345,0,1.199,1.094,1.199,2.473V29.08
			c0,1.379,1.146,2.46,2.525,2.46h18.932c0.297,0,0.573-0.149,0.742-0.394c0.168-0.243,0.206-0.543,0.1-0.836h1.32
			c1.275,0,2.245-1.008,2.245-2.282v-5.792h-2.517V27.678L24.547,27.678z"/>
		<path d="M30.227,10.355L26.82,6.479c-0.245-0.279-0.6-0.44-0.97-0.44c-0.373,0-0.728,0.16-0.972,0.439l-3.406,3.876
			c-0.119,0.136-0.147,0.329-0.073,0.493c0.073,0.163,0.237,0.27,0.418,0.27h1.033v8.637c0,0.803,0.62,1.43,1.423,1.43h3.152
			c0.802,0,1.451-0.627,1.451-1.43v-8.637h1.006c0.18,0,0.343-0.106,0.416-0.27C30.375,10.684,30.346,10.49,30.227,10.355z"/>
	</g>
</g>
<g>
</g>
<g>
</g>
<g>
</g>
<g>
</g>
<g>
</g>
<g>
</g>
<g>
</g>
<g>
</g>
<g>
</g>
<g>
</g>
<g>
</g>
<g>
</g>
<g>
</g>
<g>
</g>
<g>
</g>
</svg>
