<?xml version="1.0" encoding="iso-8859-1"?>
<!-- Generator: Adobe Illustrator 18.1.1, SVG Export Plug-In . SVG Version: 6.00 Build 0)  -->
<svg version="1.1" id="Capa_1" xmlns="http://www.w3.org/2000/svg" xmlns:xlink="http://www.w3.org/1999/xlink" x="0px" y="0px"
	 viewBox="0 0 27.759 27.759" style="enable-background:new 0 0 27.759 27.759;" xml:space="preserve">
<g>
	<g>
		<path d="M13.695,20.648l-3.037-2.96c-0.478-0.466-0.653-1.175-0.446-1.811
			c0.206-0.632,0.764-1.103,1.425-1.197l4.194-0.611l1.878-3.804c0.092-0.185,0.215-0.346,0.357-0.484V4.637
			c0-0.226-0.09-0.442-0.25-0.602c-0.159-0.161-0.377-0.25-0.603-0.25L1.778,3.794c0-0.905,0.933-0.935,0.933-0.935h15.438
			c0.47,0,0.852,0.382,0.852,0.852v5.601c0.095-0.016,0.188-0.027,0.287-0.027c0.426,0,0.823,0.15,1.134,0.413v-5.91
			c0-1.314-1.065-2.379-2.378-2.379H2.379C1.064,1.409,0,2.474,0,3.788V23.97c0,1.314,1.064,2.38,2.379,2.38h11.07
			c-0.388-0.4-0.567-0.958-0.472-1.521L13.695,20.648z M4.44,7.157h9.326v1.764H4.44V7.157z"/>
		<path d="M27.733,16.407c-0.062-0.191-0.228-0.332-0.429-0.362l-5.02-0.728L20.04,10.77
			c-0.091-0.184-0.274-0.297-0.478-0.297s-0.388,0.113-0.478,0.297l-2.244,4.547l-5.018,0.728c-0.201,0.03-0.368,0.171-0.43,0.362
			c-0.063,0.193-0.011,0.405,0.135,0.549l3.63,3.536L14.3,25.493c-0.034,0.197,0.048,0.4,0.212,0.519
			c0.163,0.119,0.382,0.137,0.56,0.04l4.489-2.358l4.489,2.358c0.078,0.041,0.163,0.062,0.247,0.062c0.11,0,0.221-0.035,0.313-0.103
			c0.165-0.118,0.247-0.321,0.213-0.519l-0.858-5.001l3.632-3.537C27.745,16.813,27.795,16.601,27.733,16.407z M23.024,19.927
			c-0.126,0.122-0.185,0.299-0.154,0.471l0.722,4.211l-3.78-1.987c-0.079-0.04-0.164-0.062-0.248-0.062
			c-0.085,0-0.171,0.021-0.247,0.062l-3.782,1.987l0.724-4.211c0.027-0.174-0.028-0.349-0.154-0.471l-3.06-2.982l4.229-0.615
			c0.173-0.022,0.322-0.132,0.398-0.291l1.893-3.831l1.891,3.831c0.078,0.159,0.229,0.267,0.4,0.291l4.229,0.615L23.024,19.927z"/>
	</g>
</g>
<g>
</g>
<g>
</g>
<g>
</g>
<g>
</g>
<g>
</g>
<g>
</g>
<g>
</g>
<g>
</g>
<g>
</g>
<g>
</g>
<g>
</g>
<g>
</g>
<g>
</g>
<g>
</g>
<g>
</g>
</svg>
