<?xml version="1.0" encoding="iso-8859-1"?>
<!-- Generator: Adobe Illustrator 16.0.0, SVG Export Plug-In . SVG Version: 6.00 Build 0)  -->
<!DOCTYPE svg PUBLIC "-//W3C//DTD SVG 1.1//EN" "http://www.w3.org/Graphics/SVG/1.1/DTD/svg11.dtd">
<svg version="1.1" id="Capa_1" xmlns="http://www.w3.org/2000/svg" xmlns:xlink="http://www.w3.org/1999/xlink" x="0px" y="0px"
	 width="47.418px" height="47.418px" viewBox="0 0 47.418 47.418" style="enable-background:new 0 0 47.418 47.418;"
	 xml:space="preserve">
<g>
	<g id="_x35_0_68_">
		<g>
			<path d="M6.898,34.147c0.106,1.99,2.981,1.992,3.089,0C9.88,32.165,6.792,32.158,6.898,34.147z"/>
			<path d="M17.004,8.427V5.248V4.92H2.555H0.121H0v33.654v2.763v0.744h17.008v-2.206c0.015-0.081,0.016-0.156,0-0.226v-1.075
				h-0.004C17.004,28.526,17.004,18.477,17.004,8.427z M5.562,28.729c-0.188,0.504-0.596,0.973-1.191,0.894
				c-0.694-0.093-1.302-0.529-1.302-1.302c0-0.771,0.607-1.207,1.302-1.299c0.626-0.084,1.043,0.437,1.218,0.968
				c0.059,0.102,0.097,0.211,0.081,0.331C5.691,28.493,5.64,28.622,5.562,28.729z M8.447,36.556
				c-1.252-0.066-2.485-1.046-2.412-2.406c0.067-1.254,1.052-2.48,2.412-2.408c1.361,0.074,2.33,1.047,2.402,2.408
				C10.782,35.397,9.806,36.628,8.447,36.556z M7.216,28.202c0-0.771,0.606-1.207,1.301-1.301c0.625-0.082,1.043,0.438,1.219,0.969
				c0.059,0.102,0.097,0.211,0.081,0.332c0.022,0.171-0.029,0.3-0.108,0.408c-0.188,0.502-0.596,0.972-1.191,0.892
				C7.822,29.409,7.216,28.974,7.216,28.202z M13.958,28.61c-0.188,0.502-0.596,0.972-1.191,0.892
				c-0.695-0.093-1.302-0.528-1.302-1.3s0.606-1.207,1.302-1.301c0.626-0.082,1.043,0.438,1.218,0.969
				c0.059,0.102,0.097,0.211,0.081,0.332C14.088,28.373,14.036,28.502,13.958,28.61z M13.242,22.359c-3.117,0-6.234,0-9.352,0
				c-1.299,0-1.299-2.014,0-2.014c3.117,0,6.234,0,9.352,0C14.541,20.345,14.541,22.359,13.242,22.359z M13.345,18.72
				c-3.116,0-6.233,0-9.351,0c-1.299,0-1.299-2.014,0-2.014c3.117,0,6.234,0,9.351,0C14.645,16.707,14.645,18.72,13.345,18.72z
				 M13.345,14.838c-3.116,0-6.233,0-9.351,0c-1.299,0-1.299-2.014,0-2.014c3.117,0,6.234,0,9.351,0
				C14.645,12.825,14.645,14.838,13.345,14.838z M13.345,11.138c-3.116,0-6.233,0-9.351,0c-1.299,0-1.299-2.014,0-2.014
				c3.117,0,6.234,0,9.351,0C14.645,9.124,14.645,11.138,13.345,11.138z"/>
			<path d="M27.706,39.521h7.068v2.678h5.334v-2.678h7.311v-13H27.706V39.521z M29.704,28.519h15.719v9.004H29.704V28.519z"/>
			<rect x="31.903" y="42.248" width="11.078" height="0.55"/>
			<path d="M27.706,4.62v13h7.068v2.677h5.334V17.62h7.311v-13H27.706z M45.422,15.622H29.704V6.618h15.719V15.622z"/>
			<rect x="31.903" y="20.347" width="11.078" height="0.55"/>
			<path d="M21.18,10.451h-0.594v11.435h-2.492v1.4h2.492v9.689h0.594h0.078c0.172,0,0.344,0,0.516,0c1.253,0,2.507,0,3.76,0h0.697
				v-1.399h-4.348c0-0.216,0-0.431,0-0.646c0-3.062,0-6.125,0-9.187c0-3.062,0-6.124,0-9.187c0-0.338,0.009-0.553,0.017-0.707h4.331
				v-1.4h-4.457L21.18,10.451L21.18,10.451z"/>
		</g>
	</g>
</g>
<g>
</g>
<g>
</g>
<g>
</g>
<g>
</g>
<g>
</g>
<g>
</g>
<g>
</g>
<g>
</g>
<g>
</g>
<g>
</g>
<g>
</g>
<g>
</g>
<g>
</g>
<g>
</g>
<g>
</g>
</svg>
