<?xml version="1.0" encoding="iso-8859-1"?>
<!-- Generator: Adobe Illustrator 16.0.0, SVG Export Plug-In . SVG Version: 6.00 Build 0)  -->
<!DOCTYPE svg PUBLIC "-//W3C//DTD SVG 1.1//EN" "http://www.w3.org/Graphics/SVG/1.1/DTD/svg11.dtd">
<svg version="1.1" id="Capa_1" xmlns="http://www.w3.org/2000/svg" xmlns:xlink="http://www.w3.org/1999/xlink" x="0px" y="0px"
	 width="106.048px" height="106.048px" viewBox="0 0 106.048 106.048" style="enable-background:new 0 0 106.048 106.048;"
	 xml:space="preserve">
<g>
	<path d="M84.838,0H21.209C9.543,0,0,9.543,0,21.209v63.629c0,11.666,9.543,21.21,21.209,21.21h63.628
		c11.667,0,21.21-9.544,21.21-21.21V21.209C106.048,9.543,96.505,0,84.838,0z M23.473,29.751l-3.068,4.093v32.084h-4.771
		c-1.31,0-2.377-1.077-2.377-2.382v-41.34l3.071-4.088c0.525-0.694,1.66-1.261,2.535-1.261h6.299c0.87,0,2.302,0,3.164,0h6.299
		c0.87,0,2.012,0.566,2.535,1.261l3.07,4.088h35.9c1.305,0,2.371,1.066,2.371,2.369v9.269H47.377l-3.076-4.093
		c-0.52-0.694-1.66-1.261-2.529-1.261h-6.304c-0.87,0-2.297,0-3.167,0h-6.299C25.135,28.49,23.993,29.057,23.473,29.751z
		 M92.792,86.826c0,1.305-1.066,2.372-2.377,2.372H29.917c-1.3,0-2.366-1.067-2.366-2.372V45.474l3.07-4.083
		c0.526-0.697,1.66-1.263,2.535-1.263h6.299c0.875,0,2.302,0,3.171,0h6.3c0.864,0,2.004,0.566,2.529,1.263l3.076,4.083h35.899
		c1.305,0,2.372,1.064,2.372,2.38v38.973H92.792z"/>
</g>
<g>
</g>
<g>
</g>
<g>
</g>
<g>
</g>
<g>
</g>
<g>
</g>
<g>
</g>
<g>
</g>
<g>
</g>
<g>
</g>
<g>
</g>
<g>
</g>
<g>
</g>
<g>
</g>
<g>
</g>
</svg>
