<?xml version="1.0" encoding="iso-8859-1"?>
<!-- Generator: Adobe Illustrator 19.0.0, SVG Export Plug-In . SVG Version: 6.00 Build 0)  -->
<svg version="1.1" id="Capa_1" xmlns="http://www.w3.org/2000/svg" xmlns:xlink="http://www.w3.org/1999/xlink" x="0px" y="0px"
	 viewBox="0 0 502.688 502.688" style="enable-background:new 0 0 502.688 502.688;" xml:space="preserve">
<g>
	<g>
		<path " d="M404.033,286.827c0,0-2.006-23.447-17.408-36.325c-8.607-7.291-16.847-8.24-22.692-7.679v44.091
			h-10.548v-48.297c-3.149-6.838-9.448-17.408-19.457-21.377c-9.966-4.012-20.169-3.02-26.424-1.812v49.764h-10.505v-55.868
			c-4.465-5.371-12.49-11.778-26.554-12.619c-7.593-0.453-14.366,2.61-19.716,5.975l-1.035,47.822h-10.57l0.324-86.822
			c34.082-10.678,58.996-42.128,58.996-79.769C298.423,37.555,260.847,0,214.513,0c-46.356,0-83.91,37.555-83.91,83.932
			c0,36.282,23.102,66.913,55.329,78.626v147.35c0,0-27.136-58.392-50.195-66.093c-23.016-7.679-37.339,6.148-37.339,6.148
			s26.144,48.448,45.32,102.159c12.317,34.556,16.006,74.613,26.877,94.458c27.632,50.713,62.922,55.976,105.503,55.976
			c42.494,0,100.304,3.947,115.663-31.407C407.14,435.838,404.033,286.827,404.033,286.827z M166.712,83.889
			c0-26.381,21.398-47.801,47.801-47.801c26.381,0,47.801,21.42,47.801,47.801c0,17.192-9.146,32.097-22.714,40.531l0.108-30.911
			c0,0-6.191-32.184-26.122-32.184c-19.996,0-27.632,27.611-27.632,27.611v33.068C174.348,113.311,166.712,99.549,166.712,83.889z"
			/>
	</g>
	<g>
	</g>
	<g>
	</g>
	<g>
	</g>
	<g>
	</g>
	<g>
	</g>
	<g>
	</g>
	<g>
	</g>
	<g>
	</g>
	<g>
	</g>
	<g>
	</g>
	<g>
	</g>
	<g>
	</g>
	<g>
	</g>
	<g>
	</g>
	<g>
	</g>
</g>
<g>
</g>
<g>
</g>
<g>
</g>
<g>
</g>
<g>
</g>
<g>
</g>
<g>
</g>
<g>
</g>
<g>
</g>
<g>
</g>
<g>
</g>
<g>
</g>
<g>
</g>
<g>
</g>
<g>
</g>
</svg>
