<?xml version="1.0" encoding="UTF-8" standalone="no"?>
<svg width="106px" height="106px" viewBox="0 0 106 106" version="1.1" xmlns="http://www.w3.org/2000/svg" xmlns:xlink="http://www.w3.org/1999/xlink" xmlns:sketch="http://www.bohemiancoding.com/sketch/ns">
    <!-- Generator: Sketch 3.4.4 (17249) - http://www.bohemiancoding.com/sketch -->
    <title>sad</title>
    <desc>Created with Sketch.</desc>
    <defs></defs>
    <g id="FB-emojii-Freebies" stroke="none" stroke-width="1" fill="none" fill-rule="evenodd" sketch:type="MSPage">
        <g sketch:type="MSArtboardGroup" transform="translate(-347.000000, -347.000000)" id="sad">
            <g sketch:type="MSLayerGroup" transform="translate(347.058824, 347.017544)">
                <g id="emojii" sketch:type="MSShapeGroup">
                    <ellipse id="body" fill="#FFDA6A" cx="52.9411765" cy="52.8947368" rx="52.9411765" ry="52.8947368"></ellipse>
                    <g id="expression" transform="translate(17.647059, 36.438596)">
                        <path d="M12.3529412,27.0350877 C15.9265484,27.0350877 18.8235294,23.877517 18.8235294,19.9824561 C18.8235294,16.0873953 15.9265484,12.9298246 12.3529412,12.9298246 C8.77933397,12.9298246 5.88235294,16.0873953 5.88235294,19.9824561 C5.88235294,23.877517 8.77933397,27.0350877 12.3529412,27.0350877 Z M58.2352941,27.0350877 C61.8089013,27.0350877 64.7058824,23.877517 64.7058824,19.9824561 C64.7058824,16.0873953 61.8089013,12.9298246 58.2352941,12.9298246 C54.6616869,12.9298246 51.7647059,16.0873953 51.7647059,19.9824561 C51.7647059,23.877517 54.6616869,27.0350877 58.2352941,27.0350877 Z M51.4378155,46.8213809 C48.0686407,41.1421689 41.9971243,37.6140351 35.2941176,37.6140351 C28.5669451,37.6140351 22.432801,41.174673 19.0627706,46.815067 C18.3966847,47.9298897 18.7612513,49.3731278 19.8770529,50.0386293 C20.9928544,50.7041309 22.4373596,50.3398841 23.1034454,49.2250613 C25.6332608,44.9909287 30.2418984,42.3157895 35.2941176,42.3157895 C40.3189241,42.3157895 44.8598852,44.9545237 47.3896224,49.2187473 C48.0522181,50.3356444 49.4955769,50.7043996 50.6134545,50.0423851 C51.7313322,49.3803707 52.1004111,47.938278 51.4378155,46.8213809 Z M5.63394632,10.4548528 C5.68038046,10.362066 5.81642812,10.1286797 6.04231034,9.80269156 C6.43798918,9.23165683 6.92537413,8.65616172 7.50162096,8.12154476 C9.45064,6.31332897 11.8761655,5.4132098 14.9613615,5.85356548 C16.2477945,6.03718041 17.4396344,5.14408454 17.6234106,3.85878003 C17.8071867,2.57347552 16.9133067,1.38268103 15.6268738,1.1990661 C11.0371655,0.543968649 7.23093111,1.95647268 4.29949819,4.6761297 C2.85259597,6.01850317 1.91708656,7.36860916 1.42487721,8.35216431 C0.843726023,9.51344708 1.31484212,10.9255556 2.47714446,11.506197 C3.6394468,12.0868384 5.05279513,11.6161356 5.63394632,10.4548528 Z M69.1633581,8.35216431 C68.6711487,7.36860916 67.7356393,6.01850317 66.2887371,4.6761297 C63.3573042,1.95647268 59.5510698,0.543968649 54.9613615,1.1990661 C53.6749286,1.38268103 52.7810486,2.57347552 52.9648247,3.85878003 C53.1486009,5.14408454 54.3404408,6.03718041 55.6268738,5.85356548 C58.7120698,5.4132098 61.1375953,6.31332897 63.0866143,8.12154476 C63.6628612,8.65616172 64.1502461,9.23165683 64.5459249,9.80269156 C64.7718072,10.1286797 64.9078548,10.362066 64.954289,10.4548528 C65.5354402,11.6161356 66.9487885,12.0868384 68.1110908,11.506197 C69.2733932,10.9255556 69.7445093,9.51344708 69.1633581,8.35216431 Z" fill="#000000"></path>
                        <path d="M65.607725,68.6270187 C70.0042796,68.6270187 73.5683912,65.0537877 73.5683912,60.645984 C73.5683912,56.4210526 65.607725,39.9649123 65.607725,39.9649123 C65.607725,39.9649123 57.6470588,56.4210526 57.6470588,60.645984 C57.6470588,65.0537877 61.2111705,68.6270187 65.607725,68.6270187 Z" id="tear" fill="#558DFF"></path>
                    </g>
                </g>
            </g>
        </g>
    </g>
</svg>